<svg width="131" height="32" viewBox="0 0 131 32" fill="none" xmlns="http://www.w3.org/2000/svg">
<g clip-path="url(#clip0_1938_6286)">
<path d="M16.218 16.5936L15.8261 14.516C15.8261 14.4434 15.7771 14.4071 15.6791 14.4071H12.5672C12.4692 14.4071 12.4202 14.4434 12.4202 14.516L12.0283 16.5936C12.012 16.7515 11.9049 16.8313 11.709 16.8313H8.84205C8.62975 16.8313 8.5481 16.7369 8.59709 16.5501L12.1989 1.90704C12.2105 1.83309 12.2507 1.76663 12.3107 1.72187C12.3707 1.67712 12.4458 1.65761 12.52 1.66753H15.8261C15.9006 1.65661 15.9765 1.67568 16.037 1.72057C16.0976 1.76547 16.1378 1.83251 16.149 1.90704L19.7272 16.5501L19.7526 16.6372C19.7526 16.766 19.6619 16.8313 19.4823 16.8313H16.5373C16.3414 16.8313 16.2343 16.7515 16.218 16.5936ZM13.0081 12.0447H15.2128C15.295 12.0447 15.3277 12.0084 15.3107 11.9358L14.1531 6.02233C14.1368 5.97878 14.1114 5.95701 14.0787 5.95701C14.046 5.95701 14.0224 5.97878 14.0061 6.02233L12.9102 11.9358C12.9102 12.0084 12.9428 12.0447 13.0081 12.0447Z" fill="black"/>
<path d="M27.8689 1.74374C27.9264 1.69299 28.0009 1.66578 28.0776 1.66753H30.9209C30.9975 1.66578 31.072 1.69299 31.1295 1.74374C31.156 1.76602 31.1774 1.79379 31.1921 1.82511C31.2068 1.85643 31.2146 1.89058 31.2148 1.92519V16.5718C31.2147 16.6065 31.207 16.6406 31.1923 16.672C31.1775 16.7033 31.1561 16.7311 31.1295 16.7533C31.072 16.804 30.9975 16.8312 30.9209 16.8295H27.6856C27.6157 16.8355 27.5459 16.8173 27.4878 16.778C27.4297 16.7387 27.3868 16.6807 27.3663 16.6136L24.3288 8.23058C24.3245 8.21219 24.3131 8.19621 24.2972 8.18605C24.2813 8.17589 24.262 8.17233 24.2435 8.17614C24.2345 8.17682 24.2258 8.1793 24.2177 8.18344C24.2097 8.18758 24.2026 8.19329 24.1969 8.20023C24.1911 8.20718 24.1868 8.21521 24.1842 8.22385C24.1816 8.2325 24.1808 8.24157 24.1818 8.25054L24.2072 16.57C24.2071 16.6048 24.1992 16.6392 24.1842 16.6706C24.1691 16.702 24.1472 16.7296 24.1201 16.7515C24.0628 16.8025 23.9882 16.8298 23.9115 16.8277H21.07C20.9933 16.8294 20.9188 16.8022 20.8613 16.7515C20.8344 16.7295 20.8128 16.7018 20.7981 16.6704C20.7833 16.639 20.7758 16.6047 20.776 16.57V1.927C20.7759 1.89233 20.7835 1.85806 20.7982 1.82668C20.813 1.7953 20.8345 1.76759 20.8613 1.74555C20.9188 1.69481 20.9933 1.6676 21.07 1.66934H24.2798C24.3498 1.66322 24.4197 1.68158 24.4776 1.7213C24.5355 1.76102 24.5778 1.81962 24.5973 1.88708L27.662 10.2701C27.6658 10.2887 27.6766 10.3052 27.6922 10.3162C27.7078 10.3271 27.727 10.3317 27.7458 10.3289C27.7647 10.3261 27.7817 10.3162 27.7935 10.3012C27.8052 10.2862 27.8108 10.2673 27.809 10.2483L27.7836 1.92882C27.7833 1.89359 27.7908 1.85875 27.8056 1.82676C27.8203 1.79476 27.8419 1.76642 27.8689 1.74374V1.74374Z" fill="black"/>
<path d="M34.0944 15.8896C33.2041 15.1456 32.759 14.1525 32.759 12.9102V5.58866C32.759 4.34754 33.2041 3.35501 34.0944 2.61107C34.9848 1.86712 36.1648 1.49515 37.6345 1.49515C39.1043 1.49515 40.2885 1.87014 41.1873 2.62014C42.0861 3.37013 42.5355 4.3669 42.5355 5.61043V6.43422C42.5354 6.46885 42.5277 6.50303 42.5129 6.53437C42.4982 6.56572 42.4768 6.59346 42.4502 6.61567C42.3927 6.66641 42.3182 6.69362 42.2416 6.69188H39.3746C39.298 6.69362 39.2235 6.66641 39.166 6.61567C39.1394 6.59346 39.118 6.56572 39.1033 6.53437C39.0885 6.50303 39.0808 6.46885 39.0807 6.43422V5.56689C39.0889 5.37446 39.0584 5.18234 38.9911 5.00189C38.9238 4.82144 38.821 4.65632 38.6888 4.51629C38.5501 4.38049 38.3849 4.27477 38.2035 4.20577C38.0221 4.13677 37.8284 4.10596 37.6345 4.11529C37.4447 4.10753 37.2552 4.13915 37.0782 4.20816C36.9011 4.27718 36.7403 4.38209 36.6057 4.51629C36.4735 4.65632 36.3707 4.82144 36.3033 5.00189C36.236 5.18234 36.2056 5.37446 36.2138 5.56689V12.9319C36.2054 13.1244 36.2357 13.3166 36.3031 13.497C36.3704 13.6775 36.4733 13.8426 36.6057 13.9825C36.7403 14.1167 36.9011 14.2217 37.0782 14.2907C37.2552 14.3597 37.4447 14.3913 37.6345 14.3835C37.8284 14.3929 38.0221 14.3621 38.2035 14.2931C38.3849 14.2241 38.5501 14.1183 38.6888 13.9825C38.8212 13.8426 38.9241 13.6775 38.9914 13.497C39.0588 13.3166 39.0891 13.1244 39.0807 12.9319V11.1991C39.0807 11.1265 39.039 11.0902 38.9573 11.0902H37.8795C37.803 11.0927 37.7285 11.0661 37.6708 11.0158C37.6444 10.9935 37.6232 10.9657 37.6084 10.9344C37.5937 10.9031 37.5859 10.869 37.5855 10.8344V8.90375C37.5859 8.86916 37.5937 8.83506 37.6084 8.80375C37.6232 8.77244 37.6444 8.74467 37.6708 8.7223C37.7283 8.67156 37.8028 8.64434 37.8795 8.64609H42.2343C42.311 8.64434 42.3855 8.67156 42.443 8.7223C42.4693 8.74467 42.4906 8.77244 42.5053 8.80375C42.5201 8.83506 42.5279 8.86916 42.5282 8.90375V12.9102C42.5282 14.1525 42.0788 15.1456 41.1801 15.8896C40.2813 16.6335 39.097 17.0049 37.6273 17.0037C36.1624 17.0037 34.9848 16.6323 34.0944 15.8896Z" fill="black"/>
<path d="M45.3407 15.7862C44.4492 14.9696 44.004 13.8809 44.0053 12.5201V1.92701C44.0055 1.89222 44.0134 1.8579 44.0285 1.82653C44.0435 1.79516 44.0653 1.76751 44.0923 1.74556C44.149 1.69462 44.223 1.66734 44.2992 1.66935H47.177C47.2531 1.66771 47.327 1.69494 47.3839 1.74556C47.4109 1.76751 47.4327 1.79516 47.4477 1.82653C47.4628 1.8579 47.4707 1.89222 47.4709 1.92701V12.8231C47.453 13.2349 47.5932 13.6381 47.8629 13.9499C47.9921 14.0931 48.1513 14.2062 48.3291 14.2811C48.5068 14.356 48.6989 14.391 48.8917 14.3836C49.0828 14.3925 49.2734 14.3581 49.4494 14.283C49.6253 14.2079 49.782 14.094 49.9078 13.9499C50.1712 13.6351 50.3071 13.2331 50.2889 12.8231V1.93609C50.2888 1.90141 50.2963 1.86715 50.3111 1.83577C50.3258 1.80439 50.3474 1.77668 50.3741 1.75464C50.4315 1.70357 50.5061 1.67632 50.5828 1.67843H53.4497C53.5264 1.67668 53.6009 1.70389 53.6584 1.75464C53.6849 1.77692 53.7062 1.80468 53.7209 1.83601C53.7357 1.86733 53.7434 1.90148 53.7437 1.93609V12.5201C53.7437 13.8785 53.2985 14.9672 52.4082 15.7862C51.5179 16.6051 50.3427 17.011 48.8826 17.0037C47.4129 17.0037 46.2322 16.5979 45.3407 15.7862Z" fill="black"/>
<path d="M61.9924 16.5936L61.6005 14.516C61.6005 14.4434 61.5515 14.4071 61.4535 14.4071H58.3416C58.2436 14.4071 58.1947 14.4434 58.1947 14.516L57.8027 16.5954C57.7864 16.7533 57.6793 16.8331 57.4834 16.8331H54.6165C54.4042 16.8331 54.3225 16.7388 54.3715 16.5519L57.9733 1.90886C57.985 1.83527 58.0248 1.7691 58.0844 1.72439C58.144 1.67968 58.2187 1.65994 58.2926 1.66935H61.6005C61.6742 1.65997 61.7486 1.67977 61.808 1.72452C61.8673 1.76926 61.9068 1.83541 61.918 1.90886L65.5035 16.5501L65.5289 16.6372C65.5289 16.766 65.4381 16.8313 65.2585 16.8313H62.319C62.1158 16.8313 62.0087 16.7515 61.9924 16.5936ZM58.7898 12.0447H60.9944C61.0761 12.0447 61.1087 12.0084 61.0942 11.9358L59.942 6.02233C59.9257 5.97879 59.9003 5.95701 59.8676 5.95701C59.835 5.95701 59.8114 5.97879 59.795 6.02233L58.6918 11.9358C58.687 12.0084 58.7197 12.0447 58.7898 12.0447Z" fill="black"/>
<path d="M67.1746 15.8896C66.2843 15.1456 65.8391 14.1525 65.8391 12.9102V5.58866C65.8391 4.34754 66.2843 3.35501 67.1746 2.61107C68.0649 1.86712 69.2455 1.49515 70.7165 1.49515C72.1862 1.49515 73.3705 1.87014 74.2693 2.62014C75.1681 3.37013 75.6174 4.3669 75.6174 5.61043V6.43422C75.6173 6.46903 75.6095 6.50339 75.5944 6.53478C75.5793 6.56617 75.5575 6.5938 75.5304 6.61567C75.4735 6.66629 75.3996 6.69352 75.3235 6.69188H72.4548C72.3786 6.69389 72.3046 6.66661 72.2479 6.61567C72.2208 6.5938 72.1989 6.56617 72.1839 6.53478C72.1688 6.50339 72.1609 6.46903 72.1608 6.43422V5.56689C72.169 5.37446 72.1386 5.18234 72.0713 5.00189C72.0039 4.82144 71.9011 4.65632 71.7689 4.51629C71.6306 4.38054 71.4657 4.27484 71.2846 4.20583C71.1035 4.13682 70.9101 4.106 70.7165 4.11529C70.5263 4.10728 70.3365 4.13877 70.1591 4.20779C69.9818 4.27681 69.8206 4.38186 69.6858 4.51629C69.5536 4.65632 69.4508 4.82144 69.3835 5.00189C69.3162 5.18234 69.2857 5.37446 69.2939 5.56689V12.9319C69.2855 13.1244 69.3159 13.3166 69.3832 13.497C69.4505 13.6775 69.5534 13.8426 69.6858 13.9825C69.8206 14.117 69.9818 14.222 70.1591 14.291C70.3365 14.3601 70.5263 14.3916 70.7165 14.3835C70.9101 14.3928 71.1035 14.362 71.2846 14.293C71.4657 14.224 71.6306 14.1183 71.7689 13.9825C71.9013 13.8426 72.0042 13.6775 72.0716 13.497C72.1389 13.3166 72.1692 13.1244 72.1608 12.9319V11.1991C72.1608 11.1265 72.1209 11.0902 72.0393 11.0902H70.9614C70.885 11.0928 70.8104 11.0662 70.7528 11.0158C70.7261 10.9937 70.7046 10.966 70.6899 10.9346C70.6752 10.9033 70.6675 10.869 70.6675 10.8344V8.90375C70.6675 8.8691 70.6752 8.83488 70.6899 8.80351C70.7046 8.77215 70.7261 8.74443 70.7528 8.7223C70.8101 8.67124 70.8847 8.64398 70.9614 8.64609H75.3162C75.3923 8.64444 75.4663 8.67167 75.5231 8.7223C75.55 8.74433 75.5718 8.772 75.5868 8.80335C75.6018 8.8347 75.6098 8.86898 75.6102 8.90375V12.9102C75.6102 14.1525 75.1608 15.1456 74.262 15.8896C73.3632 16.6335 72.179 17.0049 70.7092 17.0037C69.2431 17.0037 68.0649 16.6323 67.1746 15.8896Z" fill="black"/>
<path d="M86.069 4.21326C86.0115 4.26401 85.937 4.29122 85.8603 4.28947H80.7453C80.6636 4.28947 80.6237 4.32576 80.6237 4.39653V7.82049C80.6237 7.89307 80.6636 7.92754 80.7453 7.92754H83.6866C83.7632 7.9258 83.8377 7.95301 83.8952 8.00375C83.9216 8.02612 83.9429 8.0539 83.9576 8.0852C83.9723 8.11651 83.9801 8.15061 83.9805 8.1852V10.29C83.9804 10.3247 83.9727 10.3588 83.9579 10.3902C83.9432 10.4215 83.9218 10.4493 83.8952 10.4715C83.8377 10.5222 83.7632 10.5494 83.6866 10.5477H80.7453C80.6636 10.5477 80.6237 10.584 80.6237 10.6566V14.1041C80.6237 14.1767 80.6636 14.213 80.7453 14.213H85.8676C85.9441 14.2105 86.0186 14.2371 86.0763 14.2874C86.1027 14.3097 86.1239 14.3375 86.1386 14.3688C86.1534 14.4001 86.1612 14.4342 86.1615 14.4688V16.5718C86.1614 16.6065 86.1537 16.6406 86.139 16.672C86.1242 16.7033 86.1028 16.7311 86.0763 16.7533C86.0188 16.804 85.9443 16.8312 85.8676 16.8295H77.4556C77.3788 16.8316 77.3042 16.8043 77.2469 16.7533C77.22 16.7313 77.1984 16.7036 77.1837 16.6722C77.1689 16.6408 77.1614 16.6065 77.1616 16.5718V1.92699C77.1615 1.89232 77.1691 1.85806 77.1839 1.82668C77.1986 1.79529 77.2201 1.76758 77.2469 1.74554C77.3042 1.69448 77.3788 1.66722 77.4556 1.66933H85.8603C85.937 1.66759 86.0115 1.6948 86.069 1.74554C86.0955 1.76783 86.1168 1.79559 86.1315 1.82692C86.1463 1.85824 86.154 1.89238 86.1543 1.92699V4.02818C86.1544 4.06339 86.1469 4.09819 86.1321 4.13017C86.1174 4.16214 86.0959 4.1905 86.069 4.21326V4.21326Z" fill="black"/>
<path d="M92.1439 16.7551C92.1174 16.7329 92.096 16.7051 92.0812 16.6738C92.0665 16.6425 92.0588 16.6083 92.0587 16.5736V1.927C92.0589 1.89239 92.0667 1.85825 92.0814 1.82693C92.0961 1.7956 92.1175 1.76784 92.1439 1.74555C92.2025 1.69284 92.2793 1.66488 92.358 1.66753H95.225C95.3016 1.66578 95.3761 1.69299 95.4336 1.74374C95.4604 1.76578 95.4819 1.79349 95.4967 1.82487C95.5114 1.85625 95.519 1.89052 95.5189 1.92519V14.1005C95.5189 14.1731 95.5606 14.2094 95.6423 14.2094H100.788C100.865 14.2069 100.939 14.2335 100.997 14.2837C101.023 14.3061 101.045 14.3339 101.059 14.3652C101.074 14.3965 101.082 14.4306 101.082 14.4652V16.5718C101.082 16.6065 101.074 16.6406 101.06 16.672C101.045 16.7033 101.023 16.7311 100.997 16.7533C100.939 16.804 100.865 16.8312 100.788 16.8295H92.358C92.2798 16.8331 92.2031 16.8065 92.1439 16.7551V16.7551Z" fill="black"/>
<path d="M102.216 16.7551C102.189 16.7331 102.168 16.7054 102.153 16.674C102.138 16.6426 102.131 16.6083 102.131 16.5736V1.92699C102.131 1.89232 102.138 1.85806 102.153 1.82668C102.168 1.79529 102.189 1.76758 102.216 1.74554C102.274 1.69448 102.348 1.66722 102.425 1.66933H105.292C105.368 1.66759 105.443 1.6948 105.5 1.74554C105.527 1.76783 105.548 1.79559 105.563 1.82692C105.578 1.85824 105.585 1.89238 105.586 1.92699V16.5718C105.586 16.6065 105.578 16.6406 105.563 16.672C105.548 16.7033 105.527 16.7311 105.5 16.7533C105.443 16.804 105.368 16.8312 105.292 16.8295H102.425C102.348 16.8321 102.274 16.8055 102.216 16.7551Z" fill="black"/>
<path d="M114.495 1.74373C114.552 1.69251 114.627 1.66523 114.704 1.66752H117.543C117.62 1.66578 117.694 1.69299 117.752 1.74373C117.778 1.76602 117.8 1.79378 117.815 1.8251C117.829 1.85643 117.837 1.89057 117.837 1.92518V16.5718C117.837 16.6065 117.829 16.6406 117.815 16.672C117.8 16.7033 117.779 16.7311 117.752 16.7533C117.694 16.804 117.62 16.8312 117.543 16.8295H114.313C114.244 16.8357 114.174 16.8176 114.116 16.7782C114.058 16.7389 114.016 16.6807 113.996 16.6136L110.957 8.23057C110.952 8.21218 110.941 8.19621 110.925 8.18604C110.909 8.17588 110.89 8.17232 110.871 8.17613C110.862 8.17681 110.854 8.17929 110.846 8.18343C110.838 8.18757 110.83 8.19328 110.825 8.20023C110.819 8.20717 110.815 8.2152 110.812 8.22385C110.81 8.23249 110.809 8.24156 110.81 8.25053L110.835 16.57C110.835 16.6048 110.827 16.6392 110.812 16.6706C110.797 16.702 110.775 16.7296 110.748 16.7515C110.691 16.8024 110.617 16.8297 110.541 16.8277H107.692C107.616 16.8294 107.541 16.8022 107.484 16.7515C107.457 16.7293 107.436 16.7015 107.421 16.6702C107.406 16.6388 107.399 16.6046 107.398 16.57V1.927C107.399 1.89239 107.406 1.85824 107.421 1.82692C107.436 1.79559 107.457 1.76783 107.484 1.74555C107.541 1.6948 107.616 1.66759 107.692 1.66934H110.902C110.972 1.66313 111.043 1.68143 111.101 1.72112C111.159 1.76082 111.202 1.81946 111.222 1.88708L114.284 10.2701C114.286 10.2793 114.29 10.288 114.295 10.2958C114.301 10.3035 114.308 10.3102 114.316 10.3152C114.324 10.3203 114.332 10.3237 114.342 10.3253C114.351 10.3269 114.361 10.3266 114.37 10.3245C114.379 10.3236 114.388 10.3209 114.396 10.3166C114.404 10.3122 114.411 10.3064 114.417 10.2993C114.422 10.2922 114.427 10.284 114.429 10.2753C114.432 10.2665 114.432 10.2574 114.431 10.2483L114.406 1.92881C114.406 1.89326 114.414 1.85814 114.429 1.82609C114.445 1.79404 114.467 1.76589 114.495 1.74373V1.74373Z" fill="black"/>
<path d="M119.712 16.7551C119.685 16.7329 119.664 16.7051 119.649 16.6738C119.634 16.6425 119.626 16.6083 119.626 16.5736V1.927C119.627 1.89239 119.634 1.85824 119.649 1.82692C119.664 1.7956 119.685 1.76783 119.712 1.74555C119.769 1.6948 119.844 1.66759 119.92 1.66934H122.787C122.864 1.66759 122.938 1.6948 122.996 1.74555C123.022 1.76783 123.044 1.7956 123.058 1.82692C123.073 1.85824 123.081 1.89239 123.081 1.927V7.38683C123.081 7.44489 123.101 7.47755 123.143 7.48481C123.185 7.49207 123.212 7.46667 123.228 7.4086L126.389 1.86349C126.423 1.80287 126.473 1.75264 126.533 1.71813C126.594 1.68362 126.662 1.66613 126.732 1.66752H129.771C129.813 1.6622 129.856 1.66627 129.896 1.67945C129.936 1.69263 129.973 1.71459 130.003 1.74373C130.045 1.79454 130.042 1.87075 129.993 1.97055L126.364 8.21061C126.35 8.25237 126.341 8.29563 126.338 8.33944L130.187 16.5283C130.205 16.5693 130.213 16.6141 130.21 16.6589C130.21 16.7732 130.129 16.8404 129.965 16.8404H126.904C126.834 16.8501 126.762 16.8363 126.7 16.8013C126.638 16.7662 126.589 16.7117 126.561 16.6462L124.021 10.9705C124.005 10.9269 123.981 10.9088 123.948 10.916C123.912 10.9255 123.878 10.9443 123.85 10.9705L123.139 12.0955C123.113 12.1347 123.096 12.1794 123.09 12.2261V16.5809C123.09 16.6155 123.082 16.6497 123.068 16.6811C123.053 16.7124 123.032 16.7401 123.005 16.7623C122.947 16.8131 122.873 16.8403 122.796 16.8386H119.92C119.843 16.8383 119.768 16.8085 119.712 16.7551V16.7551Z" fill="black"/>
<path d="M39.8283 31.556L42.2778 25.1707H0.81834C0.601302 25.1707 0.393154 25.0845 0.239686 24.9311C0.0862177 24.7776 0 24.5694 0 24.3524L0 0H4.0917V21.079H47.2659C47.3061 21.0792 47.3456 21.0891 47.3811 21.108C47.4165 21.1269 47.4468 21.1542 47.4694 21.1874C47.4919 21.2207 47.506 21.2589 47.5103 21.2989C47.5147 21.3388 47.5093 21.3792 47.4945 21.4165L46.0302 25.0728L50.8405 21.8067C51.4196 21.4154 52.103 21.2074 52.8019 21.2097H62.2555V25.2996H54.4223C53.5707 25.2994 52.7316 25.5048 51.9764 25.8984L40.389 31.9352C40.3288 31.977 40.2574 31.9995 40.1842 32C40.111 32.0004 40.0393 31.9787 39.9787 31.9377C39.918 31.8967 39.8712 31.8383 39.8443 31.7701C39.8175 31.702 39.8119 31.6273 39.8283 31.556V31.556Z" fill="#ED1C24"/>
</g>
<defs>
<clipPath id="clip0_1938_6286">
<rect width="131" height="32" fill="white"/>
</clipPath>
</defs>
</svg>
