<svg width="112" height="32" viewBox="0 0 112 32" fill="none" xmlns="http://www.w3.org/2000/svg">
<path d="M25.1934 14.2425C25.1934 13.8871 25.0521 13.5462 24.8003 13.2943C24.5486 13.0425 24.207 12.9002 23.8503 12.8986C23.6751 12.899 23.5018 12.935 23.341 13.0043C20.9471 13.346 12.3623 14.434 9.71612 12.9077C6.97299 11.3324 3.48061 2.85975 2.7329 0.97949C2.71263 0.910486 2.6853 0.843733 2.65136 0.780277C2.61136 0.668411 2.58521 0.607115 2.58521 0.607115C2.47785 0.443114 2.33566 0.304582 2.16868 0.201299C2.00169 0.0980149 1.81399 0.0324965 1.6188 0.00936783C1.42362 -0.0137608 1.22572 0.00606408 1.03906 0.0674432C0.852413 0.128822 0.681562 0.23026 0.538571 0.364595C0.395581 0.498931 0.283935 0.66289 0.211515 0.8449C0.139095 1.02691 0.107666 1.22254 0.119446 1.41797C0.131226 1.6134 0.185928 1.80387 0.279691 1.97594C0.373454 2.14802 0.503993 2.29749 0.662094 2.41382C2.14212 4.28949 7.40838 11.1746 7.40838 14.2164C7.40838 17.7655 0.285163 26.5247 0.285163 26.5247L0.208238 26.6259C0.111463 26.7789 0.0465949 26.9498 0.0174944 27.1284C-0.0116062 27.3069 -0.00434407 27.4895 0.0388484 27.6652C0.0820409 27.8409 0.160281 28.0061 0.268911 28.1511C0.377542 28.296 0.514342 28.4177 0.67117 28.509C0.827997 28.6002 1.00165 28.659 1.18178 28.682C1.36191 28.705 1.54485 28.6917 1.7197 28.6428C1.89456 28.5939 2.05775 28.5105 2.19957 28.3975C2.34139 28.2845 2.45893 28.1443 2.54521 27.9851C2.56526 27.9477 2.58224 27.9088 2.59598 27.8686C2.59598 27.8686 6.66683 17.3303 9.71612 15.5603C12.4146 14.008 21.2856 15.1696 23.4595 15.4837C23.5842 15.5239 23.7145 15.5446 23.8456 15.545H23.9164C24.255 15.5242 24.5727 15.3748 24.804 15.1277C25.0353 14.8805 25.1625 14.5543 25.1595 14.2164" fill="#EA242A"/>
<path d="M18.7394 21.8279C19.2171 22.0874 19.6096 22.4784 19.8702 22.9542C20.1409 23.4603 20.2775 24.0267 20.2671 24.6C20.2671 25.5195 19.9851 26.2596 19.421 26.8205C18.8568 27.3813 18.1178 27.6597 17.204 27.6556H15.9347C15.8778 27.6556 15.8501 27.6802 15.8501 27.7307V31.6951C15.8503 31.719 15.8451 31.7427 15.835 31.7644C15.8249 31.7861 15.8101 31.8054 15.7916 31.8207C15.7518 31.8557 15.7001 31.8744 15.647 31.8728H13.6624C13.6093 31.8744 13.5576 31.8557 13.5178 31.8207C13.4993 31.8054 13.4845 31.7861 13.4744 31.7644C13.4643 31.7427 13.4591 31.719 13.4593 31.6951V21.6057C13.4591 21.5815 13.4643 21.5576 13.4744 21.5356C13.4845 21.5137 13.4993 21.4942 13.5178 21.4785C13.5576 21.4435 13.6093 21.4249 13.6624 21.4264H17.0809C17.6591 21.4165 18.2302 21.5548 18.7394 21.8279ZM17.5471 25.6589C17.78 25.3771 17.8975 25.0181 17.8763 24.6536C17.9017 24.2779 17.7842 23.9065 17.5471 23.6131C17.4386 23.4903 17.304 23.393 17.1532 23.3284C17.0023 23.2637 16.8389 23.2332 16.6747 23.2392H15.9301C15.8732 23.2392 15.8455 23.2653 15.8455 23.3143V25.9424C15.8455 25.9914 15.8732 26.016 15.9301 26.016H16.6747C16.8381 26.0226 17.0009 25.9933 17.1516 25.9303C17.3024 25.8673 17.4374 25.772 17.5471 25.6512V25.6589Z" fill="black"/>
<path d="M25.5272 31.7242L24.2241 27.6112C24.217 27.5944 24.2053 27.5799 24.1904 27.5693C24.1754 27.5588 24.1578 27.5526 24.1395 27.5515H23.5626C23.5057 27.5515 23.478 27.576 23.478 27.6265V31.6951C23.4786 31.7193 23.4735 31.7432 23.4631 31.7651C23.4527 31.7869 23.4372 31.806 23.418 31.8207C23.3787 31.8557 23.3275 31.8743 23.2749 31.8728H21.2964C21.2433 31.8744 21.1916 31.8558 21.1518 31.8207C21.1328 31.8058 21.1176 31.7867 21.1075 31.7649C21.0973 31.743 21.0925 31.7191 21.0933 31.6951V21.621C21.0925 21.597 21.0973 21.5731 21.1075 21.5513C21.1176 21.5294 21.1328 21.5103 21.1518 21.4954C21.1916 21.4604 21.2433 21.4417 21.2964 21.4433H24.7149C25.2922 21.4331 25.8628 21.5686 26.3734 21.8371C26.8485 22.0915 27.2396 22.4774 27.4996 22.9481C27.7708 23.4517 27.9075 24.0164 27.8965 24.5878C27.9079 25.1284 27.7769 25.6626 27.5165 26.137C27.2695 26.5773 26.9025 26.9391 26.458 27.1806C26.4382 27.1882 26.4206 27.2009 26.4072 27.2174C26.402 27.2251 26.3991 27.2341 26.3991 27.2434C26.3991 27.2527 26.402 27.2618 26.4072 27.2695L27.9642 31.666L27.9811 31.7257C27.9811 31.8253 27.9196 31.879 27.795 31.879H25.7642C25.7127 31.8848 25.6609 31.8725 25.6176 31.8442C25.5743 31.816 25.5424 31.7735 25.5272 31.7242ZM23.4795 23.3189V25.8673C23.4795 25.9179 23.5072 25.9424 23.5641 25.9424H24.3334C24.4942 25.9474 24.6541 25.9172 24.8019 25.8539C24.9497 25.7906 25.0817 25.6958 25.1888 25.5762C25.419 25.3042 25.5367 24.9553 25.518 24.6C25.5379 24.2405 25.4203 23.8867 25.1888 23.6101C25.0817 23.4905 24.9497 23.3957 24.8019 23.3324C24.6541 23.2691 24.4942 23.2389 24.3334 23.2439H23.5641C23.5072 23.2439 23.4795 23.2699 23.4795 23.3189Z" fill="black"/>
<path d="M29.5719 31.1878C28.9504 30.6515 28.6401 29.9364 28.6411 29.0425V24.2721C28.6411 23.3782 28.9514 22.6631 29.5719 22.1267C30.1924 21.5904 31.0217 21.3222 32.0596 21.3222C33.0986 21.3222 33.931 21.5904 34.5566 22.1267C35.1823 22.6631 35.4951 23.3782 35.4951 24.2721V29.0425C35.4951 29.9354 35.1823 30.6505 34.5566 31.1878C33.931 31.7252 33.0986 31.9934 32.0596 31.9924C31.0217 31.9924 30.1924 31.7242 29.5719 31.1878ZM32.8212 29.896C32.9183 29.7941 32.9939 29.6737 33.0433 29.5421C33.0927 29.4104 33.1151 29.2702 33.1089 29.1298V24.1832C33.1151 24.0428 33.0927 23.9026 33.0433 23.771C32.9939 23.6393 32.9183 23.5189 32.8212 23.417C32.72 23.3184 32.5994 23.2418 32.467 23.192C32.3346 23.1421 32.1933 23.1201 32.052 23.1274C31.9132 23.1206 31.7746 23.1429 31.645 23.1928C31.5154 23.2426 31.3977 23.319 31.2996 23.417C31.1087 23.6257 31.0081 23.9011 31.0196 24.1832V29.1298C31.0081 29.412 31.1087 29.6873 31.2996 29.896C31.3977 29.994 31.5154 30.0704 31.645 30.1203C31.7746 30.1702 31.9132 30.1924 32.052 30.1856C32.1933 30.1929 32.3346 30.1709 32.467 30.1211C32.5994 30.0712 32.72 29.9946 32.8212 29.896Z" fill="black"/>
<path d="M42.7398 21.5904V22.5297C42.7398 22.6293 42.6829 22.683 42.5706 22.683H40.3536C40.3075 22.683 40.2859 22.7029 40.2859 22.7427V31.7288C40.2859 31.8284 40.229 31.882 40.1167 31.882H38.8305C38.7167 31.882 38.6613 31.833 38.6613 31.7288V22.7381C38.6613 22.6983 38.6382 22.6784 38.5936 22.6784H36.4936C36.3813 22.6784 36.3259 22.6293 36.3259 22.5251V21.5904C36.3259 21.4908 36.3813 21.4371 36.4936 21.4371H42.5706C42.6829 21.4417 42.7398 21.4908 42.7398 21.5904Z" fill="black"/>
<path d="M48.5461 31.7548L46.9892 27.3108C46.984 27.2973 46.9747 27.2857 46.9626 27.2777C46.9504 27.2697 46.936 27.2658 46.9215 27.2664H45.7353C45.6907 27.2664 45.6676 27.2863 45.6676 27.3261V31.7226C45.6676 31.8222 45.6122 31.8759 45.4984 31.8759H44.2122C44.0999 31.8759 44.043 31.8268 44.043 31.7226V21.5903C44.043 21.4907 44.0999 21.4371 44.2122 21.4371H47.243C47.7747 21.4263 48.2999 21.5547 48.7661 21.8095C49.2026 22.0533 49.5581 22.4186 49.7892 22.8607C50.0378 23.3363 50.1632 23.8662 50.1539 24.4023C50.1692 24.9783 50.0175 25.5466 49.7169 26.0389C49.4332 26.4921 49.0125 26.8441 48.5154 27.0442C48.4815 27.0748 48.4692 27.1039 48.4815 27.1346L50.2077 31.7088L50.2246 31.7686C50.2246 31.8391 50.1739 31.8728 50.0708 31.8728H48.7508C48.7084 31.8778 48.6656 31.8691 48.6287 31.8478C48.5918 31.8265 48.5628 31.7939 48.5461 31.7548ZM45.6676 22.7381V26.0757C45.6676 26.1155 45.6907 26.1355 45.7353 26.1355H46.9892C47.1985 26.1434 47.4069 26.1055 47.5999 26.0245C47.7929 25.9435 47.9657 25.8213 48.1061 25.6665C48.4 25.3199 48.5512 24.8754 48.5292 24.4222C48.5546 23.9593 48.4035 23.5039 48.1061 23.1473C47.9657 22.9925 47.7929 22.8703 47.5999 22.7893C47.4069 22.7083 47.1985 22.6704 46.9892 22.6783H45.7353C45.6907 22.6783 45.6676 22.6937 45.6676 22.7381Z" fill="black"/>
<path d="M56.0771 31.7349L55.7048 30.0202C55.7048 30.0113 55.7026 30.0025 55.6983 29.9947C55.694 29.987 55.6877 29.9804 55.6802 29.9757C55.6617 29.9661 55.641 29.9614 55.6202 29.9619H52.8616C52.8408 29.9614 52.8201 29.9661 52.8016 29.9757C52.7938 29.9802 52.7874 29.9867 52.7831 29.9945C52.7788 30.0023 52.7767 30.0112 52.777 30.0202L52.4216 31.7349C52.4093 31.8238 52.3478 31.8682 52.2355 31.8682H50.9477C50.9245 31.8704 50.9011 31.8675 50.8791 31.8598C50.857 31.8522 50.8369 31.8399 50.8201 31.8238C50.8058 31.8077 50.7961 31.7883 50.7918 31.7673C50.7874 31.7463 50.7887 31.7246 50.7954 31.7043L53.317 21.5705C53.3256 21.529 53.3495 21.4923 53.384 21.4676C53.4185 21.4429 53.461 21.432 53.5032 21.4371H55.0094C55.1217 21.4371 55.1848 21.4816 55.1955 21.5705L57.734 31.7043V31.7349C57.734 31.8238 57.6828 31.8682 57.5802 31.8682H56.2602C56.2186 31.8722 56.1769 31.8608 56.1432 31.8362C56.1095 31.8116 56.0859 31.7756 56.0771 31.7349ZM53.1155 28.8233H55.3663C55.4001 28.8233 55.4171 28.805 55.4171 28.7636L54.2663 23.4737C54.254 23.4538 54.2432 23.4446 54.2324 23.4446C54.2217 23.4446 54.2094 23.4538 54.1986 23.4737L53.0647 28.7636C53.0647 28.8141 53.0816 28.8325 53.1155 28.8325V28.8233Z" fill="black"/>
<path d="M63.6942 21.4417H64.9634C65.0757 21.4417 65.1326 21.4907 65.1326 21.5949V31.7287C65.1326 31.8284 65.0757 31.882 64.9634 31.882H63.508C63.4683 31.8849 63.4288 31.875 63.3953 31.8537C63.3617 31.8325 63.336 31.801 63.3218 31.764L60.4433 24.9524C60.4392 24.9431 60.4317 24.9356 60.4222 24.9316C60.4128 24.9276 60.4022 24.9274 60.3926 24.931C60.3695 24.931 60.3587 24.9478 60.3587 24.9678L60.3756 31.7333C60.3756 31.833 60.3187 31.8866 60.2064 31.8866H58.9202C58.8079 31.8866 58.751 31.8376 58.751 31.7333V21.5903C58.751 21.4907 58.8079 21.4371 58.9202 21.4371H60.3587C60.3985 21.4343 60.4382 21.4444 60.4718 21.466C60.5053 21.4875 60.531 21.5193 60.5449 21.5566L63.4388 28.3666C63.4511 28.3958 63.468 28.4096 63.4895 28.4034C63.5111 28.3973 63.5249 28.382 63.5249 28.3513V21.5903C63.5249 21.4907 63.5803 21.4417 63.6942 21.4417Z" fill="black"/>
<path d="M67.3911 31.2552C67.121 31.0127 66.9076 30.7141 66.7659 30.3805C66.6242 30.0469 66.5577 29.6864 66.5711 29.3244V28.9382C66.5711 28.8386 66.6265 28.785 66.7404 28.785H67.9927C68.105 28.785 68.1619 28.8356 68.1619 28.9382V29.2447C68.1416 29.6463 68.2815 30.0396 68.5512 30.3388C68.6788 30.474 68.8338 30.5806 69.006 30.6514C69.1781 30.7222 69.3635 30.7557 69.5497 30.7495C69.7358 30.7553 69.9212 30.7233 70.0944 30.6553C70.2677 30.5873 70.4252 30.4849 70.5574 30.3542C70.7766 30.1137 70.9129 29.8097 70.9464 29.4866C70.9799 29.1635 70.9088 28.8382 70.7435 28.5582C70.5931 28.3312 70.4041 28.1321 70.1851 27.9697C69.9522 27.7971 69.5768 27.5417 69.0589 27.2035C68.5911 26.9042 68.1392 26.5809 67.705 26.2351C67.374 25.9629 67.0933 25.6351 66.8758 25.2666C66.6433 24.8639 66.5262 24.4054 66.5373 23.941C66.5373 23.135 66.8081 22.4965 67.3496 22.0255C67.8912 21.5546 68.5963 21.3186 69.465 21.3176C70.3686 21.3176 71.0938 21.573 71.6405 22.0838C71.9118 22.3384 72.1253 22.6479 72.2668 22.9915C72.4082 23.3351 72.4742 23.7048 72.4605 24.0759V24.4483C72.4605 24.5479 72.4036 24.6015 72.2912 24.6015H71.0389C70.9266 24.6015 70.8697 24.5525 70.8697 24.4483V24.0468C70.8864 23.6522 70.7466 23.2668 70.4804 22.9741C70.2171 22.719 69.8667 22.5724 69.4995 22.5639C69.1322 22.5554 68.7753 22.6855 68.5004 22.9281C68.3714 23.064 68.2717 23.2249 68.2077 23.4007C68.1436 23.5765 68.1166 23.7636 68.1281 23.9502C68.1176 24.3206 68.251 24.6806 68.5004 24.9555C68.7486 25.2283 69.2281 25.5935 69.9389 26.0512C70.6158 26.4986 71.1287 26.8613 71.4774 27.1392C71.7991 27.3922 72.0691 27.7043 72.2728 28.0586C72.4663 28.423 72.5623 28.831 72.5513 29.2432C72.5513 30.0778 72.2748 30.746 71.722 31.2476C71.1692 31.7492 70.4471 32 69.5558 32C68.6614 31.9949 67.9399 31.7466 67.3911 31.2552Z" fill="black"/>
<path d="M73.9328 31.7242V21.5904C73.9328 21.4908 73.9897 21.4371 74.102 21.4371H75.3898C75.5021 21.4371 75.559 21.4862 75.559 21.5904V30.5764C75.559 30.6163 75.5805 30.6362 75.6267 30.6362H79.4175C79.5298 30.6362 79.5868 30.6867 79.5868 30.7894V31.7288C79.5868 31.8284 79.5298 31.882 79.4175 31.882H74.102C73.9897 31.8728 73.9328 31.8238 73.9328 31.7242Z" fill="black"/>
<path d="M85.5946 31.7349L85.2223 30.0201C85.2226 30.0112 85.2205 30.0023 85.2162 29.9945C85.2118 29.9866 85.2054 29.9801 85.1976 29.9757C85.1791 29.9661 85.1585 29.9613 85.1376 29.9619H82.3791C82.3583 29.9615 82.3377 29.9663 82.3191 29.9757C82.3113 29.9801 82.3049 29.9866 82.3006 29.9945C82.2963 30.0023 82.2941 30.0112 82.2945 30.0201L81.9391 31.7349C81.9268 31.8238 81.8653 31.8682 81.753 31.8682H80.4668C80.4435 31.8703 80.4201 31.8675 80.3981 31.8598C80.3761 31.8521 80.3559 31.8398 80.3391 31.8238C80.3251 31.8076 80.3155 31.7881 80.3112 31.7672C80.3069 31.7463 80.308 31.7246 80.3145 31.7042L82.8361 21.5704C82.845 21.5292 82.8689 21.4927 82.9033 21.468C82.9377 21.4434 82.9801 21.4324 83.0222 21.4371H84.5284C84.6407 21.4371 84.7038 21.4816 84.7146 21.5704L87.2561 31.7088V31.7395C87.2561 31.8284 87.2049 31.8728 87.1023 31.8728H85.7823C85.7393 31.8778 85.696 31.8663 85.6611 31.8407C85.6263 31.8151 85.6025 31.7773 85.5946 31.7349ZM82.633 28.8233H84.8838C84.9176 28.8233 84.9346 28.8049 84.9346 28.7635L83.7838 23.4737C83.773 23.4538 83.7607 23.4446 83.7499 23.4446C83.7392 23.4446 83.7268 23.4538 83.7161 23.4737L82.5822 28.7635C82.5822 28.8141 82.5991 28.8325 82.6407 28.8325L82.633 28.8233Z" fill="black"/>
<path d="M93.1271 21.5904V22.5297C93.1271 22.6293 93.0701 22.683 92.9578 22.683H90.7409C90.6947 22.683 90.6732 22.7029 90.6732 22.7427V31.7288C90.6732 31.8284 90.6162 31.882 90.5039 31.882H89.2162C89.1039 31.882 89.047 31.833 89.047 31.7288V22.7381C89.047 22.6983 89.0254 22.6784 88.9793 22.6784H86.8808C86.7685 22.6784 86.7115 22.6293 86.7115 22.5251V21.5904C86.7115 21.4908 86.7685 21.4371 86.8808 21.4371H92.9578C93.0701 21.4417 93.1271 21.4908 93.1271 21.5904Z" fill="black"/>
<path d="M94.4302 31.7242V21.5904C94.4302 21.4908 94.4871 21.4371 94.5994 21.4371H95.8856C95.9979 21.4371 96.0548 21.4862 96.0548 21.5904V31.7242C96.0548 31.8238 95.9979 31.8774 95.8856 31.8774H94.5994C94.4871 31.8728 94.4302 31.8238 94.4302 31.7242Z" fill="black"/>
<path d="M102.841 21.4417H104.11C104.224 21.4417 104.28 21.4907 104.28 21.5949V31.7287C104.28 31.8284 104.224 31.882 104.11 31.882H102.655C102.615 31.8849 102.576 31.875 102.542 31.8537C102.509 31.8325 102.483 31.801 102.469 31.764L99.5918 24.9524C99.5877 24.9431 99.5801 24.9356 99.5707 24.9316C99.5612 24.9276 99.5506 24.9274 99.541 24.931C99.5179 24.931 99.5071 24.9478 99.5071 24.9678L99.5241 31.7333C99.5241 31.833 99.4671 31.8866 99.3548 31.8866H98.0687C97.9563 31.8866 97.8994 31.8376 97.8994 31.7333V21.5903C97.8994 21.4907 97.9563 21.4371 98.0687 21.4371H99.5071C99.547 21.4343 99.5866 21.4444 99.6202 21.466C99.6538 21.4875 99.6794 21.5193 99.6933 21.5566L102.587 28.3666C102.6 28.3958 102.616 28.4096 102.638 28.4034C102.66 28.3973 102.672 28.382 102.672 28.3513V21.5903C102.672 21.4907 102.729 21.4417 102.841 21.4417Z" fill="black"/>
<path d="M106.726 31.2752C106.452 31.0433 106.234 30.7525 106.089 30.4247C105.944 30.0969 105.876 29.7406 105.889 29.3827V23.9304C105.876 23.5724 105.944 23.2161 106.089 22.8883C106.234 22.5605 106.452 22.2698 106.726 22.0378C107.284 21.5618 108.02 21.3232 108.935 21.3222C109.85 21.3212 110.589 21.5597 111.152 22.0378C111.43 22.2707 111.65 22.5636 111.797 22.8942C111.943 23.2249 112.012 23.5845 111.998 23.9457V24.5709C111.998 24.6705 111.941 24.7242 111.829 24.7242H110.543C110.43 24.7242 110.374 24.6751 110.374 24.5709V23.9196C110.381 23.7368 110.35 23.5545 110.281 23.3848C110.212 23.2152 110.108 23.0621 109.975 22.9358C109.682 22.6951 109.314 22.5634 108.934 22.5634C108.554 22.5634 108.186 22.6951 107.893 22.9358C107.761 23.0624 107.657 23.2156 107.589 23.3852C107.52 23.5548 107.489 23.737 107.497 23.9196V29.4041C107.489 29.5868 107.52 29.7689 107.589 29.9386C107.657 30.1082 107.761 30.2614 107.893 30.3879C108.186 30.6287 108.554 30.7604 108.934 30.7604C109.314 30.7604 109.682 30.6287 109.975 30.3879C110.108 30.2617 110.212 30.1086 110.281 29.9389C110.35 29.7693 110.381 29.5869 110.374 29.4041V27.7644C110.374 27.7246 110.35 27.7047 110.306 27.7047H109.02C108.906 27.7047 108.85 27.6556 108.85 27.5514V26.632C108.85 26.5324 108.906 26.4788 109.02 26.4788H111.829C111.941 26.4788 111.998 26.5278 111.998 26.632V29.3903C112.011 29.7491 111.942 30.1061 111.795 30.4341C111.648 30.7621 111.428 31.0524 111.152 31.2829C110.587 31.761 109.848 31.9995 108.935 31.9985C108.022 31.9975 107.286 31.7564 106.726 31.2752Z" fill="black"/>
</svg>
