<svg width="56" height="56" viewBox="0 0 56 56" fill="none" xmlns="http://www.w3.org/2000/svg">
<path opacity="0.06" d="M31.1666 40.673C40.7413 40.673 48.5031 32.9112 48.5031 23.3365C48.5031 13.7618 40.7413 6 31.1666 6C21.5919 6 13.8301 13.7618 13.8301 23.3365C13.8301 32.9112 21.5919 40.673 31.1666 40.673Z" fill="#408DCA"/>
<path d="M25.4522 42.0659H14.5195C12.5636 42.0659 11.009 40.2605 11.3099 38.104C11.6108 36.3989 13.0651 35.1452 14.7702 35.1953H23.2957L23.8474 33.0389H13.9177C12.7141 33.0389 11.5105 33.4401 10.5576 34.1422V16.1885C10.5576 14.333 12.0621 12.8285 13.9177 12.8285H29.6647C30.2665 12.8285 30.768 13.33 30.768 13.9318V24.4633C30.9185 24.363 31.0689 24.2125 31.2194 24.1122C31.7209 23.7612 32.423 23.7612 32.9746 24.1122V13.6309C32.9746 11.7754 31.4701 10.2207 29.5644 10.2207H13.6669C10.5576 10.2207 8 12.7282 8 15.8876V38.5554C8 41.6647 10.5075 44.2223 13.6669 44.2223H24.399L25.4522 42.0659Z" fill="#408DCA"/>
<path fill-rule="evenodd" clip-rule="evenodd" d="M14.9702 23.7111H19.233C19.7846 23.7111 20.236 23.3601 20.3363 22.8084C20.4366 22.2066 20.0354 21.655 19.4837 21.5547C19.4336 21.5547 19.3333 21.5547 19.2831 21.5547H15.0204C14.4687 21.5547 14.0174 21.9057 13.8669 22.4574C13.7666 23.0592 14.1678 23.6108 14.7696 23.7111C14.8699 23.7111 14.9201 23.7111 14.9702 23.7111Z" fill="#408DCA"/>
<path fill-rule="evenodd" clip-rule="evenodd" d="M15.1216 18.9963H25.9039C26.4555 18.9963 26.9069 18.6452 27.0072 18.0936C27.1075 17.4918 26.7063 16.9401 26.1546 16.8398C26.1045 16.8398 26.0042 16.8398 25.954 16.8398H15.1718C14.6201 16.8398 14.1688 17.1909 14.0183 17.7425C13.918 18.3443 14.3192 18.896 14.8709 18.9963C14.9712 18.9963 15.0715 18.9963 15.1216 18.9963Z" fill="#408DCA"/>
<path d="M34.4791 28.6748C31.3698 28.6748 28.8623 31.082 28.8623 34.0408C28.8623 36.9997 31.3698 39.4069 34.4791 39.4069C37.5884 39.4069 40.0959 36.9997 40.0959 34.0408C40.0959 31.082 37.5884 28.6748 34.4791 28.6748ZM38.4409 34.091C38.4409 36.1471 36.6857 37.8522 34.5292 37.8522C32.3728 37.8522 30.6176 36.1973 30.6176 34.091C30.6176 31.9847 32.3728 30.3298 34.5292 30.3298C36.6857 30.3298 38.4409 32.0348 38.4409 34.091Z" fill="#D92D20"/>
<path d="M40.397 40.5104C41.1493 40.4101 41.8012 40.2596 42.2526 39.6578C42.7039 39.0059 42.6036 38.2035 42.4532 37.5014C42.403 37.2005 42.3027 36.7491 42.3529 36.5987C42.403 36.4482 42.6036 36.2476 42.9045 35.9467C43.406 35.4954 44.0078 34.8936 44.0078 34.0411C44.0078 33.1885 43.406 32.6369 42.9045 32.1354C42.6538 31.8846 42.3529 31.6339 42.3027 31.4834C42.2526 31.3831 42.3027 31.0321 42.403 30.5306C42.5033 29.8285 42.6538 29.0261 42.2024 28.3741C41.7009 27.7222 40.8484 27.5717 40.1964 27.5216C39.8955 27.4714 39.4442 27.4213 39.3439 27.321C39.2436 27.2207 39.0932 26.9198 38.8926 26.5687C38.5917 25.9168 38.2406 25.1645 37.4382 24.9138C37.2878 24.8636 37.0872 24.8135 36.9367 24.8135C36.3349 24.8135 35.7833 25.1144 35.3319 25.315L35.2316 25.3651C34.9307 25.5156 34.5797 25.7162 34.4292 25.7162C34.2788 25.7162 33.9277 25.5657 33.5265 25.315C33.0752 25.0642 32.5235 24.8135 31.9217 24.8135C31.7211 24.8135 31.5707 24.8636 31.4202 24.9138C30.6178 25.1645 30.2668 25.9168 29.9659 26.5687C29.8154 26.8696 29.665 27.2207 29.5145 27.321C29.3641 27.4213 28.9127 27.4714 28.662 27.5216C28.01 27.6219 27.1575 27.7222 26.656 28.3741C26.1545 29.0261 26.3049 29.7783 26.4554 30.4804V30.5306C26.5055 30.8816 26.6058 31.2828 26.5557 31.4333C26.5055 31.5837 26.2548 31.7843 25.9539 32.0852C25.4524 32.5366 24.8506 33.1384 24.8506 33.9909C24.8506 34.8435 25.4524 35.3951 25.9539 35.8966C26.2046 36.0972 26.4554 36.3981 26.5055 36.5485C26.5557 36.699 26.4554 37.2506 26.4052 37.5014C26.3049 38.2035 26.1545 39.0059 26.6058 39.6578C27.0572 40.2596 27.7593 40.4101 28.4614 40.5104L25.653 45.9767C25.5025 46.2776 25.5527 46.5785 25.7533 46.8293C25.9539 47.08 26.2548 47.1803 26.5557 47.1302L29.1635 46.6287L30.5175 48.8353C30.668 49.086 30.9689 49.2365 31.2698 49.2365C31.5707 49.2365 31.8716 49.0359 32.022 48.7851L35.2316 42.5665L35.2818 42.6167C35.7331 42.8674 36.2848 43.1683 36.8866 43.1683C37.037 43.1683 37.2376 43.1182 37.3881 43.068C38.1905 42.8173 38.5415 42.065 38.8424 41.4131L38.8926 41.3128L40.8985 45.1743L39.3439 44.9236C38.9929 44.8734 38.6418 45.0239 38.4412 45.3248L37.6388 46.6788L36.7863 45.0239C36.6358 44.723 36.3349 44.5725 36.034 44.5725C35.8836 44.5725 35.7833 44.6227 35.683 44.6728C35.4824 44.7731 35.3319 44.9236 35.2316 45.1242C35.1815 45.3248 35.1815 45.5755 35.2818 45.7761L36.8866 48.8854C37.037 49.1362 37.2878 49.3368 37.6388 49.3368C37.9397 49.3368 38.1905 49.1863 38.3911 48.9356L39.6949 46.729L42.3027 47.1803C42.6036 47.2305 42.9547 47.1302 43.1051 46.8794C43.3057 46.6287 43.3559 46.2776 43.2054 46.0269L40.397 40.5104ZM40.7982 37.8023C40.8985 38.3539 40.8985 38.6548 40.8985 38.705C40.8484 38.7551 40.5475 38.8053 39.9958 38.9056C39.4943 39.0059 38.8926 39.056 38.3911 39.4071C37.9397 39.7581 37.6388 40.2596 37.4382 40.8113C37.3379 41.0119 37.0872 41.5635 36.9869 41.6137C36.9367 41.6137 36.686 41.5134 36.1845 41.2626C35.7331 41.0119 35.1313 40.711 34.5295 40.711C33.9277 40.711 33.3761 41.0119 32.8746 41.2626L32.7241 41.3128C32.5235 41.4131 32.2226 41.5635 32.1223 41.6137C32.022 41.5635 31.7713 41.062 31.671 40.8113C31.4202 40.3098 31.1695 39.7581 30.7181 39.4572C30.2668 39.1062 29.665 39.0059 29.0632 38.9557C28.5115 38.9056 28.2608 38.8053 28.2106 38.7551C28.1605 38.705 28.1605 38.5044 28.3109 37.8023C28.4112 37.2506 28.5115 36.699 28.3109 36.0972C28.1605 35.5456 27.7091 35.1444 27.3581 34.8435L27.3079 34.7933C27.1073 34.6429 26.7061 34.1915 26.7061 34.0912C26.7061 33.9909 27.1575 33.5396 27.3079 33.3891C27.7091 32.9879 28.1103 32.5867 28.3109 32.0351C28.5115 31.4834 28.3611 30.8315 28.2608 30.33C28.1605 29.678 28.1605 29.4774 28.1605 29.4273C28.2106 29.327 28.8124 29.2768 29.0632 29.2267C29.6148 29.1765 30.2166 29.0762 30.668 28.7252C31.1193 28.3741 31.3701 27.8726 31.6208 27.321C31.7211 27.1204 31.9719 26.5687 32.0722 26.5186C32.2226 26.5186 32.6238 26.7192 32.8746 26.8696C33.3761 27.1204 33.9277 27.4213 34.5295 27.4213C35.1313 27.4213 35.7331 27.1204 36.1845 26.8696L36.3349 26.7693C36.5355 26.669 36.7863 26.5186 36.9367 26.5186C37.0872 26.6189 37.2878 27.0702 37.3881 27.321C37.6388 27.8225 37.8896 28.3741 38.3409 28.7252C38.8424 29.0762 39.4442 29.1765 39.9958 29.2267C40.5475 29.2768 40.7982 29.3771 40.8484 29.4273C40.8985 29.4774 40.8985 29.678 40.7481 30.33C40.6478 30.8816 40.5475 31.4834 40.7481 32.0351C40.9487 32.5867 41.3499 32.9879 41.7009 33.339L41.7511 33.3891C41.9517 33.5396 42.3529 33.9909 42.3529 34.0912C42.3529 34.2417 41.9517 34.6429 41.7511 34.7933C41.3499 35.1945 40.9487 35.5957 40.7481 36.1473C40.5976 36.6488 40.6979 37.2005 40.7982 37.8023ZM33.1755 43.1683L31.2698 46.7791L30.4674 45.3749C30.3169 45.1242 30.016 44.9737 29.7653 44.9737C29.7151 44.9737 29.665 44.9737 29.6148 44.9737L28.0602 45.2746L30.0662 41.4131L30.1163 41.5134C30.4172 42.1653 30.7683 42.9176 31.5707 43.1683C32.1725 43.3689 32.8746 43.1182 33.3761 42.8674L33.1755 43.1683Z" fill="#D92D20"/>
<path d="M36.1835 31.9854C35.2808 32.3866 34.3279 33.9913 33.8264 34.9943L33.1243 34.1418L32.3721 34.7436L34.0772 36.7496L34.3781 36.0475C34.9297 34.894 35.9829 33.0886 36.5847 32.8379H36.6348L36.1835 31.9854Z" fill="#D92D20"/>
</svg>
