<svg width="56" height="56" viewBox="0 0 56 56" fill="none" xmlns="http://www.w3.org/2000/svg">
<path opacity="0.06" d="M27.9728 46.6908C38.305 46.6908 46.6809 38.3227 46.6809 28.0002C46.6809 17.6776 38.305 9.30957 27.9728 9.30957C17.6406 9.30957 9.26465 17.6776 9.26465 28.0002C9.26465 38.3227 17.6406 46.6908 27.9728 46.6908Z" fill="#408DCA"/>
<path d="M33.5914 32.289C33.2204 32.236 32.9025 32.236 32.5315 32.1831C32.0545 32.0772 31.5245 32.0243 31.0475 31.8654C30.5706 31.7595 30.2526 31.283 30.3586 30.7535C30.3586 30.7006 30.3586 30.7006 30.3586 30.6476C30.5176 30.1711 31.0475 29.9063 31.5775 30.0652C32.2665 30.224 32.9555 30.277 33.6444 30.3829C33.8564 30.4358 33.9094 30.3299 33.9624 30.1711C34.0684 29.7475 34.1744 29.3239 34.2804 28.9003C34.4394 28.4238 34.9164 28.1061 35.4463 28.265C35.4463 28.265 35.4463 28.265 35.4993 28.265C35.9763 28.4238 36.2413 28.9533 36.1353 29.4298C36.0823 29.6945 35.9763 30.0122 35.8703 30.3299C36.4003 30.277 36.8243 30.224 37.3013 30.1181C38.5732 29.8534 39.8451 29.5357 41.1171 29.271C41.4881 29.1651 41.859 29.271 42.124 29.5357C42.389 29.8004 42.442 30.1711 42.283 30.4888C42.177 30.8064 41.912 31.0182 41.5941 31.0712C40.2691 31.3889 38.9442 31.7066 37.6192 31.9713C36.9303 32.1301 36.1883 32.1831 35.4463 32.236L35.2874 34.0892C35.4463 34.0363 35.5523 34.0363 35.6053 34.0363C36.4003 33.8774 37.1953 33.7715 37.9372 33.6656C38.1492 33.6127 38.2022 33.6127 38.2552 33.4009C38.3082 33.242 38.3612 33.0832 38.4142 32.8714C38.6262 32.3949 39.1562 32.1301 39.6332 32.3419C40.0571 32.5008 40.3221 32.9773 40.2161 33.4538C40.1631 33.5597 40.1631 33.7186 40.1101 33.8245C40.5341 34.0363 40.9581 34.1422 41.3821 34.354C43.396 35.4129 44.1909 37.9015 43.131 39.9135C42.919 40.3371 42.601 40.7077 42.283 41.0254C41.1701 42.0314 39.7921 42.6138 38.3082 42.7727C37.7782 42.8256 37.3013 42.5079 37.2483 41.9784C37.2483 41.9784 37.2483 41.9784 37.2483 41.9255C37.1953 41.396 37.5132 40.9195 38.0432 40.8665C38.9972 40.7077 39.9511 40.39 40.7461 39.8076C41.4351 39.3311 41.8061 38.4839 41.6471 37.6897C41.4351 36.6307 40.5871 35.7835 39.5272 35.6247C39.4212 35.6247 39.3152 35.7306 39.2622 35.8365C38.7322 36.9484 38.0962 38.0074 37.3013 38.9604C36.5063 40.0194 35.4463 40.8136 34.2804 41.449C33.5914 41.8196 32.7965 41.9255 32.0015 41.8196C29.9876 41.449 28.9806 39.0134 30.0936 37.2661C30.7296 36.313 31.6305 35.5718 32.6905 35.0952C33.1145 34.9364 33.3794 34.5128 33.3264 34.0892C33.4854 33.5597 33.4854 32.9244 33.5914 32.289ZM33.5914 36.8955C32.9025 37.2661 32.2665 37.6897 31.8425 38.325C31.5775 38.6957 31.5775 39.2252 31.8955 39.5958C32.1075 39.9664 32.5845 40.1253 33.0085 40.0194C33.4324 39.8605 33.8034 39.7017 34.1744 39.5428C34.2274 39.4899 34.2804 39.384 34.2804 39.3311C34.0684 38.5368 33.8034 37.7426 33.5914 36.8955ZM37.4603 35.7306L37.3543 35.5718C36.7713 35.7306 36.1883 35.8894 35.5523 36.0483C35.4993 36.0483 35.4463 36.1542 35.4463 36.1542C35.5523 36.7366 35.6583 37.319 35.7643 37.9015L35.9233 37.9544L37.4603 35.7306Z" fill="#D92D20"/>
<path d="M50.4971 23.8173H35.5518V6.82101C35.5518 5.39141 34.3858 4.22656 32.9549 4.22656H5.44916C4.01822 4.22656 2.90527 5.39141 2.90527 6.82101V25.088C2.90527 26.5176 4.07122 27.6825 5.50215 27.6825H10.4839V31.2829C10.4839 31.6535 10.6959 31.9712 11.0139 32.0771C11.3319 32.236 11.7029 32.1301 11.9679 31.9183L16.4726 27.6825H20.4475V44.6787C20.4475 46.1083 21.6134 47.2732 23.0443 47.2732H39.5796L44.0844 51.509C44.2434 51.6678 44.4554 51.7737 44.6673 51.7737C44.7733 51.7737 44.8793 51.7737 44.9853 51.7208C45.3033 51.5619 45.5153 51.2443 45.5153 50.9266V47.3261H50.4971C51.928 47.3261 53.0939 46.1613 53.0939 44.7317V26.3588C53.041 24.9821 51.928 23.8173 50.4971 23.8173ZM16.1017 25.9352C15.8897 25.9352 15.6777 26.0411 15.5187 26.1999L12.2858 29.2709V26.8353C12.2858 26.3588 11.8619 25.9881 11.3849 25.9881H5.50215C5.02518 25.9881 4.65419 25.6175 4.65419 25.141V6.82101C4.65419 6.39742 5.02518 6.02679 5.44916 5.97384H32.9549C33.4319 5.97384 33.8028 6.34448 33.8028 6.82101V25.088C33.8028 25.5645 33.4319 25.9352 32.9549 25.9352H16.1017ZM51.292 44.6787C51.292 45.1553 50.921 45.5259 50.4441 45.5259H44.6143C44.1374 45.5259 43.7134 45.8965 43.7134 46.373V48.8087L40.4805 45.7377C40.3215 45.5788 40.1096 45.4729 39.8976 45.4729H22.9913C22.5144 45.4729 22.1434 45.1023 22.1434 44.6258V27.6825H32.9549C34.2268 27.6825 35.2338 26.7823 35.4988 25.5645H50.4971C50.9741 25.5645 51.292 25.9352 51.292 26.4117V44.6787Z" fill="#408DCA"/>
<path d="M21.5601 19.0519H16.8963L15.9953 21.5405C15.8364 21.9641 15.4124 22.2288 14.9884 22.2288C14.8824 22.2288 14.7234 22.2288 14.6174 22.1759C14.0874 21.9641 13.7695 21.3287 13.9814 20.7992L18.2212 9.52133C18.3802 9.09775 18.8042 8.83301 19.2282 8.83301C19.6522 8.83301 20.0762 9.09775 20.2352 9.52133L24.475 20.7992C24.6869 21.3287 24.369 21.9641 23.839 22.1759C23.733 22.2288 23.574 22.2288 23.468 22.2288C23.044 22.2288 22.673 21.9641 22.514 21.5405L21.5601 19.0519ZM20.7651 16.934L19.2282 12.8041L17.6913 16.934H20.7651Z" fill="#D92D20"/>
</svg>
