<svg width="56" height="56" viewBox="0 0 56 56" fill="none" xmlns="http://www.w3.org/2000/svg">
<path opacity="0.06" d="M28.1661 42.3322C38.1989 42.3322 46.3322 34.1989 46.3322 24.1661C46.3322 14.1332 38.1989 6 28.1661 6C18.1332 6 10 14.1332 10 24.1661C10 34.1989 18.1332 42.3322 28.1661 42.3322Z" fill="#408DCA"/>
<path d="M37.3785 24.1652C37.3785 19.3278 33.2615 15.3652 28.1668 15.3652C23.072 15.3652 18.9551 19.3278 18.9551 24.1652C18.9551 29.0027 23.072 32.9652 28.1668 32.9652C33.2615 32.9652 37.3785 29.0541 37.3785 24.1652ZM35.32 24.1652C35.32 27.922 32.1293 31.0097 28.1668 31.0097C24.2042 31.0097 21.0136 27.922 21.0136 24.1652C21.0136 20.4085 24.2042 17.3208 28.1668 17.3208C32.1293 17.3208 35.32 20.4085 35.32 24.1652Z" fill="#408DCA"/>
<path d="M37.8928 35.3329C37.8413 35.23 37.8413 35.1271 37.8928 35.0241C37.9443 34.9212 38.0472 34.8698 38.1501 34.8698C39.3337 34.7154 40.5174 34.4581 41.1864 33.5832C41.9068 32.6054 41.701 31.4218 41.4437 30.2382C41.2893 29.4662 41.1864 28.8487 41.3408 28.437C41.4437 28.0768 41.8554 27.7165 42.4215 27.2019L42.4729 27.1505C43.2963 26.3271 44.2741 25.4522 44.2741 24.2171C44.2741 22.982 43.3478 22.0557 42.5244 21.2838H42.4729C41.9068 20.7692 41.4952 20.306 41.3922 19.9972C41.2893 19.637 41.3922 18.9165 41.4951 18.1961C41.701 17.0124 41.9068 15.8288 41.2378 14.851C40.5174 13.8733 39.0764 13.6674 38.0472 13.513C37.2753 13.4101 36.6577 13.3072 36.349 13.1013C36.0402 12.8955 35.8343 12.3809 35.4741 11.7119L35.4226 11.6604C34.908 10.5797 34.3934 9.44753 33.1583 9.0873C32.901 8.98438 32.6951 8.98438 32.4378 8.98438C31.563 8.98438 30.6367 9.44753 29.9162 9.80777L29.7618 9.91069C29.0928 10.2709 28.5782 10.5282 28.218 10.5282C27.8577 10.5282 27.2916 10.2709 26.5712 9.85923L26.5197 9.80777C25.7478 9.39607 24.9244 8.98438 23.9981 8.98438C23.7408 8.98438 23.4835 9.03584 23.2776 9.0873C22.094 9.499 21.5279 10.6312 21.0133 11.7119C20.653 12.4323 20.3957 12.9469 20.087 13.1528C19.7782 13.3586 19.1092 13.4616 18.3887 13.5645C17.308 13.7189 15.97 13.8733 15.1981 14.851C14.4776 15.8288 14.6835 17.0124 14.8893 18.1446V18.2475C15.0437 19.0709 15.1466 19.637 14.9922 20.0487C14.8893 20.4089 14.4776 20.7692 13.9115 21.2838L13.8601 21.3353C13.0367 22.1586 12.1104 23.0335 12.1104 24.2686C12.1104 25.5037 13.0881 26.43 13.9115 27.2019C14.4776 27.768 14.8893 28.1797 14.9922 28.4885C15.0951 28.7972 15.0437 29.4148 14.8893 30.2896C14.6835 31.4733 14.4776 32.6569 15.1466 33.6347C15.8156 34.561 16.9478 34.7668 18.1829 34.9212C18.2858 34.9212 18.3887 35.0241 18.4402 35.0756C18.4916 35.1785 18.4916 35.2815 18.4402 35.3844L13.4998 44.9048C13.3454 45.2136 13.3454 45.6253 13.6027 45.9341C13.8601 46.2429 14.2203 46.3972 14.5805 46.2943L19.1606 45.5224H19.2121C19.315 45.5224 19.4694 45.5739 19.5209 45.6768L21.7852 49.485C21.9911 49.7937 22.2998 49.9996 22.6601 49.9996H22.7115C23.0718 49.9996 23.432 49.7937 23.5864 49.4335L29.2472 38.575C29.2472 38.575 29.2472 38.575 29.2987 38.575C29.3501 38.575 29.4016 38.5236 29.453 38.5236C29.5045 38.5236 29.556 38.5236 29.6074 38.575L29.8133 38.6779C30.5852 39.0896 31.4601 39.5528 32.3349 39.5528C32.5922 39.5528 32.8495 39.5013 33.0554 39.4499C34.239 39.0382 34.8051 37.9575 35.3197 36.8253L35.4741 36.5165C35.5256 36.4136 35.6285 36.3107 35.7829 36.3107C35.8858 36.3107 36.0402 36.3622 36.0916 36.4651L39.694 43.4124C39.7454 43.5154 39.7454 43.6698 39.6425 43.7212C39.5911 43.8241 39.4881 43.8756 39.3337 43.8756H39.2823L36.4519 43.361C36.4004 43.361 36.349 43.361 36.246 43.361C35.8858 43.361 35.577 43.5668 35.3712 43.8756L33.8788 46.3458C33.8273 46.4487 33.7244 46.5002 33.57 46.5002C33.4671 46.5002 33.3127 46.4487 33.2612 46.2943L31.6659 43.3095C31.5115 42.9493 31.1513 42.7434 30.7396 42.7434C30.5852 42.7434 30.4308 42.7949 30.2764 42.8464C30.0191 42.9493 29.8647 43.1551 29.7618 43.4124C29.6589 43.6698 29.7104 43.9271 29.8133 44.1844L32.4893 49.382C32.6437 49.6908 33.0039 49.8967 33.3642 49.9481H33.4156C33.7759 49.9481 34.0846 49.7423 34.2905 49.4335L36.5548 45.6253C36.6063 45.5224 36.7092 45.4709 36.8636 45.4709H36.915L41.4951 46.2429C41.5466 46.2429 41.6495 46.2429 41.701 46.2429C42.0098 46.2429 42.3185 46.0885 42.5244 45.8312C42.7817 45.5224 42.7817 45.1107 42.6273 44.8019L37.8928 35.3329ZM26.6226 39.347L22.9688 46.2943C22.9174 46.3972 22.8144 46.4487 22.6601 46.4487C22.5571 46.4487 22.4542 46.3972 22.3513 46.2943L20.8589 43.8241C20.653 43.5154 20.3443 43.3095 19.984 43.3095C19.9326 43.3095 19.8296 43.3095 19.7782 43.3095L16.9478 43.8241H16.8449C16.7419 43.8241 16.639 43.7727 16.5875 43.6698C16.5361 43.5668 16.4846 43.4639 16.5361 43.361L20.087 36.4136C20.1384 36.3107 20.2413 36.2078 20.3957 36.2078C20.4987 36.2078 20.653 36.2592 20.7045 36.4136L20.8589 36.7224C21.3735 37.8031 21.9396 38.9353 23.1232 39.347C23.3805 39.4499 23.6378 39.4499 23.8437 39.4499C24.6671 39.4499 25.439 39.0896 26.108 38.7294C26.1595 38.6779 26.2109 38.6779 26.2624 38.6779C26.3653 38.6779 26.4168 38.7294 26.5197 38.7809C26.6226 38.8838 26.6741 39.0382 26.5712 39.1411L26.6226 39.347ZM25.2846 37.0312C24.77 37.3399 24.3068 37.5458 23.9981 37.5458C23.9466 37.5458 23.9466 37.5458 23.8951 37.5458C23.8437 37.5458 23.8437 37.5458 23.7922 37.5458C23.4835 37.3914 23.2261 36.9282 22.763 36.0019C22.3513 35.1785 21.9396 34.3037 21.2191 33.7891C20.4987 33.2744 19.5723 33.12 18.5946 33.0171C17.4109 32.8627 16.9992 32.7598 16.7934 32.5025C16.639 32.2452 16.639 31.782 16.8449 30.5984V30.5469C16.9992 29.6721 17.1536 28.6943 16.8963 27.8709C16.639 27.0475 15.97 26.43 15.3525 25.8639L15.2495 25.761C14.4776 25.0405 14.0659 24.5774 14.0659 24.2171C14.0659 23.8569 14.4776 23.3937 15.2495 22.6733C15.9185 22.0557 16.5875 21.3867 16.8449 20.5633C17.1022 19.6885 16.9478 18.6592 16.7934 17.8358C16.5875 16.6522 16.5875 16.1891 16.7419 15.9317C16.8963 15.7259 17.308 15.5715 18.5431 15.4171H18.5946C19.4694 15.3142 20.4472 15.1598 21.1677 14.6452C21.8881 14.1306 22.2998 13.2557 22.6601 12.4838V12.4323C23.1747 11.3516 23.432 10.9914 23.6893 10.8885C23.7408 10.8885 23.7922 10.837 23.8437 10.837H23.8951C24.2039 10.837 24.6671 11.0429 25.439 11.4546C26.2624 11.8662 27.1373 12.3809 28.0636 12.3809C29.0413 12.3809 29.9677 11.8662 30.6881 11.4546L30.9454 11.3002C31.5115 10.9914 31.8718 10.7855 32.1805 10.7855C32.232 10.7855 32.2835 10.7855 32.3864 10.837H32.4378C32.7466 10.9914 33.0039 11.4546 33.4671 12.3809C33.8788 13.2043 34.2905 14.0791 35.0109 14.5937C35.7314 15.1084 36.8121 15.2627 37.6355 15.3657C38.8191 15.52 39.2308 15.623 39.3852 15.8803C39.5396 16.1376 39.5396 16.6008 39.3337 17.7844C39.1794 18.6592 39.025 19.637 39.2823 20.4604C39.5396 21.2838 40.2086 21.9013 40.8261 22.4674L40.9291 22.5189C41.701 23.2393 42.1127 23.7025 42.1127 24.0627C42.1127 24.423 41.7525 24.8347 40.9291 25.6066C40.2601 26.2241 39.5911 26.8931 39.3337 27.7165C39.0764 28.4885 39.2308 29.4662 39.3852 30.444C39.5911 31.6277 39.6425 32.0908 39.4367 32.3481C39.2823 32.554 38.8706 32.7084 37.6355 32.8627H37.584C36.7092 32.9657 35.7829 33.12 35.0109 33.6347C34.2905 34.1493 33.8788 35.0241 33.4671 35.8475C32.9525 36.9282 32.6951 37.2885 32.4893 37.3914C32.4378 37.3914 32.3864 37.4429 32.3349 37.4429H32.2835C32.0261 37.4429 31.4601 37.1855 30.7396 36.8253C29.9677 36.4136 29.0413 35.899 28.115 35.899C27.1887 35.899 26.3139 36.3622 25.439 36.8253L25.2846 37.0312Z" fill="#408DCA"/>
<path d="M30.9963 20.46L30.9449 20.5114C29.4525 21.1804 27.8571 23.9594 26.9308 25.6062L25.6957 24.1652L24.4092 25.143L27.2911 28.591L27.8571 27.4073C28.7834 25.4003 30.5846 22.3641 31.6139 21.9524L31.7168 21.9009L30.9963 20.46Z" fill="#D92D20"/>
</svg>
