<svg id="svg" version="1.1" xmlns="http://www.w3.org/2000/svg" xmlns:xlink="http://www.w3.org/1999/xlink" width="400" height="400" viewBox="0, 0, 400,400"><g id="svgg"><path id="path0" d="M81.167 213.166 C 63.669 215.662,51.950 228.286,47.690 249.225 C 42.169 276.363,52.276 290.672,76.960 290.665 C 100.338 290.659,113.995 278.168,117.902 253.218 C 122.350 224.814,108.137 209.317,81.167 213.166 M152.268 213.113 C 148.786 214.095,148.160 214.795,142.101 224.500 C 125.303 251.404,114.795 271.034,109.208 285.947 C 108.360 288.209,107.667 290.197,107.667 290.363 C 107.667 290.538,111.456 290.667,116.600 290.667 L 125.533 290.667 126.978 287.083 C 127.773 285.112,129.592 281.063,131.020 278.083 L 133.617 272.667 146.114 272.667 L 158.611 272.667 158.949 274.250 C 159.450 276.603,160.271 282.487,160.496 285.333 C 160.604 286.708,160.771 288.471,160.867 289.250 L 161.041 290.667 177.627 290.667 L 194.214 290.667 194.609 288.083 C 194.826 286.662,195.472 282.565,196.043 278.978 L 197.082 272.457 203.457 272.594 C 222.363 273.001,234.153 264.230,238.197 246.751 C 243.467 223.968,230.959 210.365,207.167 213.005 C 201.087 213.679,190.361 216.303,188.457 217.581 C 188.248 217.721,185.878 231.746,183.134 249.083 C 180.413 266.271,178.107 280.333,178.010 280.333 C 177.913 280.333,177.560 278.369,177.225 275.968 C 175.082 260.568,164.219 219.260,161.366 215.667 C 159.427 213.224,155.644 212.162,152.268 213.113 M246.501 213.417 C 246.269 214.398,234.333 289.803,234.333 290.292 C 234.333 290.560,236.833 290.667,243.095 290.667 L 251.856 290.667 257.936 252.250 C 261.281 231.121,264.013 213.571,264.008 213.250 C 264.001 212.710,263.362 212.667,255.340 212.667 L 246.679 212.667 246.501 213.417 M94.270 230.248 C 95.243 230.635,96.544 231.336,97.161 231.806 C 103.456 236.608,101.483 260.529,94.095 268.974 C 88.343 275.550,69.911 276.221,65.797 270.005 C 60.267 261.649,67.046 235.901,75.974 231.347 C 80.162 229.210,90.146 228.611,94.270 230.248 M217.750 230.444 C 220.857 231.965,221.504 233.390,221.483 238.667 C 221.428 252.413,214.513 258.429,201.610 255.953 L 199.721 255.591 199.920 254.379 C 200.029 253.712,200.955 247.917,201.976 241.500 L 203.834 229.833 205.167 229.613 C 208.833 229.008,215.749 229.464,217.750 230.444 M151.415 243.083 C 151.502 243.496,152.188 246.046,152.939 248.751 C 153.689 251.456,154.402 254.194,154.522 254.835 L 154.741 256.000 148.835 256.000 C 143.506 256.000,142.949 255.947,143.138 255.455 C 143.586 254.286,150.738 242.333,150.989 242.333 C 151.136 242.333,151.327 242.671,151.415 243.083 " stroke="none" fill="#242424" fill-rule="evenodd"></path><path id="path1" d="M157.500 143.562 C 144.104 144.337,131.031 149.758,122.437 158.104 L 120.374 160.107 120.989 161.311 L 121.603 162.515 124.385 162.284 C 133.486 161.528,146.407 162.147,153.468 163.677 C 166.435 166.486,172.264 171.663,174.848 182.667 C 176.798 190.966,179.944 203.388,180.148 203.593 C 180.267 203.712,182.945 202.956,186.099 201.914 C 191.809 200.027,198.173 198.335,199.564 198.334 C 199.965 198.334,200.381 198.193,200.486 198.022 C 200.744 197.604,199.763 179.247,199.292 175.667 C 196.668 155.749,179.171 142.308,157.500 143.562 " stroke="none" fill="#048c34" fill-rule="evenodd"></path><path id="path2" d="M298.325 319.917 L 297.904 322.500 295.202 322.500 C 288.804 322.500,285.449 330.338,290.699 333.017 C 292.941 334.160,298.191 333.625,298.487 332.222 C 298.835 330.580,300.667 318.632,300.667 318.009 C 300.667 317.487,300.449 317.333,299.706 317.333 C 298.767 317.333,298.737 317.390,298.325 319.917 M71.920 318.121 C 68.450 319.416,66.332 323.220,66.334 328.153 C 66.336 335.585,77.511 335.599,79.949 328.171 C 82.362 320.822,78.301 315.739,71.920 318.121 M156.881 318.431 C 156.775 318.851,156.588 320.051,156.465 321.097 C 156.251 322.917,156.200 323.000,155.287 323.000 C 154.450 323.000,154.333 323.122,154.333 324.000 C 154.333 324.799,154.476 325.000,155.045 325.000 C 155.705 325.000,155.740 325.117,155.526 326.583 C 154.823 331.407,154.833 331.551,155.930 332.648 C 157.350 334.068,159.000 334.097,159.000 332.703 C 159.000 331.960,158.814 331.692,158.189 331.535 C 157.101 331.262,156.977 330.619,157.441 327.667 L 157.833 325.167 159.083 325.063 C 160.840 324.918,161.033 323.000,159.291 323.000 C 158.251 323.000,158.249 322.995,158.471 321.583 C 159.153 317.242,159.195 317.667,158.079 317.667 C 157.308 317.667,157.027 317.845,156.881 318.431 M202.733 319.083 C 199.870 323.284,195.000 332.222,195.000 333.274 C 195.000 334.726,196.904 333.571,197.925 331.500 L 198.994 329.333 202.468 329.333 L 205.942 329.333 206.221 331.417 C 206.495 333.463,206.519 333.502,207.598 333.606 L 208.696 333.711 208.466 331.939 C 208.340 330.964,207.679 327.917,206.998 325.167 C 205.022 317.191,204.515 316.469,202.733 319.083 M215.224 318.369 C 213.964 319.034,212.691 321.054,212.674 322.417 C 212.669 322.808,212.404 323.000,211.869 323.000 C 211.097 323.000,210.667 323.547,210.667 324.527 C 210.667 324.810,211.004 325.000,211.506 325.000 C 212.205 325.000,212.318 325.126,212.177 325.750 C 211.958 326.722,211.000 332.890,211.000 333.330 C 211.000 333.515,211.443 333.667,211.985 333.667 C 213.063 333.667,212.929 334.012,213.667 329.333 C 214.426 324.520,214.184 325.000,215.848 325.000 C 217.276 325.000,217.333 324.961,217.333 324.000 C 217.333 323.051,217.263 323.000,215.964 323.000 C 214.640 323.000,214.602 322.970,214.810 322.083 C 215.137 320.692,216.482 319.667,217.980 319.667 C 219.186 319.667,220.076 318.520,219.397 317.841 C 218.980 317.425,216.394 317.752,215.224 318.369 M319.895 323.583 C 318.559 332.193,318.863 333.667,321.978 333.667 C 322.948 333.667,322.969 331.823,322.002 331.571 C 320.896 331.281,320.874 330.518,321.794 324.559 C 322.894 317.444,322.896 317.667,321.740 317.667 L 320.813 317.667 319.895 323.583 M128.680 318.817 C 128.040 319.588,128.401 320.488,129.397 320.603 C 130.386 320.718,131.146 319.769,130.796 318.857 C 130.544 318.199,129.214 318.174,128.680 318.817 M163.347 318.817 C 162.707 319.588,163.068 320.488,164.064 320.603 C 165.053 320.718,165.813 319.769,165.463 318.857 C 165.211 318.199,163.880 318.174,163.347 318.817 M229.024 318.956 C 228.538 319.863,228.916 320.667,229.828 320.667 C 231.480 320.667,231.885 318.584,230.270 318.397 C 229.651 318.325,229.270 318.496,229.024 318.956 M256.054 318.626 C 255.809 318.782,255.659 319.267,255.721 319.704 C 255.863 320.710,257.265 321.000,257.885 320.152 C 258.725 319.004,257.313 317.828,256.054 318.626 M77.651 320.833 C 79.432 322.613,78.473 329.019,76.205 330.506 C 70.963 333.940,66.649 329.530,69.304 323.449 C 70.913 319.766,75.230 318.412,77.651 320.833 M204.598 324.377 C 205.504 327.612,205.660 327.386,202.610 327.265 L 200.138 327.167 201.754 324.417 C 203.730 321.053,203.666 321.054,204.598 324.377 M84.145 323.018 L 82.456 323.668 81.891 327.417 C 81.581 329.479,81.234 331.729,81.120 332.417 C 80.844 334.083,82.794 334.405,83.137 332.750 C 83.359 331.676,84.330 325.604,84.332 325.276 C 84.335 324.829,86.736 324.272,87.799 324.472 C 88.650 324.631,89.027 324.522,89.523 323.975 C 90.950 322.398,87.398 321.766,84.145 323.018 M94.349 322.768 C 92.674 323.302,90.866 325.264,90.350 327.108 C 89.153 331.382,91.491 334.025,96.081 333.584 C 97.805 333.418,97.972 333.631,97.290 335.128 C 96.560 336.730,94.664 336.949,91.138 335.837 C 90.616 335.672,90.300 335.835,89.873 336.486 L 89.304 337.355 90.548 337.875 C 93.721 339.201,97.060 338.751,98.550 336.797 C 99.430 335.644,101.635 324.600,101.208 323.487 C 100.848 322.549,96.475 322.090,94.349 322.768 M105.333 322.611 C 104.302 322.813,104.175 322.950,104.235 323.794 C 104.323 325.028,104.246 324.993,106.086 324.649 C 108.123 324.268,110.122 324.852,110.267 325.869 C 110.361 326.526,110.146 326.593,106.954 326.909 C 101.040 327.494,99.234 332.044,104.384 333.384 C 108.482 334.450,111.643 332.406,112.302 328.264 C 113.061 323.494,110.680 321.563,105.333 322.611 M116.743 322.962 C 115.777 323.296,114.939 323.628,114.879 323.701 C 114.775 323.829,113.327 332.915,113.331 333.417 C 113.332 333.554,113.773 333.667,114.311 333.667 C 115.465 333.667,115.439 333.735,116.180 328.781 L 116.737 325.062 118.183 324.697 C 122.466 323.619,123.194 324.467,122.328 329.522 C 121.534 334.158,121.492 333.725,122.727 333.606 L 123.826 333.500 124.414 329.833 C 125.549 322.764,123.258 320.712,116.743 322.962 M127.348 327.083 C 126.941 329.696,126.526 332.257,126.424 332.775 C 126.249 333.672,126.293 333.711,127.357 333.608 L 128.474 333.500 128.889 330.833 C 129.116 329.367,129.514 326.854,129.772 325.250 L 130.241 322.333 129.164 322.333 L 128.086 322.333 127.348 327.083 M134.500 322.701 C 130.176 324.029,130.718 328.005,135.341 328.879 C 138.049 329.391,138.459 329.618,138.147 330.432 C 137.756 331.449,134.063 331.795,132.697 330.941 C 131.756 330.354,130.291 331.645,130.970 332.464 C 132.372 334.153,137.917 333.821,139.488 331.953 C 141.528 329.529,140.428 327.604,136.629 326.949 C 134.109 326.515,133.550 326.173,133.998 325.338 C 134.411 324.565,136.131 324.307,137.944 324.744 C 139.235 325.056,139.464 325.018,140.098 324.384 C 141.549 322.932,137.605 321.747,134.500 322.701 M145.167 322.626 C 144.617 322.744,144.182 323.026,144.200 323.253 C 144.218 323.481,144.256 323.947,144.283 324.290 C 144.328 324.851,144.494 324.884,145.917 324.617 C 148.414 324.148,150.333 324.756,150.333 326.016 C 150.333 326.533,149.914 326.649,147.317 326.853 C 140.329 327.399,139.124 333.477,146.000 333.494 C 149.943 333.503,151.745 332.001,152.335 328.210 C 153.075 323.461,150.531 321.479,145.167 322.626 M162.667 322.518 C 162.667 322.619,162.292 325.026,161.833 327.866 C 160.815 334.175,160.801 333.667,161.994 333.667 C 163.133 333.667,162.995 334.064,163.984 327.950 C 164.893 322.333,164.893 322.333,163.667 322.333 C 163.117 322.333,162.667 322.416,162.667 322.518 M169.167 322.801 C 165.628 324.363,164.376 331.759,167.431 333.049 C 173.143 335.460,178.414 330.680,176.863 324.498 C 176.383 322.589,171.892 321.598,169.167 322.801 M181.000 323.014 C 179.992 323.363,179.129 323.652,179.083 323.657 C 179.037 323.662,179.000 324.004,178.999 324.417 C 178.999 324.829,178.699 326.967,178.333 329.167 C 177.968 331.367,177.668 333.289,177.668 333.438 C 177.667 333.587,178.150 333.662,178.741 333.604 L 179.815 333.500 180.439 329.333 C 181.171 324.444,180.825 325.071,183.048 324.605 C 187.327 323.708,187.649 324.533,186.169 332.583 C 185.977 333.629,186.008 333.667,187.083 333.667 L 188.196 333.667 188.800 329.707 C 189.877 322.644,187.635 320.720,181.000 323.014 M221.046 322.961 C 219.212 323.705,219.200 323.730,218.516 328.333 C 218.203 330.442,217.868 332.504,217.771 332.917 C 217.614 333.584,217.722 333.667,218.744 333.667 L 219.893 333.667 220.467 329.583 C 221.138 324.804,221.336 324.501,223.799 324.496 C 225.565 324.492,226.667 323.981,226.667 323.165 C 226.667 322.197,223.235 322.072,221.046 322.961 M228.516 322.750 C 228.445 322.979,228.069 325.267,227.680 327.833 C 227.292 330.400,226.919 332.762,226.852 333.083 C 226.755 333.544,226.956 333.667,227.814 333.667 L 228.899 333.667 229.649 328.917 C 230.061 326.304,230.478 323.754,230.574 323.250 C 230.764 322.263,228.815 321.789,228.516 322.750 M235.888 322.723 C 231.676 323.899,230.013 331.350,233.598 332.984 C 235.812 333.993,239.763 333.682,239.919 332.486 C 240.070 331.328,239.601 331.010,238.205 331.325 C 235.059 332.034,233.446 330.864,233.851 328.165 C 234.287 325.257,236.156 324.040,239.263 324.639 C 240.837 324.943,242.478 323.383,241.130 322.865 C 240.067 322.457,237.125 322.377,235.888 322.723 M245.333 322.574 C 242.934 323.004,243.602 325.016,246.018 324.634 C 248.173 324.294,250.123 324.860,250.267 325.868 C 250.370 326.590,248.491 327.000,245.084 327.000 C 241.226 327.000,240.445 332.291,244.151 333.329 C 248.708 334.605,251.911 332.211,252.250 327.278 C 252.532 323.154,250.354 321.673,245.333 322.574 M255.333 322.485 C 255.333 322.569,254.958 324.961,254.500 327.801 C 253.480 334.121,253.469 333.667,254.640 333.667 C 255.758 333.667,255.648 333.994,256.664 327.667 C 257.539 322.218,257.546 322.333,256.333 322.333 C 255.783 322.333,255.333 322.402,255.333 322.485 M261.607 322.943 C 259.536 323.683,259.671 323.430,258.966 327.901 C 258.625 330.064,258.272 332.246,258.181 332.750 C 258.029 333.598,258.099 333.667,259.118 333.667 L 260.220 333.667 260.826 329.583 C 261.511 324.974,261.623 324.803,264.168 324.485 C 267.544 324.064,267.912 324.642,267.165 329.196 C 266.463 333.480,266.482 333.667,267.616 333.667 C 268.618 333.667,269.667 329.573,269.667 325.656 C 269.667 322.613,265.991 321.375,261.607 322.943 M275.323 322.845 C 271.310 324.082,269.708 330.888,272.981 332.799 C 274.519 333.698,280.000 334.038,280.000 333.235 C 280.000 332.952,280.083 332.504,280.185 332.238 C 280.335 331.848,279.858 331.725,277.714 331.601 C 272.479 331.298,271.655 329.521,276.579 329.152 C 279.655 328.922,279.881 328.852,280.912 327.821 C 284.087 324.647,280.330 321.302,275.323 322.845 M305.548 322.702 C 301.054 323.758,299.066 330.950,302.736 332.878 C 304.284 333.692,309.667 333.969,309.667 333.235 C 309.667 332.952,309.750 332.504,309.852 332.238 C 310.002 331.848,309.525 331.725,307.380 331.601 C 302.059 331.293,301.390 329.585,306.397 329.089 C 309.596 328.773,309.847 328.692,310.730 327.705 C 313.470 324.638,310.307 321.584,305.548 322.702 M328.171 322.625 C 327.187 322.836,326.766 323.575,327.113 324.481 C 327.244 324.822,327.646 324.856,328.858 324.629 C 331.352 324.163,333.333 324.916,333.333 326.329 C 333.333 326.481,331.885 326.713,330.114 326.846 C 326.226 327.137,324.634 328.161,324.570 330.411 C 324.454 334.496,332.474 334.763,334.624 330.746 C 335.449 329.204,335.490 324.935,334.690 323.928 C 333.592 322.548,330.976 322.025,328.171 322.625 M98.944 324.843 C 99.063 324.951,98.394 329.815,98.137 330.709 C 97.930 331.430,95.651 331.778,94.019 331.338 C 90.952 330.512,91.806 325.715,95.206 324.671 C 96.028 324.419,98.607 324.537,98.944 324.843 M174.489 324.991 C 175.450 325.789,174.927 329.692,173.711 330.793 C 173.049 331.392,170.099 331.633,168.750 331.197 C 167.104 330.666,168.149 325.164,170.000 324.613 C 171.183 324.261,173.884 324.489,174.489 324.991 M296.843 324.617 C 297.505 324.829,297.509 324.902,297.045 328.065 L 296.572 331.297 294.832 331.515 C 291.703 331.905,290.361 330.621,290.764 327.621 C 291.106 325.070,293.920 323.680,296.843 324.617 M279.600 325.067 C 280.775 326.241,279.692 326.883,276.250 327.053 C 273.368 327.194,273.054 326.915,274.485 325.485 C 275.401 324.569,278.823 324.289,279.600 325.067 M309.186 325.147 C 310.499 326.122,309.430 326.812,306.299 327.011 C 303.057 327.217,303.208 327.252,303.492 326.357 C 303.966 324.866,307.730 324.066,309.186 325.147 M109.940 329.383 C 109.694 331.034,105.585 332.177,104.156 330.991 C 102.904 329.952,103.936 329.195,106.904 328.972 C 108.332 328.865,109.623 328.752,109.773 328.722 C 109.923 328.692,109.998 328.989,109.940 329.383 M149.186 330.568 C 147.903 331.672,143.647 331.546,143.672 330.405 C 143.692 329.476,144.463 329.157,147.070 329.000 C 150.207 328.811,150.756 329.217,149.186 330.568 M250.000 329.282 C 250.000 331.223,244.954 332.303,243.876 330.593 C 243.278 329.642,244.142 329.184,246.932 328.972 C 248.344 328.865,249.612 328.752,249.750 328.722 C 249.887 328.692,250.000 328.943,250.000 329.282 M333.000 329.183 C 333.000 330.568,330.977 331.546,328.500 331.358 C 325.225 331.110,326.303 329.234,329.868 328.978 C 331.316 328.874,332.612 328.761,332.750 328.728 C 332.887 328.694,333.000 328.899,333.000 329.183 M155.667 342.717 C 155.025 342.895,153.938 343.187,153.250 343.367 C 152.046 343.680,151.443 344.950,152.258 345.454 C 153.183 346.025,158.333 344.169,158.333 343.265 C 158.333 342.227,157.816 342.121,155.667 342.717 M173.538 343.035 C 172.275 343.371,171.181 343.708,171.105 343.784 C 170.812 344.077,171.436 345.699,171.791 345.565 C 171.998 345.488,173.329 345.151,174.750 344.818 C 177.217 344.239,177.333 344.169,177.333 343.272 C 177.333 342.149,176.953 342.125,173.538 343.035 M92.795 343.078 L 91.422 343.409 90.366 350.121 C 89.785 353.813,89.228 357.246,89.129 357.750 C 88.963 358.587,89.034 358.667,89.951 358.667 C 91.054 358.667,91.156 358.486,91.525 355.875 L 91.755 354.251 93.294 354.423 C 97.908 354.939,100.976 352.164,100.993 347.462 C 101.007 343.423,98.008 341.819,92.795 343.078 M162.667 345.333 C 162.289 347.762,162.184 348.000,161.495 348.000 C 160.760 348.000,160.333 348.561,160.333 349.527 C 160.333 349.810,160.670 350.000,161.173 350.000 C 161.874 350.000,161.983 350.124,161.836 350.750 C 160.617 355.913,161.450 358.643,164.250 358.662 C 164.848 358.666,165.000 358.480,165.000 357.746 C 165.000 357.111,164.767 356.722,164.250 356.495 C 163.595 356.207,163.504 355.931,163.535 354.311 C 163.601 350.739,163.877 350.000,165.144 350.000 C 166.127 350.000,166.275 349.882,166.404 349.000 C 166.543 348.054,166.489 348.000,165.406 348.000 C 164.388 348.000,164.281 347.917,164.439 347.250 C 164.537 346.837,164.721 345.637,164.847 344.583 L 165.077 342.667 164.079 342.667 C 163.089 342.667,163.078 342.686,162.667 345.333 M185.540 350.250 C 184.871 354.421,184.326 358.021,184.329 358.250 C 184.334 358.690,186.330 358.856,186.338 358.417 C 186.341 358.279,186.864 354.867,187.502 350.833 C 188.898 342.000,188.881 342.667,187.711 342.667 L 186.755 342.667 185.540 350.250 M204.701 344.777 C 204.499 345.938,204.333 347.128,204.333 347.422 C 204.333 347.756,203.991 347.995,203.417 348.061 C 202.139 348.208,201.835 350.000,203.087 350.000 L 203.886 350.000 203.441 352.750 C 202.775 356.877,203.291 358.152,205.792 358.558 C 207.288 358.801,207.662 357.116,206.250 356.495 C 205.569 356.195,205.505 355.955,205.553 353.893 C 205.634 350.403,205.802 350.000,207.173 350.000 C 208.240 350.000,208.333 349.920,208.333 349.000 C 208.333 348.102,208.227 348.000,207.290 348.000 C 206.268 348.000,206.251 347.974,206.462 346.750 C 207.181 342.577,207.189 342.667,206.080 342.667 C 205.099 342.667,205.057 342.730,204.701 344.777 M223.541 343.583 C 221.231 355.428,221.396 358.309,224.395 358.448 C 225.851 358.516,226.272 356.891,224.888 356.544 C 223.652 356.233,223.642 355.873,224.683 349.287 C 225.215 345.921,225.653 343.054,225.658 342.917 C 225.686 342.104,223.708 342.727,223.541 343.583 M229.561 348.417 C 228.166 357.268,228.483 358.667,231.883 358.667 C 232.677 358.667,232.428 356.866,231.583 356.496 C 230.520 356.029,230.509 355.295,231.475 349.362 C 232.571 342.630,232.571 342.667,231.401 342.667 L 230.468 342.667 229.561 348.417 M259.503 343.750 C 259.396 344.346,259.198 345.508,259.064 346.333 C 258.849 347.646,258.705 347.847,257.909 347.939 C 256.704 348.079,256.520 350.000,257.712 350.000 C 258.372 350.000,258.407 350.117,258.193 351.583 C 257.400 357.019,257.755 358.131,260.417 358.555 C 261.998 358.807,262.407 356.925,260.856 356.535 C 259.768 356.262,259.643 355.619,260.107 352.667 L 260.500 350.167 261.667 350.000 C 263.364 349.758,263.638 348.000,261.979 348.000 L 260.914 348.000 261.141 346.287 C 261.266 345.344,261.454 344.144,261.559 343.620 C 261.736 342.736,261.675 342.667,260.723 342.667 C 259.827 342.667,259.672 342.804,259.503 343.750 M290.367 344.750 C 288.217 356.700,288.324 358.049,291.459 358.558 C 292.990 358.806,293.378 356.918,291.873 356.540 C 290.721 356.251,290.684 355.639,291.504 350.484 C 292.878 341.849,292.855 342.667,291.725 342.667 C 290.782 342.667,290.727 342.750,290.367 344.750 M296.562 348.583 C 295.225 357.193,295.530 358.667,298.645 358.667 C 299.713 358.667,299.600 356.895,298.500 356.394 C 297.925 356.132,297.667 355.748,297.667 355.156 C 297.667 354.684,298.042 351.974,298.500 349.134 C 299.559 342.570,299.561 342.667,298.407 342.667 L 297.480 342.667 296.562 348.583 M145.322 344.021 C 145.047 344.536,145.057 344.834,145.364 345.204 C 146.207 346.220,148.038 345.116,147.564 343.879 C 147.262 343.094,145.767 343.189,145.322 344.021 M98.417 345.695 C 99.650 347.201,98.780 351.018,97.000 351.907 C 96.099 352.357,92.456 352.492,92.241 352.083 C 91.842 351.323,93.211 345.216,93.840 344.952 C 95.013 344.460,97.772 344.907,98.417 345.695 M195.167 347.237 C 190.540 347.895,190.245 348.205,189.529 353.167 C 189.212 355.367,188.869 357.515,188.767 357.941 C 188.598 358.649,188.679 358.706,189.708 358.608 L 190.833 358.500 191.484 354.273 L 192.135 350.045 193.548 349.689 C 198.454 348.454,198.723 349.051,197.179 357.750 C 197.029 358.598,197.099 358.667,198.118 358.667 L 199.220 358.667 199.830 354.686 C 200.774 348.531,199.572 346.609,195.167 347.237 M103.660 348.020 L 102.153 348.686 101.572 352.426 C 101.253 354.483,100.899 356.729,100.786 357.417 C 100.585 358.634,100.606 358.667,101.601 358.667 C 102.797 358.667,102.743 358.805,103.522 353.759 L 104.100 350.019 105.238 349.643 C 105.864 349.436,106.867 349.359,107.466 349.472 C 108.981 349.756,110.213 348.558,109.182 347.803 C 108.260 347.129,105.427 347.240,103.660 348.020 M112.661 347.956 C 109.621 349.586,108.531 356.525,111.098 357.907 C 112.392 358.604,116.353 358.704,117.833 358.076 C 121.169 356.664,122.148 349.058,119.156 347.807 C 117.504 347.117,114.080 347.195,112.661 347.956 M124.604 347.729 C 123.174 348.110,123.396 347.381,122.006 356.261 C 120.774 364.131,120.777 363.667,121.963 363.667 C 122.999 363.667,122.997 363.670,123.511 359.981 L 123.723 358.462 125.706 358.605 C 130.431 358.947,133.823 355.666,133.240 351.319 C 132.781 347.894,129.349 346.467,124.604 347.729 M137.504 347.836 C 135.668 348.490,135.527 348.777,134.868 353.234 C 134.548 355.397,134.202 357.515,134.101 357.941 C 133.931 358.649,134.012 358.706,135.041 358.608 L 136.167 358.500 136.828 354.250 L 137.489 350.000 138.585 349.639 C 139.187 349.440,140.248 349.373,140.941 349.490 C 142.398 349.736,143.713 348.322,142.651 347.650 C 141.928 347.192,139.016 347.297,137.504 347.836 M144.842 347.750 C 144.766 347.979,144.349 350.529,143.914 353.417 L 143.124 358.667 144.186 358.667 L 145.247 358.667 145.969 353.917 C 146.367 351.304,146.773 348.754,146.872 348.250 C 147.067 347.262,145.157 346.792,144.842 347.750 M152.665 347.645 C 149.791 348.519,148.929 349.542,148.373 352.741 C 147.634 356.992,148.889 358.333,153.847 358.593 L 157.000 358.758 157.000 357.545 L 157.000 356.333 154.332 356.384 C 151.627 356.435,150.333 355.932,150.333 354.828 C 150.333 354.431,152.689 354.009,154.933 354.003 C 158.029 353.995,160.193 350.567,158.250 348.747 C 156.860 347.445,154.714 347.021,152.665 347.645 M171.665 347.645 C 166.923 349.087,165.403 356.187,169.444 358.021 C 171.471 358.941,176.000 358.946,176.000 358.027 C 176.000 357.676,176.092 357.149,176.204 356.857 C 176.380 356.397,176.048 356.332,173.700 356.366 C 170.913 356.407,169.333 355.866,169.333 354.871 C 169.333 354.401,171.358 354.000,173.730 354.000 C 178.344 354.000,179.730 348.882,175.438 347.690 C 173.995 347.289,172.877 347.276,171.665 347.645 M213.186 347.831 C 210.372 348.833,209.418 350.381,209.245 354.225 C 209.102 357.384,211.159 358.782,215.667 358.592 L 217.833 358.500 217.938 357.414 L 218.043 356.327 215.338 356.367 C 210.772 356.433,209.541 354.537,213.917 354.178 C 218.261 353.822,219.472 353.211,219.853 351.181 C 220.416 348.179,217.011 346.468,213.186 347.831 M238.998 347.626 C 234.229 349.182,232.733 356.185,236.777 358.021 C 238.804 358.941,243.333 358.946,243.333 358.027 C 243.333 357.676,243.425 357.149,243.537 356.857 C 243.714 356.397,243.382 356.332,241.034 356.366 C 238.246 356.407,236.667 355.866,236.667 354.871 C 236.667 354.394,238.699 354.000,241.164 354.000 C 244.657 354.000,246.792 349.918,244.190 348.213 C 243.226 347.581,240.188 347.238,238.998 347.626 M249.833 347.938 C 243.788 350.814,245.752 359.851,252.132 358.515 C 252.609 358.415,253.350 358.262,253.777 358.175 C 254.430 358.041,254.530 357.854,254.404 356.998 C 254.282 356.163,254.137 356.018,253.598 356.188 C 250.709 357.105,248.333 356.055,248.333 353.860 C 248.333 350.699,250.520 348.966,253.721 349.590 C 255.303 349.898,256.622 348.822,255.742 347.942 C 255.084 347.284,251.213 347.282,249.833 347.938 M264.850 347.750 C 262.122 356.561,264.554 360.007,271.922 357.771 C 273.907 357.169,273.731 357.550,274.514 352.167 C 274.807 350.150,275.121 348.238,275.212 347.917 C 275.347 347.444,275.166 347.333,274.260 347.333 L 273.142 347.333 272.520 351.502 L 271.897 355.671 270.698 356.027 C 269.029 356.524,266.652 356.301,266.217 355.606 C 265.896 355.095,266.299 350.634,266.897 348.083 C 267.094 347.239,265.108 346.916,264.850 347.750 M280.665 347.645 C 277.763 348.527,276.887 349.585,276.385 352.812 C 275.723 357.066,277.096 358.453,282.000 358.483 L 284.833 358.500 284.938 357.414 L 285.043 356.327 282.338 356.367 C 279.598 356.407,278.333 355.920,278.333 354.827 C 278.333 354.405,280.484 354.000,282.730 354.000 C 285.126 354.000,287.000 352.350,287.000 350.241 C 287.000 348.250,283.453 346.796,280.665 347.645 M306.144 347.646 C 300.962 348.886,299.675 357.084,304.472 358.292 C 307.050 358.941,310.333 358.793,310.333 358.027 C 310.333 357.676,310.425 357.149,310.537 356.857 C 310.714 356.397,310.382 356.332,308.034 356.366 C 305.246 356.407,303.667 355.866,303.667 354.871 C 303.667 354.401,305.691 354.000,308.063 354.000 C 310.522 354.000,312.333 352.477,312.333 350.410 C 312.333 348.080,309.541 346.833,306.144 347.646 M118.373 349.906 C 119.271 350.805,118.487 355.382,117.329 356.003 C 116.320 356.542,112.484 356.417,111.995 355.827 C 111.038 354.674,112.299 350.280,113.767 349.652 C 114.685 349.260,117.904 349.438,118.373 349.906 M130.430 350.370 C 132.737 353.219,129.643 357.104,125.555 356.491 L 124.147 356.280 124.646 352.987 C 125.207 349.290,125.183 349.314,128.145 349.485 C 129.403 349.558,129.942 349.767,130.430 350.370 M156.515 350.137 C 157.138 350.592,157.139 350.627,156.549 351.279 C 155.702 352.215,150.665 352.496,150.666 351.608 C 150.668 350.004,154.884 348.944,156.515 350.137 M175.454 350.092 C 176.188 350.628,175.859 351.617,174.880 351.821 C 172.576 352.300,169.667 352.190,169.667 351.623 C 169.667 350.042,173.866 348.931,175.454 350.092 M217.325 349.996 C 218.127 350.425,217.835 351.620,216.877 351.828 C 214.737 352.292,211.665 352.162,211.666 351.608 C 211.668 350.096,215.483 349.009,217.325 349.996 M242.788 350.092 C 243.521 350.628,243.192 351.617,242.213 351.821 C 239.910 352.300,237.000 352.190,237.000 351.623 C 237.000 350.042,241.200 348.931,242.788 350.092 M284.454 350.092 C 285.188 350.628,284.859 351.617,283.880 351.821 C 281.576 352.300,278.667 352.190,278.667 351.623 C 278.667 350.042,282.866 348.931,284.454 350.092 M309.965 350.124 C 310.978 351.345,309.872 351.925,306.249 352.074 C 303.722 352.178,303.439 351.864,304.818 350.485 C 305.779 349.524,309.264 349.280,309.965 350.124 " stroke="none" fill="#3c3c3c" fill-rule="evenodd"></path><path id="path3" d="M195.917 28.569 C 196.329 28.648,197.004 28.648,197.417 28.569 C 197.829 28.489,197.492 28.424,196.667 28.424 C 195.842 28.424,195.504 28.489,195.917 28.569 M246.000 37.167 C 246.458 37.429,246.983 37.643,247.167 37.643 C 247.350 37.643,247.125 37.429,246.667 37.167 C 246.208 36.905,245.683 36.690,245.500 36.690 C 245.317 36.690,245.542 36.905,246.000 37.167 M251.333 39.311 C 251.333 39.448,251.708 39.731,252.167 39.939 C 252.625 40.148,252.999 40.210,252.997 40.076 C 252.996 39.943,252.621 39.660,252.164 39.448 C 251.707 39.236,251.333 39.175,251.333 39.311 M254.333 40.792 C 254.791 41.060,255.228 41.216,255.305 41.139 C 255.512 40.932,255.262 40.775,254.333 40.528 L 253.500 40.306 254.333 40.792 M143.833 41.821 C 143.283 42.073,143.067 42.291,143.353 42.306 C 143.639 42.321,144.164 42.113,144.520 41.844 C 145.323 41.236,145.126 41.230,143.833 41.821 M262.000 44.495 C 262.000 44.809,264.637 46.399,264.966 46.283 C 265.149 46.219,264.556 45.754,263.649 45.250 C 262.742 44.746,262.000 44.406,262.000 44.495 M189.750 52.572 C 190.254 52.648,191.079 52.648,191.583 52.572 C 192.088 52.496,191.675 52.433,190.667 52.433 C 189.658 52.433,189.246 52.496,189.750 52.572 M223.000 57.326 C 223.000 57.470,223.370 57.660,223.823 57.746 C 224.276 57.833,224.578 57.793,224.495 57.659 C 224.274 57.300,223.000 57.017,223.000 57.326 M156.833 57.845 C 156.000 58.247,155.972 58.293,156.667 58.123 C 157.611 57.892,158.673 57.351,158.167 57.359 C 157.983 57.361,157.383 57.580,156.833 57.845 M283.345 59.754 C 283.980 60.352,284.564 60.801,284.642 60.751 C 284.871 60.604,282.909 58.667,282.532 58.667 C 282.344 58.667,282.709 59.156,283.345 59.754 M113.294 66.274 C 112.321 67.411,112.253 67.823,113.187 66.927 C 113.706 66.428,114.056 65.945,113.965 65.853 C 113.873 65.762,113.571 65.951,113.294 66.274 M292.075 71.250 C 292.548 72.349,293.333 73.583,293.333 73.228 C 293.333 72.870,292.019 70.333,291.834 70.333 C 291.750 70.333,291.858 70.746,292.075 71.250 M106.333 75.833 C 105.925 76.494,105.664 77.109,105.754 77.198 C 105.844 77.288,106.242 76.811,106.639 76.139 C 107.580 74.544,107.302 74.266,106.333 75.833 M295.524 79.000 C 295.643 79.458,295.875 79.976,296.037 80.150 C 296.513 80.659,296.367 79.929,295.808 79.000 L 295.306 78.167 295.524 79.000 M119.542 81.042 C 118.773 81.940,119.041 82.209,119.833 81.333 C 120.167 80.964,120.371 80.593,120.286 80.508 C 120.201 80.423,119.866 80.663,119.542 81.042 M265.172 82.094 C 265.494 82.604,265.841 82.937,265.943 82.834 C 266.046 82.732,265.782 82.315,265.358 81.907 L 264.586 81.167 265.172 82.094 M117.524 83.190 C 117.236 83.479,117.000 83.879,117.000 84.079 C 117.000 84.280,117.039 84.382,117.087 84.306 C 117.135 84.229,117.458 83.829,117.805 83.417 C 118.523 82.564,118.317 82.398,117.524 83.190 M99.526 88.917 C 99.125 89.316,98.308 91.420,98.486 91.597 C 98.575 91.686,98.802 91.353,98.991 90.857 C 99.180 90.361,99.489 89.665,99.679 89.311 C 100.034 88.647,99.968 88.477,99.526 88.917 M271.859 99.833 C 271.965 100.567,272.185 101.304,272.348 101.472 C 272.510 101.639,272.490 101.189,272.302 100.472 C 271.801 98.554,271.640 98.323,271.859 99.833 M103.105 104.917 C 102.991 105.237,102.834 105.650,102.757 105.833 C 102.680 106.017,102.853 105.875,103.142 105.520 C 103.666 104.873,103.824 104.333,103.490 104.333 C 103.392 104.333,103.219 104.596,103.105 104.917 M273.023 105.230 C 273.099 106.096,273.620 106.830,273.643 106.103 C 273.656 105.701,273.517 105.280,273.333 105.167 C 273.150 105.053,273.011 105.082,273.023 105.230 M335.417 120.239 C 335.921 120.315,336.746 120.315,337.250 120.239 C 337.754 120.162,337.342 120.100,336.333 120.100 C 335.325 120.100,334.912 120.162,335.417 120.239 M322.750 123.010 C 321.634 123.459,321.842 123.687,323.000 123.283 C 323.550 123.092,324.000 122.874,324.000 122.801 C 324.000 122.603,323.594 122.671,322.750 123.010 M352.627 135.406 C 352.781 136.332,352.827 136.379,352.932 135.712 C 353.001 135.278,352.919 134.786,352.751 134.618 C 352.566 134.433,352.517 134.744,352.627 135.406 M293.480 146.844 C 293.836 147.113,294.277 147.333,294.461 147.333 C 294.644 147.333,294.503 147.113,294.147 146.844 C 293.791 146.575,293.350 146.355,293.167 146.355 C 292.983 146.355,293.125 146.575,293.480 146.844 M317.723 197.650 C 317.528 198.209,317.493 198.667,317.645 198.667 C 317.909 198.667,318.382 196.943,318.176 196.733 C 318.121 196.678,317.918 197.090,317.723 197.650 M322.722 238.608 C 322.063 239.952,321.667 241.000,321.818 241.000 C 322.046 241.000,323.459 238.014,323.304 237.860 C 323.225 237.780,322.963 238.117,322.722 238.608 M302.751 239.380 C 302.528 239.972,302.413 240.524,302.496 240.608 C 302.695 240.807,303.385 238.987,303.256 238.602 C 303.202 238.438,302.974 238.789,302.751 239.380 M320.042 243.542 C 319.822 244.024,319.718 244.496,319.812 244.589 C 319.905 244.683,320.140 244.343,320.333 243.833 C 320.527 243.324,320.630 242.853,320.563 242.786 C 320.496 242.719,320.262 243.059,320.042 243.542 M299.892 246.175 C 299.768 246.537,299.576 247.058,299.465 247.333 C 299.355 247.608,299.516 247.492,299.824 247.075 C 300.131 246.658,300.323 246.136,300.250 245.917 C 300.175 245.692,300.018 245.806,299.892 246.175 M294.492 258.025 C 294.171 259.037,294.495 259.141,294.939 258.168 C 295.148 257.709,295.182 257.333,295.015 257.333 C 294.848 257.333,294.613 257.645,294.492 258.025 M310.167 260.333 C 309.882 260.883,309.725 261.333,309.816 261.333 C 309.908 261.333,310.216 260.883,310.500 260.333 C 310.784 259.783,310.942 259.333,310.850 259.333 C 310.759 259.333,310.451 259.783,310.167 260.333 M304.310 269.055 C 304.085 269.483,303.739 269.938,303.543 270.065 C 303.347 270.193,303.278 270.389,303.390 270.501 C 303.502 270.613,303.927 270.238,304.333 269.667 C 304.740 269.096,304.994 268.549,304.897 268.452 C 304.800 268.355,304.536 268.627,304.310 269.055 M301.667 272.587 C 301.667 272.788,301.431 273.188,301.143 273.476 C 300.855 273.764,300.774 274.000,300.964 274.000 C 301.386 274.000,302.130 272.685,301.860 272.416 C 301.754 272.309,301.667 272.387,301.667 272.587 M297.875 277.740 C 297.413 278.330,297.123 278.893,297.230 278.990 C 297.337 279.087,297.487 278.993,297.563 278.781 C 297.639 278.569,297.994 278.058,298.351 277.646 C 298.708 277.235,299.000 276.846,299.000 276.782 C 299.000 276.459,298.633 276.771,297.875 277.740 M282.744 280.333 C 282.515 280.700,282.443 281.000,282.584 281.000 C 282.724 281.000,283.027 280.700,283.256 280.333 C 283.485 279.967,283.557 279.667,283.416 279.667 C 283.276 279.667,282.973 279.967,282.744 280.333 M279.932 285.002 C 279.201 286.286,279.418 286.285,280.333 285.000 C 280.725 284.450,280.923 284.001,280.773 284.002 C 280.623 284.003,280.244 284.453,279.932 285.002 M292.016 285.087 L 291.246 286.167 292.189 285.260 C 292.707 284.761,293.054 284.276,292.959 284.181 C 292.864 284.086,292.439 284.494,292.016 285.087 M277.988 288.015 C 277.400 288.757,276.998 289.443,277.094 289.539 C 277.190 289.635,277.741 289.028,278.317 288.190 C 279.615 286.304,279.423 286.203,277.988 288.015 M269.759 298.750 C 268.729 300.083,268.865 300.401,269.938 299.167 C 270.336 298.708,270.532 298.333,270.372 298.333 C 270.212 298.333,269.937 298.521,269.759 298.750 M273.660 302.841 C 273.016 303.618,273.475 303.764,274.165 303.002 C 274.498 302.634,274.615 302.333,274.426 302.333 C 274.237 302.333,273.892 302.562,273.660 302.841 M261.781 308.164 C 261.993 308.621,262.284 308.996,262.428 308.997 C 262.735 309.000,262.136 307.790,261.696 307.518 C 261.531 307.416,261.569 307.707,261.781 308.164 " stroke="none" fill="#94c41c" fill-rule="evenodd"></path><path id="path4" d="M193.524 28.587 C 193.467 28.644,192.314 28.748,190.961 28.820 C 189.607 28.891,188.500 28.978,188.500 29.014 C 188.500 29.049,187.750 29.116,186.833 29.162 C 185.917 29.209,185.167 29.279,185.167 29.318 C 185.167 29.357,184.567 29.430,183.833 29.481 C 183.100 29.531,182.425 29.617,182.333 29.671 C 182.242 29.726,181.792 29.811,181.333 29.860 C 180.875 29.909,180.050 30.041,179.500 30.154 C 178.950 30.267,178.050 30.406,177.500 30.463 C 176.950 30.519,176.245 30.676,175.933 30.812 C 175.621 30.948,175.185 30.948,174.964 30.811 C 174.725 30.663,174.651 30.704,174.780 30.913 C 174.906 31.117,174.685 31.261,174.248 31.259 C 173.401 31.256,170.336 31.813,170.083 32.016 C 170.037 32.053,169.887 32.104,169.750 32.130 C 169.612 32.156,169.326 32.288,169.113 32.423 C 168.901 32.558,168.464 32.568,168.142 32.444 C 167.713 32.280,167.629 32.337,167.828 32.659 C 168.037 32.997,167.897 33.046,167.216 32.876 C 166.708 32.748,166.333 32.794,166.333 32.983 C 166.333 33.164,166.108 33.226,165.833 33.121 C 165.558 33.015,165.333 33.090,165.333 33.287 C 165.333 33.484,165.108 33.559,164.833 33.454 C 164.558 33.348,164.333 33.437,164.333 33.652 C 164.333 33.866,164.056 33.995,163.718 33.938 C 163.379 33.880,162.826 34.058,162.487 34.333 C 161.940 34.778,161.905 34.778,162.167 34.333 C 162.411 33.918,162.374 33.904,161.950 34.247 C 161.669 34.475,161.340 34.562,161.219 34.442 C 161.099 34.321,161.000 34.372,161.000 34.556 C 161.000 34.739,160.813 34.905,160.583 34.925 C 160.100 34.967,158.872 35.251,158.750 35.349 C 158.704 35.386,158.554 35.449,158.417 35.488 C 158.279 35.528,157.596 35.815,156.899 36.125 C 156.202 36.436,155.192 36.778,154.654 36.886 C 154.101 36.996,153.770 37.230,153.890 37.425 C 154.017 37.631,153.939 37.668,153.697 37.519 C 153.474 37.381,153.038 37.497,152.729 37.777 C 152.420 38.057,152.056 38.301,151.920 38.319 C 151.785 38.337,151.447 38.422,151.170 38.509 C 150.893 38.596,150.440 38.738,150.163 38.824 C 149.886 38.911,149.581 38.981,149.485 38.979 C 149.388 38.977,149.078 39.208,148.795 39.491 C 148.511 39.774,148.142 39.921,147.973 39.817 C 147.805 39.713,147.667 39.786,147.667 39.980 C 147.667 40.174,147.377 40.333,147.024 40.333 C 146.670 40.333,146.145 40.569,145.857 40.857 C 145.569 41.145,145.333 41.295,145.333 41.190 C 145.333 41.086,145.033 41.300,144.667 41.667 C 144.300 42.033,143.700 42.333,143.333 42.333 C 142.967 42.333,142.667 42.483,142.667 42.667 C 142.667 42.850,142.390 43.000,142.052 43.000 C 141.713 43.000,141.168 43.296,140.840 43.659 C 140.513 44.021,140.120 44.241,139.968 44.147 C 139.815 44.053,139.386 44.281,139.012 44.655 C 138.639 45.028,138.104 45.333,137.823 45.333 C 137.542 45.333,137.226 45.557,137.121 45.831 C 137.016 46.105,136.805 46.252,136.652 46.158 C 136.499 46.063,136.253 46.177,136.104 46.410 C 135.668 47.092,134.456 47.973,134.833 47.333 C 135.214 46.688,134.161 47.440,133.221 48.486 C 132.884 48.860,132.713 48.968,132.839 48.725 C 133.029 48.363,132.948 48.360,132.390 48.709 C 132.016 48.942,131.773 49.236,131.851 49.361 C 131.928 49.487,131.554 49.770,131.020 49.992 C 130.485 50.213,129.967 50.606,129.868 50.864 C 129.769 51.122,129.458 51.333,129.177 51.333 C 128.896 51.333,128.667 51.483,128.667 51.667 C 128.667 51.850,128.433 52.000,128.147 52.000 C 127.861 52.000,127.720 52.150,127.833 52.333 C 127.947 52.517,127.797 52.667,127.500 52.667 C 127.203 52.667,127.053 52.817,127.167 53.000 C 127.280 53.183,127.094 53.333,126.754 53.333 C 126.414 53.333,125.767 53.777,125.318 54.319 C 124.868 54.861,124.304 55.311,124.064 55.319 C 123.824 55.327,123.720 55.483,123.833 55.667 C 123.947 55.850,123.797 56.000,123.500 56.000 C 123.203 56.000,123.053 56.150,123.167 56.333 C 123.280 56.517,123.217 56.667,123.026 56.667 C 122.835 56.667,122.138 57.192,121.477 57.833 C 120.817 58.475,120.130 59.000,119.952 59.000 C 119.773 59.000,119.720 59.150,119.833 59.333 C 119.947 59.517,119.805 59.667,119.520 59.667 C 119.234 59.667,119.000 59.892,119.000 60.167 C 119.000 60.442,118.836 60.629,118.636 60.583 C 118.435 60.538,118.098 60.794,117.886 61.153 C 117.674 61.512,117.313 62.010,117.083 62.260 C 116.854 62.510,116.667 62.854,116.667 63.024 C 116.667 63.194,116.451 63.333,116.186 63.333 C 115.922 63.333,115.599 63.507,115.468 63.718 C 115.311 63.973,115.378 64.012,115.667 63.833 C 115.955 63.655,116.023 63.694,115.865 63.948 C 115.734 64.160,115.428 64.333,115.185 64.333 C 114.942 64.333,114.492 64.862,114.185 65.508 C 113.860 66.194,113.476 66.588,113.263 66.456 C 113.047 66.323,112.992 66.384,113.128 66.604 C 113.255 66.810,113.053 67.169,112.680 67.403 C 112.306 67.636,112.000 68.000,112.000 68.211 C 112.000 68.422,111.774 68.682,111.497 68.788 C 111.220 68.895,111.033 69.173,111.080 69.407 C 111.128 69.642,111.009 69.806,110.816 69.772 C 110.624 69.738,110.275 70.017,110.042 70.390 C 109.694 70.948,109.697 71.029,110.059 70.844 C 110.301 70.720,110.087 70.972,109.583 71.405 C 109.079 71.838,108.667 72.305,108.667 72.443 C 108.667 72.581,108.367 73.017,108.000 73.410 C 107.633 73.804,107.333 74.314,107.333 74.544 C 107.333 75.136,105.995 77.333,105.634 77.333 C 105.469 77.333,105.351 77.446,105.373 77.583 C 105.478 78.248,105.300 78.685,105.000 78.500 C 104.817 78.387,104.667 78.528,104.667 78.814 C 104.667 79.099,104.517 79.333,104.333 79.333 C 104.150 79.333,104.024 79.446,104.053 79.583 C 104.145 80.017,103.592 81.139,102.915 81.892 C 102.539 82.310,102.371 82.791,102.517 83.027 C 102.670 83.275,102.632 83.351,102.420 83.220 C 102.227 83.101,101.981 83.236,101.872 83.519 C 101.760 83.811,101.816 83.947,102.000 83.833 C 102.184 83.719,102.240 83.856,102.128 84.147 C 102.019 84.431,101.770 84.564,101.575 84.443 C 101.351 84.305,101.300 84.432,101.436 84.788 C 101.572 85.141,101.406 85.563,100.993 85.917 C 100.630 86.227,100.333 86.823,100.333 87.241 C 100.333 87.658,100.199 88.000,100.036 88.000 C 99.872 88.000,99.649 88.233,99.539 88.517 C 99.429 88.805,99.483 88.947,99.660 88.837 C 99.836 88.729,99.675 89.284,99.303 90.070 C 98.930 90.857,98.542 91.763,98.441 92.083 C 98.339 92.404,98.128 92.667,97.972 92.667 C 97.815 92.667,97.772 92.888,97.876 93.158 C 97.980 93.428,97.832 93.883,97.547 94.168 C 97.262 94.453,97.113 94.907,97.216 95.176 C 97.320 95.446,97.230 95.667,97.016 95.667 C 96.802 95.667,96.714 95.806,96.819 95.977 C 96.925 96.148,96.865 96.377,96.687 96.488 C 96.508 96.598,96.447 96.908,96.550 97.177 C 96.653 97.446,96.563 97.667,96.349 97.667 C 96.136 97.667,96.037 97.790,96.130 97.941 C 96.223 98.091,96.096 98.606,95.848 99.084 C 95.600 99.562,95.479 100.035,95.579 100.135 C 95.680 100.235,95.604 100.508,95.412 100.742 C 95.084 101.141,94.701 102.635,94.530 104.183 C 94.489 104.559,94.360 105.020,94.245 105.207 C 94.003 105.599,93.628 107.192,93.549 108.167 C 93.520 108.533,93.386 109.004,93.251 109.213 C 93.116 109.422,92.921 110.472,92.817 111.546 C 92.554 114.269,92.433 115.167,92.332 115.167 C 92.284 115.167,92.195 115.767,92.136 116.500 C 92.076 117.233,91.938 118.808,91.829 120.000 C 91.548 123.077,91.457 130.995,91.699 131.385 C 91.810 131.565,92.486 131.665,93.201 131.606 C 94.560 131.495,94.565 131.487,94.771 129.115 C 94.805 128.720,94.951 128.470,95.095 128.559 C 95.238 128.647,95.285 128.330,95.199 127.853 C 95.112 127.376,95.164 127.062,95.314 127.154 C 95.677 127.379,96.039 125.489,95.768 124.782 C 95.623 124.406,95.681 124.303,95.943 124.465 C 96.208 124.629,96.333 124.385,96.333 123.706 C 96.333 123.156,96.496 122.605,96.696 122.482 C 96.895 122.359,96.984 121.975,96.894 121.629 C 96.803 121.283,96.860 121.000,97.021 121.000 C 97.181 121.000,97.232 120.790,97.133 120.534 C 97.035 120.277,97.117 119.967,97.316 119.844 C 97.515 119.721,97.598 119.491,97.500 119.333 C 97.402 119.175,97.468 118.956,97.647 118.846 C 97.825 118.735,97.877 118.401,97.762 118.101 C 97.624 117.740,97.683 117.638,97.940 117.796 C 98.192 117.952,98.257 117.855,98.127 117.517 C 98.016 117.228,98.104 117.000,98.325 117.000 C 98.544 117.000,98.660 116.814,98.584 116.586 C 98.508 116.359,98.633 115.986,98.860 115.759 C 99.088 115.531,99.189 115.019,99.084 114.620 C 98.954 114.123,99.016 113.971,99.281 114.134 C 99.524 114.284,99.667 114.126,99.667 113.706 C 99.667 113.339,99.819 112.945,100.005 112.830 C 100.192 112.715,100.264 112.491,100.167 112.333 C 100.069 112.175,100.135 111.956,100.313 111.846 C 100.492 111.735,100.553 111.425,100.450 111.156 C 100.347 110.887,100.398 110.667,100.564 110.667 C 100.875 110.667,101.855 108.363,101.734 107.917 C 101.697 107.779,101.801 107.667,101.964 107.667 C 102.302 107.667,102.655 106.893,102.877 105.667 C 102.961 105.208,103.223 104.683,103.460 104.500 C 103.698 104.317,103.829 103.979,103.751 103.750 C 103.674 103.521,103.782 103.333,103.992 103.333 C 104.201 103.333,104.280 103.183,104.167 103.000 C 104.053 102.817,104.128 102.667,104.333 102.667 C 104.538 102.667,104.613 102.517,104.500 102.333 C 104.387 102.150,104.453 102.000,104.647 102.000 C 104.841 102.000,105.000 101.775,105.000 101.500 C 105.000 101.225,105.159 101.000,105.353 101.000 C 105.547 101.000,105.613 100.850,105.500 100.667 C 105.387 100.483,105.453 100.333,105.647 100.333 C 105.841 100.333,106.000 100.094,106.000 99.803 C 106.000 99.511,106.300 98.890,106.667 98.424 C 107.033 97.958,107.333 97.363,107.333 97.102 C 107.333 96.834,107.497 96.729,107.710 96.860 C 107.939 97.002,108.025 96.911,107.929 96.630 C 107.842 96.375,108.070 95.904,108.437 95.583 C 108.803 95.263,108.967 94.998,108.801 94.995 C 108.635 94.992,108.663 94.880,108.863 94.745 C 109.549 94.283,111.321 91.583,111.136 91.283 C 111.034 91.118,111.149 91.025,111.392 91.075 C 111.635 91.125,111.796 90.979,111.750 90.750 C 111.704 90.521,111.817 90.333,112.000 90.333 C 112.183 90.333,112.333 90.144,112.333 89.912 C 112.333 89.681,112.708 89.210,113.167 88.866 C 113.625 88.522,114.000 88.052,114.000 87.822 C 114.000 87.592,114.671 86.693,115.492 85.824 C 116.312 84.956,117.065 83.988,117.165 83.673 C 117.264 83.359,117.718 82.932,118.173 82.724 C 118.628 82.517,119.000 82.196,119.000 82.011 C 119.000 81.493,120.084 80.346,120.393 80.537 C 120.543 80.630,120.667 80.463,120.667 80.167 C 120.667 79.870,120.817 79.720,121.000 79.833 C 121.183 79.947,121.333 79.780,121.333 79.464 C 121.333 79.148,121.421 78.976,121.528 79.083 C 121.765 79.320,123.000 78.132,123.000 77.667 C 123.000 77.483,123.112 77.371,123.250 77.417 C 123.388 77.462,123.527 77.363,123.561 77.196 C 123.594 77.029,124.070 76.703,124.619 76.473 C 125.167 76.242,125.870 75.666,126.180 75.193 C 126.490 74.720,126.915 74.333,127.126 74.333 C 127.336 74.333,127.790 73.958,128.134 73.500 C 128.478 73.042,128.933 72.667,129.144 72.667 C 129.355 72.667,130.071 72.154,130.736 71.527 C 131.400 70.901,132.031 70.476,132.138 70.583 C 132.246 70.690,132.333 70.603,132.333 70.389 C 132.333 70.175,132.567 70.000,132.853 70.000 C 133.139 70.000,133.280 69.850,133.167 69.667 C 133.053 69.483,133.208 69.333,133.510 69.333 C 133.812 69.333,134.358 68.996,134.722 68.583 C 135.086 68.171,135.287 68.058,135.167 68.333 C 135.048 68.608,135.187 68.542,135.475 68.186 C 135.764 67.830,136.000 67.660,136.000 67.807 C 136.000 67.954,136.311 67.720,136.692 67.287 C 137.073 66.854,137.290 66.686,137.175 66.913 C 137.037 67.185,137.142 67.258,137.483 67.127 C 137.767 67.018,138.000 66.795,138.000 66.631 C 138.000 66.467,138.230 66.333,138.510 66.333 C 138.791 66.333,139.111 66.100,139.220 65.814 C 139.330 65.529,139.631 65.376,139.889 65.475 C 140.147 65.574,140.444 65.434,140.548 65.163 C 140.651 64.892,140.862 64.748,141.014 64.842 C 141.167 64.937,141.447 64.748,141.636 64.424 C 141.825 64.099,141.984 63.951,141.990 64.095 C 141.995 64.239,142.337 64.169,142.750 63.940 C 143.485 63.532,143.686 63.459,144.310 63.375 C 144.480 63.352,144.818 63.146,145.061 62.917 C 146.103 61.933,146.809 61.477,146.504 61.982 C 146.327 62.275,146.597 62.196,147.190 61.780 C 147.727 61.403,148.375 61.168,148.630 61.257 C 148.912 61.357,149.002 61.273,148.860 61.043 C 148.732 60.836,148.749 60.656,148.897 60.642 C 149.779 60.561,150.663 60.296,151.500 59.862 C 152.024 59.590,152.599 59.458,152.778 59.569 C 152.957 59.679,153.007 59.614,152.889 59.423 C 152.771 59.232,152.973 58.998,153.338 58.902 C 153.702 58.807,153.918 58.862,153.818 59.025 C 153.717 59.189,154.390 58.943,155.313 58.479 C 156.236 58.015,157.454 57.578,158.019 57.506 C 158.584 57.434,159.265 57.195,159.532 56.974 C 159.798 56.753,160.111 56.667,160.227 56.783 C 160.344 56.899,160.624 56.840,160.850 56.653 C 161.077 56.465,161.766 56.252,162.381 56.181 C 163.384 56.064,164.545 55.830,165.000 55.653 C 165.092 55.617,165.285 55.608,165.430 55.632 C 165.575 55.656,166.025 55.497,166.430 55.278 C 166.835 55.059,167.542 54.852,168.000 54.818 C 168.458 54.784,169.058 54.674,169.333 54.573 C 170.089 54.296,173.044 53.905,174.095 53.942 C 174.606 53.960,174.944 53.846,174.847 53.689 C 174.750 53.532,175.270 53.444,176.002 53.494 C 176.734 53.543,177.333 53.476,177.333 53.344 C 177.333 53.212,178.008 53.128,178.833 53.157 C 179.658 53.186,180.333 53.125,180.333 53.022 C 180.333 52.600,193.427 52.467,198.000 52.842 C 199.742 52.984,201.879 53.113,202.750 53.127 C 203.621 53.142,204.333 53.247,204.333 53.361 C 204.333 53.476,204.858 53.543,205.500 53.511 C 206.142 53.479,206.667 53.558,206.667 53.687 C 206.667 53.817,207.079 53.932,207.583 53.945 C 208.615 53.971,210.833 54.226,210.833 54.319 C 210.833 54.386,212.468 54.670,213.500 54.781 C 213.867 54.821,214.317 54.934,214.500 55.034 C 214.683 55.133,215.283 55.242,215.833 55.277 C 216.383 55.311,216.883 55.488,216.944 55.669 C 217.005 55.850,217.401 55.912,217.825 55.806 C 218.248 55.700,218.694 55.775,218.817 55.973 C 218.939 56.171,219.375 56.333,219.786 56.333 C 220.197 56.333,220.694 56.494,220.889 56.689 C 221.195 56.995,222.137 57.185,223.936 57.304 C 224.176 57.320,224.295 57.458,224.201 57.611 C 224.107 57.764,224.210 57.910,224.431 57.935 C 225.936 58.106,226.763 58.332,227.191 58.687 C 227.461 58.911,227.779 58.998,227.898 58.880 C 228.016 58.762,228.413 58.928,228.780 59.249 C 229.255 59.665,229.365 59.689,229.160 59.333 C 228.907 58.895,228.945 58.892,229.464 59.314 C 229.789 59.578,230.373 59.818,230.761 59.846 C 231.149 59.875,231.521 60.063,231.588 60.264 C 231.655 60.465,231.925 60.547,232.188 60.446 C 232.451 60.345,232.667 60.428,232.667 60.631 C 232.667 60.834,232.779 60.972,232.917 60.937 C 233.054 60.902,233.917 61.223,234.833 61.650 C 235.750 62.077,237.775 63.005,239.333 63.712 C 240.892 64.420,242.392 65.149,242.667 65.333 C 242.942 65.518,243.490 65.809,243.884 65.980 C 244.279 66.152,244.702 66.454,244.824 66.652 C 244.946 66.849,245.186 66.925,245.356 66.819 C 245.527 66.714,245.667 66.786,245.667 66.980 C 245.667 67.174,245.863 67.333,246.104 67.333 C 246.344 67.333,246.866 67.636,247.264 68.007 C 247.662 68.377,248.060 68.640,248.149 68.590 C 248.239 68.541,248.584 68.725,248.916 69.000 C 250.561 70.360,250.804 70.516,250.507 70.023 C 250.349 69.760,250.807 69.985,251.526 70.523 C 252.245 71.060,252.883 71.612,252.944 71.750 C 253.006 71.887,253.268 72.000,253.528 72.000 C 253.787 72.000,254.000 72.150,254.000 72.333 C 254.000 72.517,254.309 72.667,254.686 72.667 C 255.064 72.667,255.280 72.817,255.167 73.000 C 255.053 73.183,255.103 73.333,255.277 73.333 C 255.451 73.333,256.172 73.855,256.880 74.492 C 257.588 75.130,258.293 75.655,258.447 75.659 C 258.601 75.663,259.024 76.004,259.389 76.417 C 259.753 76.829,259.953 76.942,259.834 76.667 C 259.715 76.392,259.860 76.467,260.156 76.833 C 260.453 77.200,260.831 77.500,260.998 77.500 C 261.164 77.500,261.495 77.710,261.733 77.966 C 262.091 78.350,262.085 78.385,261.698 78.164 C 261.385 77.985,261.309 78.024,261.468 78.282 C 261.599 78.493,261.922 78.667,262.186 78.667 C 262.451 78.667,262.667 78.807,262.667 78.978 C 262.667 79.149,262.969 79.384,263.338 79.502 C 263.708 79.619,263.933 79.838,263.840 79.989 C 263.747 80.140,263.916 80.358,264.216 80.473 C 264.516 80.588,264.671 80.774,264.559 80.885 C 264.447 80.997,264.726 81.379,265.178 81.735 C 265.630 82.091,266.000 82.577,266.000 82.817 C 266.000 83.056,266.223 83.437,266.496 83.664 C 266.769 83.890,266.910 84.209,266.810 84.371 C 266.710 84.534,266.786 84.667,266.980 84.667 C 267.174 84.667,267.333 84.956,267.333 85.310 C 267.333 85.663,267.551 86.170,267.817 86.437 C 268.084 86.703,268.209 87.013,268.095 87.127 C 267.982 87.240,268.059 87.333,268.267 87.333 C 268.475 87.333,268.559 87.558,268.454 87.833 C 268.348 88.109,268.444 88.333,268.667 88.333 C 268.889 88.333,268.987 88.554,268.884 88.823 C 268.780 89.092,268.842 89.402,269.020 89.512 C 269.198 89.623,269.258 89.852,269.152 90.023 C 269.047 90.194,269.082 90.333,269.230 90.334 C 269.379 90.334,269.523 90.728,269.551 91.210 C 269.579 91.693,269.804 92.215,270.051 92.372 C 270.298 92.528,270.357 92.659,270.183 92.662 C 270.009 92.664,270.035 92.835,270.241 93.041 C 270.446 93.246,270.540 93.610,270.448 93.848 C 270.357 94.086,270.474 94.630,270.709 95.057 C 270.944 95.484,271.189 96.208,271.254 96.667 C 271.318 97.125,271.601 98.175,271.881 99.000 C 272.162 99.825,272.393 100.987,272.396 101.583 C 272.398 102.179,272.545 102.667,272.722 102.667 C 272.900 102.667,272.950 102.967,272.833 103.333 C 272.707 103.731,272.773 104.000,272.997 104.000 C 273.204 104.000,273.276 104.157,273.158 104.348 C 273.039 104.539,273.123 104.914,273.344 105.179 C 273.565 105.445,273.667 105.964,273.571 106.332 C 273.474 106.699,273.523 107.000,273.679 107.000 C 273.834 107.000,273.904 107.300,273.833 107.667 C 273.763 108.033,273.830 108.333,273.984 108.333 C 274.137 108.333,274.265 108.671,274.267 109.083 C 274.269 109.496,274.351 110.208,274.449 110.667 C 274.547 111.125,274.726 112.025,274.846 112.667 C 274.967 113.308,275.164 113.908,275.284 114.000 C 275.404 114.092,275.554 114.617,275.617 115.167 C 275.680 115.717,275.848 116.317,275.990 116.500 C 276.132 116.683,276.205 117.096,276.153 117.417 C 276.101 117.737,276.206 118.000,276.385 118.000 C 276.565 118.000,276.616 118.300,276.500 118.667 C 276.366 119.087,276.440 119.333,276.700 119.333 C 276.926 119.333,277.016 119.428,276.901 119.544 C 276.785 119.660,276.857 120.066,277.061 120.447 C 277.407 121.094,277.520 121.625,277.624 123.103 C 277.648 123.435,277.815 123.614,277.996 123.502 C 278.181 123.388,278.243 123.514,278.138 123.789 C 278.034 124.059,278.186 124.641,278.476 125.083 C 278.765 125.525,278.902 125.987,278.779 126.110 C 278.656 126.233,278.726 126.333,278.934 126.333 C 279.150 126.333,279.221 126.571,279.100 126.888 C 278.968 127.230,279.020 127.360,279.235 127.227 C 279.443 127.099,279.583 127.361,279.583 127.877 C 279.583 128.353,279.740 128.839,279.932 128.958 C 280.123 129.076,280.329 129.393,280.390 129.662 C 280.450 129.931,280.681 130.346,280.903 130.585 C 281.124 130.824,281.211 131.265,281.096 131.564 C 280.956 131.929,281.016 132.030,281.277 131.868 C 281.491 131.736,281.685 131.786,281.708 131.980 C 281.834 133.041,282.610 134.667,282.992 134.667 C 283.180 134.667,283.333 134.948,283.333 135.293 C 283.333 135.637,283.558 136.105,283.833 136.333 C 284.108 136.562,284.333 136.878,284.333 137.037 C 284.333 137.314,285.009 138.226,285.940 139.204 C 286.183 139.458,286.300 139.667,286.202 139.667 C 286.103 139.667,286.505 140.164,287.094 140.772 C 287.684 141.380,288.381 142.196,288.643 142.585 C 288.904 142.975,289.279 143.265,289.476 143.230 C 289.673 143.195,289.797 143.350,289.753 143.573 C 289.709 143.797,290.009 144.156,290.420 144.372 C 290.831 144.588,291.288 144.970,291.437 145.222 C 291.586 145.474,291.848 145.594,292.020 145.487 C 292.193 145.381,292.333 145.517,292.333 145.790 C 292.333 146.064,292.671 146.338,293.083 146.401 C 293.496 146.464,293.798 146.694,293.754 146.913 C 293.706 147.155,293.890 147.227,294.225 147.098 C 294.583 146.961,294.695 147.017,294.545 147.260 C 294.417 147.468,294.632 147.803,295.031 148.017 C 295.612 148.327,295.698 148.315,295.489 147.950 C 295.347 147.702,295.666 147.899,296.198 148.386 C 297.187 149.290,299.663 150.488,299.672 150.066 C 299.675 149.938,299.813 150.048,299.978 150.310 C 300.144 150.572,300.480 150.829,300.723 150.881 C 301.826 151.116,302.507 151.288,302.583 151.349 C 302.629 151.386,302.817 151.454,303.000 151.500 C 303.183 151.546,303.446 151.620,303.583 151.664 C 303.721 151.709,303.946 151.728,304.083 151.706 C 304.221 151.684,304.333 151.834,304.333 152.039 C 304.333 152.247,304.627 152.334,305.000 152.237 C 305.367 152.141,305.667 152.207,305.667 152.384 C 305.667 152.561,305.817 152.613,306.000 152.500 C 306.183 152.387,306.521 152.411,306.750 152.554 C 306.979 152.697,307.542 152.855,308.000 152.905 C 312.640 153.416,317.667 153.614,317.667 153.286 C 317.667 153.164,318.267 153.112,319.000 153.170 C 319.733 153.229,320.334 153.178,320.334 153.055 C 320.334 152.933,321.089 152.801,322.012 152.760 C 322.934 152.720,324.214 152.438,324.856 152.133 C 325.498 151.829,326.117 151.673,326.231 151.787 C 326.345 151.901,326.644 151.824,326.894 151.616 C 327.521 151.096,327.795 151.471,327.369 152.267 C 327.175 152.629,327.051 153.692,327.093 154.629 C 327.134 155.566,327.065 156.333,326.939 156.333 C 326.813 156.333,326.762 157.009,326.825 157.834 C 326.888 158.660,326.823 159.263,326.680 159.175 C 326.538 159.087,326.406 159.499,326.387 160.091 C 326.331 161.821,326.109 163.456,325.843 164.083 C 325.707 164.403,325.574 165.340,325.548 166.165 C 325.522 166.990,325.392 167.665,325.260 167.666 C 325.128 167.666,325.023 168.154,325.027 168.750 C 325.035 169.893,324.924 170.473,324.521 171.401 C 324.385 171.713,324.365 172.115,324.476 172.294 C 324.587 172.474,324.534 172.709,324.359 172.817 C 324.184 172.925,324.098 173.311,324.168 173.674 C 324.238 174.036,324.129 174.333,323.925 174.333 C 323.722 174.333,323.650 174.428,323.766 174.544 C 323.882 174.660,323.817 175.053,323.622 175.417 C 323.339 175.946,323.358 176.026,323.717 175.810 C 324.082 175.590,324.089 175.635,323.753 176.050 C 323.525 176.331,323.434 176.656,323.550 176.773 C 323.667 176.889,323.619 177.175,323.444 177.409 C 323.269 177.642,323.145 178.058,323.168 178.333 C 323.192 178.608,323.054 179.133,322.862 179.500 C 322.529 180.136,322.371 180.797,322.247 182.083 C 322.216 182.404,322.064 182.667,321.909 182.667 C 321.754 182.667,321.724 182.823,321.842 183.015 C 321.961 183.206,321.882 183.574,321.667 183.833 C 321.452 184.092,321.366 184.450,321.477 184.629 C 321.587 184.808,321.534 185.042,321.359 185.151 C 321.184 185.259,321.098 185.644,321.168 186.007 C 321.238 186.370,321.138 186.667,320.945 186.667 C 320.753 186.667,320.682 186.892,320.787 187.167 C 320.893 187.442,320.831 187.667,320.650 187.667 C 320.460 187.667,320.415 188.041,320.542 188.550 C 320.698 189.171,320.651 189.363,320.382 189.197 C 320.145 189.051,319.984 189.222,319.958 189.647 C 319.916 190.347,319.803 190.934,319.683 191.083 C 319.557 191.239,319.294 192.498,319.283 193.000 C 319.276 193.275,319.037 194.021,318.752 194.657 C 318.466 195.293,318.181 196.418,318.119 197.156 C 318.056 197.894,317.862 198.546,317.688 198.604 C 317.513 198.662,317.463 198.950,317.575 199.243 C 317.688 199.536,317.640 199.689,317.469 199.584 C 317.297 199.478,317.139 199.846,317.116 200.403 C 317.093 200.959,316.934 201.509,316.763 201.624 C 316.336 201.911,315.917 203.091,316.333 202.833 C 316.518 202.719,316.573 202.856,316.461 203.149 C 316.351 203.434,316.119 203.667,315.945 203.667 C 315.770 203.667,315.717 203.812,315.828 203.991 C 315.938 204.169,315.759 204.725,315.431 205.228 C 315.102 205.730,315.007 206.034,315.219 205.903 C 315.479 205.743,315.548 205.884,315.430 206.333 C 315.334 206.700,315.107 207.000,314.925 207.000 C 314.744 207.000,314.675 207.208,314.773 207.462 C 314.870 207.716,314.727 208.241,314.456 208.629 C 314.184 209.017,314.054 209.484,314.167 209.667 C 314.280 209.850,314.198 210.000,313.984 210.000 C 313.770 210.000,313.682 210.225,313.787 210.500 C 313.893 210.775,313.850 211.000,313.692 211.000 C 313.534 211.000,313.315 211.233,313.206 211.517 C 313.082 211.841,313.144 211.950,313.372 211.810 C 313.572 211.686,313.478 211.978,313.163 212.459 C 312.848 212.940,312.686 213.333,312.804 213.333 C 312.921 213.333,312.782 213.788,312.495 214.343 C 312.208 214.899,312.063 215.499,312.173 215.676 C 312.283 215.854,312.230 216.000,312.056 216.000 C 311.882 216.000,311.622 216.413,311.480 216.917 C 311.338 217.421,311.200 217.908,311.174 218.000 C 311.148 218.092,310.873 218.747,310.563 219.457 C 310.253 220.167,310.000 221.021,310.000 221.354 C 310.000 221.688,309.857 222.049,309.681 222.158 C 309.506 222.266,309.456 222.599,309.571 222.899 C 309.722 223.292,309.657 223.367,309.338 223.170 C 309.031 222.980,308.976 223.025,309.158 223.319 C 309.306 223.558,309.242 223.851,309.010 223.994 C 308.785 224.133,308.579 224.626,308.551 225.091 C 308.523 225.556,308.371 225.857,308.214 225.760 C 308.057 225.663,308.026 225.889,308.145 226.264 C 308.263 226.638,308.204 227.040,308.014 227.158 C 307.823 227.276,307.667 227.664,307.667 228.020 C 307.667 228.376,307.508 228.667,307.314 228.667 C 307.120 228.667,307.043 228.800,307.143 228.962 C 307.244 229.125,307.096 229.449,306.814 229.682 C 306.533 229.916,306.380 230.308,306.474 230.553 C 306.569 230.799,306.492 231.000,306.303 231.000 C 306.115 231.000,306.059 231.159,306.180 231.354 C 306.300 231.549,306.121 232.025,305.783 232.412 C 305.423 232.822,305.367 232.996,305.649 232.830 C 305.914 232.674,305.791 233.023,305.376 233.606 C 304.961 234.190,304.710 234.667,304.818 234.667 C 304.927 234.667,304.786 235.016,304.507 235.443 C 304.227 235.870,304.106 236.329,304.239 236.461 C 304.372 236.594,304.286 236.823,304.049 236.970 C 303.812 237.116,303.476 237.868,303.302 238.641 C 303.128 239.413,302.682 240.457,302.311 240.959 C 301.939 241.462,301.610 242.202,301.580 242.603 C 301.550 243.005,301.398 243.333,301.243 243.333 C 301.088 243.333,301.053 243.483,301.167 243.667 C 301.280 243.850,301.214 244.000,301.020 244.000 C 300.826 244.000,300.691 244.112,300.721 244.250 C 300.836 244.775,300.209 246.538,299.595 247.417 C 299.243 247.921,299.043 248.333,299.152 248.333 C 299.260 248.333,299.120 248.683,298.840 249.110 C 298.560 249.537,298.432 249.987,298.554 250.110 C 298.677 250.233,298.578 250.333,298.333 250.333 C 298.089 250.333,297.982 250.426,298.095 250.540 C 298.209 250.653,298.084 250.964,297.817 251.230 C 297.551 251.496,297.333 251.995,297.333 252.337 C 297.333 252.680,297.181 253.055,296.995 253.170 C 296.808 253.285,296.732 253.502,296.824 253.652 C 296.917 253.802,296.771 254.108,296.500 254.333 C 296.229 254.558,296.083 254.865,296.176 255.015 C 296.268 255.165,296.192 255.381,296.005 255.497 C 295.819 255.612,295.667 256.006,295.667 256.373 C 295.667 256.760,295.518 256.947,295.311 256.820 C 295.115 256.699,294.995 256.802,295.043 257.050 C 295.175 257.729,294.658 259.034,294.336 258.835 C 294.062 258.665,293.128 260.916,293.265 261.417 C 293.303 261.554,293.201 261.667,293.039 261.667 C 292.753 261.667,292.225 262.913,292.297 263.417 C 292.317 263.554,292.183 263.667,292.000 263.667 C 291.817 263.667,291.667 263.948,291.667 264.293 C 291.667 264.637,291.438 265.108,291.159 265.340 C 290.879 265.572,290.725 265.836,290.815 265.927 C 290.906 266.017,290.675 266.521,290.301 267.046 C 289.927 267.571,289.735 268.000,289.874 268.000 C 290.014 268.000,289.836 268.213,289.481 268.473 C 289.125 268.733,288.934 269.045,289.056 269.167 C 289.178 269.289,288.979 269.688,288.613 270.054 C 288.248 270.419,288.033 270.939,288.137 271.210 C 288.241 271.480,288.192 271.619,288.029 271.518 C 287.760 271.352,287.040 272.850,287.130 273.390 C 287.150 273.513,286.840 273.963,286.442 274.390 C 286.043 274.817,285.668 275.386,285.608 275.654 C 285.549 275.921,285.227 276.446,284.894 276.820 C 284.560 277.194,284.204 277.912,284.102 278.417 C 284.000 278.921,283.777 279.333,283.605 279.333 C 283.434 279.333,283.375 279.465,283.475 279.626 C 283.575 279.788,283.318 280.275,282.905 280.710 C 281.573 282.112,281.080 282.839,281.667 282.539 C 281.965 282.387,281.933 282.476,281.589 282.758 C 281.271 283.019,281.108 283.330,281.227 283.450 C 281.347 283.569,281.261 283.667,281.036 283.667 C 280.811 283.667,280.711 283.801,280.812 283.966 C 280.914 284.131,280.549 284.746,280.000 285.333 C 279.451 285.921,279.079 286.525,279.173 286.678 C 279.267 286.830,279.169 287.062,278.954 287.195 C 278.689 287.359,278.651 287.286,278.835 286.968 C 278.994 286.695,278.982 286.614,278.808 286.774 C 278.643 286.924,278.507 287.299,278.504 287.607 C 278.502 287.915,278.318 288.131,278.095 288.087 C 277.870 288.043,277.771 288.217,277.871 288.479 C 277.977 288.754,277.693 289.186,277.193 289.514 C 276.720 289.823,276.333 290.284,276.333 290.538 C 276.333 290.792,276.194 291.000,276.023 291.000 C 275.853 291.000,275.662 291.337,275.599 291.750 C 275.536 292.163,275.300 292.462,275.075 292.417 C 274.851 292.371,274.667 292.483,274.667 292.667 C 274.667 292.850,274.361 293.305,273.988 293.679 C 273.614 294.052,273.414 294.540,273.541 294.762 C 273.669 294.985,273.657 295.061,273.514 294.933 C 273.215 294.663,272.333 295.443,272.333 295.976 C 272.333 296.173,272.174 296.333,271.980 296.333 C 271.786 296.333,271.716 296.477,271.824 296.652 C 271.933 296.827,271.637 297.223,271.167 297.531 C 270.697 297.838,270.390 298.168,270.485 298.263 C 270.580 298.358,270.210 298.864,269.662 299.388 C 269.115 299.911,268.667 300.424,268.667 300.527 C 268.667 300.834,267.759 301.647,267.597 301.485 C 267.514 301.403,267.084 301.735,266.640 302.222 C 266.196 302.709,266.044 302.985,266.302 302.836 C 266.617 302.653,266.692 302.690,266.532 302.948 C 266.401 303.160,266.105 303.333,265.873 303.333 C 265.642 303.333,264.866 304.008,264.148 304.833 C 263.431 305.658,262.673 306.333,262.463 306.333 C 261.860 306.333,261.235 307.233,261.656 307.493 C 261.851 307.614,261.910 307.876,261.787 308.075 C 261.654 308.290,261.719 308.340,261.948 308.198 C 262.161 308.067,262.351 308.156,262.372 308.397 C 262.457 309.363,262.513 309.501,262.833 309.530 C 263.476 309.589,264.333 309.252,264.333 308.941 C 264.333 308.769,264.483 308.720,264.667 308.833 C 264.850 308.947,265.000 308.872,265.000 308.667 C 265.000 308.462,265.151 308.387,265.336 308.501 C 265.520 308.616,265.761 308.475,265.871 308.190 C 265.980 307.904,266.204 307.753,266.368 307.855 C 266.532 307.956,266.667 307.880,266.667 307.686 C 266.667 307.492,266.943 307.333,267.281 307.333 C 267.620 307.333,268.323 306.967,268.844 306.519 C 269.365 306.071,269.906 305.775,270.046 305.862 C 270.186 305.948,270.465 305.710,270.667 305.333 C 270.868 304.956,271.140 304.714,271.270 304.794 C 271.533 304.957,272.724 304.175,272.689 303.864 C 272.677 303.755,272.739 303.704,272.827 303.750 C 272.915 303.796,273.224 303.496,273.512 303.083 C 273.801 302.671,274.338 302.333,274.705 302.333 C 275.072 302.333,275.280 302.183,275.167 302.000 C 275.053 301.817,275.091 301.667,275.251 301.667 C 275.410 301.667,275.904 301.329,276.347 300.917 C 276.791 300.504,277.269 300.204,277.410 300.250 C 277.551 300.296,277.667 300.108,277.667 299.833 C 277.667 299.558,277.869 299.333,278.116 299.333 C 278.690 299.333,280.000 298.206,280.000 297.711 C 280.000 297.503,280.164 297.333,280.365 297.333 C 281.036 297.333,290.101 287.878,289.758 287.536 C 289.647 287.424,289.741 287.333,289.968 287.333 C 290.379 287.333,291.492 286.387,291.509 286.024 C 291.530 285.563,292.765 284.021,292.998 284.165 C 293.140 284.253,293.439 283.882,293.664 283.341 C 293.888 282.800,294.190 282.389,294.336 282.429 C 294.481 282.468,294.602 282.363,294.603 282.197 C 294.605 282.030,294.845 281.760,295.137 281.597 C 295.428 281.434,295.667 281.142,295.667 280.948 C 295.667 280.754,296.043 280.300,296.503 279.938 C 296.963 279.576,297.262 279.154,297.167 279.000 C 297.072 278.846,297.520 278.162,298.164 277.480 C 298.807 276.798,299.333 276.166,299.333 276.075 C 299.333 275.984,299.717 275.554,300.185 275.120 C 300.654 274.686,300.945 274.181,300.832 273.999 C 300.720 273.816,300.776 273.667,300.958 273.667 C 301.140 273.667,301.387 273.355,301.508 272.975 C 301.629 272.594,301.813 272.369,301.917 272.473 C 302.090 272.646,302.579 271.968,303.220 270.667 C 303.538 270.022,303.987 269.452,304.917 268.514 C 305.329 268.097,305.671 267.549,305.677 267.295 C 305.692 266.667,306.514 265.625,306.783 265.894 C 306.902 266.013,307.000 265.761,307.000 265.333 C 307.000 264.906,307.101 264.657,307.225 264.780 C 307.498 265.053,308.373 263.803,309.668 261.292 C 310.199 260.261,310.866 259.328,311.150 259.219 C 311.434 259.110,311.667 258.724,311.667 258.360 C 311.667 257.997,311.880 257.580,312.140 257.433 C 312.400 257.287,312.662 256.942,312.723 256.667 C 312.784 256.392,312.908 256.092,313.000 256.000 C 313.620 255.380,315.778 251.868,315.778 251.478 C 315.778 251.215,315.912 251.000,316.075 251.000 C 316.239 251.000,316.279 250.849,316.165 250.664 C 316.051 250.480,316.191 250.239,316.477 250.129 C 316.763 250.020,316.913 249.796,316.812 249.632 C 316.710 249.468,316.754 249.333,316.908 249.333 C 317.309 249.333,318.359 247.470,318.102 247.213 C 317.985 247.096,318.046 247.000,318.239 247.000 C 318.568 247.000,319.115 245.798,319.036 245.250 C 319.016 245.112,319.134 245.000,319.297 245.000 C 319.461 245.000,319.690 244.619,319.807 244.153 C 319.924 243.687,320.163 243.395,320.339 243.504 C 320.524 243.618,320.566 243.460,320.440 243.129 C 320.281 242.715,320.339 242.631,320.653 242.825 C 320.945 243.005,321.034 242.942,320.926 242.630 C 320.838 242.375,321.044 241.809,321.383 241.372 C 321.722 240.934,322.000 240.363,322.000 240.102 C 322.000 239.828,322.163 239.728,322.385 239.865 C 322.610 240.004,322.680 239.957,322.553 239.753 C 322.294 239.333,323.138 237.582,323.449 237.894 C 323.569 238.013,323.685 237.936,323.708 237.722 C 323.776 237.089,323.846 236.897,324.522 235.500 C 324.877 234.767,325.279 234.117,325.417 234.056 C 325.554 233.994,325.667 233.732,325.667 233.472 C 325.667 233.213,325.793 233.000,325.946 233.000 C 326.100 233.000,326.402 232.615,326.616 232.145 C 326.888 231.548,326.894 231.359,326.636 231.519 C 326.367 231.685,326.365 231.563,326.630 231.069 C 326.829 230.696,327.163 230.335,327.372 230.265 C 327.580 230.195,327.788 229.770,327.833 229.319 C 327.965 227.999,327.985 227.951,328.316 228.156 C 328.491 228.264,328.731 227.827,328.852 227.186 C 328.972 226.545,329.359 225.688,329.713 225.280 C 330.066 224.872,330.277 224.335,330.182 224.085 C 330.073 223.803,330.153 223.722,330.394 223.871 C 330.653 224.031,330.709 223.923,330.562 223.542 C 330.432 223.202,330.528 222.905,330.802 222.799 C 331.053 222.703,331.446 221.955,331.675 221.137 C 331.904 220.319,332.223 219.568,332.384 219.468 C 332.546 219.369,332.591 219.147,332.484 218.975 C 332.378 218.803,332.516 218.576,332.791 218.470 C 333.084 218.358,333.208 218.060,333.089 217.751 C 332.955 217.402,333.019 217.305,333.277 217.465 C 333.521 217.616,333.667 217.475,333.667 217.086 C 333.667 216.746,333.854 216.265,334.083 216.018 C 334.421 215.653,334.406 215.614,334.000 215.809 C 333.725 215.941,333.772 215.827,334.106 215.555 C 334.439 215.283,334.719 214.935,334.729 214.780 C 334.739 214.626,334.879 214.153,335.040 213.728 C 335.201 213.304,335.333 212.741,335.333 212.478 C 335.333 212.215,335.508 212.000,335.722 212.000 C 335.936 212.000,336.011 211.900,335.888 211.777 C 335.766 211.654,335.880 211.317,336.142 211.027 C 336.405 210.737,336.637 210.390,336.658 210.255 C 336.680 210.121,336.854 209.563,337.045 209.016 C 337.235 208.468,337.373 207.935,337.351 207.832 C 337.328 207.728,337.540 207.412,337.821 207.131 C 338.103 206.849,338.333 206.405,338.333 206.143 C 338.333 205.428,338.381 205.294,339.222 203.618 C 339.650 202.767,340.000 201.754,340.000 201.368 C 340.000 200.982,340.145 200.667,340.323 200.667 C 340.500 200.667,340.550 200.417,340.433 200.112 C 340.282 199.718,340.343 199.633,340.646 199.820 C 340.965 200.018,341.012 199.895,340.833 199.333 C 340.656 198.775,340.703 198.650,341.016 198.843 C 341.290 199.013,341.353 198.968,341.197 198.716 C 341.065 198.503,341.192 198.094,341.479 197.807 C 341.765 197.520,342.000 196.930,342.000 196.496 C 342.000 196.061,342.152 195.612,342.339 195.497 C 342.525 195.381,342.598 195.158,342.500 195.000 C 342.402 194.842,342.485 194.612,342.684 194.489 C 342.883 194.366,342.962 194.048,342.860 193.782 C 342.756 193.512,342.820 193.389,343.004 193.502 C 343.185 193.614,343.344 193.510,343.358 193.270 C 343.413 192.308,343.686 191.132,344.000 190.500 C 344.641 189.215,345.667 185.888,345.667 185.095 C 345.667 184.573,345.801 184.377,346.053 184.532 C 346.317 184.696,346.379 184.545,346.250 184.052 C 346.147 183.657,346.214 183.333,346.400 183.333 C 346.586 183.333,346.658 183.126,346.561 182.872 C 346.463 182.618,346.576 182.130,346.812 181.788 C 347.047 181.446,347.199 180.905,347.150 180.585 C 347.100 180.265,347.198 179.917,347.368 179.812 C 347.538 179.707,347.591 179.481,347.486 179.310 C 347.380 179.140,347.439 179.000,347.616 179.000 C 347.793 179.000,347.853 178.677,347.750 178.281 C 347.621 177.789,347.683 177.637,347.947 177.801 C 348.212 177.964,348.333 177.671,348.333 176.873 C 348.333 176.231,348.477 175.617,348.652 175.509 C 348.827 175.401,348.886 175.092,348.783 174.823 C 348.680 174.554,348.753 174.333,348.945 174.333 C 349.138 174.333,349.237 174.033,349.167 173.667 C 349.096 173.300,349.160 173.000,349.310 173.000 C 349.459 173.000,349.703 172.362,349.851 171.583 C 349.999 170.804,350.151 170.017,350.188 169.833 C 350.226 169.650,350.274 169.004,350.295 168.397 C 350.318 167.730,350.470 167.378,350.678 167.507 C 350.894 167.641,350.965 167.400,350.867 166.860 C 350.781 166.387,350.854 166.000,351.028 166.000 C 351.203 166.000,351.252 165.625,351.137 165.167 C 351.014 164.675,351.071 164.333,351.276 164.333 C 351.468 164.333,351.621 164.071,351.617 163.750 C 351.612 163.429,351.715 162.717,351.847 162.167 C 351.978 161.617,352.121 160.717,352.165 160.167 C 352.209 159.617,352.281 159.167,352.325 159.167 C 352.422 159.167,352.668 156.969,352.764 155.250 C 352.802 154.563,352.918 154.000,353.022 154.000 C 353.646 154.000,353.508 137.425,352.875 136.401 C 352.750 136.199,352.628 135.500,352.603 134.850 C 352.579 134.199,352.424 133.667,352.260 133.667 C 352.095 133.667,352.047 133.527,352.152 133.356 C 352.258 133.186,352.198 132.956,352.020 132.846 C 351.842 132.735,351.780 132.425,351.884 132.156 C 351.987 131.887,351.910 131.667,351.713 131.667 C 351.516 131.667,351.441 131.442,351.546 131.167 C 351.652 130.892,351.577 130.667,351.379 130.667 C 351.182 130.667,351.117 130.417,351.234 130.112 C 351.389 129.707,351.326 129.632,351.000 129.833 C 350.675 130.034,350.610 129.961,350.763 129.564 C 350.892 129.227,350.626 128.605,350.069 127.941 C 349.573 127.348,349.380 126.994,349.640 127.153 C 349.927 127.328,349.861 127.096,349.474 126.565 C 349.121 126.083,348.655 125.683,348.436 125.677 C 348.218 125.671,347.932 125.493,347.802 125.282 C 347.641 125.021,347.715 124.987,348.032 125.175 C 348.289 125.328,348.005 124.984,347.400 124.411 C 346.795 123.838,346.222 123.398,346.127 123.434 C 346.031 123.470,345.806 123.237,345.627 122.917 C 345.447 122.596,345.062 122.333,344.770 122.333 C 344.479 122.333,344.074 122.106,343.870 121.828 C 343.667 121.551,342.907 121.248,342.182 121.155 C 341.457 121.062,340.782 120.869,340.682 120.725 C 340.582 120.581,340.162 120.451,339.750 120.435 C 339.337 120.420,338.962 120.381,338.917 120.348 C 338.642 120.150,333.534 120.267,332.000 120.506 C 330.992 120.663,330.038 120.758,329.882 120.717 C 329.725 120.677,329.411 120.797,329.184 120.985 C 328.958 121.174,328.673 121.229,328.553 121.108 C 328.432 120.988,328.333 121.050,328.333 121.247 C 328.333 121.443,328.056 121.532,327.716 121.443 C 327.377 121.354,326.886 121.481,326.625 121.724 C 326.131 122.185,325.513 122.409,324.671 122.431 C 324.398 122.439,323.975 122.644,323.730 122.889 C 323.486 123.133,323.071 123.352,322.810 123.375 C 321.886 123.456,321.720 123.502,321.472 123.750 C 321.335 123.887,320.947 124.000,320.611 124.000 C 320.275 124.000,320.000 124.137,320.000 124.304 C 320.000 124.471,319.737 124.565,319.417 124.513 C 319.096 124.461,318.623 124.587,318.365 124.793 C 318.108 124.998,317.846 125.129,317.782 125.083 C 317.719 125.037,317.629 125.019,317.583 125.043 C 317.116 125.284,313.000 125.200,313.000 124.949 C 313.000 124.769,312.718 124.711,312.373 124.821 C 311.972 124.948,311.673 124.830,311.544 124.494 C 311.433 124.205,311.081 124.013,310.762 124.068 C 310.443 124.122,310.178 123.989,310.174 123.771 C 310.170 123.553,309.680 122.940,309.085 122.409 C 308.491 121.878,307.838 120.969,307.636 120.389 C 307.427 119.791,307.116 119.428,306.916 119.552 C 306.709 119.680,306.662 119.610,306.803 119.383 C 306.934 119.170,306.703 118.519,306.289 117.938 C 305.875 117.356,305.753 117.011,306.018 117.170 C 306.400 117.401,306.423 117.362,306.129 116.981 C 305.806 116.561,305.357 115.167,305.304 114.418 C 305.294 114.280,305.057 113.914,304.777 113.604 C 304.497 113.295,304.357 112.898,304.465 112.723 C 304.574 112.548,304.453 111.901,304.196 111.285 C 303.940 110.670,303.626 109.342,303.499 108.333 C 303.372 107.325,303.139 106.420,302.982 106.323 C 302.825 106.226,302.710 105.851,302.725 105.490 C 302.741 105.129,302.667 104.458,302.561 104.000 C 302.454 103.542,302.295 102.839,302.207 102.438 C 302.119 102.038,301.871 101.382,301.657 100.981 C 301.355 100.418,301.357 100.309,301.667 100.500 C 301.969 100.687,301.980 100.585,301.712 100.084 C 301.516 99.719,301.452 99.326,301.567 99.210 C 301.683 99.095,301.628 99.000,301.444 99.000 C 301.111 99.000,301.030 98.635,300.981 96.917 C 300.967 96.412,300.813 96.000,300.638 96.000 C 300.461 96.000,300.419 95.609,300.542 95.117 C 300.697 94.500,300.650 94.304,300.386 94.468 C 300.154 94.611,300.075 94.526,300.181 94.250 C 300.276 94.001,300.120 93.237,299.833 92.551 C 299.547 91.865,299.398 91.165,299.503 90.995 C 299.608 90.825,299.459 90.232,299.172 89.676 C 298.885 89.121,298.747 88.667,298.866 88.667 C 298.984 88.667,298.934 88.479,298.753 88.250 C 298.572 88.021,298.413 87.608,298.398 87.333 C 298.374 86.871,298.138 85.722,297.986 85.333 C 297.950 85.242,297.939 85.054,297.961 84.917 C 297.982 84.779,297.859 84.667,297.686 84.667 C 297.513 84.667,297.430 84.363,297.502 83.991 C 297.573 83.620,297.507 83.393,297.354 83.487 C 297.201 83.582,296.998 83.361,296.902 82.996 C 296.799 82.600,296.864 82.416,297.064 82.540 C 297.249 82.654,297.001 82.034,296.515 81.162 C 296.028 80.290,295.711 79.364,295.811 79.104 C 295.926 78.805,295.851 78.720,295.606 78.871 C 295.348 79.030,295.291 78.925,295.433 78.555 C 295.550 78.250,295.492 78.000,295.303 78.000 C 295.115 78.000,295.053 77.850,295.167 77.667 C 295.280 77.483,295.207 77.333,295.005 77.333 C 294.803 77.333,294.674 77.146,294.719 76.917 C 294.855 76.219,293.901 74.022,293.555 74.236 C 293.376 74.346,293.336 74.265,293.466 74.056 C 293.595 73.847,293.431 73.381,293.100 73.022 C 292.770 72.663,292.208 71.649,291.850 70.768 C 291.493 69.887,290.930 68.876,290.600 68.520 C 290.270 68.165,290.000 67.669,290.000 67.417 C 290.000 67.166,289.850 67.053,289.667 67.167 C 289.483 67.280,289.329 67.101,289.323 66.770 C 289.312 66.154,288.342 64.617,288.323 65.186 C 288.310 65.583,287.520 64.280,287.509 63.843 C 287.504 63.665,287.153 63.347,286.729 63.135 C 286.305 62.924,285.949 62.619,285.938 62.459 C 285.914 62.125,284.667 60.472,284.667 60.775 C 284.667 60.884,284.061 60.380,283.320 59.653 C 282.579 58.927,281.838 58.333,281.673 58.333 C 281.508 58.333,281.266 58.160,281.135 57.948 C 280.978 57.695,281.056 57.648,281.365 57.811 C 281.623 57.947,281.461 57.755,281.005 57.385 C 280.549 57.015,280.123 56.766,280.058 56.831 C 279.993 56.896,279.440 56.436,278.831 55.808 C 278.221 55.180,277.485 54.667,277.194 54.667 C 276.904 54.667,276.704 54.486,276.750 54.265 C 276.827 53.894,276.683 53.823,275.611 53.708 C 275.397 53.685,275.321 53.568,275.442 53.447 C 275.674 53.215,274.675 52.381,274.256 52.456 C 274.122 52.480,273.776 52.162,273.488 51.750 C 273.199 51.337,272.707 51.000,272.395 51.000 C 272.082 51.000,271.640 50.700,271.411 50.333 C 271.182 49.967,270.671 49.667,270.275 49.667 C 269.879 49.667,269.655 49.567,269.776 49.446 C 269.897 49.325,269.461 48.862,268.806 48.417 C 268.151 47.972,267.542 47.680,267.454 47.769 C 267.365 47.857,266.905 47.571,266.431 47.132 C 265.957 46.693,265.329 46.333,265.035 46.333 C 264.741 46.332,263.617 45.732,262.538 44.999 C 261.459 44.266,260.372 43.667,260.122 43.667 C 259.871 43.667,259.667 43.549,259.667 43.405 C 259.667 43.019,257.796 41.982,257.547 42.231 C 257.429 42.348,257.333 42.244,257.333 42.000 C 257.333 41.756,257.239 41.650,257.123 41.766 C 257.007 41.882,256.595 41.800,256.206 41.583 C 255.818 41.367,255.425 41.178,255.333 41.162 C 254.575 41.034,253.667 40.562,253.667 40.296 C 253.667 40.117,253.479 39.995,253.250 40.025 C 252.405 40.135,251.966 39.991,252.164 39.670 C 252.281 39.482,252.147 39.426,251.851 39.539 C 251.566 39.649,251.333 39.600,251.333 39.431 C 251.333 39.066,249.056 38.128,248.479 38.256 C 248.257 38.305,247.985 38.108,247.874 37.818 C 247.762 37.528,247.525 37.382,247.345 37.492 C 247.166 37.603,246.528 37.432,245.926 37.112 C 245.325 36.792,244.705 36.566,244.548 36.610 C 244.391 36.654,244.054 36.516,243.798 36.304 C 243.543 36.092,243.333 36.027,243.333 36.159 C 243.333 36.291,242.840 36.108,242.238 35.753 C 241.636 35.397,240.886 35.144,240.571 35.190 C 240.257 35.237,240.000 35.154,240.000 35.006 C 240.000 34.859,239.767 34.649,239.483 34.539 C 239.148 34.411,239.048 34.475,239.201 34.722 C 239.361 34.981,239.287 35.010,238.968 34.811 C 238.711 34.651,238.207 34.474,237.848 34.418 C 237.489 34.362,237.097 34.157,236.977 33.963 C 236.857 33.769,236.663 33.623,236.546 33.638 C 236.429 33.654,236.296 33.655,236.250 33.641 C 236.098 33.595,234.844 33.314,234.167 33.175 C 233.800 33.100,233.275 32.976,233.000 32.899 C 232.725 32.823,231.859 32.644,231.076 32.503 C 230.293 32.361,229.575 32.122,229.482 31.971 C 229.388 31.820,229.107 31.774,228.856 31.871 C 228.606 31.967,228.300 31.883,228.177 31.684 C 228.054 31.485,227.808 31.413,227.629 31.523 C 227.450 31.634,227.093 31.549,226.835 31.334 C 226.577 31.120,226.058 31.042,225.683 31.162 C 225.259 31.296,225.000 31.230,225.000 30.986 C 225.000 30.735,224.702 30.669,224.167 30.804 C 223.647 30.934,223.333 30.871,223.333 30.637 C 223.333 30.402,223.020 30.340,222.500 30.470 C 222.042 30.585,221.667 30.559,221.667 30.412 C 221.667 30.265,221.254 30.167,220.750 30.194 C 220.246 30.221,219.683 30.152,219.500 30.041 C 219.317 29.929,218.867 29.832,218.500 29.824 C 218.133 29.817,217.623 29.680,217.365 29.521 C 217.017 29.305,216.969 29.350,217.179 29.698 C 217.409 30.079,217.367 30.091,216.960 29.761 C 216.684 29.538,216.055 29.428,215.562 29.517 C 215.070 29.607,214.667 29.564,214.667 29.423 C 214.666 29.282,213.954 29.136,213.083 29.099 C 212.212 29.061,210.450 28.939,209.167 28.827 C 206.698 28.611,193.700 28.411,193.524 28.587 " stroke="none" fill="#94bc20" fill-rule="evenodd"></path></g></svg>