<svg width="178" height="46" viewBox="0 0 178 46" fill="none" xmlns="http://www.w3.org/2000/svg">
<g clip-path="url(#clip0_4022_17284)">
<path d="M0 44.5852C3.1235 42.6068 3.58709 41.9253 3.58709 37.5352V8.40279C3.58709 3.95187 3.1235 3.33629 0 1.35528V0.848633H24.2964C35.344 0.848633 38.5257 6.91071 38.5257 10.8677C38.5257 16.8031 32.2205 19.2755 26.8981 19.8962V20.0203C33.2034 20.7727 41.0134 23.9924 41.0134 32.4028C41.0134 40.8715 32.684 45.0691 22.1558 45.0691H0V44.5852ZM18.9741 20.0963C22.7334 20.0963 25.8139 16.8183 25.8139 11.7492C25.8139 5.38062 22.6093 3.09056 18.9741 3.09056H16.1875V20.0963H18.9741ZM27.5871 32.7626C27.5871 21.943 21.6289 22.1229 19.6023 22.3129L16.1875 22.4978V39.5643C16.1875 41.3579 18.8499 42.47 20.5852 42.7182C24.2306 42.6549 27.5871 40.1217 27.5871 32.7626Z" fill="#EC2027"/>
<path d="M44.0786 44.5852C47.0755 42.6068 47.5188 41.9253 47.5188 37.5352V8.41039C47.5188 3.95693 47.0755 3.34388 44.0786 1.36035V0.866364H64.1622V1.37301C61.2211 3.35148 60.7221 3.9696 60.7221 8.42306V37.5555C60.7221 41.9456 61.2287 42.622 64.1622 44.6055V45.0995H44.0786V44.5852Z" fill="#EC2027"/>
<path d="M65.9887 23.4351C65.9887 6.73845 76.7702 0 90.4802 0C96.6081 0 103.281 1.2109 107.554 3.21217L107.491 16.4484H106.597C102.131 8.86639 95.2503 2.2318 90.8526 2.22673C85.7709 2.22673 79.7493 6.80179 79.7493 23.0653C79.7493 39.3288 85.6012 43.5314 90.7285 43.5314C92.4739 43.5314 94.9666 42.7284 94.9666 38.2749V30.7942C94.9666 26.1558 93.0337 23.0019 88.5473 22.817V22.014H107.524L107.554 45.216H106.994C105.132 45.0052 103.258 44.907 101.383 44.9222C96.7399 44.9222 93.5556 45.9355 86.6905 45.9355C79.3998 45.9355 66.0014 42.1027 66.0014 23.4275" fill="#EC2027"/>
<path d="M111.861 31.1843V20.2103C111.86 20.1844 111.864 20.1585 111.874 20.1344C111.883 20.1102 111.897 20.0883 111.916 20.07C111.934 20.0516 111.956 20.0373 111.98 20.0279C112.004 20.0185 112.03 20.0142 112.056 20.0152H113.956C113.982 20.0142 114.008 20.0185 114.032 20.0279C114.056 20.0373 114.078 20.0516 114.096 20.07C114.115 20.0883 114.129 20.1102 114.138 20.1344C114.148 20.1585 114.152 20.1844 114.151 20.2103V29.33L114.232 29.4111H117.642C117.668 29.4104 117.693 29.4149 117.717 29.4245C117.741 29.4341 117.763 29.4484 117.781 29.4667C117.799 29.4849 117.814 29.5067 117.823 29.5307C117.833 29.5546 117.838 29.5803 117.837 29.6061V31.1818C117.838 31.2077 117.834 31.2336 117.824 31.2577C117.815 31.2819 117.8 31.3038 117.782 31.3221C117.764 31.3405 117.742 31.3548 117.718 31.3642C117.694 31.3736 117.668 31.3779 117.642 31.3769H112.056C112.03 31.3779 112.004 31.3736 111.98 31.3642C111.956 31.3548 111.934 31.3405 111.916 31.3221C111.897 31.3038 111.883 31.2819 111.874 31.2577C111.864 31.2336 111.86 31.2077 111.861 31.1818" fill="black"/>
<path d="M124.383 31.1996L124.129 29.6391L124.033 29.558H122.007L121.91 29.6239L121.596 31.1996C121.595 31.2258 121.589 31.2516 121.578 31.2753C121.566 31.2989 121.55 31.3199 121.53 31.3369C121.51 31.3538 121.486 31.3664 121.461 31.3737C121.436 31.381 121.409 31.383 121.383 31.3794H119.486C119.354 31.3794 119.291 31.3136 119.324 31.1692L121.71 20.1926C121.715 20.1415 121.74 20.0944 121.779 20.0613C121.819 20.0282 121.869 20.0117 121.92 20.0152H124.129C124.181 20.0117 124.231 20.0282 124.27 20.0613C124.31 20.0944 124.335 20.1415 124.34 20.1926L126.698 31.159C126.731 31.3034 126.665 31.3693 126.536 31.3693H124.585C124.56 31.3725 124.534 31.3702 124.509 31.3627C124.484 31.3552 124.461 31.3425 124.442 31.3256C124.422 31.3086 124.406 31.2877 124.395 31.2643C124.384 31.2408 124.378 31.2153 124.378 31.1894M122.331 27.7822H123.727L123.793 27.7011L123.116 23.5213H123.017L122.257 27.7113L122.338 27.7923" fill="black"/>
<path d="M128.416 31.1843V20.2103C128.415 20.1843 128.42 20.1584 128.429 20.1342C128.439 20.1101 128.454 20.0882 128.472 20.0699C128.491 20.0516 128.513 20.0373 128.537 20.0279C128.561 20.0185 128.587 20.0142 128.613 20.0152H130.658C130.706 20.0135 130.754 20.0287 130.792 20.0583C130.83 20.0879 130.857 20.13 130.868 20.1774L132.963 26.2572L133.059 26.2394V20.2103C133.058 20.1846 133.062 20.1589 133.071 20.1348C133.08 20.1107 133.093 20.0887 133.111 20.0702C133.129 20.0517 133.15 20.037 133.174 20.0271C133.198 20.0172 133.223 20.0123 133.249 20.0127H135.116C135.142 20.0116 135.168 20.0159 135.192 20.0254C135.216 20.0348 135.238 20.0491 135.256 20.0674C135.275 20.0858 135.289 20.1077 135.299 20.1319C135.308 20.156 135.312 20.1819 135.311 20.2078V31.1843C135.312 31.2103 135.308 31.2361 135.299 31.2602C135.289 31.2844 135.275 31.3063 135.256 31.3247C135.238 31.343 135.216 31.3573 135.192 31.3667C135.168 31.3762 135.142 31.3805 135.116 31.3794H133.054C133.006 31.3811 132.959 31.3657 132.921 31.3361C132.883 31.3065 132.856 31.2644 132.846 31.2173L130.749 25.1375H130.653L130.668 31.1919C130.669 31.2179 130.665 31.2437 130.655 31.2678C130.646 31.292 130.631 31.3139 130.613 31.3323C130.595 31.3506 130.573 31.3649 130.549 31.3743C130.524 31.3838 130.499 31.3881 130.473 31.387H128.613C128.587 31.3881 128.561 31.3838 128.537 31.3744C128.513 31.365 128.491 31.3507 128.472 31.3324C128.454 31.3141 128.439 31.2922 128.429 31.268C128.42 31.2439 128.415 31.218 128.416 31.1919" fill="black"/>
<path d="M137.198 28.4408V22.9538C137.198 21.0868 138.48 19.886 140.428 19.886C142.376 19.886 143.676 21.0868 143.676 22.9715V23.5871C143.677 23.613 143.673 23.6389 143.663 23.663C143.654 23.6872 143.64 23.7091 143.621 23.7274C143.603 23.7458 143.581 23.7601 143.557 23.7695C143.533 23.779 143.507 23.7833 143.481 23.7822H141.581C141.555 23.7833 141.529 23.779 141.505 23.7695C141.481 23.7601 141.459 23.7458 141.441 23.7274C141.422 23.7091 141.408 23.6872 141.399 23.663C141.389 23.6389 141.385 23.613 141.386 23.5871V22.9386C141.386 22.2901 141.014 21.8493 140.428 21.8493C139.843 21.8493 139.489 22.2901 139.489 22.9386V28.4586C139.489 29.1071 139.861 29.5453 140.428 29.5453C140.996 29.5453 141.386 29.1071 141.386 28.4586V27.159L141.305 27.078H140.596C140.57 27.0794 140.544 27.0754 140.519 27.0661C140.495 27.0568 140.473 27.0425 140.454 27.0241C140.436 27.0057 140.422 26.9836 140.412 26.9592C140.403 26.9349 140.399 26.9089 140.401 26.8829V25.4364C140.399 25.4105 140.404 25.3847 140.413 25.3605C140.423 25.3364 140.437 25.3144 140.455 25.2961C140.474 25.2778 140.496 25.2634 140.52 25.254C140.544 25.2446 140.57 25.2403 140.596 25.2413H143.483C143.509 25.2406 143.535 25.2452 143.559 25.2548C143.583 25.2643 143.605 25.2787 143.623 25.2969C143.641 25.3152 143.656 25.337 143.665 25.3609C143.675 25.3849 143.679 25.4106 143.679 25.4364V28.4408C143.679 30.3078 142.364 31.5086 140.431 31.5086C138.498 31.5086 137.201 30.3078 137.201 28.4408" fill="black"/>
<path d="M145.459 28.1495V20.2103C145.458 20.1835 145.462 20.1567 145.472 20.1317C145.482 20.1067 145.496 20.084 145.516 20.0653C145.535 20.0466 145.558 20.0322 145.583 20.0231C145.608 20.014 145.635 20.0105 145.662 20.0127H147.562C147.588 20.0116 147.614 20.0159 147.638 20.0254C147.662 20.0348 147.684 20.0491 147.702 20.0674C147.721 20.0858 147.735 20.1077 147.744 20.1319C147.754 20.156 147.758 20.1819 147.757 20.2078V28.3724C147.757 29.0716 148.129 29.5428 148.697 29.5428C149.264 29.5428 149.624 29.0716 149.624 28.3724V20.2103C149.623 20.1846 149.627 20.159 149.637 20.135C149.646 20.111 149.66 20.0892 149.678 20.0709C149.696 20.0526 149.718 20.0383 149.742 20.0287C149.765 20.0191 149.791 20.0145 149.817 20.0152H151.717C151.743 20.0142 151.769 20.0185 151.793 20.0279C151.817 20.0373 151.839 20.0516 151.858 20.0699C151.876 20.0882 151.891 20.1101 151.901 20.1342C151.91 20.1584 151.915 20.1843 151.914 20.2103V28.1495C151.914 30.1761 150.63 31.5086 148.697 31.5086C146.764 31.5086 145.467 30.1786 145.467 28.1495" fill="black"/>
<path d="M158.379 31.1996L158.126 29.6416L158.029 29.5605H156.003L155.907 29.6264L155.615 31.1996C155.614 31.2257 155.607 31.2513 155.596 31.2747C155.584 31.2982 155.568 31.319 155.548 31.3359C155.528 31.3528 155.505 31.3654 155.48 31.3729C155.455 31.3804 155.428 31.3826 155.402 31.3794H153.505C153.376 31.3794 153.31 31.3136 153.343 31.1692L155.729 20.1926C155.734 20.1415 155.759 20.0944 155.798 20.0613C155.838 20.0282 155.888 20.0117 155.939 20.0152H158.131C158.182 20.0117 158.233 20.0282 158.272 20.0613C158.311 20.0944 158.336 20.1415 158.341 20.1926L160.702 31.159C160.735 31.3034 160.669 31.3693 160.54 31.3693H158.582C158.556 31.3725 158.529 31.3702 158.504 31.3627C158.479 31.3553 158.456 31.3427 158.436 31.3258C158.416 31.3089 158.4 31.2881 158.388 31.2646C158.377 31.2411 158.37 31.2156 158.369 31.1894M156.325 27.7822H157.72L157.786 27.7011L157.105 23.5111H157.006L156.246 27.7011L156.327 27.7822" fill="black"/>
<path d="M161.936 28.4408V22.9538C161.936 21.0868 163.217 19.886 165.166 19.886C167.114 19.886 168.413 21.0868 168.413 22.9715V23.5871C168.414 23.6129 168.409 23.6386 168.4 23.6626C168.39 23.6866 168.376 23.7084 168.358 23.7266C168.339 23.7449 168.318 23.7592 168.294 23.7688C168.27 23.7783 168.244 23.7829 168.218 23.7822H166.318C166.292 23.7833 166.266 23.779 166.242 23.7695C166.218 23.7601 166.196 23.7458 166.178 23.7274C166.16 23.7091 166.145 23.6872 166.136 23.663C166.126 23.6389 166.122 23.613 166.123 23.5871V22.9386C166.123 22.2901 165.751 21.8493 165.166 21.8493C164.58 21.8493 164.223 22.2901 164.223 22.9386V28.4586C164.223 29.1071 164.598 29.5453 165.166 29.5453C165.733 29.5453 166.123 29.1071 166.123 28.4586V27.159L166.042 27.078H165.328C165.302 27.079 165.276 27.0747 165.252 27.0653C165.228 27.0559 165.206 27.0415 165.187 27.0232C165.169 27.0049 165.155 26.9829 165.145 26.9588C165.136 26.9346 165.132 26.9088 165.133 26.8829V25.4364C165.132 25.4106 165.137 25.3849 165.146 25.3609C165.156 25.337 165.17 25.3152 165.188 25.2969C165.206 25.2787 165.228 25.2643 165.252 25.2548C165.276 25.2452 165.302 25.2406 165.328 25.2413H168.208C168.234 25.2406 168.259 25.2452 168.283 25.2548C168.307 25.2643 168.329 25.2787 168.347 25.2969C168.366 25.3152 168.38 25.337 168.39 25.3609C168.399 25.3849 168.404 25.4106 168.403 25.4364V28.4408C168.403 30.3078 167.086 31.5086 165.155 31.5086C163.225 31.5086 161.926 30.3078 161.926 28.4408" fill="black"/>
<path d="M176.008 21.9785H172.613L172.532 22.0596V24.6258L172.613 24.7068H174.564C174.59 24.7061 174.615 24.7107 174.639 24.7203C174.663 24.7298 174.685 24.7442 174.703 24.7625C174.721 24.7808 174.735 24.8026 174.744 24.8266C174.753 24.8506 174.758 24.8762 174.756 24.9019V26.4776C174.758 26.5031 174.753 26.5286 174.744 26.5525C174.735 26.5763 174.721 26.598 174.702 26.6161C174.684 26.6342 174.663 26.6483 174.639 26.6576C174.615 26.6669 174.59 26.6712 174.564 26.6701H172.613L172.532 26.7537V29.3325L172.613 29.4136H176.008C176.034 29.4129 176.059 29.4175 176.083 29.427C176.107 29.4366 176.129 29.4509 176.147 29.4692C176.166 29.4874 176.18 29.5092 176.19 29.5332C176.199 29.5572 176.204 29.5829 176.203 29.6087V31.1844C176.204 31.2103 176.2 31.2361 176.19 31.2602C176.181 31.2844 176.167 31.3063 176.148 31.3247C176.13 31.343 176.108 31.3573 176.084 31.3667C176.06 31.3762 176.034 31.3805 176.008 31.3794H170.435C170.409 31.3801 170.383 31.3755 170.359 31.366C170.335 31.3564 170.314 31.3421 170.295 31.3238C170.277 31.3056 170.263 31.2838 170.253 31.2598C170.244 31.2358 170.239 31.2102 170.24 31.1844V20.2103C170.239 20.1845 170.244 20.1588 170.253 20.1348C170.263 20.1109 170.277 20.0891 170.295 20.0708C170.314 20.0526 170.335 20.0382 170.359 20.0287C170.383 20.0191 170.409 20.0145 170.435 20.0152H176.008C176.034 20.0142 176.06 20.0185 176.084 20.0279C176.108 20.0373 176.13 20.0516 176.148 20.07C176.167 20.0883 176.181 20.1102 176.19 20.1344C176.2 20.1585 176.204 20.1844 176.203 20.2103V21.786C176.204 21.8118 176.2 21.8375 176.19 21.8615C176.181 21.8856 176.166 21.9073 176.148 21.9255C176.13 21.9436 176.108 21.9577 176.084 21.9668C176.059 21.976 176.034 21.9799 176.008 21.9785Z" fill="black"/>
<path d="M111.701 42.4497V41.9431C111.7 41.9175 111.704 41.892 111.714 41.8682C111.723 41.8443 111.737 41.8227 111.755 41.8046C111.773 41.7865 111.795 41.7723 111.819 41.763C111.843 41.7537 111.868 41.7495 111.894 41.7506H113.761C113.787 41.7495 113.812 41.7537 113.836 41.763C113.86 41.7723 113.882 41.7864 113.9 41.8044C113.918 41.8225 113.933 41.8441 113.942 41.868C113.952 41.8918 113.957 41.9174 113.956 41.9431V42.3509C113.956 43.0324 114.328 43.4706 114.85 43.4706C115.372 43.4706 115.76 43.0476 115.76 42.4143C115.76 41.7176 115.288 41.3604 114.184 40.5473C112.983 39.6885 111.651 38.7309 111.651 36.8462C111.651 34.9614 112.917 33.8063 114.767 33.8063C116.684 33.8063 117.951 35.0552 117.951 36.9222V37.3123C117.952 37.3382 117.948 37.364 117.938 37.3882C117.929 37.4123 117.914 37.4343 117.896 37.4526C117.878 37.4709 117.856 37.4853 117.832 37.4947C117.808 37.5041 117.782 37.5084 117.756 37.5074H115.889C115.863 37.5084 115.837 37.5041 115.813 37.4947C115.788 37.4853 115.766 37.471 115.748 37.4527C115.729 37.4344 115.715 37.4125 115.705 37.3884C115.695 37.3642 115.69 37.3383 115.691 37.3123V36.874C115.691 36.2078 115.319 35.7695 114.767 35.7695C114.26 35.7695 113.908 36.1597 113.908 36.8411C113.908 37.5226 114.28 37.8975 115.428 38.7411C117.117 39.9747 118.024 40.6891 118.024 42.3129C118.024 44.2281 116.727 45.4288 114.86 45.4288C112.993 45.4288 111.711 44.2129 111.711 42.4573" fill="black"/>
<path d="M119.197 42.2065V37.0133C119.197 35.0653 120.497 33.7986 122.49 33.7986C124.484 33.7986 125.784 35.0653 125.784 37.0133V42.2065C125.784 44.1546 124.469 45.4212 122.49 45.4212C120.512 45.4212 119.197 44.1546 119.197 42.2065ZM123.483 42.3053V36.9145C123.483 36.2331 123.096 35.7619 122.47 35.7619C121.844 35.7619 121.48 36.2331 121.48 36.9145V42.3053C121.48 42.9868 121.87 43.4579 122.47 43.4579C123.071 43.4579 123.483 42.9868 123.483 42.3053Z" fill="black"/>
<path d="M127.266 45.0919V34.1229C127.265 34.097 127.269 34.0712 127.278 34.047C127.288 34.0229 127.302 34.0009 127.32 33.9826C127.339 33.9643 127.361 33.95 127.385 33.9405C127.409 33.9311 127.435 33.9268 127.461 33.9279H129.361C129.386 33.9272 129.412 33.9317 129.436 33.9413C129.46 33.9508 129.482 33.9652 129.5 33.9834C129.518 34.0017 129.533 34.0235 129.542 34.0475C129.552 34.0714 129.556 34.0971 129.556 34.1229V43.2426L129.634 43.3237H133.044C133.07 43.3223 133.096 43.3262 133.12 43.3354C133.144 43.3445 133.166 43.3586 133.184 43.3767C133.203 43.3949 133.217 43.4166 133.226 43.4407C133.236 43.4647 133.24 43.4904 133.239 43.5162V45.0919C133.24 45.1178 133.236 45.1437 133.226 45.1678C133.217 45.192 133.203 45.2139 133.184 45.2322C133.166 45.2506 133.144 45.2649 133.12 45.2743C133.096 45.2837 133.07 45.288 133.044 45.287H127.471C127.445 45.288 127.419 45.2837 127.395 45.2743C127.371 45.2649 127.349 45.2506 127.33 45.2322C127.312 45.2139 127.298 45.192 127.288 45.1678C127.279 45.1437 127.275 45.1178 127.276 45.0919" fill="black"/>
<path d="M134.359 42.052V34.1229C134.358 34.097 134.362 34.0712 134.371 34.047C134.381 34.0229 134.395 34.0009 134.413 33.9826C134.432 33.9643 134.454 33.95 134.478 33.9405C134.502 33.9311 134.528 33.9268 134.554 33.9279H136.454C136.479 33.9268 136.505 33.9311 136.529 33.9405C136.553 33.95 136.575 33.9644 136.593 33.9827C136.611 34.0011 136.625 34.0231 136.635 34.0472C136.644 34.0714 136.648 34.0972 136.646 34.1229V42.2876C136.646 42.9868 137.021 43.458 137.589 43.458C138.156 43.458 138.513 42.9868 138.513 42.2876V34.1229C138.512 34.097 138.516 34.0712 138.526 34.047C138.535 34.0229 138.55 34.0009 138.568 33.9826C138.586 33.9643 138.608 33.95 138.632 33.9405C138.657 33.9311 138.682 33.9268 138.708 33.9279H140.608C140.634 33.9268 140.66 33.9311 140.684 33.9405C140.708 33.95 140.73 33.9643 140.749 33.9826C140.767 34.0009 140.781 34.0229 140.791 34.047C140.8 34.0712 140.804 34.097 140.803 34.1229V42.052C140.803 44.0786 139.519 45.4111 137.589 45.4111C135.658 45.4111 134.359 44.0812 134.359 42.052Z" fill="black"/>
<path d="M148.902 34.1229V35.6986C148.903 35.7244 148.899 35.7501 148.889 35.7742C148.88 35.7982 148.866 35.82 148.847 35.8381C148.829 35.8562 148.807 35.8703 148.783 35.8795C148.759 35.8886 148.733 35.8926 148.707 35.8911H146.68L146.599 35.9722V45.0919C146.6 45.1178 146.596 45.1437 146.587 45.1678C146.577 45.192 146.563 45.2139 146.545 45.2322C146.526 45.2506 146.504 45.2649 146.48 45.2743C146.456 45.2837 146.43 45.288 146.404 45.287H144.504C144.478 45.288 144.453 45.2837 144.428 45.2743C144.404 45.2649 144.382 45.2506 144.364 45.2322C144.346 45.2139 144.331 45.192 144.322 45.1678C144.313 45.1437 144.308 45.1178 144.309 45.0919V35.9722L144.228 35.8911H142.28C142.254 35.8926 142.229 35.8886 142.204 35.8795C142.18 35.8703 142.158 35.8562 142.14 35.8381C142.122 35.82 142.107 35.7982 142.098 35.7742C142.088 35.7501 142.084 35.7244 142.085 35.6986V34.1229C142.084 34.097 142.088 34.0712 142.098 34.047C142.107 34.0229 142.122 34.0009 142.14 33.9826C142.158 33.9643 142.18 33.95 142.204 33.9405C142.228 33.9311 142.254 33.9268 142.28 33.9279H148.702C148.728 33.9268 148.754 33.9311 148.778 33.9405C148.802 33.95 148.824 33.9643 148.842 33.9826C148.861 34.0009 148.875 34.0229 148.884 34.047C148.894 34.0712 148.898 34.097 148.897 34.1229" fill="black"/>
<path d="M150.222 45.0919V34.1229C150.221 34.097 150.225 34.0712 150.235 34.047C150.244 34.0229 150.258 34.0009 150.277 33.9826C150.295 33.9643 150.317 33.95 150.341 33.9405C150.365 33.9311 150.391 33.9268 150.417 33.9279H152.317C152.343 33.9271 152.368 33.9317 152.392 33.9413C152.416 33.9509 152.438 33.9653 152.456 33.9836C152.474 34.0019 152.488 34.0237 152.497 34.0476C152.506 34.0716 152.511 34.0972 152.509 34.1229V45.0919C152.511 45.1176 152.506 45.1432 152.497 45.1672C152.488 45.1912 152.474 45.213 152.456 45.2313C152.438 45.2496 152.416 45.2639 152.392 45.2735C152.368 45.2831 152.343 45.2877 152.317 45.287H150.417C150.391 45.288 150.365 45.2837 150.341 45.2743C150.317 45.2649 150.295 45.2506 150.277 45.2322C150.258 45.2139 150.244 45.192 150.235 45.1678C150.225 45.1437 150.221 45.1178 150.222 45.0919Z" fill="black"/>
<path d="M154.022 42.2065V37.0133C154.022 35.0653 155.321 33.7986 157.3 33.7986C159.278 33.7986 160.593 35.0653 160.593 37.0133V42.2065C160.593 44.1546 159.278 45.4212 157.3 45.4212C155.321 45.4212 154.022 44.1546 154.022 42.2065ZM158.328 42.3053V36.9145C158.328 36.2331 157.938 35.7619 157.315 35.7619C156.692 35.7619 156.325 36.2331 156.325 36.9145V42.3053C156.325 42.9868 156.715 43.4579 157.315 43.4579C157.915 43.4579 158.328 42.9868 158.328 42.3053Z" fill="black"/>
<path d="M162.113 45.0919V34.1229C162.112 34.097 162.116 34.0712 162.126 34.047C162.135 34.0229 162.149 34.0009 162.168 33.9826C162.186 33.9643 162.208 33.95 162.232 33.9405C162.256 33.9311 162.282 33.9268 162.308 33.9279H164.352C164.401 33.9261 164.448 33.9413 164.487 33.971C164.525 34.0006 164.552 34.0427 164.563 34.09L166.658 40.1698L166.754 40.1521V34.1229C166.753 34.097 166.757 34.0712 166.767 34.047C166.776 34.0229 166.79 34.0009 166.809 33.9826C166.827 33.9643 166.849 33.95 166.873 33.9405C166.897 33.9311 166.923 33.9268 166.949 33.9279H168.819C168.844 33.9272 168.87 33.9317 168.894 33.9413C168.918 33.9508 168.94 33.9652 168.958 33.9834C168.976 34.0017 168.991 34.0235 169 34.0475C169.01 34.0714 169.014 34.0971 169.014 34.1229V45.0919C169.014 45.1177 169.01 45.1434 169 45.1674C168.991 45.1914 168.976 45.2131 168.958 45.2314C168.94 45.2496 168.918 45.264 168.894 45.2735C168.87 45.2831 168.844 45.2877 168.819 45.287H166.754C166.706 45.2878 166.659 45.2722 166.62 45.2427C166.582 45.2133 166.555 45.1717 166.544 45.1248L164.451 39.045H164.352L164.37 45.102C164.371 45.1281 164.366 45.154 164.356 45.1781C164.347 45.2023 164.332 45.2242 164.314 45.2425C164.295 45.2608 164.273 45.2751 164.249 45.2845C164.225 45.2939 164.199 45.2982 164.173 45.2971H162.308C162.282 45.2982 162.256 45.2939 162.232 45.2844C162.208 45.275 162.186 45.2607 162.168 45.2424C162.149 45.224 162.135 45.2021 162.126 45.1779C162.116 45.1538 162.112 45.1279 162.113 45.102" fill="black"/>
<path d="M170.503 42.4497V41.9431C170.502 41.9174 170.507 41.8918 170.517 41.868C170.526 41.8441 170.541 41.8225 170.559 41.8044C170.577 41.7864 170.599 41.7723 170.623 41.763C170.647 41.7537 170.673 41.7495 170.698 41.7506H172.565C172.591 41.7495 172.617 41.7537 172.641 41.763C172.665 41.7723 172.686 41.7864 172.705 41.8044C172.723 41.8225 172.737 41.8441 172.747 41.868C172.756 41.8918 172.761 41.9174 172.76 41.9431V42.3509C172.76 43.0324 173.133 43.4706 173.652 43.4706C174.171 43.4706 174.564 43.0476 174.564 42.4143C174.564 41.7176 174.093 41.3604 172.986 40.5473C171.788 39.6885 170.453 38.7309 170.453 36.8462C170.453 34.9614 171.719 33.8063 173.568 33.8063C175.486 33.8063 176.753 35.0552 176.753 36.9222V37.3123C176.753 37.3381 176.749 37.3638 176.739 37.3878C176.73 37.4117 176.715 37.4335 176.697 37.4518C176.679 37.47 176.657 37.4844 176.633 37.4939C176.609 37.5035 176.583 37.5081 176.558 37.5074H174.693C174.667 37.5084 174.641 37.5041 174.617 37.4947C174.593 37.4853 174.571 37.4709 174.553 37.4526C174.535 37.4343 174.52 37.4123 174.511 37.3882C174.501 37.364 174.497 37.3382 174.498 37.3123V36.874C174.498 36.2078 174.123 35.7695 173.571 35.7695C173.064 35.7695 172.712 36.1597 172.712 36.8411C172.712 37.5226 173.085 37.8975 174.232 38.7411C175.909 39.9671 176.821 40.6815 176.821 42.3053C176.821 44.2205 175.524 45.4212 173.655 45.4212C171.785 45.4212 170.506 44.2053 170.506 42.4497" fill="black"/>
</g>
<defs>
<clipPath id="clip0_4022_17284">
<rect width="178" height="46" fill="white"/>
</clipPath>
</defs>
</svg>
