<svg width="129" height="62" viewBox="0 0 129 62" fill="none" xmlns="http://www.w3.org/2000/svg">
<g clip-path="url(#clip0_1938_6165)">
<path d="M12.6146 0C18.8406 0 23.5547 1.43715 26.7568 4.31145C29.9589 7.18575 31.5556 11.079 31.5469 15.9913C31.5469 20.9858 30.0337 25.137 27.0073 28.4451C23.981 31.7532 19.9132 33.4028 14.804 33.3941H0V33.0763C1.75562 32.4144 2.85124 31.7993 3.26257 31.229C3.67389 30.6588 3.87769 29.4248 3.87769 27.5327V5.90815C3.87769 4.01355 3.67265 2.78206 3.26257 2.21368C2.85124 1.64344 1.77805 1.02645 0.022436 0.373933V0.044872H12.6819L12.6146 0ZM14.9573 32.0723C17.9924 31.889 20.365 30.4064 22.0751 27.6243C23.7859 24.8404 24.6534 21.0543 24.6534 16.2867C24.6572 6.3014 20.5682 1.30877 12.3865 1.30877H10.2196V29.9277C10.2196 31.1823 11.8163 31.889 14.9872 32.0498L14.9573 32.0723Z" fill="black"/>
<path d="M38.4291 20.2821C37.8981 19.7302 37.5741 19.0117 37.5119 18.2482C37.4498 17.4848 37.6533 16.7234 38.0881 16.0928C38.5229 15.4622 39.1622 15.0012 39.8978 14.7878C40.6334 14.5745 41.4202 14.6218 42.1249 14.9219C42.8297 15.2219 43.4091 15.7563 43.7651 16.4344C44.1211 17.1126 44.2318 17.893 44.0786 18.6434C43.9254 19.3939 43.5175 20.0683 42.9241 20.5527C42.3307 21.037 41.5882 21.3014 40.8223 21.3011C40.3749 21.3042 39.9316 21.2154 39.5199 21.0401C39.1082 20.8648 38.7369 20.6068 38.4291 20.2821V20.2821Z" fill="#ED1C24"/>
<path d="M93.8703 0.0916025V0.411315C92.2063 1.34615 91.0658 2.23549 90.4488 3.07933C89.8319 3.92317 89.2161 5.22384 88.6016 6.98132L79.1131 33.5549H77.1499L68.9383 11.0404L60.8408 33.5549H58.9244L48.1346 4.08334C47.9046 3.32878 47.507 2.63595 46.9716 2.05662C46.493 1.57799 45.5806 1.03017 44.2344 0.437491V0.114038H58.4009V0.433751C57.0086 0.932329 56.0501 1.38853 55.5254 1.80235C55.0018 2.21367 54.727 2.66987 54.727 3.17094C54.7595 3.59992 54.852 4.02222 55.0018 4.42549L62.3459 25.4574L68.0951 8.73694L66.3619 4.01416C66.1296 3.27119 65.74 2.58697 65.2196 2.00801C64.7634 1.52938 63.8285 1.004 62.4469 0.411315V0.0916025H76.5441V0.411315C75.2354 0.934822 74.3548 1.41533 73.8518 1.84722C73.6172 2.03684 73.4282 2.27676 73.2987 2.54924C73.1693 2.82173 73.1027 3.11981 73.104 3.42148C73.104 3.92442 73.3321 4.83682 73.8126 6.13623L80.5714 25.4274L86.8217 6.97571C87.3203 5.53732 87.5696 4.48781 87.5696 3.8272C87.5692 3.48837 87.4937 3.15384 87.3486 2.84768C87.2034 2.54153 86.9922 2.27136 86.7301 2.05662C86.1598 1.55555 85.1558 0.985303 83.6975 0.373922V0.0448608L93.8703 0.0916025Z" fill="black"/>
<path d="M93.6703 20.2821C93.1393 19.7302 92.8153 19.0117 92.7531 18.2482C92.691 17.4848 92.8946 16.7234 93.3293 16.0928C93.7641 15.4622 94.4034 15.0012 95.139 14.7878C95.8747 14.5745 96.6614 14.6218 97.3661 14.9219C98.0709 15.2219 98.6503 15.7563 99.0063 16.4344C99.3623 17.1126 99.4731 17.893 99.3198 18.6434C99.1666 19.3939 98.7587 20.0683 98.1653 20.5527C97.5719 21.037 96.8294 21.3014 96.0635 21.3011C95.6161 21.3042 95.1728 21.2154 94.7611 21.0401C94.3494 20.8648 93.9782 20.6068 93.6703 20.2821V20.2821Z" fill="#ED1C24"/>
<path d="M128.586 24.6123L127.465 33.3997H102.856V33.0819C104.612 32.42 105.707 31.8049 106.117 31.2346C106.526 30.6644 106.734 29.4304 106.734 27.5383V5.90813C106.734 4.01354 106.528 2.78205 106.117 2.21367C105.707 1.64343 104.634 1.02644 102.878 0.364574V0.0448608H116.976V0.373922C115.265 1.03578 114.192 1.65277 113.782 2.22302C113.373 2.79327 113.165 4.04782 113.165 5.98666V30.0193C113.165 30.6345 113.668 31.1411 114.648 31.5244C115.628 31.9077 116.998 32.1171 118.761 32.1171H119.926C121.726 32.1171 123.37 31.3692 124.83 29.8586C126.294 28.3467 127.476 26.586 128.321 24.659L128.586 24.6123Z" fill="black"/>
<path d="M8.11435 59.5638H9.62878C9.65308 59.5638 9.6643 59.5414 9.6643 59.5189L8.91643 55.5926C8.90335 55.5459 8.88091 55.5459 8.86969 55.5926L8.08817 59.5189C8.08817 59.5414 8.09939 59.5638 8.1237 59.5638H8.11435ZM10.0999 61.8074L9.84753 60.4874C9.84753 60.4631 9.81387 60.4407 9.78957 60.4407H7.94047C7.91803 60.4407 7.88438 60.4631 7.88438 60.4874L7.61889 61.8074C7.61748 61.8224 7.61312 61.837 7.60605 61.8503C7.59898 61.8636 7.58934 61.8754 7.5777 61.885C7.56605 61.8945 7.55262 61.9017 7.53819 61.906C7.52376 61.9104 7.50861 61.9118 7.49362 61.9103H6.62048C6.60452 61.9119 6.5884 61.9095 6.57356 61.9034C6.55872 61.8973 6.54563 61.8876 6.53544 61.8752C6.52526 61.8628 6.51831 61.8481 6.5152 61.8323C6.5121 61.8166 6.51294 61.8003 6.51765 61.785L8.22653 53.9717C8.22984 53.941 8.24499 53.913 8.26876 53.8934C8.29252 53.8738 8.323 53.8643 8.35367 53.8669H9.36329C9.39396 53.8643 9.42443 53.8738 9.4482 53.8934C9.47196 53.913 9.48711 53.941 9.49042 53.9717L11.218 61.7812C11.2227 61.7966 11.2235 61.8129 11.2204 61.8286C11.2173 61.8443 11.2104 61.8591 11.2002 61.8715C11.19 61.8839 11.1769 61.8936 11.1621 61.8997C11.1472 61.9058 11.1311 61.9081 11.1152 61.9065H10.2271C10.1966 61.9097 10.1661 61.9006 10.1423 61.8813C10.1185 61.8621 10.1032 61.8341 10.0999 61.8037V61.8074Z" fill="#221F1F"/>
<path d="M36.7876 61.7925V53.9829C36.7865 53.9676 36.7887 53.9522 36.794 53.9377C36.7993 53.9233 36.8077 53.9102 36.8184 53.8992C36.8292 53.8882 36.8422 53.8797 36.8566 53.8741C36.8709 53.8686 36.8863 53.8661 36.9016 53.867H37.7673C37.7826 53.8661 37.798 53.8686 37.8123 53.8741C37.8267 53.8797 37.8397 53.8882 37.8505 53.8992C37.8612 53.9102 37.8696 53.9233 37.8749 53.9377C37.8802 53.9522 37.8824 53.9676 37.8813 53.9829V60.9007C37.8826 60.9126 37.8879 60.9238 37.8964 60.9323C37.9049 60.9409 37.9161 60.9462 37.9281 60.9474H40.5007C40.516 60.9463 40.5313 60.9485 40.5457 60.9538C40.56 60.9592 40.573 60.9675 40.5839 60.9783C40.5947 60.9892 40.603 61.0022 40.6084 61.0165C40.6137 61.0309 40.6159 61.0462 40.6148 61.0615V61.785C40.6159 61.8003 40.6137 61.8156 40.6084 61.83C40.603 61.8443 40.5947 61.8573 40.5839 61.8681C40.573 61.879 40.56 61.8873 40.5457 61.8927C40.5313 61.898 40.516 61.9002 40.5007 61.8991H36.9016C36.8864 61.9002 36.871 61.898 36.8567 61.8927C36.8424 61.8873 36.8293 61.879 36.8185 61.8681C36.8077 61.8573 36.7993 61.8443 36.794 61.83C36.7886 61.8156 36.7865 61.8003 36.7876 61.785V61.7925Z" fill="#221F1F"/>
<path d="M43.0921 59.5638H44.6084C44.6308 59.5638 44.642 59.5414 44.642 59.5189L43.8848 55.5926C43.8736 55.5459 43.8512 55.5459 43.8381 55.5926L43.0584 59.5189C43.0584 59.5414 43.0697 59.5638 43.0921 59.5638ZM45.0796 61.8074L44.8271 60.4874C44.8271 60.4631 44.7916 60.4407 44.7692 60.4407H42.9201C42.8976 60.4407 42.8621 60.4631 42.8621 60.4874L42.5985 61.8074C42.5952 61.8379 42.58 61.8658 42.5562 61.8851C42.5323 61.9043 42.5018 61.9134 42.4714 61.9102H41.6001C41.5841 61.9117 41.568 61.9093 41.5531 61.9032C41.5383 61.8971 41.5251 61.8874 41.5148 61.8751C41.5045 61.8628 41.4974 61.8481 41.494 61.8324C41.4906 61.8167 41.4911 61.8004 41.4954 61.785L43.2061 53.9754C43.2095 53.9448 43.2246 53.9167 43.2484 53.8971C43.2721 53.8775 43.3026 53.868 43.3333 53.8707H44.3448C44.3752 53.8681 44.4055 53.8776 44.429 53.8972C44.4524 53.9168 44.4672 53.9449 44.47 53.9754L46.2051 61.785C46.2098 61.8003 46.2106 61.8166 46.2075 61.8323C46.2044 61.8481 46.1975 61.8628 46.1873 61.8752C46.1771 61.8876 46.164 61.8973 46.1492 61.9034C46.1343 61.9095 46.1182 61.9119 46.1023 61.9102H45.2048C45.1746 61.9129 45.1446 61.9036 45.1212 61.8843C45.0978 61.8651 45.0829 61.8375 45.0796 61.8074V61.8074Z" fill="#221F1F"/>
<path d="M47.2726 61.7925V53.9829C47.2718 53.9674 47.2743 53.952 47.2798 53.9376C47.2853 53.9232 47.2939 53.9101 47.3048 53.8991C47.3157 53.8882 47.3288 53.8797 47.3432 53.8741C47.3577 53.8686 47.3731 53.8662 47.3885 53.867H48.2729C48.3014 53.8653 48.3296 53.8738 48.3526 53.8909C48.3755 53.908 48.3916 53.9326 48.3982 53.9604L50.4436 59.0254C50.4548 59.0702 50.4997 59.059 50.4997 59.0123V53.9829C50.4989 53.9674 50.5013 53.952 50.5068 53.9376C50.5124 53.9232 50.5209 53.9101 50.5318 53.8991C50.5428 53.8882 50.5559 53.8797 50.5703 53.8741C50.5847 53.8686 50.6001 53.8662 50.6156 53.867H51.4756C51.4911 53.8662 51.5065 53.8686 51.5209 53.8741C51.5354 53.8797 51.5485 53.8882 51.5594 53.8991C51.5703 53.9101 51.5788 53.9232 51.5844 53.9376C51.5899 53.952 51.5924 53.9674 51.5916 53.9829V61.7925C51.5924 61.8078 51.5899 61.8232 51.5844 61.8375C51.5788 61.8519 51.5703 61.8649 51.5593 61.8757C51.5484 61.8864 51.5352 61.8948 51.5208 61.9001C51.5064 61.9054 51.491 61.9076 51.4756 61.9065H50.5801C50.5517 61.9086 50.5235 61.9006 50.5006 61.8838C50.4776 61.867 50.4614 61.8426 50.4548 61.8149L48.4094 56.75C48.3982 56.7051 48.3533 56.7051 48.3533 56.75L48.3645 61.7981C48.3653 61.8134 48.3629 61.8288 48.3573 61.8431C48.3518 61.8575 48.3432 61.8705 48.3323 61.8813C48.3213 61.8921 48.3082 61.9004 48.2938 61.9057C48.2793 61.911 48.2639 61.9132 48.2486 61.9121H47.3885C47.3732 61.9132 47.3578 61.911 47.3434 61.9057C47.3289 61.9004 47.3158 61.8921 47.3048 61.8813C47.2939 61.8705 47.2853 61.8575 47.2798 61.8431C47.2742 61.8288 47.2718 61.8134 47.2726 61.7981V61.7925Z" fill="#221F1F"/>
<path d="M52.8555 59.9901V55.7852C52.8555 54.5681 53.6819 53.7753 54.9214 53.7753C56.161 53.7753 57.0005 54.5681 57.0005 55.7983V56.2769C57.0016 56.2923 56.9994 56.3077 56.9941 56.3221C56.9888 56.3365 56.9804 56.3497 56.9696 56.3606C56.9589 56.3716 56.9459 56.3801 56.9315 56.3857C56.9172 56.3913 56.9018 56.3937 56.8865 56.3929H56.0133C55.9983 56.3932 55.9833 56.3903 55.9694 56.3845C55.9556 56.3787 55.943 56.3701 55.9326 56.3592C55.9223 56.3483 55.9143 56.3353 55.9092 56.3212C55.9041 56.307 55.902 56.292 55.903 56.2769V55.7721C55.903 55.1402 55.5123 54.727 54.9252 54.727C54.3381 54.727 53.9492 55.1402 53.9492 55.7721V59.9995C53.9492 60.6314 54.34 61.0446 54.9252 61.0446C55.5104 61.0446 55.903 60.6314 55.903 59.9995V58.7356C55.9017 58.7238 55.8963 58.7128 55.8878 58.7046C55.8793 58.6964 55.8681 58.6915 55.8563 58.6907H54.9831C54.9678 58.6915 54.9524 58.6891 54.9381 58.6835C54.9238 58.678 54.9108 58.6694 54.9 58.6585C54.8892 58.6475 54.8809 58.6344 54.8755 58.6199C54.8702 58.6055 54.868 58.5901 54.8691 58.5748V57.8624C54.868 57.8472 54.8702 57.8318 54.8755 57.8175C54.8808 57.8031 54.8892 57.7901 54.9 57.7793C54.9108 57.7685 54.9239 57.7601 54.9382 57.7548C54.9526 57.7494 54.9679 57.7473 54.9831 57.7484H56.8902C56.9055 57.7473 56.9208 57.7494 56.9351 57.7548C56.9495 57.7601 56.9625 57.7685 56.9733 57.7793C56.9841 57.7901 56.9925 57.8031 56.9978 57.8175C57.0032 57.8318 57.0054 57.8472 57.0043 57.8624V59.9882C57.0043 61.2054 56.1666 61.9981 54.9252 61.9981C53.6837 61.9981 52.8592 61.2054 52.8592 59.9882L52.8555 59.9901Z" fill="#221F1F"/>
<path d="M58.1466 59.7246V53.9829C58.1455 53.9676 58.1477 53.9522 58.1531 53.9377C58.1584 53.9233 58.1667 53.9102 58.1775 53.8992C58.1883 53.8882 58.2013 53.8797 58.2156 53.8741C58.23 53.8686 58.2453 53.8661 58.2607 53.867H59.1338C59.1492 53.8661 59.1645 53.8686 59.1789 53.8741C59.1932 53.8797 59.2062 53.8882 59.217 53.8992C59.2278 53.9102 59.2361 53.9233 59.2414 53.9377C59.2468 53.9522 59.249 53.9676 59.2479 53.9829V59.8406C59.2479 60.5529 59.6386 61.0465 60.2238 61.0465C60.809 61.0465 61.2129 60.5529 61.2129 59.8406V53.9829C61.2118 53.9676 61.214 53.9522 61.2193 53.9377C61.2246 53.9233 61.233 53.9102 61.2438 53.8992C61.2545 53.8882 61.2675 53.8797 61.2819 53.8741C61.2962 53.8686 61.3116 53.8661 61.3269 53.867H62.2001C62.2154 53.8661 62.2308 53.8686 62.2451 53.8741C62.2595 53.8797 62.2725 53.8882 62.2832 53.8992C62.294 53.9102 62.3024 53.9233 62.3077 53.9377C62.313 53.9522 62.3152 53.9676 62.3141 53.9829V59.7246C62.3141 61.0914 61.4765 62 60.2238 62C58.9712 62 58.1466 61.0914 58.1466 59.7246Z" fill="#221F1F"/>
<path d="M64.8232 59.5638H66.3395C66.3619 59.5638 66.3731 59.5414 66.3731 59.5189L65.6159 55.5926C65.6028 55.5459 65.5804 55.5459 65.5692 55.5926L64.7877 59.5189C64.7877 59.5414 64.7989 59.5638 64.8232 59.5638ZM66.8107 61.8074L66.5601 60.4837C66.5601 60.4594 66.5265 60.437 66.504 60.437H64.6549C64.6306 60.437 64.597 60.4594 64.597 60.4837L64.3333 61.8037C64.33 61.8341 64.3148 61.8621 64.291 61.8813C64.2672 61.9006 64.2367 61.9097 64.2062 61.9065H63.3331C63.3171 61.9081 63.301 61.9058 63.2861 61.8997C63.2713 61.8936 63.2582 61.8839 63.248 61.8715C63.2378 61.8591 63.2309 61.8443 63.2278 61.8286C63.2247 61.8129 63.2255 61.7966 63.2302 61.7812L64.941 53.9717C64.9443 53.941 64.9595 53.913 64.9832 53.8934C65.007 53.8738 65.0374 53.8643 65.0681 53.8669H66.0777C66.1084 53.8643 66.1389 53.8738 66.1627 53.8934C66.1864 53.913 66.2016 53.941 66.2049 53.9717L67.9381 61.7812C67.9428 61.7966 67.9436 61.8129 67.9405 61.8286C67.9374 61.8443 67.9305 61.8591 67.9203 61.8715C67.9101 61.8839 67.897 61.8936 67.8822 61.8997C67.8673 61.9058 67.8512 61.9081 67.8352 61.9065H66.934C66.9191 61.9081 66.9039 61.9066 66.8895 61.9023C66.8751 61.8979 66.8616 61.8908 66.85 61.8812C66.8383 61.8717 66.8287 61.8599 66.8216 61.8466C66.8145 61.8333 66.8102 61.8187 66.8088 61.8037L66.8107 61.8074Z" fill="#221F1F"/>
<path d="M68.6822 59.9901V55.7852C68.6822 54.5681 69.5086 53.7753 70.75 53.7753C71.9915 53.7753 72.8272 54.5681 72.8272 55.7983V56.2769C72.8283 56.2923 72.8261 56.3077 72.8208 56.3221C72.8155 56.3365 72.8072 56.3497 72.7964 56.3606C72.7856 56.3716 72.7726 56.3801 72.7582 56.3857C72.7439 56.3913 72.7285 56.3937 72.7132 56.3929H71.8401C71.8247 56.3937 71.8093 56.3913 71.795 56.3857C71.7807 56.3801 71.7677 56.3716 71.7569 56.3606C71.7461 56.3497 71.7378 56.3365 71.7324 56.3221C71.7271 56.3077 71.7249 56.2923 71.726 56.2769V55.7721C71.726 55.1402 71.3352 54.727 70.75 54.727C70.1648 54.727 69.7741 55.1402 69.7741 55.7721V59.9995C69.7741 60.6314 70.163 61.0446 70.75 61.0446C71.3371 61.0446 71.726 60.6314 71.726 59.9995V58.7356C71.7251 58.7236 71.7198 58.7125 71.7112 58.7042C71.7026 58.6959 71.6912 58.6911 71.6793 58.6907H70.8061C70.7908 58.6915 70.7754 58.6891 70.7611 58.6835C70.7467 58.678 70.7337 58.6694 70.7229 58.6585C70.7122 58.6475 70.7038 58.6344 70.6985 58.6199C70.6932 58.6055 70.691 58.5901 70.6921 58.5748V57.8624C70.691 57.8472 70.6932 57.8318 70.6985 57.8175C70.7038 57.8031 70.7122 57.7901 70.723 57.7793C70.7338 57.7685 70.7469 57.7601 70.7612 57.7548C70.7755 57.7494 70.7909 57.7473 70.8061 57.7484H72.7132C72.7285 57.7473 72.7438 57.7494 72.7581 57.7548C72.7725 57.7601 72.7855 57.7685 72.7963 57.7793C72.8071 57.7901 72.8155 57.8031 72.8208 57.8175C72.8262 57.8318 72.8284 57.8472 72.8272 57.8624V59.9882C72.8272 61.2054 71.9896 61.9981 70.75 61.9981C69.5105 61.9981 68.6822 61.2054 68.6822 59.9882V59.9901Z" fill="#221F1F"/>
<path d="M77.7669 54.8205H75.183C75.1711 54.8217 75.1599 54.8271 75.1514 54.8356C75.1429 54.8441 75.1375 54.8553 75.1363 54.8673V57.3595C75.1376 57.3713 75.143 57.3822 75.1515 57.3904C75.1601 57.3986 75.1712 57.4036 75.183 57.4044H76.7685C76.7838 57.4039 76.799 57.4065 76.8132 57.4122C76.8274 57.4178 76.8403 57.4264 76.851 57.4373C76.8618 57.4482 76.8701 57.4612 76.8755 57.4755C76.881 57.4898 76.8834 57.505 76.8826 57.5203V58.2439C76.8834 58.2591 76.881 58.2743 76.8755 58.2885C76.8701 58.3027 76.8617 58.3156 76.851 58.3263C76.8402 58.3371 76.8273 58.3454 76.8131 58.3509C76.7989 58.3563 76.7837 58.3587 76.7685 58.3579H75.183C75.1711 58.3591 75.1599 58.3645 75.1514 58.373C75.1429 58.3815 75.1375 58.3927 75.1363 58.4047V60.9081C75.1375 60.9201 75.1429 60.9313 75.1514 60.9398C75.1599 60.9483 75.1711 60.9537 75.183 60.9549H77.7669C77.7822 60.9538 77.7975 60.956 77.8119 60.9613C77.8262 60.9666 77.8392 60.975 77.85 60.9858C77.8609 60.9966 77.8692 61.0097 77.8746 61.024C77.8799 61.0383 77.8821 61.0537 77.881 61.0689V61.7925C77.8821 61.8078 77.8799 61.8231 77.8746 61.8374C77.8692 61.8518 77.8609 61.8648 77.85 61.8756C77.8392 61.8864 77.8262 61.8948 77.8119 61.9001C77.7975 61.9055 77.7822 61.9077 77.7669 61.9065H74.1491C74.1339 61.9077 74.1185 61.9055 74.1042 61.9001C74.0899 61.8948 74.0768 61.8864 74.066 61.8756C74.0552 61.8648 74.0468 61.8518 74.0415 61.8374C74.0361 61.8231 74.034 61.8078 74.0351 61.7925V53.9829C74.034 53.9676 74.0362 53.9522 74.0415 53.9377C74.0468 53.9233 74.0552 53.9102 74.0659 53.8992C74.0767 53.8882 74.0897 53.8797 74.1041 53.8741C74.1184 53.8686 74.1338 53.8661 74.1491 53.867H77.7669C77.7823 53.8661 77.7976 53.8686 77.812 53.8741C77.8263 53.8797 77.8393 53.8882 77.8501 53.8992C77.8609 53.9102 77.8692 53.9233 77.8745 53.9377C77.8799 53.9522 77.8821 53.9676 77.881 53.9829V54.7065C77.8821 54.7217 77.8799 54.737 77.8746 54.7514C77.8692 54.7657 77.8609 54.7788 77.85 54.7896C77.8392 54.8004 77.8262 54.8088 77.8119 54.8141C77.7975 54.8194 77.7822 54.8216 77.7669 54.8205V54.8205Z" fill="#221F1F"/>
<path d="M81.1323 59.9209V55.8432C81.1323 54.5793 81.9587 53.7753 83.2002 53.7753C84.4416 53.7753 85.2792 54.5793 85.2792 55.8432V56.0301C85.28 56.0456 85.2776 56.061 85.2721 56.0754C85.2665 56.0899 85.258 56.103 85.2471 56.1139C85.2362 56.1248 85.2231 56.1333 85.2086 56.1389C85.1942 56.1444 85.1788 56.1469 85.1633 56.1461L84.2902 56.1909C84.2749 56.1921 84.2596 56.1899 84.2453 56.1845C84.2309 56.1792 84.2179 56.1708 84.2071 56.16C84.1963 56.1492 84.1879 56.1362 84.1825 56.1218C84.1772 56.1075 84.175 56.0922 84.1761 56.0769V55.7777C84.1761 55.1458 83.7854 54.7326 83.2002 54.7326C82.615 54.7326 82.2354 55.1458 82.2354 55.7777V60.0051C82.2354 60.6258 82.6094 61.0502 83.2002 61.0502C83.791 61.0502 84.1761 60.6258 84.1761 60.0051V59.7059C84.175 59.6906 84.1772 59.6753 84.1825 59.661C84.1879 59.6466 84.1963 59.6336 84.2071 59.6228C84.2179 59.612 84.2309 59.6036 84.2453 59.5983C84.2596 59.5929 84.2749 59.5907 84.2902 59.5919L85.1633 59.6367C85.1788 59.6359 85.1942 59.6384 85.2086 59.6439C85.2231 59.6495 85.2362 59.658 85.2471 59.6689C85.258 59.6798 85.2665 59.6929 85.2721 59.7074C85.2776 59.7218 85.28 59.7372 85.2792 59.7527V59.9247C85.2792 61.1886 84.451 62.0037 83.2002 62.0037C81.9494 62.0037 81.1323 61.1886 81.1323 59.9247V59.9209Z" fill="#221F1F"/>
<path d="M89.4243 59.9434V55.8301C89.4243 55.1757 89.0223 54.727 88.4146 54.727C87.807 54.727 87.4256 55.1757 87.4256 55.8301V59.9434C87.4256 60.5977 87.8163 61.0465 88.4146 61.0465C89.0129 61.0465 89.4243 60.5977 89.4243 59.9434ZM86.3243 59.8966V55.8899C86.3243 54.6148 87.162 53.7753 88.4146 53.7753C89.6673 53.7753 90.5274 54.6148 90.5274 55.8899V59.8966C90.5274 61.1717 89.6767 62 88.4146 62C87.1526 62 86.3243 61.1717 86.3243 59.8966Z" fill="#221F1F"/>
<path d="M91.7801 61.7925V53.9829C91.779 53.9675 91.7812 53.9521 91.7865 53.9377C91.7918 53.9233 91.8002 53.9101 91.8109 53.8992C91.8217 53.8882 91.8347 53.8797 91.8491 53.8741C91.8634 53.8685 91.8788 53.8661 91.8941 53.8669H92.7673C92.7959 53.8649 92.8243 53.8732 92.8473 53.8904C92.8703 53.9076 92.8863 53.9324 92.8925 53.9604L94.0648 56.75C94.0666 56.7578 94.071 56.7647 94.0773 56.7697C94.0836 56.7747 94.0914 56.7774 94.0994 56.7774C94.1074 56.7774 94.1152 56.7747 94.1215 56.7697C94.1277 56.7647 94.1322 56.7578 94.134 56.75L95.3287 53.9604C95.3349 53.9324 95.351 53.9076 95.374 53.8904C95.3969 53.8732 95.4253 53.8649 95.454 53.8669H96.3271C96.3425 53.8661 96.358 53.8686 96.3724 53.8741C96.3868 53.8797 96.3999 53.8882 96.4109 53.8991C96.4218 53.91 96.4303 53.9231 96.4358 53.9376C96.4414 53.952 96.4438 53.9674 96.443 53.9829V61.7925C96.4439 61.8078 96.4414 61.8232 96.4359 61.8375C96.4303 61.8519 96.4218 61.8648 96.4108 61.8756C96.3998 61.8864 96.3867 61.8947 96.3723 61.9001C96.3578 61.9054 96.3424 61.9076 96.3271 61.9065H95.454C95.4388 61.9073 95.4236 61.9049 95.4094 61.8995C95.3952 61.894 95.3823 61.8857 95.3715 61.8749C95.3608 61.8641 95.3524 61.8512 95.3469 61.837C95.3415 61.8228 95.3391 61.8076 95.3399 61.7925V56.5892C95.3399 56.5443 95.3063 56.5443 95.2819 56.578L94.2144 58.8515C94.1919 58.9094 94.1564 58.9319 94.1209 58.9319C94.0959 58.9321 94.0714 58.9244 94.0509 58.91C94.0305 58.8956 94.015 58.8751 94.0068 58.8515L92.9393 56.5667C92.9168 56.5331 92.8813 56.5331 92.8813 56.578V61.7925C92.8824 61.8077 92.8802 61.823 92.8749 61.8374C92.8696 61.8517 92.8612 61.8647 92.8504 61.8756C92.8395 61.8864 92.8265 61.8948 92.8122 61.9001C92.7978 61.9054 92.7825 61.9076 92.7673 61.9065H91.8941C91.8789 61.9076 91.8635 61.9054 91.8492 61.9001C91.8348 61.8948 91.8218 61.8864 91.811 61.8756C91.8002 61.8647 91.7918 61.8517 91.7865 61.8374C91.7811 61.823 91.779 61.8077 91.7801 61.7925Z" fill="#221F1F"/>
<path d="M100.818 56.1872C100.818 55.3384 100.394 54.8093 99.7729 54.8093H98.924C98.9118 54.8097 98.9002 54.8148 98.8915 54.8235C98.8828 54.8321 98.8778 54.8438 98.8773 54.856V57.4848C98.8778 57.497 98.8828 57.5086 98.8915 57.5173C98.9002 57.526 98.9118 57.531 98.924 57.5315H99.7729C100.394 57.5315 100.818 57.0267 100.818 56.1872ZM101.921 56.1648C101.921 57.5203 101.151 58.4084 100.003 58.4084H98.924C98.9118 58.4088 98.9002 58.4139 98.8915 58.4226C98.8828 58.4312 98.8778 58.4429 98.8773 58.4551V61.7925C98.8781 61.8077 98.8757 61.8229 98.8703 61.8371C98.8648 61.8513 98.8565 61.8642 98.8457 61.8749C98.8349 61.8857 98.822 61.894 98.8078 61.8995C98.7936 61.9049 98.7784 61.9073 98.7633 61.9065H97.8901C97.8748 61.9076 97.8594 61.9054 97.845 61.9001C97.8305 61.8948 97.8174 61.8864 97.8064 61.8757C97.7955 61.8649 97.7869 61.8519 97.7814 61.8375C97.7758 61.8232 97.7734 61.8078 97.7742 61.7925V53.9717C97.7734 53.9562 97.7758 53.9408 97.7814 53.9264C97.7869 53.9119 97.7954 53.8988 97.8064 53.8879C97.8173 53.877 97.8304 53.8685 97.8448 53.8629C97.8593 53.8574 97.8747 53.8549 97.8901 53.8557H99.9468C101.13 53.8557 101.923 54.7906 101.923 56.1648H101.921Z" fill="#221F1F"/>
<path d="M103.873 59.5638H105.389C105.414 59.5638 105.425 59.5414 105.425 59.5189L104.666 55.5926C104.655 55.5459 104.632 55.5459 104.621 55.5926L103.839 59.5189C103.839 59.5414 103.851 59.5638 103.873 59.5638V59.5638ZM105.86 61.8074L105.608 60.4874C105.608 60.4631 105.574 60.4407 105.55 60.4407H103.701C103.679 60.4407 103.643 60.4631 103.643 60.4874L103.379 61.8074C103.376 61.8375 103.361 61.8651 103.338 61.8843C103.314 61.9036 103.284 61.9129 103.254 61.9102H102.381C102.365 61.9117 102.349 61.9093 102.334 61.9032C102.319 61.8971 102.306 61.8874 102.296 61.8751C102.285 61.8628 102.278 61.8481 102.275 61.8324C102.272 61.8167 102.272 61.8004 102.276 61.785L103.989 53.9754C103.992 53.9449 104.007 53.9168 104.03 53.8972C104.053 53.8776 104.084 53.8681 104.114 53.8707H105.126C105.156 53.868 105.187 53.8775 105.211 53.8971C105.234 53.9167 105.25 53.9448 105.253 53.9754L106.986 61.785C106.991 61.8003 106.992 61.8166 106.988 61.8323C106.985 61.8481 106.978 61.8628 106.968 61.8752C106.958 61.8876 106.945 61.8973 106.93 61.9034C106.915 61.9095 106.899 61.9119 106.883 61.9102H105.988C105.957 61.9134 105.927 61.9043 105.903 61.8851C105.879 61.8658 105.864 61.8379 105.86 61.8074V61.8074Z" fill="#221F1F"/>
<path d="M108.054 61.7925V53.9829C108.053 53.9674 108.055 53.952 108.061 53.9376C108.066 53.9231 108.075 53.91 108.086 53.8991C108.097 53.8882 108.11 53.8797 108.124 53.8741C108.139 53.8686 108.154 53.8661 108.17 53.8669H109.054C109.083 53.8649 109.111 53.8732 109.134 53.8904C109.157 53.9076 109.173 53.9324 109.179 53.9604L111.225 59.0254C111.236 59.0702 111.283 59.059 111.283 59.0123V53.9829C111.281 53.9675 111.284 53.9521 111.289 53.9377C111.294 53.9233 111.303 53.9101 111.313 53.8992C111.324 53.8882 111.337 53.8797 111.352 53.8741C111.366 53.8685 111.381 53.8661 111.397 53.8669H112.257C112.272 53.8658 112.288 53.8681 112.302 53.8735C112.317 53.8789 112.33 53.8874 112.341 53.8984C112.352 53.9094 112.361 53.9226 112.366 53.9372C112.371 53.9518 112.374 53.9674 112.373 53.9829V61.7925C112.374 61.8079 112.372 61.8234 112.366 61.8379C112.361 61.8524 112.352 61.8655 112.341 61.8763C112.33 61.8872 112.317 61.8955 112.302 61.9007C112.288 61.9059 112.272 61.9079 112.257 61.9065H111.363C111.334 61.9087 111.306 61.9007 111.283 61.8839C111.259 61.8672 111.243 61.8427 111.236 61.8149L109.189 56.75C109.175 56.7051 109.131 56.7051 109.131 56.75L109.142 61.7981C109.143 61.8133 109.14 61.8284 109.135 61.8426C109.129 61.8569 109.121 61.8697 109.11 61.8805C109.099 61.8913 109.087 61.8996 109.072 61.9051C109.058 61.9105 109.043 61.9129 109.028 61.9121H108.166C108.15 61.9132 108.135 61.911 108.121 61.9057C108.106 61.9004 108.093 61.892 108.082 61.8812C108.071 61.8705 108.063 61.8575 108.057 61.8431C108.052 61.8288 108.049 61.8134 108.05 61.7981L108.054 61.7925Z" fill="#221F1F"/>
<path d="M115.072 61.7812V58.4962C115.072 58.485 115.061 58.4514 115.061 58.4383L113.464 53.9941C113.44 53.9137 113.476 53.8669 113.556 53.8669H114.474C114.504 53.867 114.533 53.8759 114.557 53.8926C114.582 53.9092 114.601 53.9329 114.612 53.9604L115.588 57.1295C115.59 57.1373 115.595 57.1443 115.601 57.1493C115.607 57.1542 115.615 57.1569 115.623 57.1569C115.631 57.1569 115.639 57.1542 115.645 57.1493C115.651 57.1443 115.656 57.1373 115.658 57.1295L116.634 53.9604C116.645 53.933 116.664 53.9095 116.689 53.8929C116.713 53.8763 116.742 53.8672 116.772 53.8669H117.69C117.77 53.8669 117.806 53.9137 117.782 53.9941L116.185 58.4383C116.185 58.4514 116.174 58.485 116.174 58.4962V61.7812C116.175 61.7965 116.173 61.8118 116.167 61.8262C116.162 61.8405 116.153 61.8535 116.143 61.8644C116.132 61.8752 116.119 61.8835 116.104 61.8889C116.09 61.8942 116.075 61.8964 116.06 61.8953H115.186C115.171 61.8964 115.156 61.8942 115.141 61.8889C115.127 61.8835 115.114 61.8752 115.103 61.8644C115.092 61.8535 115.084 61.8405 115.079 61.8262C115.073 61.8118 115.071 61.7965 115.072 61.7812V61.7812Z" fill="#221F1F"/>
<path d="M18.9247 59.5881C18.9247 57.625 17.8441 57.6586 17.4776 57.6923L16.8569 57.7259V60.8221C16.8569 61.1456 17.3411 61.3475 17.6552 61.3924C18.3152 61.3811 18.9247 60.9212 18.9247 59.5881V59.5881ZM17.3617 57.2884C18.0423 57.2884 18.6032 56.6958 18.6032 55.7759C18.6032 54.6204 18.0217 54.2054 17.3617 54.2054H16.8569V57.2884H17.3617ZM13.9215 61.7289C14.4824 61.3699 14.5722 61.2465 14.5722 60.4519V55.1701C14.5722 54.3624 14.488 54.2502 13.9215 53.8913V53.8015H18.3227C20.3251 53.8015 20.9028 54.9009 20.9028 55.6188C20.9028 56.6958 19.7605 57.1445 18.7939 57.2567V57.2791C19.9381 57.4118 21.3534 57.9952 21.3534 59.5227C21.3534 61.0502 19.8427 61.8205 17.9338 61.8205H13.9215V61.7308V61.7289Z" fill="#EB2027"/>
<path d="M21.9125 61.7289C22.4565 61.3699 22.5369 61.2465 22.5369 60.4519V55.1701C22.5369 54.3624 22.4565 54.2502 21.9125 53.8913V53.8015H25.5546V53.8913C25.0217 54.2502 24.9301 54.3624 24.9301 55.1701V60.4519C24.9301 61.2465 25.0217 61.3699 25.5546 61.7289V61.8186H21.9125V61.7289V61.7289Z" fill="#EB2027"/>
<path d="M25.8874 57.8942C25.8874 54.8672 27.8412 53.6445 30.3278 53.6445C31.4384 53.6445 32.6481 53.8651 33.4221 54.2278L33.4109 56.6285H33.2501C32.4387 55.2543 31.1935 54.0502 30.3952 54.0483C29.4734 54.0483 28.3815 54.8784 28.3815 57.8269C28.3815 60.7754 29.4416 61.5382 30.3727 61.5382C30.6887 61.5382 31.1411 61.3924 31.1411 60.5865V59.2292C31.1411 58.3878 30.7897 57.8157 29.9763 57.782V57.6362H33.4165V61.8448H33.3156C32.978 61.8057 32.6383 61.7876 32.2985 61.7906C31.4571 61.7906 30.8794 61.9776 29.6323 61.9776C28.3105 61.9776 25.8818 61.2821 25.8818 57.8961L25.8874 57.8942Z" fill="#EB2027"/>
</g>
<defs>
<clipPath id="clip0_1938_6165">
<rect width="129" height="62" fill="white"/>
</clipPath>
</defs>
</svg>
