<svg width="139" height="62" viewBox="0 0 139 62" fill="none" xmlns="http://www.w3.org/2000/svg">
<g clip-path="url(#clip0_1938_6166)">
<path d="M55.1323 0H1.10546C0.812442 0.000554429 0.531587 0.1172 0.324393 0.324393C0.1172 0.531587 0.000554429 0.812442 0 1.10546L0 37.3737C0.000554429 37.6667 0.1172 37.9476 0.324393 38.1547C0.531587 38.3619 0.812442 38.4786 1.10546 38.4791H41.8605L56.2378 46.9347V1.10546C56.2372 0.812442 56.1206 0.531587 55.9134 0.324393C55.7062 0.1172 55.4253 0.000554429 55.1323 0V0Z" fill="#EB2027"/>
<path d="M8.42206 31.5485C8.37761 31.5123 8.34189 31.4665 8.31756 31.4146C8.29323 31.3626 8.28091 31.3059 8.28152 31.2486V7.3732C8.28091 7.31586 8.29323 7.25911 8.31756 7.20718C8.34189 7.15525 8.37761 7.10947 8.42206 7.07324C8.51447 6.98999 8.63546 6.94566 8.75978 6.94948H14.4339C14.5588 6.94619 14.6802 6.99042 14.7737 7.07324C14.8178 7.10977 14.8533 7.15561 14.8776 7.20747C14.9019 7.25933 14.9144 7.31593 14.9143 7.3732V31.2549C14.9144 31.3121 14.9019 31.3687 14.8776 31.4206C14.8533 31.4724 14.8178 31.5183 14.7737 31.5548C14.6798 31.6369 14.5586 31.681 14.4339 31.6786H8.75978C8.63479 31.6796 8.51407 31.6331 8.42206 31.5485Z" fill="white"/>
<path d="M22.6546 31.0178C21.0156 30.3955 19.7507 29.5012 18.8599 28.3349C17.9694 27.1769 17.4977 25.7513 17.5216 24.2907V23.6194C17.5211 23.5623 17.5332 23.5058 17.5571 23.4539C17.5811 23.402 17.6162 23.3561 17.6601 23.3195C17.7537 23.2368 17.8751 23.1926 17.9999 23.1957H23.5544C23.6792 23.1933 23.8003 23.2374 23.8943 23.3195C23.9381 23.3561 23.9733 23.402 23.9972 23.4539C24.0211 23.5058 24.0333 23.5623 24.0327 23.6194V24.039C24.0327 24.8151 24.4725 25.4919 25.3521 26.0695C26.2317 26.647 27.4169 26.9358 28.9076 26.9358C30.0795 26.9358 30.9451 26.7121 31.5045 26.2646C32.0639 25.8171 32.3436 25.299 32.3436 24.7102C32.35 24.494 32.3086 24.279 32.2223 24.0807C32.136 23.8823 32.0069 23.7055 31.8443 23.5628C31.4489 23.2333 30.9948 22.9814 30.506 22.8202C29.9467 22.6203 29.081 22.3406 27.9091 21.9812C27.7542 21.914 27.5934 21.8613 27.4288 21.8239C27.2804 21.7911 27.134 21.7498 26.9904 21.7001C25.4484 21.2735 23.9391 20.7365 22.4742 20.0933C21.2208 19.5412 20.1006 18.7264 19.1892 17.7041C18.2831 16.679 17.83 15.4135 17.83 13.9074C17.8041 12.5159 18.2632 11.1587 19.1284 10.0687C19.994 8.97371 21.1995 8.13465 22.7447 7.55151C24.4209 6.94062 26.1946 6.64133 27.9784 6.6684C29.8694 6.64008 31.7481 6.97623 33.5119 7.65849C35.1509 8.31715 36.4361 9.2471 37.3674 10.4484C38.2918 11.6257 38.7855 13.0839 38.7665 14.5807V15.0737C38.7667 15.1312 38.7542 15.1881 38.7299 15.2403C38.7056 15.2925 38.6702 15.3388 38.626 15.3757C38.5321 15.4578 38.4109 15.5019 38.2862 15.4995H32.7232C32.5985 15.5019 32.4773 15.4578 32.3834 15.3757C32.3395 15.3387 32.3044 15.2924 32.2804 15.2402C32.2565 15.1879 32.2444 15.1311 32.245 15.0737V14.8261C32.245 14.0011 31.8317 13.2711 31.0053 12.6362C30.1788 12.0013 29.074 11.6832 27.691 11.6818C26.6506 11.6818 25.8381 11.8699 25.2535 12.246C24.9784 12.4099 24.7524 12.6447 24.5993 12.926C24.4461 13.2072 24.3714 13.5244 24.383 13.8444C24.3767 14.0868 24.4233 14.3276 24.5197 14.5501C24.6161 14.7725 24.7598 14.9713 24.941 15.1324C25.4567 15.5552 26.0463 15.8788 26.6799 16.0868C27.4644 16.3819 28.6699 16.7644 30.2963 17.2342C32.159 17.7936 33.6105 18.2886 34.651 18.7194C35.7637 19.195 36.7641 19.8989 37.5877 20.7855C38.5064 21.7379 38.9658 22.9916 38.9658 24.5466C38.9986 25.9779 38.5321 27.3759 37.6464 28.5007C36.7682 29.6082 35.5362 30.462 33.9504 31.0619C32.3645 31.6618 30.52 31.9625 28.4168 31.9639C26.2059 31.9583 24.2851 31.6429 22.6546 31.0178Z" fill="white"/>
<path d="M41.743 31.5485C41.6986 31.5123 41.6629 31.4665 41.6385 31.4146C41.6142 31.3627 41.6019 31.3059 41.6025 31.2486V7.37321C41.6019 7.31587 41.6142 7.25912 41.6385 7.20719C41.6629 7.15526 41.6986 7.10948 41.743 7.07325C41.8361 6.98968 41.9579 6.94534 42.0829 6.94949H47.7465C47.8714 6.9462 47.9928 6.99043 48.0863 7.07325C48.1301 7.10988 48.1653 7.15579 48.1892 7.20767C48.2132 7.25954 48.2253 7.31608 48.2248 7.37321V31.2549C48.2253 31.312 48.2132 31.3685 48.1892 31.4204C48.1653 31.4723 48.1301 31.5182 48.0863 31.5548C47.9924 31.6369 47.8712 31.681 47.7465 31.6786H42.0829C41.9572 31.6799 41.8357 31.6334 41.743 31.5485V31.5485Z" fill="white"/>
<path d="M62.7384 19.12C62.7159 19.1018 62.6979 19.0787 62.6855 19.0526C62.6732 19.0265 62.6669 18.9979 62.6671 18.969V6.92221C62.6669 6.8933 62.6732 6.86472 62.6855 6.83858C62.6979 6.81244 62.7159 6.7894 62.7384 6.77118C62.7848 6.72911 62.8457 6.70657 62.9083 6.70825H65.2681C65.3313 6.70688 65.3927 6.72935 65.4401 6.77118C65.462 6.7898 65.4795 6.81296 65.4914 6.83905C65.5034 6.86513 65.5095 6.89351 65.5094 6.92221V16.9363C65.5094 16.9972 65.5429 17.0265 65.61 17.0265H69.8515C69.9143 17.0254 69.9754 17.047 70.0235 17.0874C70.045 17.1068 70.0622 17.1304 70.0741 17.1567C70.086 17.1831 70.0923 17.2116 70.0927 17.2405V18.969C70.0929 18.9977 70.0867 19.026 70.0748 19.0521C70.0628 19.0782 70.0453 19.1014 70.0235 19.12C69.9761 19.1618 69.9147 19.1843 69.8515 19.1829H62.9083C62.8457 19.1846 62.7848 19.1621 62.7384 19.12V19.12Z" fill="black"/>
<path d="M76.9625 18.9858L76.6394 17.2762C76.6394 17.2153 76.5996 17.186 76.5178 17.186H73.9566C73.8769 17.186 73.837 17.2153 73.837 17.2762L73.514 18.9858C73.5014 19.1179 73.4133 19.1829 73.2518 19.1829H70.9003C70.7269 19.1829 70.657 19.1053 70.6905 18.9501L73.6545 6.90124C73.6643 6.84105 73.6972 6.78705 73.7461 6.75064C73.7951 6.71423 73.8562 6.69828 73.9167 6.70616H76.6436C76.7041 6.69828 76.7653 6.71423 76.8142 6.75064C76.8632 6.78705 76.896 6.84105 76.9059 6.90124L79.8425 18.9501L79.8635 19.0214C79.8635 19.1284 79.788 19.1829 79.6412 19.1829H77.2247C77.0632 19.1829 76.9835 19.1179 76.9625 18.9858ZM74.3216 15.2436H76.1444C76.2115 15.2436 76.2367 15.2142 76.2241 15.1555L75.276 10.2889C75.2634 10.2533 75.2424 10.2344 75.2152 10.2344C75.1879 10.2344 75.169 10.2533 75.1564 10.2889L74.2481 15.1555C74.2425 15.2142 74.267 15.2436 74.3216 15.2436Z" fill="black"/>
<path d="M86.5487 6.76908C86.5959 6.72688 86.6574 6.70436 86.7207 6.70615H89.0575C89.1208 6.70414 89.1824 6.72669 89.2295 6.76908C89.2519 6.7873 89.27 6.81034 89.2823 6.83648C89.2947 6.86262 89.301 6.8912 89.3008 6.92011V18.969C89.301 18.9979 89.2947 19.0265 89.2823 19.0526C89.27 19.0787 89.2519 19.1018 89.2295 19.12C89.1824 19.1624 89.1208 19.1849 89.0575 19.1829H86.3977C86.3401 19.1882 86.2824 19.1733 86.2346 19.1408C86.1868 19.1082 86.1517 19.0601 86.1354 19.0046L83.6351 12.1055C83.6311 12.0904 83.6215 12.0774 83.6082 12.0692C83.5949 12.061 83.579 12.0582 83.5637 12.0614C83.5563 12.0622 83.5491 12.0645 83.5425 12.0681C83.5359 12.0717 83.5301 12.0765 83.5254 12.0824C83.5207 12.0882 83.5173 12.095 83.5152 12.1022C83.5131 12.1094 83.5125 12.1169 83.5134 12.1244L83.5344 18.969C83.5346 18.9979 83.5282 19.0265 83.5159 19.0526C83.5036 19.0787 83.4855 19.1018 83.4631 19.12C83.4164 19.1617 83.3557 19.1842 83.2931 19.1829H80.9543C80.891 19.1849 80.8293 19.1624 80.7823 19.12C80.7598 19.1018 80.7418 19.0787 80.7294 19.0526C80.7171 19.0265 80.7108 18.9979 80.7109 18.969V6.9222C80.7108 6.8933 80.7171 6.86472 80.7294 6.83857C80.7418 6.81243 80.7598 6.7894 80.7823 6.77117C80.8293 6.72879 80.891 6.70624 80.9543 6.70825H83.5952C83.6528 6.70299 83.7104 6.71789 83.7583 6.75041C83.8061 6.78293 83.8411 6.83105 83.8574 6.88655L86.3746 13.7836C86.3785 13.7988 86.3881 13.812 86.4013 13.8205C86.4145 13.8291 86.4304 13.8323 86.4459 13.8297C86.4533 13.829 86.4606 13.8267 86.4672 13.8231C86.4737 13.8195 86.4795 13.8146 86.4842 13.8088C86.4889 13.8029 86.4924 13.7962 86.4944 13.789C86.4965 13.7818 86.4971 13.7743 86.4962 13.7668L86.4774 6.9222C86.4769 6.89294 86.483 6.86395 86.4954 6.83742C86.5077 6.81089 86.526 6.78752 86.5487 6.76908Z" fill="black"/>
<path d="M91.667 18.4068C91.3082 18.1101 91.0227 17.7347 90.8324 17.3098C90.6422 16.885 90.5523 16.422 90.5699 15.9567V9.93232C90.5523 9.46711 90.6422 9.00411 90.8324 8.57923C91.0227 8.15434 91.3082 7.77898 91.667 7.48227C92.4012 6.86976 93.3731 6.56351 94.5827 6.56351C95.7923 6.56351 96.7663 6.87256 97.5047 7.49066C97.8664 7.78784 98.1547 8.16444 98.3472 8.5912C98.5397 9.01795 98.6311 9.48335 98.6144 9.9512V10.6266C98.6149 10.6559 98.6087 10.6849 98.5964 10.7114C98.584 10.7379 98.5658 10.7613 98.543 10.7798C98.4962 10.8209 98.4354 10.8426 98.3731 10.8406H96.0154C95.9524 10.8428 95.891 10.821 95.8434 10.7798C95.8219 10.7604 95.8047 10.7368 95.7928 10.7104C95.7809 10.6841 95.7745 10.6556 95.7742 10.6266V9.91344C95.7794 9.75456 95.7527 9.59625 95.6958 9.44783C95.6389 9.2994 95.5528 9.16387 95.4427 9.04921C95.3285 8.93803 95.1927 8.85144 95.0437 8.7948C94.8947 8.73816 94.7356 8.71266 94.5764 8.71988C94.4215 8.71468 94.2671 8.74121 94.1228 8.79784C93.9786 8.85448 93.8474 8.94002 93.7373 9.04921C93.6284 9.16428 93.5436 9.30008 93.4881 9.44854C93.4326 9.597 93.4075 9.75509 93.4143 9.91344V15.9735C93.4074 16.1322 93.4324 16.2907 93.4879 16.4395C93.5434 16.5883 93.6282 16.7245 93.7373 16.8399C93.8474 16.949 93.9786 17.0346 94.1228 17.0912C94.2671 17.1479 94.4215 17.1744 94.5764 17.1692C94.7356 17.1764 94.8947 17.1509 95.0437 17.0943C95.1927 17.0376 95.3285 16.951 95.4427 16.8399C95.5515 16.7242 95.6361 16.588 95.6915 16.4392C95.747 16.2905 95.7722 16.1322 95.7658 15.9735V14.5492C95.7658 14.4884 95.7322 14.459 95.6651 14.459H94.7757C94.7131 14.4603 94.6524 14.4378 94.6058 14.3961C94.583 14.3782 94.5647 14.3552 94.5523 14.329C94.5399 14.3028 94.5338 14.2741 94.5345 14.2451V12.6593C94.5343 12.6303 94.5406 12.6018 94.5529 12.5756C94.5653 12.5495 94.5833 12.5264 94.6058 12.5082C94.6524 12.4665 94.7131 12.444 94.7757 12.4453H98.3794C98.442 12.444 98.5027 12.4665 98.5493 12.5082C98.5718 12.5264 98.5898 12.5495 98.6022 12.5756C98.6145 12.6018 98.6208 12.6303 98.6207 12.6593V15.9567C98.6378 16.4231 98.5466 16.8872 98.354 17.3123C98.1615 17.7374 97.8729 18.1121 97.511 18.4068C96.7726 19.0193 95.7986 19.3256 94.589 19.3256C93.3793 19.3256 92.4053 19.0193 91.667 18.4068Z" fill="black"/>
<path d="M100.924 18.3187C100.191 17.6475 99.8246 16.7532 99.8246 15.6358V6.92221C99.8245 6.8933 99.8308 6.86472 99.8431 6.83858C99.8555 6.81244 99.8735 6.7894 99.896 6.77118C99.9409 6.7326 99.9983 6.71172 100.057 6.71244H102.417C102.481 6.71108 102.542 6.73354 102.589 6.77537C102.611 6.79399 102.629 6.81716 102.641 6.84324C102.653 6.86933 102.659 6.89771 102.659 6.9264V15.8854C102.647 16.2261 102.767 16.5581 102.994 16.8126C103.1 16.929 103.23 17.0212 103.375 17.0828C103.52 17.1443 103.676 17.1738 103.833 17.1692C103.991 17.1757 104.148 17.147 104.293 17.0854C104.438 17.0237 104.568 16.9305 104.672 16.8126C104.888 16.5528 104.999 16.2225 104.985 15.8854V6.92221C104.985 6.89351 104.991 6.86513 105.003 6.83905C105.015 6.81296 105.032 6.7898 105.054 6.77118C105.101 6.72935 105.163 6.70688 105.226 6.70825H107.588C107.651 6.70657 107.712 6.72911 107.758 6.77118C107.78 6.7894 107.798 6.81244 107.811 6.83858C107.823 6.86472 107.829 6.8933 107.829 6.92221V15.6358C107.829 16.7546 107.463 17.6488 106.73 18.3187C105.997 18.9885 105.032 19.3242 103.833 19.3256C102.626 19.3256 101.657 18.9899 100.924 18.3187Z" fill="black"/>
<path d="M114.624 18.9858L114.303 17.2762C114.303 17.2153 114.261 17.186 114.181 17.186H111.62C111.54 17.186 111.5 17.2153 111.5 17.2762L111.175 18.9858C111.16 19.1179 111.074 19.1829 110.913 19.1829H108.555C108.38 19.1829 108.31 19.1053 108.345 18.9501L111.318 6.90124C111.327 6.84105 111.36 6.78705 111.409 6.75064C111.458 6.71423 111.519 6.69828 111.58 6.70616H114.307C114.367 6.69828 114.428 6.71423 114.477 6.75064C114.526 6.78705 114.559 6.84105 114.569 6.90124L117.506 18.9501L117.525 19.0214C117.525 19.1284 117.451 19.1829 117.315 19.1829H114.886C114.726 19.1829 114.638 19.1179 114.624 18.9858ZM111.983 15.2436H113.797C113.864 15.2436 113.891 15.2142 113.879 15.1555L112.931 10.2889C112.916 10.2533 112.897 10.2344 112.87 10.2344C112.843 10.2344 112.824 10.2533 112.809 10.2889L111.903 15.1555C111.903 15.2142 111.93 15.2436 111.983 15.2436Z" fill="black"/>
<path d="M118.888 18.4068C118.529 18.1101 118.244 17.7347 118.054 17.3098C117.863 16.885 117.773 16.422 117.791 15.9567V9.93232C117.773 9.46711 117.863 9.00411 118.054 8.57923C118.244 8.15434 118.529 7.77898 118.888 7.48227C119.622 6.86976 120.593 6.56351 121.802 6.56351C123.01 6.56351 123.985 6.87256 124.726 7.49066C125.088 7.78784 125.376 8.16444 125.568 8.5912C125.761 9.01795 125.852 9.48335 125.835 9.9512V10.6266C125.835 10.6557 125.828 10.6843 125.816 10.7107C125.804 10.7371 125.786 10.7606 125.764 10.7798C125.717 10.8212 125.655 10.843 125.592 10.8406H123.234C123.171 10.8428 123.11 10.821 123.062 10.7798C123.04 10.7613 123.021 10.7379 123.009 10.7114C122.997 10.6849 122.991 10.6559 122.991 10.6266V9.91344C122.998 9.75528 122.973 9.59737 122.918 9.44897C122.863 9.30056 122.778 9.16466 122.67 9.04921C122.556 8.93787 122.419 8.85119 122.27 8.79455C122.121 8.73791 121.961 8.71249 121.802 8.71988C121.647 8.71455 121.492 8.74103 121.348 8.79767C121.204 8.85431 121.073 8.93992 120.963 9.04921C120.854 9.16428 120.769 9.30008 120.713 9.44854C120.658 9.597 120.633 9.75509 120.64 9.91344V15.9735C120.633 16.1322 120.658 16.2907 120.713 16.4395C120.769 16.5883 120.853 16.7245 120.963 16.8399C121.073 16.9491 121.204 17.0348 121.348 17.0914C121.492 17.148 121.647 17.1745 121.802 17.1692C121.961 17.1766 122.121 17.1512 122.27 17.0945C122.419 17.0379 122.556 16.9512 122.67 16.8399C122.779 16.7241 122.863 16.5878 122.918 16.4391C122.973 16.2903 122.998 16.132 122.991 15.9735V14.5492C122.991 14.4884 122.957 14.459 122.892 14.459H122.003C121.94 14.4607 121.88 14.4382 121.833 14.3961C121.81 14.3782 121.792 14.3552 121.78 14.329C121.767 14.3028 121.761 14.2741 121.762 14.2451V12.6593C121.762 12.6303 121.768 12.6018 121.78 12.5756C121.793 12.5495 121.811 12.5264 121.833 12.5082C121.88 12.4662 121.94 12.4436 122.003 12.4453H125.592C125.655 12.4435 125.717 12.466 125.764 12.5082C125.786 12.5272 125.803 12.5504 125.815 12.5763C125.828 12.6023 125.835 12.6305 125.835 12.6593V15.9567C125.853 16.4231 125.761 16.8872 125.569 17.3123C125.376 17.7374 125.088 18.1121 124.726 18.4068C123.987 19.0193 123.013 19.3256 121.802 19.3256C120.591 19.3256 119.619 19.0193 118.888 18.4068Z" fill="black"/>
<path d="M134.434 8.8101C134.387 8.85229 134.325 8.87481 134.262 8.87303H130.054C129.985 8.87303 129.951 8.90239 129.951 8.96322V11.7678C129.951 11.8286 129.985 11.8559 130.054 11.8559H132.472C132.535 11.8552 132.595 11.8776 132.642 11.9188C132.665 11.9372 132.683 11.9606 132.696 11.9871C132.708 12.0137 132.714 12.0427 132.714 12.0719V13.8004C132.714 13.8293 132.707 13.8579 132.695 13.884C132.683 13.9102 132.665 13.9332 132.642 13.9514C132.596 13.9935 132.535 14.016 132.472 14.0143H130.054C129.985 14.0143 129.951 14.0437 129.951 14.1024V16.9364C129.951 16.9972 129.985 17.0266 130.054 17.0266H134.266C134.329 17.0252 134.39 17.0468 134.438 17.0874C134.46 17.1066 134.477 17.1301 134.49 17.1565C134.502 17.1828 134.509 17.2114 134.509 17.2405V18.969C134.508 18.9977 134.501 19.0259 134.489 19.0519C134.477 19.0779 134.459 19.1011 134.438 19.12C134.391 19.1622 134.329 19.1847 134.266 19.1829H127.344C127.281 19.1846 127.22 19.1621 127.174 19.12C127.151 19.1018 127.133 19.0787 127.121 19.0526C127.109 19.0265 127.102 18.9979 127.102 18.969V6.92222C127.102 6.89331 127.109 6.86473 127.121 6.83859C127.133 6.81245 127.151 6.78941 127.174 6.77119C127.22 6.72912 127.281 6.70658 127.344 6.70826H134.266C134.329 6.70647 134.391 6.72899 134.438 6.77119C134.459 6.79014 134.477 6.81332 134.489 6.8393C134.501 6.86528 134.508 6.8935 134.509 6.92222V8.65068C134.51 8.68131 134.504 8.71171 134.49 8.73941C134.477 8.76711 134.458 8.79132 134.434 8.8101V8.8101Z" fill="black"/>
<path d="M64.2403 34.137C63.6827 33.8926 63.2067 33.4937 62.8684 32.9875C62.5421 32.481 62.3742 31.8887 62.386 31.2863V30.7682C62.3858 30.7395 62.392 30.7111 62.4039 30.685C62.4159 30.659 62.4334 30.6358 62.4552 30.6172C62.5024 30.575 62.5639 30.5525 62.6272 30.5543H64.9451C65.0083 30.5529 65.0697 30.5753 65.1171 30.6172C65.1387 30.6361 65.1562 30.6593 65.1685 30.6853C65.1807 30.7113 65.1875 30.7395 65.1884 30.7682V31.1605C65.1736 31.4883 65.289 31.8088 65.5094 32.052C65.6125 32.1621 65.7378 32.2492 65.877 32.3074C66.0162 32.3656 66.1661 32.3937 66.317 32.3897C66.4659 32.3941 66.6141 32.3681 66.7526 32.3133C66.8911 32.2585 67.0169 32.176 67.1225 32.0708C67.2307 31.9604 67.3152 31.829 67.3708 31.6847C67.4264 31.5404 67.4518 31.3863 67.4455 31.2318C67.4467 31.0589 67.4115 30.8878 67.3421 30.7294C67.2727 30.5711 67.1707 30.4292 67.0428 30.313C66.5492 29.8949 66.0232 29.5168 65.4695 29.1824C64.9056 28.8304 64.3602 28.4495 63.8355 28.0413C63.4098 27.6977 63.0484 27.2816 62.7678 26.8121C62.4648 26.3002 62.3108 25.7139 62.3231 25.1193C62.3053 24.6603 62.3924 24.2034 62.5778 23.7832C62.7632 23.363 63.0419 22.9907 63.3929 22.6944C64.1061 22.0875 65.0472 21.7847 66.2163 21.7861C67.3854 21.7875 68.3363 22.1022 69.0691 22.73C69.4222 23.0364 69.7023 23.4179 69.8888 23.8465C70.0754 24.2752 70.1637 24.7402 70.1473 25.2074V25.6269C70.1478 25.6558 70.1416 25.6845 70.1292 25.7107C70.1168 25.7369 70.0986 25.7599 70.0759 25.7779C70.0295 25.82 69.9687 25.8425 69.906 25.8408H67.586C67.5234 25.8425 67.4626 25.82 67.4161 25.7779C67.3935 25.7599 67.3752 25.7369 67.3629 25.7107C67.3505 25.6845 67.3443 25.6558 67.3448 25.6269V25.1465C67.3608 24.8225 67.2485 24.5052 67.0323 24.2634C66.9272 24.154 66.8002 24.0681 66.6596 24.0114C66.5189 23.9546 66.3678 23.9283 66.2163 23.9341C66.0707 23.9287 65.9255 23.9537 65.7901 24.0075C65.6546 24.0613 65.5319 24.1428 65.4297 24.2466C65.3246 24.3635 65.2438 24.5001 65.192 24.6485C65.1401 24.7968 65.1183 24.954 65.1276 25.1109C65.1253 25.4636 65.2625 25.8029 65.5094 26.0548C65.9716 26.4878 66.4786 26.8703 67.0218 27.1959C67.8608 27.7434 68.4901 28.1839 68.9097 28.5237C69.3068 28.8321 69.6421 29.2129 69.8976 29.646C70.1424 30.0958 70.264 30.6024 70.25 31.1143C70.2698 31.5857 70.182 32.0554 69.9934 32.4879C69.8048 32.9203 69.5203 33.3042 69.1614 33.6105C68.4356 34.2272 67.4812 34.5363 66.2981 34.5377C65.5912 34.5555 64.8889 34.4187 64.2403 34.137V34.137Z" fill="black"/>
<path d="M72.2239 33.5853C71.8578 33.2681 71.5677 32.8727 71.3749 32.4283C71.1821 31.9839 71.0916 31.5019 71.11 31.0178V25.3143C71.0911 24.8309 71.181 24.3494 71.373 23.9054C71.5651 23.4614 71.8544 23.0661 72.2197 22.7489C72.9594 22.107 73.9474 21.7861 75.1836 21.7861C76.4199 21.7861 77.4113 22.107 78.1581 22.7489C78.5287 23.0629 78.8233 23.457 79.0195 23.9014C79.2157 24.3457 79.3085 24.8289 79.2908 25.3143V31.0178C79.3103 31.5024 79.2198 31.9851 79.0262 32.4298C78.8326 32.8744 78.5408 33.2695 78.1728 33.5853C77.426 34.2272 76.4345 34.5482 75.1983 34.5482C73.9621 34.5482 72.9706 34.2272 72.2239 33.5853ZM76.0961 32.0436C76.2117 31.9211 76.3015 31.7767 76.3602 31.6188C76.4189 31.461 76.4454 31.293 76.438 31.1248V25.2074C76.4451 25.0395 76.4185 24.8719 76.3598 24.7144C76.3011 24.557 76.2114 24.4129 76.0961 24.2907C75.9768 24.1733 75.8346 24.0818 75.6783 24.0219C75.522 23.9619 75.355 23.9349 75.1878 23.9425C75.0221 23.9343 74.8566 23.9611 74.7019 24.0211C74.5472 24.0811 74.4069 24.1729 74.29 24.2907C74.1773 24.4142 74.09 24.5588 74.0331 24.7161C73.9763 24.8733 73.9509 25.0403 73.9586 25.2074V31.1248C73.9433 31.4628 74.0624 31.7932 74.29 32.0436C74.4073 32.1606 74.5478 32.2519 74.7024 32.3115C74.857 32.3711 75.0223 32.3977 75.1878 32.3897C75.3549 32.3971 75.5216 32.3703 75.6778 32.3107C75.8341 32.2512 75.9764 32.1603 76.0961 32.0436V32.0436Z" fill="black"/>
<path d="M80.6208 34.3426C80.5985 34.3242 80.5806 34.3011 80.5683 34.275C80.556 34.2489 80.5495 34.2204 80.5494 34.1916V22.1427C80.5498 22.1138 80.5561 22.0853 80.568 22.0589C80.58 22.0325 80.5972 22.0089 80.6187 21.9896C80.6668 21.9492 80.7279 21.9276 80.7907 21.9287H83.1505C83.2133 21.9274 83.2745 21.949 83.3225 21.9896C83.3452 22.008 83.3635 22.0314 83.3758 22.0579C83.3882 22.0844 83.3943 22.1134 83.3938 22.1427V32.1589C83.3938 32.2177 83.4274 32.247 83.4945 32.247H87.7276C87.7907 32.2463 87.8519 32.2687 87.8996 32.31C87.9212 32.3289 87.9386 32.3521 87.9509 32.3781C87.9632 32.4041 87.97 32.4323 87.9709 32.461V34.1916C87.97 34.2203 87.9632 34.2485 87.9509 34.2745C87.9386 34.3005 87.9212 34.3236 87.8996 34.3426C87.8524 34.3848 87.7908 34.4073 87.7276 34.4055H80.7928C80.7296 34.4069 80.6682 34.3844 80.6208 34.3426V34.3426Z" fill="black"/>
<path d="M89.8756 33.5392C89.1442 32.8679 88.7778 31.9744 88.7764 30.8584V22.1427C88.7759 22.1134 88.7821 22.0845 88.7944 22.0579C88.8068 22.0314 88.825 22.008 88.8477 21.9896C88.8955 21.9487 88.9568 21.927 89.0197 21.9287H91.3775C91.4403 21.9276 91.5014 21.9492 91.5495 21.9896C91.5713 22.0088 91.589 22.0323 91.6012 22.0586C91.6135 22.085 91.6202 22.1136 91.6208 22.1427V31.108C91.6063 31.4466 91.7211 31.778 91.9417 32.0352C92.0478 32.1513 92.1777 32.243 92.3225 32.3042C92.4673 32.3654 92.6237 32.3946 92.7808 32.3897C92.9383 32.3975 93.0955 32.3697 93.2408 32.3083C93.3861 32.2469 93.5156 32.1536 93.6198 32.0352C93.8352 31.7754 93.9465 31.4451 93.9324 31.108V22.1427C93.9319 22.1134 93.9381 22.0845 93.9504 22.0579C93.9628 22.0314 93.981 22.008 94.0037 21.9896C94.0509 21.949 94.1114 21.9273 94.1736 21.9287H96.5335C96.5957 21.9273 96.6562 21.949 96.7034 21.9896C96.7261 22.008 96.7443 22.0314 96.7567 22.0579C96.769 22.0845 96.7752 22.1134 96.7747 22.1427V30.8584C96.7747 31.9772 96.4083 32.8707 95.6755 33.5392C94.9428 34.2076 93.9785 34.544 92.7829 34.5482C91.576 34.5482 90.6069 34.2118 89.8756 33.5392Z" fill="black"/>
<path d="M106.187 21.9896C106.208 22.009 106.226 22.0326 106.237 22.0589C106.249 22.0853 106.256 22.1138 106.256 22.1427V23.8712C106.256 23.8999 106.25 23.9282 106.238 23.9543C106.226 23.9804 106.209 24.0036 106.187 24.0222C106.139 24.064 106.078 24.0865 106.015 24.0851H103.498C103.428 24.0851 103.397 24.1145 103.397 24.1732V34.1916C103.396 34.2203 103.389 34.2485 103.377 34.2745C103.365 34.3005 103.347 34.3237 103.326 34.3426C103.278 34.3848 103.217 34.4073 103.154 34.4055H100.794C100.73 34.4073 100.669 34.3848 100.622 34.3426C100.599 34.3244 100.581 34.3013 100.569 34.2752C100.557 34.2491 100.55 34.2205 100.55 34.1916V24.1732C100.55 24.1145 100.517 24.0851 100.45 24.0851H98.0312C97.968 24.0865 97.9066 24.064 97.8592 24.0222C97.8376 24.0033 97.8201 23.9801 97.8078 23.9541C97.7956 23.9281 97.7888 23.8999 97.7878 23.8712V22.1427C97.7885 22.1136 97.7951 22.085 97.8074 22.0587C97.8197 22.0323 97.8373 22.0088 97.8592 21.9896C97.9073 21.9492 97.9684 21.9276 98.0312 21.9288H106.015C106.078 21.9276 106.139 21.9492 106.187 21.9896V21.9896Z" fill="black"/>
<path d="M107.399 34.3426C107.377 34.324 107.36 34.3008 107.348 34.2747C107.336 34.2486 107.33 34.2203 107.33 34.1916V22.1427C107.33 22.1138 107.337 22.0853 107.349 22.0589C107.361 22.0326 107.378 22.009 107.399 21.9896C107.447 21.9492 107.508 21.9276 107.571 21.9288H109.931C109.994 21.9276 110.055 21.9492 110.103 21.9896C110.125 22.009 110.142 22.0326 110.154 22.0589C110.166 22.0853 110.172 22.1138 110.172 22.1427V34.1916C110.172 34.2203 110.166 34.2486 110.154 34.2747C110.142 34.3008 110.125 34.324 110.103 34.3426C110.056 34.3844 109.994 34.4069 109.931 34.4055H107.567C107.505 34.4059 107.446 34.3835 107.399 34.3426V34.3426Z" fill="black"/>
<path d="M112.568 33.5853C112.203 33.2677 111.913 32.8721 111.721 32.4277C111.529 31.9834 111.439 31.5015 111.458 31.0178V25.3143C111.439 24.8309 111.529 24.3494 111.721 23.9054C111.913 23.4614 112.203 23.0661 112.568 22.7489C113.306 22.107 114.294 21.7861 115.532 21.7861C116.769 21.7861 117.764 22.107 118.517 22.7489C118.884 23.0647 119.176 23.4594 119.369 23.9036C119.563 24.3479 119.654 24.8301 119.635 25.3143V31.0178C119.654 31.5024 119.563 31.9849 119.369 32.4295C119.176 32.8741 118.884 33.2692 118.517 33.5853C117.77 34.2272 116.778 34.5482 115.542 34.5482C114.306 34.5482 113.315 34.2272 112.568 33.5853ZM116.44 32.0436C116.556 31.9211 116.645 31.7767 116.704 31.6188C116.763 31.461 116.789 31.293 116.782 31.1248V25.2074C116.789 25.0395 116.762 24.8719 116.704 24.7144C116.645 24.557 116.555 24.4129 116.44 24.2907C116.321 24.1735 116.178 24.0821 116.022 24.0222C115.866 23.9623 115.699 23.9352 115.532 23.9425C115.366 23.9343 115.201 23.9611 115.046 24.0211C114.891 24.0811 114.751 24.1729 114.634 24.2907C114.521 24.4142 114.434 24.5588 114.377 24.7161C114.32 24.8733 114.295 25.0403 114.303 25.2074V31.1248C114.287 31.4628 114.406 31.7932 114.634 32.0436C114.751 32.1606 114.892 32.2519 115.046 32.3115C115.201 32.3711 115.366 32.3977 115.532 32.3897C115.699 32.3969 115.865 32.3699 116.022 32.3104C116.178 32.2509 116.32 32.1601 116.44 32.0436Z" fill="black"/>
<path d="M126.731 21.9896C126.779 21.949 126.84 21.9274 126.903 21.9287H129.242C129.304 21.9273 129.365 21.949 129.412 21.9896C129.435 22.008 129.453 22.0314 129.465 22.0579C129.478 22.0844 129.484 22.1134 129.483 22.1427V34.1916C129.483 34.2205 129.477 34.249 129.465 34.2752C129.452 34.3013 129.434 34.3244 129.412 34.3426C129.365 34.3846 129.305 34.4072 129.242 34.4055H126.58C126.523 34.4104 126.465 34.3953 126.417 34.3628C126.37 34.3304 126.335 34.2825 126.318 34.2272L123.818 27.3281C123.816 27.3205 123.813 27.3133 123.808 27.3069C123.803 27.3006 123.798 27.2952 123.791 27.2911C123.784 27.287 123.777 27.2842 123.769 27.283C123.762 27.2818 123.754 27.2822 123.746 27.284C123.739 27.2848 123.732 27.287 123.725 27.2907C123.719 27.2943 123.713 27.2992 123.709 27.3051C123.704 27.311 123.701 27.3177 123.699 27.3249C123.697 27.3321 123.697 27.3396 123.698 27.3469L123.717 34.1916C123.717 34.2202 123.711 34.2486 123.699 34.2747C123.687 34.3008 123.669 34.324 123.648 34.3426C123.6 34.3844 123.539 34.4069 123.476 34.4055H121.137C121.074 34.4069 121.012 34.3844 120.965 34.3426C120.942 34.3244 120.924 34.3013 120.912 34.2752C120.9 34.249 120.893 34.2205 120.893 34.1916V22.1427C120.893 22.1134 120.899 22.0844 120.911 22.0579C120.924 22.0314 120.942 22.008 120.965 21.9896C121.013 21.9492 121.074 21.9276 121.137 21.9287H123.778C123.835 21.9235 123.893 21.9384 123.941 21.9709C123.989 22.0034 124.024 22.0515 124.04 22.107L126.557 29.0041C126.561 29.0192 126.571 29.0322 126.584 29.0404C126.597 29.0486 126.613 29.0513 126.628 29.0481C126.636 29.0476 126.643 29.0456 126.649 29.0422C126.656 29.0389 126.662 29.0342 126.667 29.0285C126.671 29.0228 126.675 29.0162 126.677 29.0091C126.679 29.0021 126.68 28.9946 126.679 28.9873L126.66 22.1427C126.66 22.1136 126.667 22.085 126.679 22.0586C126.692 22.0323 126.709 22.0088 126.731 21.9896V21.9896Z" fill="black"/>
<path d="M132.527 34.137C131.97 33.8926 131.495 33.4937 131.157 32.9875C130.83 32.4812 130.661 31.889 130.673 31.2863V30.7682C130.672 30.7393 130.679 30.7107 130.691 30.6846C130.703 30.6584 130.721 30.6354 130.744 30.6172C130.791 30.5748 130.853 30.5522 130.916 30.5543H133.223C133.287 30.5529 133.348 30.5753 133.395 30.6172C133.417 30.6358 133.435 30.659 133.447 30.685C133.459 30.7111 133.465 30.7395 133.465 30.7682V31.1605C133.457 31.323 133.482 31.4855 133.537 31.6384C133.593 31.7914 133.678 31.932 133.788 32.052C133.891 32.1623 134.016 32.2495 134.155 32.3078C134.294 32.366 134.444 32.3939 134.595 32.3897C134.744 32.3941 134.892 32.3681 135.031 32.3133C135.169 32.2585 135.295 32.176 135.401 32.0708C135.509 31.9602 135.593 31.8287 135.648 31.6845C135.704 31.5402 135.729 31.3862 135.724 31.2318C135.725 31.0589 135.69 30.8878 135.62 30.7294C135.551 30.5711 135.449 30.4292 135.321 30.313C134.827 29.8955 134.301 29.5174 133.748 29.1824C133.183 28.8309 132.638 28.45 132.114 28.0413C131.688 27.6977 131.327 27.2816 131.046 26.8121C130.743 26.3002 130.589 25.7139 130.601 25.1193C130.583 24.6603 130.671 24.2034 130.856 23.7832C131.041 23.363 131.32 22.9907 131.671 22.6944C132.383 22.0875 133.323 21.7847 134.492 21.7861C135.661 21.7875 136.612 22.1022 137.345 22.73C137.702 23.0344 137.986 23.415 138.176 23.8437C138.367 24.2725 138.458 24.7385 138.444 25.2074V25.6269C138.444 25.6558 138.438 25.6843 138.426 25.7104C138.413 25.7365 138.395 25.7596 138.373 25.7779C138.326 25.8203 138.264 25.8429 138.201 25.8408H135.894C135.83 25.8422 135.769 25.8198 135.722 25.7779C135.7 25.7595 135.682 25.7364 135.67 25.7102C135.658 25.6841 135.652 25.6556 135.652 25.6269V25.1465C135.668 24.8225 135.556 24.5052 135.34 24.2634C135.235 24.1538 135.107 24.0677 134.966 24.0109C134.825 23.9541 134.674 23.928 134.522 23.9341C134.376 23.929 134.232 23.9541 134.097 24.0079C133.962 24.0617 133.839 24.143 133.737 24.2466C133.632 24.3634 133.551 24.4999 133.499 24.6483C133.446 24.7966 133.424 24.9539 133.433 25.1109C133.432 25.4638 133.57 25.8031 133.817 26.0548C134.279 26.4878 134.786 26.8703 135.329 27.1959C136.168 27.7434 136.798 28.1839 137.217 28.5237C137.614 28.8326 137.949 29.2133 138.205 29.646C138.45 30.0958 138.572 30.6024 138.558 31.1143C138.577 31.5857 138.49 32.0554 138.301 32.4879C138.112 32.9203 137.828 33.3042 137.469 33.6105C136.743 34.2272 135.789 34.5363 134.606 34.5377C133.892 34.5582 133.182 34.4214 132.527 34.137V34.137Z" fill="black"/>
<path d="M30.1012 59.9527H31.3745C31.3933 59.9527 31.4038 59.9338 31.4038 59.915L30.7745 56.6154C30.7745 56.5755 30.7452 56.5755 30.7368 56.6154L30.0802 59.915C30.0802 59.9338 30.0802 59.9527 30.1096 59.9527H30.1012ZM31.7793 61.8406L31.5695 60.7309C31.5695 60.7121 31.5423 60.6932 31.5213 60.6932H29.969C29.9502 60.6932 29.9208 60.7121 29.9208 60.7309L29.6984 61.8406C29.6958 61.8664 29.6831 61.8901 29.663 61.9066C29.643 61.9231 29.6173 61.931 29.5915 61.9287H28.8594C28.8458 61.9299 28.8321 61.9278 28.8195 61.9225C28.8069 61.9173 28.7958 61.909 28.7871 61.8985C28.7784 61.8879 28.7724 61.8754 28.7697 61.862C28.7669 61.8487 28.7675 61.8348 28.7713 61.8217L30.2061 55.254C30.2071 55.2414 30.2107 55.2291 30.2165 55.2179C30.2224 55.2067 30.2305 55.1968 30.2403 55.1888C30.2501 55.1807 30.2614 55.1748 30.2735 55.1712C30.2856 55.1676 30.2984 55.1665 30.3109 55.168H31.15C31.1627 55.1665 31.1755 55.1676 31.1878 55.1712C31.2001 55.1747 31.2115 55.1806 31.2215 55.1886C31.2314 55.1966 31.2397 55.2065 31.2458 55.2178C31.2519 55.229 31.2557 55.2413 31.257 55.254L32.7232 61.8154C32.7275 61.8284 32.7285 61.8422 32.726 61.8556C32.7236 61.869 32.7178 61.8816 32.7093 61.8923C32.7007 61.9029 32.6897 61.9112 32.6771 61.9165C32.6645 61.9217 32.6508 61.9238 32.6372 61.9224H31.8842C31.8715 61.9235 31.8587 61.9222 31.8466 61.9184C31.8344 61.9146 31.8231 61.9084 31.8134 61.9002C31.8036 61.892 31.7956 61.882 31.7898 61.8706C31.7839 61.8593 31.7804 61.847 31.7793 61.8343V61.8406Z" fill="#211E1F"/>
<path d="M54.1926 61.8259V55.2645C54.1916 55.2516 54.1935 55.2386 54.198 55.2265C54.2025 55.2143 54.2096 55.2033 54.2187 55.1942C54.2279 55.185 54.2389 55.1779 54.251 55.1734C54.2632 55.1689 54.2761 55.1671 54.289 55.168H55.0211C55.034 55.1671 55.047 55.1689 55.0591 55.1734C55.0713 55.1779 55.0823 55.185 55.0914 55.1942C55.1006 55.2033 55.1077 55.2143 55.1122 55.2265C55.1167 55.2386 55.1186 55.2516 55.1176 55.2645V61.0812C55.1181 61.0913 55.1221 61.1009 55.1291 61.1082C55.136 61.1155 55.1453 61.1201 55.1554 61.1211H57.318C57.331 61.1202 57.3439 61.122 57.356 61.1265C57.3682 61.1311 57.3792 61.1381 57.3884 61.1473C57.3975 61.1564 57.4046 61.1675 57.4091 61.1796C57.4136 61.1917 57.4155 61.2047 57.4145 61.2176V61.8259C57.4151 61.8387 57.413 61.8515 57.4084 61.8635C57.4038 61.8755 57.3967 61.8864 57.3876 61.8955C57.3785 61.9045 57.3676 61.9116 57.3557 61.9163C57.3437 61.9209 57.3309 61.923 57.318 61.9224H54.289C54.2762 61.923 54.2634 61.9209 54.2514 61.9163C54.2394 61.9116 54.2286 61.9045 54.2195 61.8955C54.2104 61.8864 54.2033 61.8755 54.1987 61.8635C54.194 61.8515 54.192 61.8387 54.1926 61.8259V61.8259Z" fill="#211E1F"/>
<path d="M59.4891 59.9527H60.7624C60.7834 59.9527 60.7917 59.9338 60.7917 59.9149L60.1624 56.6154C60.1624 56.5755 60.1352 56.5755 60.1247 56.6154L59.4681 59.9149C59.4681 59.9338 59.4786 59.9527 59.4975 59.9527H59.4891ZM61.1672 61.8406L60.9575 60.7309C60.9575 60.712 60.9281 60.6932 60.9092 60.6932H59.3549C59.336 60.6932 59.3066 60.712 59.3066 60.7309L59.0843 61.8406C59.0832 61.8533 59.0796 61.8656 59.0738 61.8769C59.0679 61.8882 59.0599 61.8983 59.0502 61.9065C59.0404 61.9147 59.0291 61.9208 59.017 61.9246C59.0048 61.9285 58.9921 61.9298 58.9794 61.9287H58.2452C58.2316 61.9301 58.2179 61.928 58.2053 61.9228C58.1928 61.9175 58.1817 61.9092 58.1731 61.8986C58.1646 61.8879 58.1588 61.8753 58.1564 61.8619C58.154 61.8485 58.1549 61.8347 58.1592 61.8217L59.5961 55.2603C59.5974 55.2476 59.6012 55.2353 59.6073 55.224C59.6134 55.2128 59.6217 55.2029 59.6316 55.1949C59.6416 55.1869 59.653 55.181 59.6653 55.1774C59.6775 55.1739 59.6904 55.1728 59.7031 55.1743H60.5526C60.5779 55.1719 60.6031 55.1796 60.6227 55.1957C60.6423 55.2118 60.6548 55.235 60.6575 55.2603L62.1153 61.8217C62.1192 61.8348 62.1197 61.8487 62.117 61.862C62.1142 61.8754 62.1082 61.8879 62.0995 61.8985C62.0909 61.909 62.0797 61.9173 62.0671 61.9225C62.0545 61.9278 62.0409 61.9299 62.0273 61.9287H61.2742C61.2615 61.9298 61.2487 61.9285 61.2366 61.9246C61.2244 61.9208 61.2132 61.9147 61.2034 61.9065C61.1937 61.8983 61.1856 61.8882 61.1798 61.8769C61.1739 61.8656 61.1704 61.8533 61.1693 61.8406H61.1672Z" fill="#211E1F"/>
<path d="M63.0027 61.8259V55.2645C63.0018 55.2516 63.0036 55.2386 63.0081 55.2265C63.0126 55.2143 63.0197 55.2033 63.0289 55.1942C63.038 55.185 63.049 55.1779 63.0612 55.1734C63.0733 55.1689 63.0863 55.1671 63.0992 55.168H63.8418C63.8653 55.1663 63.8887 55.1729 63.9079 55.1867C63.9271 55.2005 63.9408 55.2206 63.9466 55.2435L65.6562 59.4996C65.6562 59.5374 65.7045 59.529 65.7045 59.4996V55.2645C65.7039 55.2517 65.7059 55.2388 65.7106 55.2269C65.7152 55.2149 65.7223 55.204 65.7314 55.1949C65.7405 55.1858 65.7513 55.1788 65.7633 55.1741C65.7753 55.1695 65.7881 55.1674 65.8009 55.168H66.5246C66.5375 55.1671 66.5505 55.1689 66.5626 55.1734C66.5748 55.1779 66.5858 55.185 66.5949 55.1942C66.6041 55.2033 66.6112 55.2143 66.6157 55.2265C66.6202 55.2386 66.6221 55.2516 66.6211 55.2645V61.8259C66.6217 61.8387 66.6196 61.8515 66.615 61.8635C66.6104 61.8755 66.6033 61.8864 66.5942 61.8955C66.5851 61.9045 66.5742 61.9116 66.5623 61.9163C66.5503 61.9209 66.5375 61.923 66.5246 61.9224H65.7716C65.7477 61.924 65.7241 61.9171 65.7049 61.9029C65.6857 61.8887 65.6721 61.8681 65.6667 61.8448L63.9487 57.5887C63.9487 57.5509 63.9005 57.5509 63.9005 57.5887L63.911 61.8259C63.9116 61.8387 63.9095 61.8515 63.9048 61.8635C63.9002 61.8755 63.8931 61.8864 63.884 61.8955C63.875 61.9045 63.8641 61.9116 63.8521 61.9163C63.8401 61.9209 63.8273 61.923 63.8145 61.9224H63.0908C63.078 61.923 63.0651 61.9209 63.0532 61.9163C63.0412 61.9116 63.0303 61.9045 63.0212 61.8955C63.0122 61.8864 63.0051 61.8755 63.0004 61.8635C62.9958 61.8515 62.9937 61.8387 62.9943 61.8259H63.0027Z" fill="#211E1F"/>
<path d="M67.6909 60.3114V56.779C67.6909 55.7553 68.3873 55.0904 69.4278 55.0904C70.4682 55.0904 71.1751 55.7553 71.1751 56.7874V57.1943C71.1757 57.2071 71.1736 57.2199 71.169 57.2319C71.1643 57.2439 71.1572 57.2548 71.1482 57.2639C71.1391 57.2729 71.1282 57.28 71.1162 57.2847C71.1043 57.2893 71.0914 57.2914 71.0786 57.2908H70.3444C70.3316 57.2914 70.3188 57.2893 70.3068 57.2847C70.2948 57.28 70.284 57.2729 70.2749 57.2639C70.2658 57.2548 70.2587 57.2439 70.2541 57.2319C70.2494 57.2199 70.2473 57.2071 70.2479 57.1943V56.7748C70.2479 56.2441 69.9207 55.898 69.4278 55.898C68.9348 55.898 68.6076 56.2441 68.6076 56.7748V60.3261C68.6076 60.8568 68.9369 61.205 69.4278 61.205C69.9186 61.205 70.2479 60.8568 70.2479 60.3261V59.2584C70.2474 59.2485 70.2433 59.2392 70.2363 59.2322C70.2293 59.2253 70.22 59.2211 70.2102 59.2206H69.476C69.4632 59.2212 69.4504 59.2191 69.4384 59.2145C69.4264 59.2099 69.4155 59.2028 69.4064 59.1937C69.3974 59.1846 69.3903 59.1737 69.3856 59.1617C69.381 59.1498 69.3789 59.137 69.3795 59.1241V58.5242C69.3789 58.5114 69.381 58.4986 69.3856 58.4866C69.3903 58.4746 69.3974 58.4637 69.4064 58.4546C69.4155 58.4456 69.4264 58.4385 69.4384 58.4338C69.4504 58.4292 69.4632 58.4271 69.476 58.4277H71.0786C71.0914 58.4271 71.1043 58.4292 71.1162 58.4338C71.1282 58.4385 71.1391 58.4456 71.1482 58.4546C71.1572 58.4637 71.1643 58.4746 71.169 58.4866C71.1736 58.4986 71.1757 58.5114 71.1751 58.5242V60.3114C71.1751 61.3329 70.4703 62 69.4278 62C68.3852 62 67.6909 61.3329 67.6909 60.3114Z" fill="#211E1F"/>
<path d="M72.14 60.0891V55.2645C72.1391 55.2516 72.1409 55.2386 72.1454 55.2265C72.15 55.2143 72.157 55.2033 72.1662 55.1942C72.1753 55.185 72.1864 55.1779 72.1985 55.1734C72.2106 55.1689 72.2236 55.1671 72.2365 55.168H72.9707C72.9835 55.1674 72.9963 55.1695 73.0083 55.1741C73.0203 55.1788 73.0311 55.1858 73.0402 55.1949C73.0493 55.204 73.0564 55.2149 73.061 55.2269C73.0657 55.2388 73.0678 55.2517 73.0672 55.2645V60.1856C73.0672 60.7834 73.3944 61.1987 73.8873 61.1987C74.3803 61.1987 74.7159 60.7792 74.7159 60.1856V55.2645C74.7153 55.2517 74.7174 55.2388 74.722 55.2269C74.7267 55.2149 74.7338 55.204 74.7428 55.1949C74.7519 55.1858 74.7628 55.1788 74.7748 55.1741C74.7868 55.1695 74.7996 55.1674 74.8124 55.168H75.5466C75.5595 55.1671 75.5724 55.1689 75.5846 55.1734C75.5967 55.1779 75.6077 55.185 75.6169 55.1942C75.626 55.2033 75.6331 55.2143 75.6376 55.2265C75.6422 55.2386 75.644 55.2516 75.6431 55.2645V60.0891C75.6431 61.2365 74.9383 62 73.8873 62C72.8364 62 72.14 61.2365 72.14 60.0891V60.0891Z" fill="#211E1F"/>
<path d="M77.747 59.9527H79.0203C79.0392 59.9527 79.0497 59.9338 79.0497 59.9149L78.4204 56.6154C78.4204 56.5755 78.3931 56.5755 78.3826 56.6154L77.726 59.9149C77.726 59.9338 77.7365 59.9527 77.7554 59.9527H77.747ZM79.4251 61.8406L79.2154 60.7309C79.2154 60.712 79.186 60.6932 79.1671 60.6932H77.6128C77.5939 60.6932 77.5645 60.712 77.5645 60.7309L77.3422 61.8406C77.3411 61.8535 77.3375 61.866 77.3315 61.8775C77.3255 61.8889 77.3173 61.8991 77.3073 61.9073C77.2974 61.9155 77.2858 61.9216 77.2734 61.9253C77.261 61.929 77.248 61.9301 77.2352 61.9287H76.5031C76.4895 61.9299 76.4758 61.9278 76.4632 61.9225C76.4506 61.9173 76.4395 61.909 76.4308 61.8985C76.4221 61.8879 76.4162 61.8754 76.4134 61.862C76.4107 61.8487 76.4112 61.8348 76.415 61.8217L77.854 55.2603C77.855 55.2477 77.8586 55.2354 77.8645 55.2242C77.8704 55.213 77.8784 55.2031 77.8882 55.1951C77.898 55.187 77.9093 55.1811 77.9214 55.1775C77.9336 55.1739 77.9463 55.1728 77.9589 55.1743H78.7979C78.8106 55.1728 78.8235 55.1739 78.8357 55.1774C78.848 55.181 78.8594 55.1869 78.8694 55.1949C78.8793 55.2029 78.8876 55.2128 78.8937 55.224C78.8998 55.2353 78.9036 55.2476 78.9049 55.2603L80.3628 61.8217C80.3666 61.8348 80.3671 61.8487 80.3644 61.862C80.3616 61.8754 80.3557 61.8879 80.347 61.8985C80.3383 61.909 80.3272 61.9173 80.3146 61.9225C80.302 61.9278 80.2883 61.9299 80.2747 61.9287H79.5216C79.5089 61.9298 79.4962 61.9285 79.484 61.9246C79.4719 61.9208 79.4606 61.9147 79.4508 61.9065C79.4411 61.8983 79.4331 61.8882 79.4272 61.8769C79.4214 61.8656 79.4178 61.8533 79.4167 61.8406H79.4251Z" fill="#211E1F"/>
<path d="M80.9899 60.3114V56.779C80.9899 55.7553 81.6842 55.0904 82.7268 55.0904C83.7693 55.0904 84.472 55.7553 84.472 56.7874V57.1943C84.4726 57.2071 84.4705 57.2199 84.4659 57.2319C84.4613 57.2439 84.4542 57.2548 84.4451 57.2639C84.436 57.2729 84.4251 57.28 84.4131 57.2847C84.4012 57.2893 84.3883 57.2914 84.3755 57.2908H83.6434C83.6306 57.2914 83.6178 57.2893 83.6058 57.2847C83.5938 57.28 83.583 57.2729 83.5739 57.2639C83.5648 57.2548 83.5577 57.2439 83.5531 57.2319C83.5484 57.2199 83.5464 57.2071 83.547 57.1943V56.7748C83.547 56.2441 83.2176 55.898 82.7268 55.898C82.2359 55.898 81.9066 56.2441 81.9066 56.7748V60.3261C81.9066 60.8568 82.2338 61.205 82.7268 61.205C83.2197 61.205 83.547 60.8568 83.547 60.3261V59.2584C83.546 59.2483 83.5414 59.239 83.5341 59.2321C83.5267 59.2251 83.5172 59.2211 83.5071 59.2206H82.775C82.7622 59.2212 82.7494 59.2191 82.7374 59.2145C82.7254 59.2099 82.7145 59.2028 82.7055 59.1937C82.6964 59.1846 82.6893 59.1737 82.6847 59.1617C82.68 59.1498 82.6779 59.137 82.6785 59.1241V58.5242C82.6779 58.5114 82.68 58.4986 82.6847 58.4866C82.6893 58.4746 82.6964 58.4637 82.7055 58.4546C82.7145 58.4456 82.7254 58.4385 82.7374 58.4338C82.7494 58.4292 82.7622 58.4271 82.775 58.4277H84.3755C84.3883 58.4271 84.4012 58.4292 84.4131 58.4338C84.4251 58.4385 84.436 58.4456 84.4451 58.4546C84.4542 58.4637 84.4613 58.4746 84.4659 58.4866C84.4705 58.4986 84.4726 58.5114 84.472 58.5242V60.3114C84.472 61.3329 83.7693 62 82.7268 62C81.6842 62 80.9899 61.3329 80.9899 60.3114Z" fill="#211E1F"/>
<path d="M88.6233 55.9672H86.4501C86.4401 55.9682 86.4307 55.9728 86.4238 55.9801C86.4169 55.9874 86.4128 55.997 86.4123 56.007V58.1047C86.4128 58.1145 86.417 58.1238 86.424 58.1308C86.4309 58.1378 86.4402 58.1419 86.4501 58.1424H87.7821C87.7949 58.1418 87.8077 58.1439 87.8197 58.1486C87.8317 58.1532 87.8426 58.1603 87.8517 58.1694C87.8607 58.1785 87.8678 58.1893 87.8725 58.2013C87.8771 58.2133 87.8792 58.2261 87.8786 58.2389V58.8473C87.8795 58.8602 87.8777 58.8731 87.8732 58.8853C87.8686 58.8974 87.8616 58.9084 87.8524 58.9176C87.8433 58.9267 87.8322 58.9338 87.8201 58.9383C87.808 58.9428 87.795 58.9447 87.7821 58.9437H86.4501C86.4401 58.9447 86.4307 58.9493 86.4238 58.9566C86.4169 58.964 86.4128 58.9735 86.4123 58.9836V61.0812C86.4128 61.0913 86.4169 61.1009 86.4238 61.1082C86.4307 61.1155 86.4401 61.1201 86.4501 61.1211H88.6233C88.636 61.1205 88.6487 61.1226 88.6606 61.1272C88.6725 61.1319 88.6832 61.139 88.6922 61.1481C88.7011 61.1572 88.708 61.1681 88.7124 61.1801C88.7168 61.1921 88.7186 61.2049 88.7176 61.2176V61.8259C88.7186 61.8386 88.7168 61.8514 88.7124 61.8634C88.708 61.8753 88.7011 61.8863 88.6922 61.8954C88.6832 61.9045 88.6725 61.9116 88.6606 61.9163C88.6487 61.9209 88.636 61.923 88.6233 61.9224H85.5838C85.5709 61.923 85.5581 61.9209 85.5462 61.9163C85.5342 61.9116 85.5233 61.9045 85.5142 61.8955C85.5051 61.8864 85.498 61.8755 85.4934 61.8635C85.4888 61.8515 85.4867 61.8387 85.4873 61.8259V55.2645C85.4867 55.2516 85.4888 55.2388 85.4934 55.2269C85.498 55.2149 85.5051 55.204 85.5142 55.1949C85.5233 55.1858 85.5342 55.1787 85.5462 55.1741C85.5581 55.1695 85.5709 55.1674 85.5838 55.168H88.6254C88.6381 55.1674 88.6508 55.1694 88.6627 55.1741C88.6746 55.1788 88.6853 55.1859 88.6943 55.195C88.7032 55.2041 88.7101 55.215 88.7145 55.227C88.7189 55.239 88.7207 55.2518 88.7197 55.2645V55.8707C88.7207 55.8834 88.7189 55.8962 88.7145 55.9082C88.7101 55.9201 88.7032 55.9311 88.6943 55.9402C88.6853 55.9493 88.6746 55.9564 88.6627 55.9611C88.6508 55.9657 88.6381 55.9678 88.6254 55.9672H88.6233Z" fill="#211E1F"/>
<path d="M91.4572 60.2527V56.8272C91.4572 55.7658 92.1536 55.0904 93.1961 55.0904C94.2386 55.0904 94.9413 55.7658 94.9413 56.8272V56.9803C94.9423 56.9933 94.9404 57.0062 94.9359 57.0183C94.9314 57.0305 94.9243 57.0415 94.9152 57.0506C94.906 57.0598 94.895 57.0669 94.8828 57.0714C94.8707 57.0759 94.8578 57.0778 94.8448 57.0768L94.1128 57.1167C94.0999 57.1173 94.0871 57.1152 94.0751 57.1106C94.0632 57.1059 94.0523 57.0988 94.0432 57.0897C94.0341 57.0807 94.027 57.0698 94.0224 57.0578C94.0178 57.0458 94.0157 57.033 94.0163 57.0202V56.7685C94.0163 56.2378 93.6869 55.8917 93.1961 55.8917C92.7053 55.8917 92.3843 56.2378 92.3843 56.7685V60.3198C92.3843 60.8421 92.7032 61.1987 93.1961 61.1987C93.3095 61.2009 93.4221 61.1792 93.5265 61.135C93.631 61.0908 93.7249 61.0252 93.8023 60.9422C93.8797 60.8593 93.9387 60.761 93.9756 60.6538C94.0124 60.5466 94.0263 60.4327 94.0163 60.3198V60.0702C94.0153 60.0573 94.0172 60.0443 94.0217 60.0322C94.0262 60.02 94.0333 60.009 94.0425 59.9999C94.0516 59.9907 94.0626 59.9836 94.0748 59.9791C94.0869 59.9746 94.0999 59.9727 94.1128 59.9737L94.8448 60.0114C94.8578 60.0105 94.8707 60.0123 94.8828 60.0169C94.895 60.0214 94.906 60.0285 94.9152 60.0376C94.9243 60.0468 94.9314 60.0578 94.9359 60.0699C94.9404 60.082 94.9423 60.095 94.9413 60.1079V60.2527C94.9413 61.3141 94.247 62 93.1961 62C92.1452 62 91.4572 61.3141 91.4572 60.2527Z" fill="#211E1F"/>
<path d="M98.4172 60.2715V56.8167C98.4172 56.2671 98.0794 55.8917 97.5676 55.8917C97.0558 55.8917 96.7286 56.2671 96.7286 56.8167V60.2715C96.7286 60.8211 97.0579 61.1987 97.5676 61.1987C98.0773 61.1987 98.4172 60.8211 98.4172 60.2715V60.2715ZM95.8119 60.2338V56.865C95.8119 55.7952 96.5167 55.0904 97.5676 55.0904C98.6185 55.0904 99.3443 55.7952 99.3443 56.865V60.2338C99.3443 61.3036 98.629 62 97.5676 62C96.5062 62 95.8119 61.3036 95.8119 60.2338Z" fill="#211E1F"/>
<path d="M100.395 61.8259V55.2645C100.394 55.2516 100.396 55.2386 100.401 55.2265C100.405 55.2143 100.412 55.2033 100.421 55.1942C100.431 55.185 100.442 55.1779 100.454 55.1734C100.466 55.1689 100.479 55.167 100.492 55.168H101.226C101.249 55.1663 101.273 55.1729 101.292 55.1867C101.311 55.2005 101.325 55.2206 101.331 55.2435L102.317 57.5887C102.318 57.5949 102.322 57.6003 102.327 57.6042C102.332 57.6081 102.339 57.6102 102.345 57.6102C102.351 57.6102 102.358 57.6081 102.363 57.6042C102.368 57.6003 102.372 57.5949 102.373 57.5887L103.378 55.2435C103.384 55.2204 103.397 55.2 103.416 55.1862C103.436 55.1723 103.459 55.1658 103.483 55.168H104.217C104.23 55.1674 104.243 55.1695 104.255 55.1741C104.267 55.1787 104.278 55.1858 104.287 55.1949C104.296 55.204 104.303 55.2149 104.308 55.2268C104.312 55.2388 104.314 55.2516 104.314 55.2645V61.8259C104.314 61.8387 104.312 61.8515 104.308 61.8635C104.303 61.8755 104.296 61.8864 104.287 61.8954C104.278 61.9045 104.267 61.9116 104.255 61.9163C104.243 61.9209 104.23 61.923 104.217 61.9224H103.483C103.47 61.923 103.457 61.9209 103.445 61.9163C103.433 61.9116 103.423 61.9045 103.413 61.8954C103.404 61.8864 103.397 61.8755 103.393 61.8635C103.388 61.8515 103.386 61.8387 103.386 61.8259V57.4544C103.386 57.4146 103.357 57.4146 103.338 57.4544L102.44 59.3633C102.422 59.4115 102.392 59.4304 102.363 59.4304C102.342 59.4306 102.322 59.4242 102.305 59.4121C102.288 59.4001 102.275 59.383 102.268 59.3633L101.371 57.4439C101.35 57.4146 101.322 57.4146 101.322 57.4439V61.8259C101.323 61.8387 101.321 61.8515 101.316 61.8635C101.312 61.8755 101.305 61.8864 101.295 61.8954C101.286 61.9045 101.276 61.9116 101.264 61.9163C101.252 61.9209 101.239 61.923 101.226 61.9224H100.492C100.479 61.923 100.466 61.9209 100.454 61.9163C100.442 61.9116 100.431 61.9045 100.422 61.8954C100.413 61.8864 100.406 61.8755 100.401 61.8635C100.397 61.8515 100.395 61.8387 100.395 61.8259V61.8259Z" fill="#211E1F"/>
<path d="M107.991 57.1167C107.991 56.4014 107.632 55.9588 107.112 55.9588H106.399C106.389 55.9592 106.379 55.9633 106.372 55.9702C106.364 55.9772 106.36 55.9865 106.359 55.9965V58.2074C106.36 58.2175 106.364 58.2268 106.372 58.2337C106.379 58.2407 106.389 58.2448 106.399 58.2452H107.112C107.632 58.2452 107.991 57.8257 107.991 57.1167V57.1167ZM108.916 57.0978C108.916 58.2347 108.27 58.9857 107.305 58.9857H106.399C106.388 58.9862 106.378 58.9905 106.371 58.9979C106.364 59.0053 106.359 59.0151 106.359 59.0255V61.8238C106.359 61.8366 106.357 61.8494 106.353 61.8614C106.348 61.8734 106.341 61.8843 106.332 61.8933C106.323 61.9024 106.312 61.9095 106.3 61.9141C106.288 61.9188 106.275 61.9209 106.262 61.9203H105.528C105.515 61.9209 105.503 61.9188 105.491 61.9141C105.479 61.9095 105.468 61.9024 105.459 61.8933C105.45 61.8843 105.442 61.8734 105.438 61.8614C105.433 61.8494 105.431 61.8366 105.432 61.8238V55.254C105.431 55.2411 105.433 55.2283 105.438 55.2163C105.442 55.2044 105.45 55.1935 105.459 55.1844C105.468 55.1753 105.479 55.1682 105.491 55.1636C105.503 55.159 105.515 55.1569 105.528 55.1575H107.257C108.251 55.1575 108.916 55.9399 108.916 57.0978Z" fill="#211E1F"/>
<path d="M110.556 59.9527H111.832C111.85 59.9527 111.859 59.9338 111.859 59.9149L111.23 56.6154C111.219 56.5755 111.2 56.5755 111.19 56.6154L110.535 59.9149C110.535 59.9338 110.535 59.9527 110.562 59.9527H110.556ZM112.234 61.8406L112.025 60.7309C112.025 60.712 111.995 60.6932 111.976 60.6932H110.422C110.403 60.6932 110.374 60.712 110.374 60.7309L110.164 61.8406C110.161 61.8662 110.148 61.8896 110.128 61.906C110.108 61.9224 110.083 61.9305 110.057 61.9287H109.323C109.309 61.9301 109.295 61.928 109.283 61.9228C109.27 61.9175 109.259 61.9092 109.251 61.8985C109.242 61.8879 109.236 61.8753 109.234 61.8619C109.232 61.8485 109.233 61.8347 109.237 61.8217L110.674 55.2603C110.674 55.2378 110.683 55.2162 110.698 55.1994C110.713 55.1825 110.733 55.1714 110.755 55.168H111.605C111.618 55.1665 111.63 55.1676 111.642 55.1712C111.655 55.1748 111.666 55.1807 111.676 55.1888C111.685 55.1968 111.694 55.2067 111.699 55.2179C111.705 55.2291 111.709 55.2414 111.71 55.254L113.168 61.8154C113.172 61.8284 113.173 61.8422 113.171 61.8556C113.168 61.869 113.162 61.8816 113.154 61.8923C113.145 61.9029 113.134 61.9112 113.122 61.9165C113.109 61.9217 113.095 61.9238 113.082 61.9224H112.329C112.303 61.9247 112.277 61.9168 112.257 61.9003C112.237 61.8838 112.224 61.8601 112.222 61.8343L112.234 61.8406Z" fill="#211E1F"/>
<path d="M114.07 61.8259V55.2645C114.069 55.2516 114.071 55.2386 114.075 55.2265C114.08 55.2143 114.087 55.2033 114.096 55.1942C114.105 55.185 114.116 55.1779 114.128 55.1734C114.14 55.1689 114.153 55.1671 114.166 55.168H114.909C114.933 55.1662 114.956 55.1727 114.976 55.1865C114.995 55.2003 115.009 55.2204 115.016 55.2435L116.734 59.4996C116.734 59.5374 116.782 59.529 116.782 59.4996V55.2645C116.781 55.2518 116.783 55.239 116.787 55.227C116.792 55.215 116.799 55.2041 116.807 55.195C116.816 55.1859 116.827 55.1788 116.839 55.1741C116.851 55.1694 116.864 55.1674 116.876 55.168H117.6C117.613 55.1671 117.626 55.1689 117.638 55.1734C117.651 55.1779 117.662 55.185 117.671 55.1941C117.68 55.2032 117.688 55.2142 117.692 55.2263C117.697 55.2385 117.699 55.2515 117.699 55.2645V61.8259C117.699 61.8389 117.697 61.8519 117.692 61.8641C117.688 61.8762 117.68 61.8872 117.671 61.8963C117.662 61.9054 117.651 61.9124 117.638 61.9169C117.626 61.9214 117.613 61.9233 117.6 61.9224H116.849C116.825 61.9241 116.801 61.9173 116.781 61.9031C116.762 61.8889 116.748 61.8682 116.742 61.8448L115.024 57.5887C115.024 57.5509 114.976 57.5509 114.976 57.5887V61.8259C114.977 61.8387 114.974 61.8515 114.97 61.8635C114.965 61.8755 114.958 61.8864 114.949 61.8955C114.94 61.9045 114.929 61.9116 114.917 61.9163C114.905 61.9209 114.892 61.923 114.879 61.9224H114.156C114.143 61.923 114.13 61.9209 114.118 61.9163C114.106 61.9116 114.095 61.9045 114.086 61.8955C114.077 61.8864 114.07 61.8755 114.065 61.8635C114.061 61.8515 114.059 61.8387 114.059 61.8259H114.07Z" fill="#211E1F"/>
<path d="M119.964 61.8154V59.057C119.964 59.0465 119.964 59.0172 119.964 59.0067L118.624 55.2729C118.603 55.2057 118.624 55.168 118.699 55.168H119.473C119.498 55.168 119.522 55.1751 119.542 55.1885C119.563 55.202 119.579 55.2211 119.589 55.2435L120.409 57.9075C120.411 57.9137 120.414 57.9192 120.419 57.9231C120.424 57.927 120.431 57.9291 120.437 57.9291C120.444 57.9291 120.45 57.927 120.455 57.9231C120.46 57.9192 120.464 57.9137 120.465 57.9075L121.286 55.2435C121.296 55.2207 121.312 55.2014 121.333 55.188C121.354 55.1745 121.378 55.1676 121.403 55.168H122.173C122.242 55.168 122.269 55.2057 122.251 55.2729L120.91 59.0067C120.91 59.0172 120.91 59.0465 120.91 59.057V61.8154C120.911 61.8283 120.909 61.8413 120.905 61.8534C120.9 61.8656 120.893 61.8766 120.884 61.8857C120.875 61.8949 120.864 61.902 120.852 61.9065C120.84 61.911 120.827 61.9128 120.814 61.9119H120.082C120.069 61.9128 120.056 61.911 120.043 61.9064C120.031 61.9019 120.02 61.8949 120.011 61.8858C120.001 61.8767 119.994 61.8657 119.989 61.8536C119.985 61.8414 119.982 61.8284 119.983 61.8154H119.964Z" fill="#211E1F"/>
<path d="M39.184 59.9737C39.184 58.3249 38.2757 58.3522 37.9673 58.3816L37.4471 58.4088V61.0099C37.4471 61.2826 37.852 61.4525 38.1163 61.4903C38.6721 61.4798 39.184 61.0938 39.184 59.9737ZM37.8708 58.0417C38.4435 58.0417 38.9197 57.5425 38.9197 56.7706C38.9197 55.7994 38.4309 55.4511 37.8708 55.4511H37.4513V58.0417H37.8708ZM34.9803 61.7713C35.4565 61.4714 35.5257 61.3665 35.5257 60.6973V56.2608C35.5257 55.5833 35.4565 55.4889 34.9803 55.1868V55.1113H38.6805C40.3586 55.1113 40.8495 56.0364 40.8495 56.6384C40.8495 57.5425 39.8888 57.9201 39.077 58.0145V58.0333C40.0377 58.1445 41.2271 58.6354 41.2271 59.9212C41.2271 61.2071 39.9685 61.851 38.3554 61.851H34.9803V61.7755V61.7713Z" fill="#E82429"/>
<path d="M41.6948 61.7713C42.15 61.4714 42.2192 61.3665 42.2192 60.6973V56.2608C42.2192 55.5833 42.15 55.4889 41.6948 55.1868V55.1113H44.7532V55.1868C44.3064 55.4889 44.2309 55.5833 44.2309 56.2608V60.6973C44.2309 61.3665 44.3064 61.4714 44.7532 61.7713V61.8469H41.6948V61.7713V61.7713Z" fill="#E82429"/>
<path d="M45.0322 58.5515C45.0322 56.007 46.6746 54.9855 48.7639 54.9855C49.6549 54.9742 50.5393 55.1411 51.3649 55.4763V57.4922H51.2286C50.5469 56.3385 49.498 55.3274 48.8289 55.3253C48.0549 55.3253 47.1382 56.0238 47.1382 58.5011C47.1382 60.9785 48.0297 61.6182 48.8163 61.6182C49.0827 61.6182 49.4624 61.4966 49.4624 60.8169V59.6779C49.4624 58.971 49.1687 58.4907 48.4849 58.4634V58.3396H51.3754V61.8741H51.2894C51.006 61.8425 50.7209 61.8278 50.4357 61.8301C49.7288 61.8301 49.2421 61.9853 48.1954 61.9853C47.0837 61.9853 45.0489 61.4022 45.0489 58.5578L45.0322 58.5515Z" fill="#E82429"/>
</g>
<defs>
<clipPath id="clip0_1938_6166">
<rect width="139" height="62" fill="white"/>
</clipPath>
</defs>
</svg>
