<svg width="173" height="62" viewBox="0 0 173 62" fill="none" xmlns="http://www.w3.org/2000/svg">
<g clip-path="url(#clip0_1938_6167)">
<path d="M21.534 22.0327L21.0136 19.2741C21.0136 19.1777 20.9485 19.1295 20.8184 19.1295H16.6866C16.5565 19.1295 16.4914 19.1777 16.4914 19.2741L15.971 22.0327C15.9493 22.2423 15.8072 22.3483 15.547 22.3483H11.7403C11.4585 22.3483 11.35 22.223 11.4151 21.9749L16.1975 2.53213C16.213 2.43393 16.2662 2.34569 16.3459 2.28626C16.4256 2.22684 16.5254 2.20094 16.6239 2.21411H21.0136C21.1126 2.19961 21.2133 2.22494 21.2937 2.28454C21.3741 2.34415 21.4276 2.43317 21.4424 2.53213L26.1935 21.9749L26.2272 22.0905C26.2272 22.2616 26.1068 22.3483 25.8683 22.3483H21.958C21.6978 22.3483 21.5557 22.2423 21.534 22.0327ZM17.272 15.9927H20.1993C20.3085 15.9927 20.3518 15.9445 20.3294 15.8481L18.7923 7.99634C18.7706 7.93852 18.7368 7.90961 18.6935 7.90961C18.6501 7.90961 18.6188 7.93852 18.5971 7.99634L17.1419 15.8481C17.1419 15.9445 17.1853 15.9927 17.272 15.9927Z" fill="black"/>
<path d="M37.0039 2.31531C37.0802 2.24794 37.1792 2.2118 37.2809 2.21413H41.0563C41.1581 2.2118 41.257 2.24794 41.3333 2.31531C41.3685 2.34491 41.3968 2.38177 41.4164 2.42336C41.4359 2.46495 41.4462 2.51029 41.4466 2.55624V22.0038C41.4464 22.0498 41.4361 22.0952 41.4166 22.1368C41.397 22.1784 41.3686 22.2153 41.3333 22.2447C41.257 22.3121 41.1581 22.3483 41.0563 22.3459H36.7605C36.6677 22.3539 36.575 22.3297 36.4978 22.2775C36.4207 22.2254 36.3637 22.1483 36.3365 22.0592L32.3034 10.9284C32.2977 10.904 32.2826 10.8828 32.2615 10.8693C32.2403 10.8558 32.2147 10.8511 32.1902 10.8562C32.1782 10.8571 32.1666 10.8603 32.1559 10.8658C32.1453 10.8713 32.1359 10.8789 32.1282 10.8881C32.1206 10.8974 32.1149 10.908 32.1114 10.9195C32.108 10.931 32.1069 10.943 32.1083 10.9549L32.142 22.0014C32.1418 22.0476 32.1314 22.0933 32.1114 22.1349C32.0914 22.1766 32.0623 22.2133 32.0263 22.2423C31.9502 22.3101 31.8511 22.3463 31.7493 22.3435H27.9764C27.8746 22.3458 27.7756 22.3097 27.6993 22.2423C27.6636 22.2132 27.6349 22.1764 27.6153 22.1347C27.5958 22.093 27.5857 22.0475 27.5861 22.0014V2.55865C27.5859 2.51261 27.596 2.46712 27.6156 2.42545C27.6352 2.38378 27.6638 2.34699 27.6993 2.31772C27.7756 2.25034 27.8746 2.21421 27.9764 2.21653H32.2384C32.3312 2.2084 32.4241 2.23279 32.501 2.28552C32.5779 2.33826 32.6341 2.41606 32.66 2.50565L36.7292 13.6364C36.7343 13.6612 36.7486 13.6831 36.7693 13.6977C36.79 13.7122 36.8155 13.7182 36.8405 13.7145C36.8655 13.7108 36.8882 13.6976 36.9038 13.6777C36.9194 13.6578 36.9267 13.6327 36.9244 13.6075L36.8906 2.56106C36.8903 2.51429 36.9002 2.46802 36.9198 2.42554C36.9394 2.38307 36.9681 2.34543 37.0039 2.31531V2.31531Z" fill="black"/>
<path d="M45.27 21.0979C44.0879 20.1101 43.4968 18.7915 43.4968 17.1419V7.42053C43.4968 5.77259 44.0879 4.45473 45.27 3.46693C46.4522 2.47913 48.019 1.98523 49.9705 1.98523C51.922 1.98523 53.4945 2.48314 54.6879 3.47897C55.8812 4.4748 56.4779 5.79829 56.4779 7.44944V8.54325C56.4778 8.58923 56.4675 8.63462 56.448 8.67623C56.4284 8.71785 56.4 8.75469 56.3647 8.78417C56.2884 8.85155 56.1894 8.88768 56.0876 8.88536H52.281C52.1792 8.88768 52.0803 8.85155 52.0039 8.78417C51.9687 8.75469 51.9402 8.71785 51.9207 8.67623C51.9011 8.63462 51.8909 8.58923 51.8907 8.54325V7.39162C51.9016 7.13612 51.8612 6.88103 51.7718 6.64143C51.6824 6.40183 51.5459 6.18258 51.3703 5.99665C51.1862 5.81634 50.9668 5.67597 50.726 5.58435C50.4851 5.49273 50.2279 5.45183 49.9705 5.46421C49.7184 5.45391 49.4669 5.4959 49.2318 5.58753C48.9967 5.67916 48.7831 5.81846 48.6045 5.99665C48.4289 6.18258 48.2924 6.40183 48.203 6.64143C48.1136 6.88103 48.0732 7.13612 48.0841 7.39162V17.1708C48.0729 17.4263 48.1132 17.6815 48.2026 17.9212C48.292 18.1608 48.4287 18.38 48.6045 18.5658C48.7831 18.744 48.9967 18.8833 49.2318 18.9749C49.4669 19.0665 49.7184 19.1085 49.9705 19.0982C50.2279 19.1106 50.4851 19.0697 50.726 18.9781C50.9668 18.8865 51.1862 18.7461 51.3703 18.5658C51.5461 18.38 51.6828 18.1608 51.7722 17.9212C51.8616 17.6815 51.9019 17.4263 51.8907 17.1708V14.87C51.8907 14.7736 51.8353 14.7254 51.7269 14.7254H50.2958C50.1943 14.7286 50.0953 14.6934 50.0187 14.6266C49.9837 14.5969 49.9554 14.5601 49.9359 14.5185C49.9163 14.4769 49.906 14.4316 49.9055 14.3857V11.8223C49.906 11.7763 49.9163 11.731 49.9359 11.6895C49.9554 11.6479 49.9837 11.611 50.0187 11.5813C50.095 11.5139 50.194 11.4778 50.2958 11.4801H56.078C56.1798 11.4778 56.2787 11.5139 56.3551 11.5813C56.3901 11.611 56.4184 11.6479 56.4379 11.6895C56.4574 11.731 56.4678 11.7763 56.4683 11.8223V17.1419C56.4683 18.7915 55.8716 20.1101 54.6782 21.0979C53.4848 22.0857 51.9124 22.5788 49.9609 22.5772C48.0158 22.5772 46.4522 22.0841 45.27 21.0979Z" fill="black"/>
<path d="M60.2027 20.9606C59.0189 19.8764 58.4278 18.4309 58.4294 16.6239V2.55862C58.4298 2.51242 58.4403 2.46686 58.4603 2.42521C58.4803 2.38355 58.5092 2.34684 58.5451 2.3177C58.6203 2.25005 58.7186 2.21383 58.8197 2.21651H62.6408C62.7419 2.21432 62.84 2.25047 62.9155 2.3177C62.9514 2.34684 62.9803 2.38355 63.0003 2.42521C63.0203 2.46686 63.0308 2.51242 63.0311 2.55862V17.0263C63.0073 17.5731 63.1935 18.1084 63.5515 18.5224C63.7232 18.7126 63.9345 18.8627 64.1705 18.9622C64.4066 19.0617 64.6616 19.1081 64.9176 19.0982C65.1713 19.11 65.4245 19.0644 65.6581 18.9647C65.8917 18.865 66.0998 18.7138 66.2668 18.5224C66.6165 18.1044 66.797 17.5707 66.7727 17.0263V2.57067C66.7726 2.52463 66.7827 2.47914 66.8022 2.43747C66.8218 2.3958 66.8504 2.35901 66.886 2.32974C66.9621 2.26194 67.0612 2.22575 67.163 2.22855H70.9697C71.0715 2.22623 71.1704 2.26236 71.2467 2.32974C71.2819 2.35934 71.3102 2.3962 71.3298 2.43779C71.3493 2.47938 71.3596 2.52471 71.36 2.57067V16.6239C71.36 18.4276 70.7689 19.8732 69.5867 20.9606C68.4046 22.048 66.8442 22.5868 64.9055 22.5772C62.954 22.5772 61.3864 22.0383 60.2027 20.9606Z" fill="black"/>
<path d="M82.3125 22.0327L81.7921 19.2741C81.7921 19.1777 81.727 19.1296 81.5969 19.1296H77.4651C77.335 19.1296 77.2699 19.1777 77.2699 19.2741L76.7495 22.0351C76.7278 22.2447 76.5857 22.3507 76.3255 22.3507H72.5188C72.237 22.3507 72.1285 22.2255 72.1936 21.9773L76.976 2.53454C76.9915 2.43682 77.0444 2.34897 77.1236 2.2896C77.2027 2.23024 77.3019 2.20403 77.4 2.21652H81.7921C81.89 2.20407 81.9888 2.23036 82.0676 2.28977C82.1464 2.34918 82.1988 2.43702 82.2137 2.53454L86.9744 21.9749L87.0082 22.0905C87.0082 22.2616 86.8877 22.3483 86.6492 22.3483H82.7462C82.4763 22.3483 82.3342 22.2423 82.3125 22.0327ZM78.0601 15.9927H80.9874C81.0958 15.9927 81.1392 15.9445 81.1199 15.8481L79.59 7.99634C79.5683 7.93852 79.5346 7.90961 79.4913 7.90961C79.4479 7.90961 79.4166 7.93852 79.3949 7.99634L77.93 15.8481C77.9236 15.9445 77.967 15.9927 78.0601 15.9927Z" fill="black"/>
<path d="M89.1934 21.0979C88.0112 20.1101 87.4202 18.7915 87.4202 17.1419V7.42053C87.4202 5.77259 88.0112 4.45473 89.1934 3.46693C90.3755 2.47913 91.9432 1.98523 93.8963 1.98523C95.8478 1.98523 97.4202 2.48314 98.6136 3.47897C99.807 4.4748 100.404 5.79829 100.404 7.44944V8.54325C100.404 8.58948 100.393 8.63509 100.373 8.67677C100.353 8.71845 100.324 8.75514 100.288 8.78417C100.213 8.8514 100.114 8.88755 100.013 8.88536H96.2043C96.1032 8.88804 96.0049 8.85182 95.9297 8.78417C95.8937 8.75514 95.8646 8.71845 95.8446 8.67677C95.8246 8.63509 95.8142 8.58948 95.814 8.54325V7.39162C95.8249 7.13612 95.7845 6.88103 95.6951 6.64143C95.6057 6.40183 95.4692 6.18258 95.2936 5.99665C95.11 5.8164 94.8911 5.67606 94.6506 5.58443C94.4101 5.49281 94.1533 5.45187 93.8963 5.46421C93.6438 5.45357 93.3918 5.49539 93.1562 5.58704C92.9207 5.67868 92.7067 5.81815 92.5278 5.99665C92.3522 6.18258 92.2157 6.40183 92.1263 6.64143C92.0369 6.88103 91.9965 7.13612 92.0074 7.39162V17.1708C91.9962 17.4263 92.0365 17.6815 92.1259 17.9212C92.2153 18.1608 92.352 18.38 92.5278 18.5658C92.7067 18.7443 92.9207 18.8838 93.1562 18.9754C93.3918 19.067 93.6438 19.1089 93.8963 19.0982C94.1533 19.1106 94.4101 19.0696 94.6506 18.978C94.8911 18.8864 95.11 18.746 95.2936 18.5658C95.4694 18.38 95.6061 18.1608 95.6955 17.9212C95.7849 17.6815 95.8252 17.4263 95.814 17.1708V14.87C95.814 14.7736 95.761 14.7254 95.6526 14.7254H94.2215C94.12 14.7289 94.0209 14.6936 93.9444 14.6266C93.909 14.5973 93.8805 14.5604 93.861 14.5188C93.8414 14.4772 93.8312 14.4317 93.8312 14.3857V11.8223C93.8312 11.7762 93.8414 11.7308 93.861 11.6892C93.8805 11.6475 93.909 11.6107 93.9444 11.5813C94.0205 11.5135 94.1196 11.4773 94.2215 11.4801H100.004C100.105 11.478 100.203 11.5141 100.278 11.5813C100.314 11.6106 100.343 11.6473 100.363 11.6889C100.383 11.7306 100.394 11.7761 100.394 11.8223V17.1419C100.394 18.7915 99.7974 20.1101 98.604 21.0979C97.4106 22.0857 95.8381 22.5788 93.8866 22.5772C91.9399 22.5772 90.3755 22.0841 89.1934 21.0979Z" fill="black"/>
<path d="M114.281 5.59431C114.205 5.66169 114.106 5.69782 114.004 5.6955H107.212C107.104 5.6955 107.051 5.74368 107.051 5.83764V10.3839C107.051 10.4803 107.104 10.5261 107.212 10.5261H111.118C111.219 10.5238 111.318 10.5599 111.395 10.6273C111.43 10.657 111.458 10.6938 111.478 10.7354C111.497 10.777 111.507 10.8223 111.508 10.8682V13.6629C111.508 13.7089 111.498 13.7543 111.478 13.7959C111.458 13.8375 111.43 13.8744 111.395 13.9039C111.318 13.9712 111.219 14.0074 111.118 14.0051H107.212C107.104 14.0051 107.051 14.0532 107.051 14.1496V18.7272C107.051 18.8236 107.104 18.8718 107.212 18.8718H114.014C114.115 18.8685 114.214 18.9038 114.291 18.9705C114.326 19.0002 114.354 19.0371 114.373 19.0787C114.393 19.1203 114.403 19.1655 114.404 19.2115V22.0038C114.404 22.0498 114.393 22.0952 114.374 22.1368C114.354 22.1784 114.326 22.2152 114.291 22.2447C114.214 22.3121 114.115 22.3482 114.014 22.3459H102.844C102.742 22.3487 102.643 22.3125 102.567 22.2447C102.531 22.2156 102.503 22.1788 102.483 22.1371C102.464 22.0954 102.454 22.0499 102.454 22.0038V2.55864C102.454 2.5126 102.464 2.4671 102.483 2.42544C102.503 2.38377 102.532 2.34697 102.567 2.31771C102.643 2.24991 102.742 2.21372 102.844 2.21652H114.004C114.106 2.2142 114.205 2.25033 114.281 2.31771C114.316 2.3473 114.344 2.38416 114.364 2.42576C114.384 2.46735 114.394 2.51268 114.394 2.55864V5.34856C114.394 5.39531 114.384 5.44152 114.365 5.48398C114.345 5.52643 114.317 5.56409 114.281 5.59431V5.59431Z" fill="black"/>
<path d="M122.347 22.2472C122.312 22.2177 122.284 22.1808 122.264 22.1392C122.244 22.0976 122.234 22.0522 122.234 22.0062V2.55865C122.234 2.5127 122.245 2.46736 122.264 2.42577C122.284 2.38418 122.312 2.34732 122.347 2.31773C122.425 2.24774 122.527 2.21061 122.632 2.21413H126.438C126.54 2.21181 126.639 2.24794 126.715 2.31532C126.751 2.34458 126.779 2.38138 126.799 2.42304C126.819 2.46471 126.829 2.5102 126.828 2.55624V18.7224C126.828 18.8188 126.884 18.867 126.992 18.867H133.825C133.926 18.8637 134.025 18.899 134.102 18.9657C134.137 18.9954 134.165 19.0323 134.185 19.0739C134.204 19.1155 134.215 19.1607 134.215 19.2067V22.0038C134.215 22.0498 134.205 22.0952 134.185 22.1368C134.166 22.1784 134.137 22.2153 134.102 22.2447C134.026 22.3121 133.927 22.3483 133.825 22.3459H122.632C122.528 22.3508 122.426 22.3154 122.347 22.2472V22.2472Z" fill="black"/>
<path d="M135.721 22.2471C135.685 22.218 135.657 22.1812 135.637 22.1395C135.617 22.0978 135.607 22.0523 135.608 22.0062V2.55864C135.608 2.5126 135.618 2.4671 135.637 2.42544C135.657 2.38377 135.685 2.34697 135.721 2.31771C135.797 2.24991 135.896 2.21372 135.998 2.21652H139.805C139.907 2.2142 140.005 2.25033 140.082 2.31771C140.117 2.3473 140.145 2.38416 140.165 2.42576C140.184 2.46735 140.195 2.51268 140.195 2.55864V22.0038C140.195 22.0498 140.185 22.0952 140.165 22.1368C140.146 22.1784 140.117 22.2152 140.082 22.2447C140.005 22.3121 139.907 22.3482 139.805 22.3459H135.998C135.897 22.3494 135.797 22.3141 135.721 22.2471Z" fill="black"/>
<path d="M152.025 2.3153C152.101 2.24728 152.2 2.21106 152.302 2.21411H156.072C156.174 2.21179 156.273 2.24792 156.349 2.3153C156.384 2.34489 156.413 2.38175 156.432 2.42334C156.452 2.46493 156.462 2.51027 156.462 2.55622V22.0038C156.462 22.0498 156.452 22.0952 156.432 22.1368C156.413 22.1784 156.384 22.2152 156.349 22.2447C156.273 22.3121 156.174 22.3482 156.072 22.3459H151.784C151.691 22.3542 151.598 22.3301 151.522 22.2779C151.445 22.2256 151.388 22.1483 151.362 22.0592L147.326 10.9284C147.321 10.904 147.306 10.8828 147.285 10.8693C147.263 10.8558 147.238 10.8511 147.213 10.8561C147.201 10.857 147.19 10.8603 147.179 10.8658C147.168 10.8713 147.159 10.8789 147.151 10.8881C147.144 10.8973 147.138 10.908 147.135 10.9195C147.131 10.931 147.13 10.943 147.131 10.9549L147.165 22.0014C147.165 22.0476 147.154 22.0932 147.134 22.1349C147.114 22.1766 147.085 22.2133 147.049 22.2423C146.974 22.31 146.876 22.3462 146.775 22.3435H142.992C142.89 22.3458 142.791 22.3097 142.715 22.2423C142.68 22.2128 142.651 22.176 142.632 22.1344C142.612 22.0928 142.602 22.0474 142.602 22.0014V2.55863C142.602 2.51268 142.613 2.46734 142.632 2.42575C142.652 2.38416 142.68 2.3473 142.715 2.3177C142.791 2.25033 142.89 2.21419 142.992 2.21652H147.254C147.347 2.20827 147.441 2.23257 147.518 2.28528C147.595 2.33799 147.652 2.41585 147.678 2.50563L151.745 13.6364C151.748 13.6487 151.753 13.6603 151.76 13.6706C151.767 13.6809 151.776 13.6897 151.786 13.6964C151.797 13.7031 151.809 13.7077 151.821 13.7098C151.833 13.7119 151.846 13.7115 151.858 13.7087C151.87 13.7075 151.882 13.7039 151.893 13.6982C151.903 13.6924 151.913 13.6846 151.92 13.6752C151.928 13.6658 151.934 13.655 151.937 13.6433C151.94 13.6317 151.942 13.6196 151.94 13.6075L151.907 2.56104C151.906 2.51383 151.917 2.4672 151.937 2.42465C151.958 2.38209 151.988 2.34471 152.025 2.3153V2.3153Z" fill="black"/>
<path d="M158.951 22.2471C158.916 22.2177 158.887 22.1808 158.868 22.1392C158.848 22.0976 158.838 22.0522 158.838 22.0062V2.55863C158.838 2.51268 158.849 2.46734 158.868 2.42575C158.888 2.38416 158.916 2.3473 158.951 2.3177C159.028 2.25033 159.126 2.21419 159.228 2.21652H163.035C163.137 2.21419 163.236 2.25033 163.312 2.3177C163.347 2.3473 163.375 2.38416 163.395 2.42575C163.415 2.46734 163.425 2.51268 163.425 2.55863V9.80811C163.425 9.8852 163.452 9.92857 163.507 9.93821C163.563 9.94784 163.599 9.91411 163.62 9.83702L167.817 2.47431C167.863 2.39382 167.929 2.32712 168.009 2.2813C168.089 2.23548 168.18 2.21226 168.273 2.21411H172.308C172.364 2.20703 172.42 2.21244 172.474 2.22994C172.527 2.24745 172.576 2.2766 172.617 2.31529C172.672 2.38275 172.667 2.48394 172.602 2.61645L167.784 10.9019C167.765 10.9574 167.754 11.0148 167.75 11.073L172.86 21.946C172.884 22.0004 172.895 22.0599 172.891 22.1194C172.891 22.2712 172.783 22.3604 172.566 22.3604H168.502C168.408 22.3733 168.313 22.355 168.23 22.3084C168.148 22.2618 168.083 22.1895 168.046 22.1026L164.673 14.5664C164.651 14.5086 164.62 14.4845 164.577 14.4941C164.528 14.5068 164.483 14.5316 164.447 14.5664L163.502 16.0601C163.468 16.1122 163.445 16.1716 163.437 16.2336V22.0158C163.437 22.0618 163.427 22.1072 163.407 22.1488C163.388 22.1904 163.359 22.2273 163.324 22.2568C163.248 22.3242 163.149 22.3603 163.047 22.358H159.228C159.125 22.3577 159.026 22.318 158.951 22.2471V22.2471Z" fill="black"/>
<path d="M52.8833 41.8995L56.1359 33.4213H1.08658C0.7984 33.4213 0.522024 33.3068 0.318251 33.1031C0.114478 32.8993 0 32.6229 0 32.3347L0 0H5.43289V27.9884H62.7589C62.8123 27.9886 62.8647 28.0018 62.9118 28.0269C62.9589 28.052 62.9991 28.0882 63.029 28.1323C63.059 28.1765 63.0776 28.2273 63.0835 28.2803C63.0893 28.3333 63.0821 28.3869 63.0625 28.4365L61.1182 33.2912L67.5052 28.9545C68.2741 28.4351 69.1816 28.1589 70.1096 28.1619H82.6618V33.5924H72.2611C71.1303 33.5922 70.0162 33.8649 69.0134 34.3874L53.6278 42.403C53.5479 42.4585 53.4532 42.4885 53.3559 42.4891C53.2587 42.4897 53.1636 42.4608 53.083 42.4064C53.0025 42.3519 52.9403 42.2743 52.9047 42.1839C52.869 42.0934 52.8616 41.9943 52.8833 41.8995V41.8995Z" fill="#ED1C24"/>
<path d="M36.1679 59.4365H37.7652C37.7893 59.4365 37.8013 59.4124 37.8013 59.3884L37.0039 55.2541C36.9918 55.2035 36.9677 55.2035 36.9533 55.2541L36.139 59.3884C36.139 59.4124 36.151 59.4365 36.1751 59.4365H36.1679ZM38.2615 61.7952L37.9941 60.4051C37.9941 60.3786 37.9579 60.3545 37.9339 60.3545H35.9872C35.9631 60.3545 35.9269 60.3786 35.9269 60.4051L35.6571 61.7952C35.6556 61.8111 35.651 61.8264 35.6435 61.8405C35.636 61.8545 35.6258 61.867 35.6135 61.8771C35.6011 61.8871 35.5869 61.8947 35.5717 61.8992C35.5564 61.9038 35.5404 61.9053 35.5246 61.9036H34.597C34.5802 61.9051 34.5633 61.9024 34.5477 61.8959C34.5322 61.8893 34.5185 61.8791 34.5078 61.866C34.4971 61.853 34.4898 61.8375 34.4864 61.8209C34.4831 61.8044 34.4838 61.7873 34.4886 61.7711L36.2883 53.5483C36.292 53.5161 36.3082 53.4866 36.3335 53.4663C36.3587 53.446 36.391 53.4365 36.4232 53.4399H37.4857C37.5016 53.4382 37.5176 53.4397 37.5328 53.4443C37.5481 53.4488 37.5623 53.4564 37.5746 53.4665C37.5869 53.4765 37.5971 53.489 37.6046 53.503C37.6121 53.5171 37.6167 53.5324 37.6182 53.5483L39.4445 61.7711C39.4492 61.7873 39.45 61.8044 39.4466 61.8209C39.4433 61.8375 39.436 61.853 39.4253 61.866C39.4146 61.8791 39.4009 61.8893 39.3853 61.8959C39.3698 61.9024 39.3529 61.9051 39.336 61.9036H38.394C38.3782 61.9053 38.3622 61.9038 38.3469 61.8992C38.3317 61.8947 38.3175 61.8871 38.3052 61.8771C38.2928 61.867 38.2826 61.8545 38.2751 61.8405C38.2677 61.8264 38.263 61.8111 38.2615 61.7952V61.7952Z" fill="#221F1F"/>
<path d="M66.356 61.7832V53.5603C66.3549 53.5443 66.3573 53.5281 66.363 53.513C66.3686 53.4979 66.3775 53.4842 66.3889 53.4728C66.4003 53.4614 66.414 53.4526 66.4291 53.4469C66.4442 53.4412 66.4603 53.4388 66.4764 53.4399H67.3968C67.4129 53.4388 67.429 53.4412 67.4441 53.4469C67.4592 53.4526 67.4729 53.4614 67.4843 53.4728C67.4957 53.4842 67.5045 53.4979 67.5102 53.513C67.5159 53.5281 67.5183 53.5443 67.5172 53.5603V60.8508C67.5183 60.8632 67.5237 60.8748 67.5325 60.8836C67.5414 60.8925 67.553 60.8979 67.5654 60.899H70.2734C70.2896 60.8983 70.3058 60.901 70.3209 60.9069C70.336 60.9129 70.3497 60.922 70.3611 60.9335C70.3724 60.9451 70.3812 60.959 70.3869 60.9742C70.3925 60.9894 70.3949 61.0056 70.3939 61.0218V61.7832C70.3949 61.7993 70.3926 61.8154 70.3869 61.8305C70.3812 61.8456 70.3724 61.8593 70.361 61.8707C70.3496 61.8821 70.3358 61.891 70.3207 61.8966C70.3056 61.9023 70.2895 61.9047 70.2734 61.9036H66.4764C66.4603 61.9047 66.4442 61.9023 66.4291 61.8966C66.414 61.891 66.4003 61.8821 66.3889 61.8707C66.3775 61.8593 66.3686 61.8456 66.363 61.8305C66.3573 61.8154 66.3549 61.7993 66.356 61.7832V61.7832Z" fill="#221F1F"/>
<path d="M73.0007 59.4365H74.598C74.6221 59.4365 74.6342 59.4124 74.6342 59.3884L73.8367 55.2541C73.8247 55.2035 73.8006 55.2035 73.7885 55.2541L72.9646 59.3884C72.9646 59.4124 72.9766 59.4365 73.0007 59.4365V59.4365ZM75.0943 61.7952L74.8269 60.4051C74.8269 60.3786 74.7908 60.3545 74.7667 60.3545H72.82C72.7959 60.3545 72.7598 60.3786 72.7598 60.4051L72.4803 61.7952C72.4788 61.8111 72.4742 61.8264 72.4667 61.8405C72.4592 61.8545 72.449 61.867 72.4366 61.8771C72.4243 61.8871 72.4101 61.8947 72.3949 61.8992C72.3796 61.9038 72.3636 61.9053 72.3478 61.9036H71.4299C71.413 61.9051 71.3961 61.9024 71.3806 61.8959C71.365 61.8893 71.3513 61.8791 71.3406 61.866C71.3299 61.853 71.3226 61.8375 71.3193 61.8209C71.3159 61.8044 71.3167 61.7873 71.3214 61.7711L73.1212 53.5483C73.1248 53.5161 73.141 53.4866 73.1663 53.4663C73.1916 53.446 73.2238 53.4365 73.2561 53.4399H74.3186C74.3344 53.4382 74.3504 53.4397 74.3656 53.4443C74.3809 53.4488 74.3951 53.4564 74.4074 53.4665C74.4197 53.4765 74.4299 53.489 74.4374 53.503C74.4449 53.5171 74.4496 53.5324 74.4511 53.5483L76.2773 61.7711C76.2821 61.7873 76.2828 61.8044 76.2795 61.8209C76.2761 61.8375 76.2688 61.853 76.2581 61.866C76.2474 61.8791 76.2337 61.8893 76.2182 61.8959C76.2026 61.9024 76.1857 61.9051 76.1689 61.9036H75.2268C75.211 61.9053 75.195 61.9038 75.1798 61.8992C75.1645 61.8947 75.1503 61.8871 75.138 61.8771C75.1257 61.867 75.1155 61.8545 75.108 61.8405C75.1005 61.8264 75.0958 61.8111 75.0943 61.7952V61.7952Z" fill="#221F1F"/>
<path d="M77.3952 61.7832V53.5603C77.3941 53.5442 77.3965 53.5281 77.4022 53.513C77.4079 53.4979 77.4167 53.4842 77.4281 53.4728C77.4395 53.4614 77.4532 53.4526 77.4683 53.4469C77.4834 53.4412 77.4996 53.4388 77.5157 53.4399H78.4481C78.4779 53.4379 78.5076 53.4464 78.5318 53.464C78.556 53.4816 78.5733 53.5072 78.5806 53.5363L80.732 58.868C80.7441 58.9161 80.7923 58.9041 80.7923 58.8559V53.5555C80.7916 53.5393 80.7943 53.5231 80.8002 53.508C80.8062 53.4929 80.8153 53.4793 80.8268 53.4679C80.8384 53.4565 80.8523 53.4477 80.8675 53.4421C80.8827 53.4364 80.8989 53.434 80.9151 53.4351H81.821C81.8371 53.434 81.8533 53.4364 81.8684 53.4421C81.8835 53.4477 81.8972 53.4566 81.9086 53.468C81.92 53.4794 81.9288 53.4931 81.9345 53.5082C81.9402 53.5233 81.9426 53.5394 81.9415 53.5555V61.7783C81.9426 61.7944 81.9402 61.8106 81.9345 61.8257C81.9288 61.8408 81.92 61.8545 81.9086 61.8659C81.8972 61.8773 81.8835 61.8861 81.8684 61.8918C81.8533 61.8975 81.8371 61.8999 81.821 61.8988H80.879C80.8488 61.9009 80.8188 61.8925 80.7942 61.8749C80.7696 61.8573 80.7519 61.8317 80.7441 61.8024L78.5926 56.4683C78.5926 56.4201 78.5324 56.4201 78.5324 56.4683L78.5444 61.7687C78.5455 61.7848 78.5431 61.8009 78.5374 61.816C78.5318 61.8311 78.5229 61.8448 78.5115 61.8563C78.5001 61.8677 78.4864 61.8765 78.4713 61.8822C78.4562 61.8878 78.4401 61.8902 78.424 61.8892H77.5157C77.4996 61.8902 77.4834 61.8878 77.4683 61.8822C77.4532 61.8765 77.4395 61.8677 77.4281 61.8563C77.4167 61.8448 77.4079 61.8311 77.4022 61.816C77.3965 61.8009 77.3941 61.7848 77.3952 61.7687V61.7832Z" fill="#221F1F"/>
<path d="M83.2714 59.8847V55.4588C83.2714 54.1771 84.1435 53.3411 85.4397 53.3411C86.7359 53.3411 87.6273 54.1771 87.6273 55.4709V55.9792C87.6284 55.9953 87.626 56.0115 87.6203 56.0266C87.6146 56.0417 87.6058 56.0554 87.5944 56.0668C87.583 56.0782 87.5693 56.087 87.5542 56.0927C87.5391 56.0984 87.5229 56.1008 87.5068 56.0997H86.5889C86.5727 56.1007 86.5565 56.0983 86.5413 56.0927C86.5261 56.087 86.5122 56.0782 86.5006 56.0669C86.489 56.0555 86.48 56.0418 86.474 56.0267C86.468 56.0116 86.4653 55.9955 86.466 55.9792V55.4468C86.466 54.7818 86.0565 54.3458 85.4397 54.3458C84.8229 54.3458 84.4109 54.7818 84.4109 55.4468V59.8967C84.4109 60.5617 84.8229 60.9953 85.4397 60.9953C86.0565 60.9953 86.466 60.5617 86.466 59.8967V58.5668C86.465 58.5544 86.4595 58.5427 86.4507 58.5339C86.4419 58.5251 86.4303 58.5197 86.4179 58.5186H85.4999C85.4837 58.5193 85.4675 58.5166 85.4524 58.5106C85.4373 58.5047 85.4237 58.4956 85.4123 58.484C85.4009 58.4724 85.3921 58.4586 85.3865 58.4434C85.3808 58.4282 85.3784 58.4119 85.3795 58.3957V57.6465C85.3784 57.6304 85.3808 57.6142 85.3865 57.5991C85.3921 57.584 85.401 57.5703 85.4124 57.5589C85.4238 57.5475 85.4375 57.5387 85.4526 57.533C85.4677 57.5273 85.4838 57.5249 85.4999 57.526H87.5068C87.5229 57.5249 87.5391 57.5273 87.5542 57.533C87.5693 57.5387 87.583 57.5475 87.5944 57.5589C87.6058 57.5703 87.6146 57.584 87.6203 57.5991C87.626 57.6142 87.6284 57.6304 87.6273 57.6465V59.8847C87.6273 61.1664 86.7455 62 85.4397 62C84.1339 62 83.2714 61.1664 83.2714 59.8847V59.8847Z" fill="#221F1F"/>
<path d="M88.8464 59.6052V53.5603C88.8454 53.5443 88.8478 53.5281 88.8534 53.513C88.8591 53.4979 88.868 53.4842 88.8794 53.4728C88.8908 53.4614 88.9045 53.4526 88.9196 53.4469C88.9347 53.4412 88.9508 53.4388 88.9669 53.4399H89.8872C89.9033 53.4388 89.9195 53.4412 89.9346 53.4469C89.9497 53.4526 89.9634 53.4614 89.9748 53.4728C89.9862 53.4842 89.995 53.4979 90.0007 53.513C90.0064 53.5281 90.0088 53.5443 90.0077 53.5603V59.7257C90.0077 60.4773 90.4173 60.9953 91.0341 60.9953C91.6508 60.9953 92.0749 60.4773 92.0749 59.7257V53.5603C92.0738 53.5443 92.0762 53.5281 92.0819 53.513C92.0875 53.4979 92.0964 53.4842 92.1078 53.4728C92.1192 53.4614 92.1329 53.4526 92.148 53.4469C92.1631 53.4412 92.1792 53.4388 92.1953 53.4399H93.1157C93.1317 53.4388 93.1479 53.4412 93.163 53.4469C93.1781 53.4526 93.1918 53.4614 93.2032 53.4728C93.2146 53.4842 93.2234 53.4979 93.2291 53.513C93.2348 53.5281 93.2372 53.5443 93.2361 53.5603V59.6052C93.2361 61.0507 92.3519 62 91.0341 62C89.7162 62 88.8464 61.0363 88.8464 59.6052V59.6052Z" fill="#221F1F"/>
<path d="M95.8718 59.4366H97.4692C97.4933 59.4366 97.5053 59.4125 97.5053 59.3884L96.7054 55.2541C96.6934 55.2035 96.6693 55.2035 96.6572 55.2541L95.8357 59.3884C95.8357 59.4125 95.8477 59.4366 95.8718 59.4366V59.4366ZM97.9631 61.7952L97.698 60.4051C97.698 60.3786 97.6619 60.3545 97.6378 60.3545H95.6911C95.667 60.3545 95.6309 60.3786 95.6309 60.4051L95.3514 61.7952C95.3499 61.8111 95.3453 61.8265 95.3378 61.8405C95.3303 61.8546 95.3201 61.867 95.3078 61.8771C95.2955 61.8872 95.2813 61.8947 95.266 61.8993C95.2508 61.9038 95.2347 61.9053 95.2189 61.9036H94.301C94.2841 61.905 94.2672 61.9022 94.2516 61.8957C94.236 61.8891 94.2222 61.8789 94.2114 61.866C94.2006 61.853 94.193 61.8376 94.1893 61.8211C94.1856 61.8046 94.1859 61.7875 94.1902 61.7711L95.9923 53.5483C95.9938 53.5325 95.9984 53.5171 96.0059 53.503C96.0134 53.489 96.0236 53.4766 96.0359 53.4665C96.0482 53.4564 96.0625 53.4488 96.0777 53.4443C96.093 53.4397 96.109 53.4382 96.1248 53.4399H97.1897C97.2055 53.4382 97.2215 53.4397 97.2368 53.4443C97.252 53.4488 97.2662 53.4564 97.2786 53.4665C97.2909 53.4766 97.3011 53.489 97.3086 53.503C97.3161 53.5171 97.3207 53.5325 97.3222 53.5483L99.1484 61.7711C99.1532 61.7873 99.1539 61.8044 99.1506 61.821C99.1473 61.8375 99.1399 61.853 99.1292 61.866C99.1186 61.8791 99.1048 61.8894 99.0893 61.8959C99.0737 61.9025 99.0568 61.9051 99.04 61.9036H98.0956C98.0797 61.9053 98.0637 61.9038 98.0485 61.8993C98.0332 61.8947 98.019 61.8872 98.0067 61.8771C97.9944 61.867 97.9842 61.8546 97.9767 61.8405C97.9692 61.8265 97.9646 61.8111 97.9631 61.7952Z" fill="#221F1F"/>
<path d="M99.9338 59.8847V55.4588C99.9338 54.1771 100.806 53.3411 102.102 53.3411C103.398 53.3411 104.29 54.1771 104.29 55.4709V55.9792C104.291 55.9953 104.288 56.0115 104.283 56.0266C104.277 56.0417 104.268 56.0554 104.257 56.0668C104.245 56.0782 104.232 56.087 104.217 56.0927C104.202 56.0984 104.185 56.1008 104.169 56.0997H103.261C103.245 56.1008 103.229 56.0984 103.214 56.0927C103.199 56.087 103.185 56.0782 103.173 56.0668C103.162 56.0554 103.153 56.0417 103.148 56.0266C103.142 56.0115 103.14 55.9953 103.141 55.9792V55.4468C103.141 54.7818 102.729 54.3458 102.112 54.3458C101.495 54.3458 101.083 54.7818 101.083 55.4468V59.8967C101.083 60.5617 101.495 60.9953 102.112 60.9953C102.729 60.9953 103.141 60.5617 103.141 59.8967V58.5668C103.139 58.554 103.134 58.542 103.124 58.5332C103.115 58.5243 103.103 58.5191 103.09 58.5186H102.172C102.156 58.5193 102.14 58.5166 102.125 58.5106C102.109 58.5047 102.096 58.4956 102.084 58.484C102.073 58.4724 102.064 58.4586 102.059 58.4434C102.053 58.4282 102.051 58.4119 102.052 58.3957V57.6465C102.051 57.6304 102.053 57.6142 102.059 57.5991C102.064 57.584 102.073 57.5703 102.085 57.5589C102.096 57.5475 102.11 57.5387 102.125 57.533C102.14 57.5273 102.156 57.5249 102.172 57.526H104.179C104.195 57.5249 104.211 57.5273 104.226 57.533C104.241 57.5387 104.255 57.5475 104.267 57.5589C104.278 57.5703 104.287 57.584 104.292 57.5991C104.298 57.6142 104.3 57.6304 104.299 57.6465V59.8847C104.299 61.1664 103.418 62 102.112 62C100.806 62 99.9435 61.1664 99.9435 59.8847H99.9338Z" fill="#221F1F"/>
<path d="M109.499 54.4494H106.779C106.766 54.4505 106.755 54.4559 106.746 54.4647C106.737 54.4735 106.731 54.4852 106.73 54.4976V57.1213C106.731 57.1337 106.737 57.1453 106.746 57.1541C106.755 57.1629 106.766 57.1684 106.779 57.1694H108.448C108.464 57.1687 108.481 57.1714 108.496 57.1774C108.511 57.1834 108.524 57.1924 108.536 57.204C108.547 57.2156 108.556 57.2295 108.562 57.2447C108.567 57.2599 108.57 57.2761 108.569 57.2923V58.0536C108.57 58.0697 108.567 58.0859 108.562 58.101C108.556 58.1161 108.547 58.1298 108.536 58.1412C108.524 58.1526 108.511 58.1614 108.496 58.1671C108.48 58.1728 108.464 58.1752 108.448 58.1741H106.779C106.766 58.1752 106.755 58.1806 106.746 58.1894C106.737 58.1982 106.731 58.2099 106.73 58.2223V60.858C106.731 60.8704 106.737 60.8821 106.746 60.8909C106.755 60.8997 106.766 60.9051 106.779 60.9062H109.499C109.515 60.9051 109.532 60.9076 109.547 60.9134C109.562 60.9192 109.576 60.9282 109.588 60.9398C109.6 60.9515 109.609 60.9654 109.614 60.9808C109.62 60.9962 109.623 61.0127 109.622 61.0291V61.7904C109.622 61.8066 109.62 61.8228 109.614 61.8379C109.608 61.853 109.599 61.8667 109.587 61.878C109.575 61.8894 109.562 61.8982 109.546 61.9039C109.531 61.9095 109.515 61.9119 109.499 61.9109H105.692C105.676 61.9119 105.66 61.9095 105.644 61.9039C105.629 61.8982 105.615 61.8894 105.604 61.878C105.592 61.8667 105.583 61.853 105.577 61.8379C105.571 61.8228 105.568 61.8066 105.569 61.7904V53.5604C105.568 53.5441 105.571 53.528 105.577 53.5129C105.583 53.4978 105.592 53.4841 105.604 53.4727C105.615 53.4614 105.629 53.4526 105.644 53.4469C105.66 53.4413 105.676 53.4389 105.692 53.4399H109.499C109.515 53.4389 109.531 53.4413 109.546 53.4469C109.562 53.4526 109.575 53.4614 109.587 53.4727C109.599 53.4841 109.608 53.4978 109.614 53.5129C109.62 53.528 109.622 53.5441 109.622 53.5604V54.3217C109.622 54.3379 109.62 54.3541 109.614 54.3692C109.608 54.3843 109.599 54.398 109.587 54.4093C109.575 54.4207 109.562 54.4295 109.546 54.4351C109.531 54.4408 109.515 54.4432 109.499 54.4422V54.4494Z" fill="#221F1F"/>
<path d="M113.043 59.8124V55.5191C113.043 54.1892 113.912 53.3507 115.211 53.3507C116.51 53.3507 117.401 54.1988 117.401 55.5191V55.7118C117.402 55.7279 117.4 55.744 117.394 55.7591C117.388 55.7742 117.38 55.788 117.368 55.7994C117.357 55.8108 117.343 55.8196 117.328 55.8253C117.313 55.831 117.297 55.8333 117.281 55.8323L116.36 55.8805C116.344 55.8815 116.328 55.8791 116.313 55.8735C116.298 55.8678 116.284 55.859 116.273 55.8475C116.261 55.8361 116.252 55.8224 116.247 55.8073C116.241 55.7922 116.239 55.7761 116.24 55.76V55.4468C116.24 54.7818 115.828 54.3458 115.211 54.3458C114.594 54.3458 114.197 54.7818 114.197 55.4468V59.8967C114.197 60.5496 114.594 60.9953 115.211 60.9953C115.828 60.9953 116.24 60.5496 116.24 59.8967V59.5811C116.239 59.565 116.241 59.5489 116.247 59.5338C116.252 59.5187 116.261 59.505 116.273 59.4935C116.284 59.4821 116.298 59.4733 116.313 59.4676C116.328 59.462 116.344 59.4596 116.36 59.4606L117.281 59.5088C117.297 59.5078 117.313 59.5101 117.328 59.5158C117.343 59.5215 117.357 59.5303 117.368 59.5417C117.38 59.5531 117.388 59.5669 117.394 59.582C117.4 59.5971 117.402 59.6132 117.401 59.6293V59.8124C117.401 61.1423 116.531 62 115.211 62C113.891 62 113.043 61.1423 113.043 59.8124V59.8124Z" fill="#221F1F"/>
<path d="M121.774 59.8365V55.4998C121.774 54.8107 121.35 54.3385 120.709 54.3385C120.068 54.3385 119.668 54.8204 119.668 55.4998V59.8365C119.668 60.5255 120.08 60.9953 120.709 60.9953C121.338 60.9953 121.774 60.5255 121.774 59.8365ZM118.509 59.7859V55.5673C118.509 54.2253 119.391 53.3411 120.709 53.3411C122.027 53.3411 122.935 54.2253 122.935 55.5673V59.7859C122.935 61.1302 122.039 62 120.709 62C119.379 62 118.509 61.1302 118.509 59.7859V59.7859Z" fill="#221F1F"/>
<path d="M124.253 61.7832V53.5604C124.252 53.5443 124.254 53.5281 124.26 53.513C124.266 53.4979 124.275 53.4842 124.286 53.4728C124.297 53.4614 124.311 53.4526 124.326 53.4469C124.341 53.4412 124.357 53.4388 124.373 53.4399H125.282C125.312 53.4379 125.341 53.4464 125.365 53.464C125.39 53.4816 125.407 53.5072 125.414 53.5363L126.648 56.4732C126.65 56.4815 126.655 56.4888 126.661 56.4941C126.668 56.4993 126.677 56.5021 126.685 56.5021C126.694 56.5021 126.702 56.4993 126.709 56.4941C126.716 56.4888 126.72 56.4815 126.722 56.4732L127.98 53.5363C127.986 53.5067 128.004 53.4805 128.028 53.4628C128.052 53.445 128.083 53.4368 128.113 53.4399H129.031C129.047 53.4388 129.063 53.4412 129.078 53.4469C129.093 53.4526 129.107 53.4614 129.118 53.4728C129.13 53.4842 129.138 53.4979 129.144 53.513C129.15 53.5281 129.152 53.5443 129.151 53.5604V61.7832C129.152 61.7993 129.15 61.8154 129.144 61.8305C129.138 61.8456 129.13 61.8593 129.118 61.8707C129.107 61.8821 129.093 61.891 129.078 61.8966C129.063 61.9023 129.047 61.9047 129.031 61.9036H128.113C128.097 61.9047 128.08 61.9023 128.065 61.8966C128.05 61.891 128.036 61.8821 128.025 61.8707C128.014 61.8593 128.005 61.8456 127.999 61.8305C127.993 61.8154 127.991 61.7993 127.992 61.7832V56.3045C127.992 56.2563 127.954 56.2563 127.93 56.3045L126.807 58.6993C126.783 58.7596 126.747 58.7836 126.708 58.7836C126.682 58.7841 126.656 58.7762 126.634 58.761C126.612 58.7459 126.596 58.7243 126.588 58.6993L125.465 56.2901C125.441 56.2539 125.402 56.2539 125.402 56.3021V61.7928C125.403 61.8089 125.401 61.825 125.395 61.8401C125.39 61.8552 125.381 61.869 125.369 61.8804C125.358 61.8918 125.344 61.9006 125.329 61.9063C125.314 61.912 125.298 61.9143 125.282 61.9133H124.364C124.348 61.9143 124.332 61.912 124.316 61.9063C124.301 61.9006 124.288 61.8918 124.276 61.8804C124.265 61.869 124.256 61.8552 124.25 61.8401C124.245 61.825 124.242 61.8089 124.243 61.7928L124.253 61.7832Z" fill="#221F1F"/>
<path d="M133.77 55.8805C133.77 54.9866 133.321 54.4349 132.669 54.4349H131.772C131.76 54.436 131.748 54.4414 131.739 54.4502C131.731 54.459 131.725 54.4707 131.724 54.4831V57.2537C131.725 57.2662 131.731 57.2778 131.739 57.2866C131.748 57.2954 131.76 57.3008 131.772 57.3019H132.669C133.321 57.3019 133.77 56.7695 133.77 55.8853V55.8805ZM134.928 55.8564C134.928 57.2851 134.119 58.2271 132.909 58.2271H131.772C131.76 58.2282 131.748 58.2336 131.739 58.2424C131.731 58.2512 131.725 58.2629 131.724 58.2753V61.7832C131.725 61.7993 131.723 61.8154 131.717 61.8305C131.711 61.8456 131.703 61.8593 131.691 61.8707C131.68 61.8821 131.666 61.8909 131.651 61.8966C131.636 61.9023 131.62 61.9047 131.604 61.9036H130.686C130.67 61.9047 130.653 61.9023 130.638 61.8966C130.623 61.8909 130.61 61.8821 130.598 61.8707C130.587 61.8593 130.578 61.8456 130.572 61.8305C130.567 61.8154 130.564 61.7993 130.565 61.7832V53.5483C130.564 53.5322 130.567 53.5161 130.572 53.501C130.578 53.4859 130.587 53.4722 130.598 53.4607C130.61 53.4493 130.623 53.4405 130.638 53.4348C130.653 53.4292 130.67 53.4268 130.686 53.4278H132.854C134.1 53.4278 134.933 54.406 134.933 55.8564H134.928Z" fill="#221F1F"/>
<path d="M136.986 59.4366H138.581C138.605 59.4366 138.617 59.4125 138.617 59.3884L137.81 55.2541C137.81 55.2035 137.774 55.2035 137.762 55.2541L136.94 59.3884C136.94 59.4125 136.952 59.4366 136.976 59.4366H136.986ZM139.077 61.7952L138.812 60.4051C138.812 60.3786 138.776 60.3545 138.75 60.3545H136.803C136.779 60.3545 136.743 60.3786 136.743 60.4051L136.466 61.7952C136.464 61.8111 136.459 61.8265 136.452 61.8405C136.444 61.8546 136.434 61.867 136.422 61.8771C136.41 61.8872 136.395 61.8947 136.38 61.8993C136.365 61.9038 136.349 61.9053 136.333 61.9036H135.413C135.396 61.9051 135.379 61.9025 135.363 61.8959C135.348 61.8894 135.334 61.8791 135.323 61.866C135.313 61.853 135.305 61.8375 135.302 61.821C135.299 61.8044 135.3 61.7873 135.304 61.7711L137.106 53.5483C137.108 53.5325 137.113 53.5171 137.12 53.503C137.128 53.489 137.138 53.4766 137.15 53.4665C137.162 53.4564 137.177 53.4488 137.192 53.4443C137.207 53.4397 137.223 53.4382 137.239 53.4399H138.304C138.32 53.4382 138.336 53.4397 138.351 53.4443C138.366 53.4488 138.38 53.4564 138.393 53.4665C138.405 53.4766 138.415 53.489 138.423 53.503C138.43 53.5171 138.435 53.5325 138.436 53.5483L140.263 61.7711C140.267 61.7873 140.268 61.8044 140.265 61.821C140.261 61.8375 140.254 61.853 140.243 61.866C140.233 61.8791 140.219 61.8894 140.203 61.8959C140.188 61.9025 140.171 61.9051 140.154 61.9036H139.21C139.194 61.9053 139.178 61.9038 139.163 61.8993C139.147 61.8947 139.133 61.8872 139.121 61.8771C139.109 61.867 139.098 61.8546 139.091 61.8405C139.083 61.8265 139.079 61.8111 139.077 61.7952V61.7952Z" fill="#221F1F"/>
<path d="M141.388 61.7832V53.5603C141.387 53.5442 141.389 53.5281 141.395 53.513C141.4 53.4979 141.409 53.4842 141.421 53.4728C141.432 53.4614 141.446 53.4526 141.461 53.4469C141.476 53.4412 141.492 53.4388 141.508 53.4399H142.438C142.468 53.4379 142.498 53.4464 142.522 53.464C142.546 53.4816 142.563 53.5072 142.571 53.5363L144.724 58.868C144.724 58.9161 144.785 58.9041 144.785 58.8559V53.5555C144.784 53.5394 144.786 53.5233 144.792 53.5082C144.797 53.4931 144.806 53.4794 144.818 53.468C144.829 53.4566 144.843 53.4477 144.858 53.4421C144.873 53.4364 144.889 53.434 144.905 53.4351H145.811C145.827 53.434 145.843 53.4364 145.859 53.4421C145.874 53.4477 145.888 53.4565 145.899 53.4679C145.911 53.4793 145.92 53.4929 145.926 53.508C145.932 53.5231 145.935 53.5393 145.934 53.5555V61.7783C145.935 61.7946 145.932 61.8107 145.926 61.8258C145.92 61.8409 145.911 61.8546 145.899 61.866C145.888 61.8773 145.874 61.8861 145.859 61.8918C145.843 61.8974 145.827 61.8998 145.811 61.8988H144.869C144.839 61.9008 144.81 61.8923 144.785 61.8747C144.761 61.8571 144.744 61.8315 144.737 61.8024L142.585 56.4683C142.571 56.4201 142.522 56.4201 142.522 56.4683L142.534 61.7687C142.536 61.7848 142.533 61.8009 142.527 61.816C142.522 61.8311 142.513 61.8448 142.502 61.8563C142.49 61.8677 142.476 61.8765 142.461 61.8822C142.446 61.8878 142.43 61.8902 142.414 61.8892H141.508C141.492 61.8902 141.476 61.8878 141.461 61.8822C141.446 61.8765 141.432 61.8677 141.421 61.8563C141.409 61.8448 141.4 61.8311 141.395 61.816C141.389 61.8009 141.387 61.7848 141.388 61.7687V61.7832Z" fill="#221F1F"/>
<path d="M148.774 61.7711V58.3042C148.774 58.2921 148.774 58.256 148.774 58.2439L147.088 53.5652C147.061 53.4808 147.088 53.4326 147.182 53.4326H148.146C148.177 53.4326 148.207 53.4418 148.233 53.4589C148.258 53.4761 148.278 53.5005 148.29 53.529L149.319 56.8658C149.322 56.8732 149.327 56.8796 149.333 56.8841C149.34 56.8886 149.347 56.891 149.355 56.891C149.363 56.891 149.371 56.8886 149.377 56.8841C149.384 56.8796 149.388 56.8732 149.391 56.8658L150.42 53.529C150.432 53.5005 150.452 53.4761 150.478 53.4589C150.503 53.4418 150.534 53.4326 150.565 53.4326H151.528C151.613 53.4326 151.649 53.4808 151.625 53.5652L149.938 58.2439C149.938 58.256 149.938 58.2921 149.938 58.3042V61.7639C149.939 61.78 149.937 61.7961 149.931 61.8112C149.925 61.8263 149.917 61.84 149.905 61.8514C149.894 61.8628 149.88 61.8717 149.865 61.8774C149.85 61.883 149.834 61.8854 149.818 61.8843H148.893C148.876 61.8854 148.86 61.883 148.845 61.8774C148.83 61.8717 148.816 61.8628 148.805 61.8514C148.794 61.84 148.785 61.8263 148.779 61.8112C148.773 61.7961 148.771 61.78 148.772 61.7639L148.774 61.7711Z" fill="#221F1F"/>
<path d="M47.5492 59.4606C47.5492 57.3959 46.4121 57.4296 46.0266 57.4658L45.3737 57.5019V60.7592C45.3737 61.1014 45.882 61.3134 46.2145 61.3616C46.9084 61.3495 47.5492 60.8652 47.5492 59.4606V59.4606ZM45.9037 57.0514C46.6265 57.0514 47.2119 56.425 47.2119 55.4564C47.2119 54.2518 46.6 53.8061 45.9037 53.8061H45.3737V57.0514H45.9037ZM42.2898 61.7254C42.8849 61.3471 42.9741 61.217 42.9741 60.3786V54.8108C42.9741 53.9603 42.8849 53.8471 42.2898 53.464V53.37H46.9277C49.0358 53.37 49.6429 54.5265 49.6429 55.283C49.6429 56.4153 48.4383 56.8876 47.424 57.0056V57.0297C48.6286 57.1718 50.1199 57.7862 50.1199 59.3908C50.1199 60.9953 48.5298 61.8 46.5181 61.8H42.2826V61.7061L42.2898 61.7254Z" fill="#EB2027"/>
<path d="M50.6957 61.7157C51.2691 61.3375 51.3535 61.2074 51.3535 60.3689V54.8108C51.3535 53.9603 51.2691 53.8471 50.6957 53.464V53.37H54.5289V53.464C53.9675 53.8422 53.8736 53.9603 53.8736 54.8108V60.3689C53.8736 61.2074 53.9675 61.3326 54.5289 61.7157V61.8097H50.6957V61.7157V61.7157Z" fill="#EB2027"/>
<path d="M54.8806 57.6778C54.8806 54.4927 56.9381 53.2038 59.5546 53.2038C60.6712 53.1896 61.7794 53.3985 62.8143 53.8181L62.8023 56.3454H62.6409C61.788 54.8999 60.4725 53.6302 59.6365 53.6302C58.6728 53.6302 57.5163 54.5024 57.5163 57.6079C57.5163 60.7134 58.6342 61.5157 59.6124 61.5157C59.9449 61.5157 60.4219 61.3615 60.4219 60.5111V59.0824C60.4219 58.1982 60.0533 57.5959 59.1956 57.5597V57.4079H62.8095V61.8362H62.7011C62.3459 61.7962 61.9887 61.7777 61.6314 61.7807C60.7448 61.7807 60.1376 61.9759 58.8246 61.9759C57.432 61.9759 54.8758 61.2531 54.8758 57.6778H54.8806Z" fill="#EB2027"/>
</g>
<defs>
<clipPath id="clip0_1938_6167">
<rect width="173" height="62" fill="white"/>
</clipPath>
</defs>
</svg>
