<svg width="178" height="62" viewBox="0 0 178 62" fill="none" xmlns="http://www.w3.org/2000/svg">
<g clip-path="url(#clip0_1993_5073)">
<path d="M28.2947 61.8568C12.4605 60.4723 0 47.1525 0 30.9682C0 14.7839 12.4605 1.46407 28.2947 0.0795746C16.7254 5.55391 8.70483 17.346 8.70483 30.9682C8.70483 44.5904 16.7254 56.3825 28.2947 61.8568Z" fill="#5BC1DC"/>
<path d="M73.8716 30.9841C73.8716 47.1684 61.4112 60.4882 45.5929 61.8727C44.7017 61.9523 43.7787 62 42.8716 62C42.3147 62 41.7577 61.9841 41.2007 61.9523C39.7525 61.8727 38.3362 61.6976 36.9517 61.4271C22.6771 58.6581 11.8716 46.0703 11.8716 31C11.8716 15.9297 22.6771 3.34189 36.9517 0.572895C38.3362 0.302361 39.7525 0.127311 41.2007 0.0477418C41.7577 0.0159142 42.3147 0 42.8716 0C43.7946 0 44.7017 0.0477418 45.5929 0.127311C61.4112 1.47998 73.8716 14.7998 73.8716 30.9841Z" fill="#00A5D9"/>
<path d="M32.8301 32.4163V9.40503H37.9225V32.4163H32.8301Z" fill="white"/>
<path d="M47.8685 31.0955C47.2638 31.6684 46.6432 32.0821 46.0385 32.3527C45.4337 32.6232 44.7813 32.7664 44.097 32.7664C42.8716 32.7664 41.9168 32.3686 41.2007 31.5729C40.4846 30.7772 40.1345 29.6951 40.1345 28.3424V26.8783C40.1345 25.6689 40.4209 24.6663 41.0097 23.8388C41.5826 23.0272 42.4897 22.3429 43.731 21.7859C43.9538 21.6905 44.272 21.5472 44.6858 21.3722C46.6591 20.5288 47.6458 19.6694 47.6458 18.7782V18.1258C47.6458 17.7916 47.5344 17.521 47.3116 17.2983C47.0888 17.0755 46.8023 16.9482 46.4681 16.9482C46.1021 16.9482 45.7998 17.1073 45.577 17.4256C45.3542 17.7438 45.2428 18.1735 45.2428 18.7305V19.8763H40.4846V18.6987C40.4846 17.0914 41.0256 15.8501 42.0919 14.9748C43.1581 14.0837 44.6699 13.654 46.6114 13.654C48.7597 13.654 50.3034 14.0837 51.2741 14.9271C52.2448 15.7705 52.7222 17.1709 52.7222 19.1124V32.4163H47.964L47.8685 31.0955ZM47.6458 23.2182C46.6591 23.7274 46.0225 24.1889 45.7202 24.5708C45.4178 24.9528 45.2746 25.4938 45.2746 26.1781V28.04C45.2746 28.7243 45.3383 29.1858 45.4815 29.4086C45.6247 29.6314 45.8634 29.7428 46.1976 29.7428C46.6591 29.7428 47.0092 29.5519 47.2638 29.154C47.5184 28.7562 47.6458 28.1833 47.6458 27.4512V23.2182Z" fill="white"/>
<path d="M57.5441 32.4163L53.868 13.9882H59.1673L60.0585 22.0406C60.1699 23.1386 60.2813 24.173 60.3768 25.1437C60.4723 26.1145 60.5518 26.9579 60.6314 27.674C60.7269 26.576 60.8064 25.5416 60.886 24.5549C60.9656 23.5683 61.0451 22.7089 61.1247 21.961L62.0159 13.9882H66.7423L67.4584 21.8337C67.4743 21.9132 67.538 22.5975 67.6494 23.8865C67.7607 25.1756 67.8721 26.4327 67.9676 27.674C68.1904 25.6689 68.3973 23.7752 68.6042 21.9928C68.6201 21.8496 68.636 21.77 68.636 21.7223L69.6068 13.9882H74.8265L71.0867 32.4163H65.6442L64.8167 25.3665C64.6417 23.8229 64.5143 22.6771 64.4348 21.9292C64.3552 21.1812 64.2916 20.481 64.2438 19.8285C64.212 20.1309 64.1802 20.5765 64.1324 21.1653C63.9574 23.0113 63.8141 24.3799 63.7027 25.2392L62.8593 32.4163H57.5441Z" fill="white"/>
<path d="M75.9882 32.4163V9.40503H81.0806V32.4163H75.9882Z" fill="#00A5D9"/>
<path d="M83.8018 12.9697V9.40503H88.8942V12.9697H83.8018ZM83.8018 32.4163V13.9882H88.8942V32.4163H83.8018Z" fill="#00A5D9"/>
<path d="M91.5519 32.4163V13.9882H96.3897V16.1843C96.8353 15.3727 97.4081 14.7521 98.0924 14.3065C98.7926 13.8768 99.5565 13.654 100.384 13.654C101.625 13.654 102.548 14.02 103.153 14.768C103.758 15.5159 104.06 16.6458 104.06 18.1576V32.4163H98.9677V19.6376C98.9677 19.1602 98.8722 18.7942 98.6972 18.5554C98.5221 18.3167 98.2516 18.1894 97.9015 18.1894C97.4559 18.1894 97.1376 18.3486 96.9307 18.6828C96.7238 19.0169 96.6284 19.5739 96.6284 20.3696V32.4004H91.5519V32.4163Z" fill="#00A5D9"/>
<path d="M113.799 28.3583C113.354 29.0585 112.813 29.5837 112.192 29.9497C111.555 30.3157 110.855 30.4908 110.075 30.4908C108.834 30.4908 107.895 30.1088 107.291 29.3609C106.67 28.6129 106.368 27.4831 106.368 25.9713V18.1576C106.368 16.6458 106.67 15.5318 107.291 14.7839C107.911 14.0359 108.834 13.654 110.075 13.654C110.887 13.654 111.635 13.8609 112.319 14.2746C113.004 14.6884 113.561 15.2931 114.006 16.057V13.9882H118.924V29.6951C118.924 31.7957 118.414 33.3234 117.38 34.2941C116.361 35.2649 114.738 35.7423 112.542 35.7423C110.664 35.7423 109.216 35.3922 108.214 34.7079C107.211 34.0077 106.702 33.0051 106.67 31.6843H111.524V31.7639C111.524 32.0981 111.603 32.3527 111.778 32.5277C111.937 32.7028 112.176 32.7983 112.478 32.7983C112.972 32.7983 113.306 32.6232 113.513 32.289C113.72 31.9548 113.815 31.3501 113.815 30.4908V28.3583H113.799ZM113.799 20.2105C113.799 19.0647 113.704 18.2849 113.529 17.903C113.354 17.5051 113.035 17.3142 112.606 17.3142C112.256 17.3142 111.985 17.4256 111.81 17.6643C111.635 17.903 111.54 18.2531 111.54 18.7146V25.4302C111.54 25.8917 111.635 26.2577 111.81 26.4964C111.985 26.7351 112.256 26.8465 112.606 26.8465C113.035 26.8465 113.338 26.6555 113.529 26.2577C113.704 25.8599 113.799 25.096 113.799 23.9502V20.2105Z" fill="#00A5D9"/>
<path d="M134.201 13.9882V32.4163H129.363V30.2202C128.917 31.0318 128.344 31.6684 127.66 32.098C126.96 32.5436 126.196 32.7505 125.369 32.7505C124.127 32.7505 123.204 32.3686 122.584 31.6047C121.963 30.8409 121.661 29.711 121.661 28.1992V13.9723H126.785V26.7669C126.785 27.2284 126.88 27.5785 127.055 27.8172C127.23 28.0559 127.501 28.1673 127.851 28.1673C128.297 28.1673 128.631 28.0082 128.822 27.6899C129.013 27.3717 129.124 26.8147 129.124 26.019V13.9882H134.201V13.9882Z" fill="#00A5D9"/>
<path d="M136.858 12.9697V9.40503H141.951V12.9697H136.858ZM136.858 32.4163V13.9882H141.951V32.4163H136.858Z" fill="#00A5D9"/>
<path d="M143.94 26.4328H148.587V27.499C148.587 28.0719 148.682 28.5175 148.889 28.8198C149.08 29.1222 149.367 29.2813 149.748 29.2813C150.099 29.2813 150.369 29.154 150.576 28.8835C150.783 28.6288 150.894 28.2787 150.894 27.8332C150.894 27.2125 150.321 26.4646 149.191 25.5734L149.001 25.4143C148.794 25.2551 148.491 25.0323 148.109 24.73C145.452 22.6771 144.115 20.7197 144.115 18.8578C144.115 17.2505 144.656 15.9774 145.722 15.0385C146.804 14.0837 148.237 13.6222 150.067 13.6222C151.817 13.6222 153.17 14.0518 154.125 14.9271C155.08 15.8024 155.573 17.0277 155.573 18.6032V19.4307H150.958V18.635C150.958 18.0621 150.878 17.6484 150.703 17.3937C150.528 17.1391 150.258 16.9959 149.876 16.9959C149.558 16.9959 149.303 17.1073 149.096 17.346C148.889 17.5688 148.778 17.8552 148.778 18.2053C148.778 18.8578 149.589 19.7967 151.197 20.9902C151.69 21.3722 152.088 21.6586 152.358 21.8814C153.695 22.9158 154.602 23.8229 155.095 24.6345C155.589 25.4461 155.828 26.385 155.828 27.4671C155.828 29.0903 155.271 30.3794 154.172 31.3183C153.074 32.2731 151.563 32.7505 149.669 32.7505C147.887 32.7505 146.502 32.3049 145.484 31.3978C144.465 30.4908 143.972 29.2495 143.972 27.6581V26.4328H143.94Z" fill="#00A5D9"/>
<path d="M164.246 28.963V32.5755C163.912 32.6391 163.577 32.6709 163.243 32.7028C162.909 32.7346 162.559 32.7505 162.225 32.7505C160.554 32.7505 159.408 32.4163 158.787 31.7479C158.167 31.0796 157.849 29.6155 157.849 27.3557V17.8075H156.575V14.3065H157.849V10.4553H162.861V14.3065H164.262V17.8075H162.782V27.9764C162.782 28.2947 162.893 28.5334 163.132 28.6925C163.355 28.8516 163.705 28.9312 164.134 28.9312H164.246V28.963Z" fill="#00A5D9"/>
<path d="M165.264 26.4328H169.911V27.499C169.911 28.0719 170.007 28.5175 170.214 28.8198C170.405 29.1222 170.691 29.2813 171.073 29.2813C171.423 29.2813 171.694 29.154 171.9 28.8835C172.107 28.6288 172.219 28.2787 172.219 27.8332C172.219 27.2125 171.646 26.4646 170.516 25.5734L170.325 25.4143C170.118 25.2551 169.816 25.0323 169.434 24.73C166.776 22.6771 165.439 20.7197 165.439 18.8578C165.439 17.2505 165.981 15.9774 167.047 15.0385C168.129 14.0837 169.561 13.6222 171.391 13.6222C173.142 13.6222 174.494 14.0518 175.449 14.9271C176.404 15.8024 176.897 17.0277 176.897 18.6032V19.4307H172.282V18.635C172.282 18.0621 172.203 17.6484 172.028 17.3937C171.853 17.1391 171.582 16.9959 171.2 16.9959C170.882 16.9959 170.627 17.1073 170.42 17.346C170.214 17.5688 170.102 17.8552 170.102 18.2053C170.102 18.8578 170.914 19.7967 172.521 20.9902C173.014 21.3722 173.412 21.6586 173.683 21.8814C175.02 22.9158 175.927 23.8229 176.42 24.6345C176.913 25.4461 177.152 26.385 177.152 27.4671C177.152 29.0903 176.595 30.3794 175.497 31.3183C174.399 32.2731 172.887 32.7505 170.993 32.7505C169.211 32.7505 167.827 32.3049 166.808 31.3978C165.79 30.4908 165.296 29.2495 165.296 27.6581V26.4328H165.264Z" fill="#00A5D9"/>
<path d="M86.4595 41.4713C86.4595 41.8691 86.3322 42.1874 86.0934 42.4261C85.8547 42.6648 85.5206 42.7762 85.1227 42.7762C84.9317 42.7762 84.7567 42.7444 84.5816 42.6648C84.4066 42.5852 84.2793 42.4897 84.1679 42.3465V42.7125H83.7859V37.7156H84.1679V39.3866C84.4066 39.1001 84.7249 38.9569 85.1068 38.9569C85.5205 38.9569 85.8388 39.0683 86.0775 39.307C86.3162 39.5457 86.4276 39.864 86.4276 40.2618V41.4713H86.4595ZM86.0775 40.2618C86.0775 39.9754 85.998 39.7367 85.8388 39.5775C85.6797 39.4184 85.441 39.3388 85.1386 39.3388C84.8363 39.3388 84.6135 39.4184 84.4384 39.5775C84.2634 39.7367 84.1838 39.9754 84.1838 40.2618V41.4713C84.1838 41.7736 84.2634 41.9964 84.4225 42.1555C84.5816 42.3147 84.8203 42.3943 85.1227 42.3943C85.4251 42.3943 85.6479 42.3147 85.8229 42.1555C85.982 41.9964 86.0616 41.7577 86.0616 41.4713V40.2618H86.0775Z" fill="black"/>
<path d="M90.1833 40.962H87.8599V41.4713C87.8599 41.6463 87.8917 41.8054 87.9554 41.9487C88.019 42.0919 88.1304 42.2033 88.2737 42.2829C88.4169 42.3624 88.6078 42.4102 88.8306 42.4102C89.1012 42.4102 89.324 42.3306 89.499 42.1874C89.6741 42.0442 89.7695 41.8373 89.7855 41.5826H90.1674C90.1515 41.7577 90.1196 41.9168 90.0719 42.0442C90.0083 42.1874 89.9446 42.2988 89.8491 42.3943C89.7536 42.4897 89.6263 42.5852 89.4513 42.6648C89.2762 42.7444 89.0693 42.7762 88.8306 42.7762C88.4169 42.7762 88.0827 42.6648 87.844 42.4261C87.5894 42.1874 87.478 41.8691 87.478 41.4713V40.2618C87.478 39.864 87.6053 39.5616 87.8599 39.3229C88.1145 39.0842 88.4328 38.9728 88.8465 38.9728C88.9898 38.9728 89.1489 38.9887 89.308 39.0364C89.4672 39.0842 89.6104 39.1478 89.7377 39.2433C89.865 39.3388 89.9764 39.482 90.056 39.6571C90.1356 39.8321 90.1833 40.039 90.1833 40.2936V40.962ZM89.8014 40.2618C89.8014 40.0868 89.7695 39.9276 89.7059 39.8003C89.6422 39.6571 89.5308 39.5457 89.3876 39.4661C89.2444 39.3866 89.0534 39.3547 88.8306 39.3547C88.5283 39.3547 88.2896 39.4343 88.1145 39.5934C87.9395 39.7526 87.8599 39.9913 87.8599 40.2777V40.596H89.8014V40.2618Z" fill="black"/>
<path d="M92.5545 38.9569C92.9523 38.9569 93.2706 39.0683 93.5093 39.2911C93.748 39.5139 93.8753 39.8162 93.8913 40.1822H93.5093C93.4934 40.0231 93.4616 39.8799 93.3979 39.7526C93.3343 39.6253 93.2229 39.5298 93.0797 39.4502C92.9364 39.3706 92.7614 39.3388 92.5545 39.3388C92.2521 39.3388 92.0134 39.4184 91.8384 39.5775C91.6633 39.7367 91.5838 39.9754 91.5838 40.2618V41.4713C91.5838 41.6463 91.6156 41.8054 91.6792 41.9487C91.7429 42.0919 91.8543 42.2033 91.9975 42.2829C92.1407 42.3624 92.3317 42.4102 92.5545 42.4102C92.825 42.4102 93.0478 42.3306 93.2229 42.1874C93.3979 42.0442 93.4775 41.8373 93.5093 41.5826H93.9072C93.8912 41.7577 93.8594 41.9168 93.7958 42.0442C93.7321 42.1874 93.6525 42.2988 93.5571 42.3943C93.4616 42.4897 93.3343 42.5852 93.1592 42.6648C92.9842 42.7444 92.7773 42.7762 92.5386 42.7762C92.1248 42.7762 91.7906 42.6648 91.5519 42.4261C91.2973 42.1874 91.1859 41.8691 91.1859 41.4713V40.2618C91.1859 39.864 91.3132 39.5616 91.5678 39.3229C91.8225 39.0683 92.1566 38.9569 92.5545 38.9569Z" fill="black"/>
<path d="M97.3922 42.7125H97.0103V42.2669C96.8989 42.4261 96.7398 42.5534 96.5488 42.633C96.3578 42.7284 96.135 42.7603 95.8963 42.7603C95.7372 42.7603 95.594 42.7443 95.4507 42.6966C95.3075 42.6489 95.1802 42.5852 95.0688 42.4738C94.9574 42.3783 94.8619 42.251 94.7983 42.1078C94.7346 41.9646 94.6869 41.7895 94.6869 41.5826C94.6869 41.2644 94.7983 41.0098 95.0052 40.8347C95.228 40.6596 95.4985 40.5642 95.8327 40.5642H96.9944V40.1186C96.9944 39.9276 96.9626 39.7844 96.8989 39.6571C96.8353 39.5298 96.7239 39.4502 96.5965 39.3865C96.4692 39.3229 96.3101 39.307 96.1191 39.307C96.0077 39.307 95.8804 39.3229 95.769 39.3547C95.6417 39.3865 95.5462 39.4343 95.4667 39.4979C95.3871 39.5616 95.3394 39.6412 95.2916 39.7367C95.2439 39.8321 95.228 39.9435 95.228 40.0708H94.846C94.846 39.8799 94.8779 39.7048 94.9574 39.5457C95.037 39.4025 95.1325 39.2751 95.2598 39.1956C95.3871 39.1001 95.5303 39.0364 95.6735 38.9887C95.8327 38.941 95.9759 38.925 96.1032 38.925C96.2464 38.925 96.4056 38.941 96.5647 38.9887C96.7238 39.0364 96.8512 39.1001 96.9785 39.1956C97.1058 39.2911 97.2013 39.4184 97.2649 39.5616C97.3286 39.7207 97.3763 39.8958 97.3763 40.1027V42.7125H97.3922ZM97.0103 40.9461H95.8645C95.6099 40.9461 95.4189 40.9938 95.2916 41.1052C95.1484 41.2166 95.0847 41.3758 95.0847 41.5986C95.0847 41.8532 95.1643 42.0601 95.3075 42.1874C95.4508 42.3306 95.6895 42.3942 95.9918 42.3942C96.1828 42.3942 96.3737 42.3465 96.5488 42.251C96.7239 42.1555 96.8512 42.0441 96.9148 41.9009C96.9785 41.7577 97.0262 41.6145 97.0262 41.4872V40.9461H97.0103Z" fill="black"/>
<path d="M100.782 42.7125V42.3465C100.559 42.6489 100.241 42.7921 99.8271 42.7921C99.4133 42.7921 99.095 42.6807 98.8563 42.442C98.6176 42.2033 98.4903 41.885 98.4903 41.4872V39.0364H98.8722V41.4872C98.8722 41.5986 98.8881 41.7099 98.92 41.8213C98.9518 41.9327 98.9995 42.0441 99.0632 42.1237C99.1268 42.2192 99.2223 42.2828 99.3496 42.3465C99.477 42.4102 99.6361 42.4261 99.8111 42.4261C99.9384 42.4261 100.082 42.3942 100.225 42.3465C100.368 42.2988 100.495 42.2033 100.607 42.0601C100.718 41.9168 100.766 41.7418 100.766 41.5349V39.0364H101.148V42.7284H100.782V42.7125Z" fill="black"/>
<path d="M104.824 41.6463C104.824 41.885 104.776 42.0919 104.665 42.251C104.553 42.4102 104.41 42.5375 104.203 42.633C103.996 42.7284 103.758 42.7603 103.471 42.7603C103.28 42.7603 103.105 42.7284 102.946 42.6807C102.771 42.633 102.628 42.5534 102.516 42.442C102.389 42.3465 102.294 42.2192 102.23 42.076C102.166 41.9328 102.135 41.7736 102.135 41.5986H102.516C102.516 41.8373 102.596 42.0282 102.771 42.1715C102.946 42.3147 103.169 42.3783 103.471 42.3783C104.124 42.3783 104.442 42.1237 104.442 41.6304C104.442 41.3758 104.283 41.2007 103.949 41.1052C103.806 41.0575 103.615 41.0098 103.376 40.962C103.137 40.9143 103.01 40.8824 102.978 40.8824C102.819 40.8506 102.676 40.7711 102.548 40.6756C102.421 40.5801 102.326 40.4687 102.278 40.3414C102.23 40.2141 102.198 40.1027 102.198 40.0072C102.198 39.7844 102.262 39.5934 102.373 39.4343C102.485 39.2752 102.644 39.1478 102.851 39.0842C103.058 39.0205 103.264 38.9728 103.471 38.9728C103.869 38.9728 104.187 39.0683 104.426 39.2752C104.665 39.482 104.792 39.7526 104.792 40.1027H104.41C104.41 39.864 104.331 39.6889 104.172 39.5457C104.012 39.4025 103.774 39.3388 103.455 39.3388C103.169 39.3388 102.962 39.4025 102.803 39.5139C102.644 39.6253 102.58 39.7844 102.58 40.0072C102.58 40.1345 102.628 40.23 102.723 40.3255C102.819 40.4209 102.93 40.4846 103.073 40.5164C103.105 40.5323 103.233 40.5483 103.44 40.596C103.646 40.6437 103.79 40.6756 103.885 40.7074C103.981 40.7233 104.044 40.7392 104.06 40.7551C104.283 40.8188 104.474 40.9302 104.617 41.0893C104.76 41.2326 104.824 41.4235 104.824 41.6463Z" fill="black"/>
<path d="M108.42 40.962H106.097V41.4713C106.097 41.6463 106.129 41.8054 106.193 41.9487C106.256 42.0919 106.368 42.2033 106.511 42.2829C106.654 42.3624 106.845 42.4102 107.068 42.4102C107.338 42.4102 107.561 42.3306 107.736 42.1874C107.911 42.0442 108.007 41.8373 108.023 41.5826H108.405C108.389 41.7577 108.357 41.9168 108.309 42.0442C108.245 42.1874 108.182 42.2988 108.086 42.3943C107.991 42.4897 107.863 42.5852 107.688 42.6648C107.513 42.7444 107.307 42.7762 107.068 42.7762C106.654 42.7762 106.32 42.6648 106.081 42.4261C105.827 42.1874 105.715 41.8691 105.715 41.4713V40.2618C105.715 39.864 105.842 39.5616 106.097 39.3229C106.352 39.0842 106.67 38.9728 107.084 38.9728C107.227 38.9728 107.386 38.9887 107.545 39.0364C107.704 39.0842 107.848 39.1478 107.975 39.2433C108.102 39.3388 108.214 39.482 108.293 39.6571C108.373 39.8321 108.42 40.039 108.42 40.2936V40.962V40.962ZM108.023 40.2618C108.023 40.0868 107.991 39.9276 107.927 39.8003C107.863 39.6571 107.752 39.5457 107.609 39.4661C107.466 39.3866 107.275 39.3547 107.052 39.3547C106.75 39.3547 106.511 39.4343 106.336 39.5934C106.161 39.7526 106.081 39.9913 106.081 40.2777V40.596H108.023V40.2618V40.2618Z" fill="black"/>
<path d="M114.197 42.7125H113.688L112.924 39.5616L112.16 42.7125H111.651L110.776 39.0205H111.174L111.921 42.3465L112.733 39.0205H113.131L113.958 42.3465L114.69 39.0205H115.088L114.197 42.7125Z" fill="black"/>
<path d="M118.589 41.4713C118.589 41.8691 118.462 42.1874 118.223 42.4261C117.969 42.6648 117.65 42.7762 117.237 42.7762C116.823 42.7762 116.489 42.6648 116.25 42.4261C115.995 42.1874 115.884 41.8691 115.884 41.4713V40.2618C115.884 39.864 116.011 39.5616 116.266 39.3229C116.521 39.0842 116.839 38.9728 117.253 38.9728C117.396 38.9728 117.555 38.9887 117.714 39.0364C117.873 39.0842 118.016 39.1478 118.144 39.2433C118.271 39.3388 118.383 39.482 118.478 39.6571C118.573 39.8321 118.605 40.039 118.605 40.2936V41.4713H118.589ZM118.192 40.2618C118.192 40.0868 118.16 39.9435 118.096 39.8003C118.032 39.6571 117.921 39.5457 117.778 39.4661C117.635 39.3866 117.444 39.3547 117.221 39.3547C116.918 39.3547 116.68 39.4343 116.505 39.5934C116.33 39.7526 116.25 39.9913 116.25 40.2777V41.4872C116.25 41.6622 116.282 41.8214 116.346 41.9646C116.409 42.1078 116.521 42.2192 116.664 42.2988C116.807 42.3783 116.998 42.4261 117.221 42.4261C117.523 42.4261 117.762 42.3465 117.921 42.1715C118.096 42.0123 118.176 41.7736 118.176 41.4872V40.2618H118.192Z" fill="black"/>
<path d="M120.817 39.3866C120.674 39.3866 120.563 39.4184 120.435 39.498C120.308 39.5775 120.213 39.6889 120.149 39.8162C120.085 39.9594 120.038 40.1186 120.038 40.3255V42.6966H119.656V39.0046H120.038V39.4661C120.117 39.307 120.228 39.1956 120.372 39.116C120.515 39.0364 120.658 39.0046 120.801 39.0046H121.024V39.3866H120.817V39.3866Z" fill="black"/>
<path d="M121.788 40.2618C121.788 39.864 121.915 39.5457 122.154 39.307C122.393 39.0683 122.711 38.9569 123.125 38.9569C123.523 38.9569 123.841 39.1001 124.08 39.3866V37.7156H124.462V42.7125H124.08V42.3465C123.984 42.4897 123.841 42.6011 123.682 42.6648C123.507 42.7444 123.332 42.7762 123.125 42.7762C122.727 42.7762 122.409 42.6648 122.154 42.4261C121.915 42.1874 121.788 41.8691 121.788 41.4713V40.2618ZM122.17 41.4713C122.17 41.7577 122.25 41.9964 122.425 42.1555C122.584 42.3147 122.822 42.3943 123.125 42.3943C123.268 42.3943 123.395 42.3783 123.491 42.3465C123.602 42.3147 123.698 42.2669 123.777 42.2033C123.857 42.1396 123.936 42.0441 123.984 41.9168C124.048 41.7895 124.064 41.6463 124.064 41.4713V40.2618C124.064 39.9754 123.984 39.7367 123.809 39.5775C123.634 39.4184 123.411 39.3388 123.109 39.3388C122.807 39.3388 122.568 39.4184 122.409 39.5775C122.25 39.7367 122.17 39.9754 122.17 40.2618V41.4713V41.4713Z" fill="black"/>
<path d="M128.106 41.6463C128.106 41.885 128.058 42.0919 127.947 42.251C127.835 42.4102 127.692 42.5375 127.485 42.633C127.278 42.7284 127.04 42.7603 126.753 42.7603C126.562 42.7603 126.387 42.7284 126.228 42.6807C126.053 42.633 125.91 42.5534 125.798 42.442C125.671 42.3465 125.576 42.2192 125.512 42.076C125.448 41.9328 125.416 41.7736 125.416 41.5986H125.798C125.798 41.8373 125.878 42.0282 126.053 42.1715C126.228 42.3147 126.451 42.3783 126.753 42.3783C127.406 42.3783 127.724 42.1237 127.724 41.6304C127.724 41.3758 127.565 41.2007 127.231 41.1052C127.087 41.0575 126.896 41.0098 126.658 40.962C126.419 40.9143 126.292 40.8824 126.26 40.8824C126.101 40.8506 125.957 40.7711 125.83 40.6756C125.703 40.5801 125.607 40.4687 125.56 40.3414C125.512 40.2141 125.48 40.1027 125.48 40.0072C125.48 39.7844 125.544 39.5934 125.655 39.4343C125.766 39.2752 125.926 39.1478 126.133 39.0842C126.339 39.0205 126.546 38.9728 126.753 38.9728C127.151 38.9728 127.469 39.0683 127.708 39.2752C127.947 39.482 128.074 39.7526 128.074 40.1027H127.692C127.692 39.864 127.612 39.6889 127.453 39.5457C127.294 39.4025 127.056 39.3388 126.737 39.3388C126.451 39.3388 126.244 39.4025 126.085 39.5139C125.926 39.6253 125.862 39.7844 125.862 40.0072C125.862 40.1345 125.91 40.23 126.005 40.3255C126.101 40.4209 126.212 40.4846 126.355 40.5164C126.387 40.5323 126.514 40.5483 126.721 40.596C126.928 40.6437 127.071 40.6756 127.167 40.7074C127.262 40.7233 127.326 40.7392 127.342 40.7551C127.565 40.8188 127.756 40.9302 127.899 41.0893C128.042 41.2326 128.106 41.4235 128.106 41.6463Z" fill="black"/>
<path d="M131.893 38.9569C132.291 38.9569 132.609 39.0683 132.848 39.2911C133.087 39.5139 133.214 39.8162 133.23 40.1822H132.848C132.832 40.0231 132.8 39.8799 132.737 39.7526C132.673 39.6253 132.562 39.5298 132.418 39.4502C132.275 39.3706 132.1 39.3388 131.893 39.3388C131.591 39.3388 131.352 39.4184 131.177 39.5775C131.002 39.7367 130.923 39.9754 130.923 40.2618V41.4713C130.923 41.6463 130.954 41.8054 131.018 41.9487C131.082 42.0919 131.193 42.2033 131.336 42.2829C131.48 42.3624 131.671 42.4102 131.893 42.4102C132.164 42.4102 132.387 42.3306 132.562 42.1874C132.737 42.0442 132.816 41.8373 132.848 41.5826H133.246C133.23 41.7577 133.198 41.9168 133.135 42.0442C133.071 42.1874 132.991 42.2988 132.896 42.3943C132.8 42.4897 132.673 42.5852 132.498 42.6648C132.323 42.7444 132.116 42.7762 131.877 42.7762C131.464 42.7762 131.129 42.6648 130.891 42.4261C130.636 42.1874 130.525 41.8691 130.525 41.4713V40.2618C130.525 39.864 130.652 39.5616 130.907 39.3229C131.161 39.0683 131.495 38.9569 131.893 38.9569Z" fill="black"/>
<path d="M136.476 42.7125V40.2618C136.476 40.0868 136.445 39.9276 136.413 39.7844C136.365 39.6412 136.27 39.5457 136.142 39.4502C136.015 39.3706 135.824 39.3388 135.601 39.3388C135.315 39.3388 135.076 39.4184 134.885 39.5934C134.678 39.7685 134.583 39.9913 134.583 40.2459V42.7125H134.201V37.7156H134.583V39.4661C134.694 39.2911 134.837 39.1797 135.028 39.0842C135.219 39.0046 135.41 38.9569 135.617 38.9569C136.031 38.9569 136.333 39.0683 136.556 39.307C136.779 39.5298 136.874 39.864 136.874 40.2618V42.7125H136.476V42.7125Z" fill="black"/>
<path d="M140.519 42.7125H140.137V42.2669C140.025 42.4261 139.866 42.5534 139.675 42.633C139.484 42.7284 139.261 42.7603 139.023 42.7603C138.864 42.7603 138.72 42.7443 138.577 42.6966C138.434 42.6489 138.307 42.5852 138.195 42.4738C138.084 42.3783 137.988 42.251 137.925 42.1078C137.861 41.9646 137.813 41.7895 137.813 41.5826C137.813 41.2644 137.925 41.0098 138.132 40.8347C138.338 40.6596 138.625 40.5642 138.959 40.5642H140.121V40.1186C140.121 39.9276 140.089 39.7844 140.025 39.6571C139.962 39.5298 139.85 39.4502 139.723 39.3865C139.596 39.3229 139.436 39.307 139.245 39.307C139.134 39.307 139.007 39.3229 138.895 39.3547C138.768 39.3865 138.673 39.4343 138.593 39.4979C138.513 39.5616 138.466 39.6412 138.418 39.7367C138.37 39.8321 138.354 39.9435 138.354 40.0708H137.972C137.972 39.8799 138.004 39.7048 138.084 39.5457C138.163 39.4025 138.259 39.2751 138.386 39.1956C138.513 39.1001 138.657 39.0364 138.8 38.9887C138.959 38.941 139.102 38.925 139.23 38.925C139.373 38.925 139.532 38.941 139.691 38.9887C139.85 39.0364 139.978 39.1001 140.105 39.1956C140.232 39.2911 140.328 39.4184 140.391 39.5616C140.455 39.7207 140.503 39.8958 140.503 40.1027V42.7125H140.519ZM140.137 40.9461H138.991C138.736 40.9461 138.545 40.9938 138.418 41.1052C138.275 41.2166 138.211 41.3758 138.211 41.5986C138.211 41.8532 138.291 42.0601 138.434 42.1874C138.577 42.3306 138.816 42.3942 139.118 42.3942C139.309 42.3942 139.5 42.3465 139.675 42.251C139.85 42.1555 139.978 42.0441 140.041 41.9009C140.105 41.7577 140.153 41.6145 140.153 41.4872V40.9461H140.137Z" fill="black"/>
<path d="M143.94 42.7125V40.2618C143.94 40.0868 143.908 39.9276 143.876 39.7844C143.829 39.6412 143.733 39.5457 143.606 39.4502C143.478 39.3706 143.288 39.3388 143.065 39.3388C142.778 39.3388 142.54 39.4184 142.349 39.5934C142.142 39.7685 142.046 39.9913 142.046 40.2459V42.7125H141.664V39.0205H142.046V39.4661C142.158 39.2911 142.317 39.1638 142.492 39.0842C142.667 39.0046 142.858 38.9728 143.065 38.9728C143.478 38.9728 143.781 39.0842 144.004 39.3229C144.226 39.5457 144.322 39.8799 144.322 40.2777V42.7284H143.94V42.7125Z" fill="black"/>
<path d="M147.664 42.3465C147.552 42.4897 147.425 42.6011 147.25 42.6648C147.091 42.7444 146.916 42.7762 146.725 42.7762C146.311 42.7762 145.993 42.6648 145.754 42.4261C145.515 42.1874 145.388 41.8691 145.388 41.4713V40.2618C145.388 39.864 145.515 39.5616 145.754 39.3229C145.993 39.0842 146.327 38.9728 146.725 38.9728C146.916 38.9728 147.107 39.0046 147.282 39.0842C147.457 39.1638 147.584 39.2592 147.664 39.4025V39.0364H148.046V43.0467C148.046 43.4446 147.934 43.7628 147.712 43.9856C147.489 44.2084 147.155 44.3198 146.709 44.3198C146.343 44.3198 146.057 44.2243 145.818 44.0334C145.579 43.8424 145.452 43.5719 145.436 43.2377H145.818C145.834 43.4605 145.929 43.6355 146.088 43.7628C146.247 43.8901 146.454 43.9379 146.709 43.9379C147.075 43.9379 147.314 43.8583 147.457 43.6992C147.584 43.54 147.648 43.3173 147.648 43.0467V42.3465H147.664ZM147.664 40.2618C147.664 39.9594 147.584 39.7367 147.425 39.5775C147.266 39.4184 147.027 39.3388 146.725 39.3388C146.423 39.3388 146.2 39.4184 146.025 39.5775C145.85 39.7367 145.77 39.9754 145.77 40.2618V41.4713C145.77 41.5827 145.786 41.694 145.818 41.8054C145.85 41.9168 145.897 42.0282 145.961 42.1078C146.025 42.2033 146.12 42.2669 146.247 42.3306C146.375 42.3943 146.534 42.4102 146.709 42.4102C146.995 42.4102 147.234 42.3306 147.409 42.1715C147.568 42.0123 147.648 41.7736 147.648 41.4872V40.2618H147.664Z" fill="black"/>
<path d="M151.833 40.962H149.51V41.4713C149.51 41.6463 149.542 41.8054 149.605 41.9487C149.669 42.0919 149.78 42.2033 149.924 42.2829C150.067 42.3624 150.258 42.4102 150.481 42.4102C150.751 42.4102 150.974 42.3306 151.149 42.1874C151.324 42.0442 151.419 41.8373 151.435 41.5826H151.817C151.801 41.7577 151.77 41.9168 151.722 42.0442C151.658 42.1874 151.595 42.2988 151.499 42.3943C151.404 42.4897 151.276 42.5852 151.101 42.6648C150.926 42.7444 150.719 42.7762 150.481 42.7762C150.067 42.7762 149.733 42.6648 149.494 42.4261C149.239 42.1874 149.128 41.8691 149.128 41.4713V40.2618C149.128 39.864 149.255 39.5616 149.51 39.3229C149.764 39.0842 150.083 38.9728 150.496 38.9728C150.64 38.9728 150.799 38.9887 150.958 39.0364C151.117 39.0842 151.26 39.1478 151.388 39.2433C151.515 39.3388 151.626 39.482 151.706 39.6571C151.785 39.8321 151.833 40.039 151.833 40.2936V40.962V40.962ZM151.451 40.2618C151.451 40.0868 151.419 39.9276 151.356 39.8003C151.292 39.6571 151.181 39.5457 151.038 39.4661C150.894 39.3866 150.703 39.3547 150.481 39.3547C150.178 39.3547 149.939 39.4343 149.764 39.5934C149.589 39.7526 149.51 39.9913 149.51 40.2777V40.596H151.451V40.2618V40.2618Z" fill="black"/>
<path d="M155.748 38.9569C156.146 38.9569 156.464 39.0683 156.703 39.2911C156.942 39.5139 157.069 39.8162 157.085 40.1822H156.703C156.687 40.0231 156.655 39.8799 156.591 39.7526C156.528 39.6253 156.416 39.5298 156.273 39.4502C156.13 39.3706 155.955 39.3388 155.748 39.3388C155.446 39.3388 155.207 39.4184 155.032 39.5775C154.857 39.7367 154.777 39.9754 154.777 40.2618V41.4713C154.777 41.6463 154.809 41.8054 154.873 41.9487C154.936 42.0919 155.048 42.2033 155.191 42.2829C155.334 42.3624 155.525 42.4102 155.748 42.4102C156.019 42.4102 156.241 42.3306 156.416 42.1874C156.591 42.0442 156.671 41.8373 156.703 41.5826H157.101C157.085 41.7577 157.053 41.9168 156.989 42.0442C156.926 42.1874 156.846 42.2988 156.751 42.3943C156.655 42.4897 156.528 42.5852 156.353 42.6648C156.178 42.7444 155.971 42.7762 155.732 42.7762C155.318 42.7762 154.984 42.6648 154.745 42.4261C154.491 42.1874 154.379 41.8691 154.379 41.4713V40.2618C154.379 39.864 154.507 39.5616 154.761 39.3229C155.016 39.0683 155.35 38.9569 155.748 38.9569Z" fill="black"/>
<path d="M158.024 37.7156H158.406V41.8373C158.406 42.0123 158.453 42.1396 158.549 42.2192C158.644 42.2988 158.756 42.3306 158.899 42.3306H158.994V42.7125H158.867C158.692 42.7125 158.533 42.6648 158.406 42.5852C158.262 42.5056 158.167 42.3943 158.119 42.2351C158.056 42.0919 158.04 41.9487 158.04 41.7895V37.7156H158.024Z" fill="black"/>
<path d="M162.257 42.7125H161.875V42.2669C161.763 42.4261 161.604 42.5534 161.413 42.633C161.222 42.7284 161 42.7603 160.761 42.7603C160.602 42.7603 160.458 42.7443 160.315 42.6966C160.172 42.6489 160.045 42.5852 159.933 42.4738C159.822 42.3783 159.726 42.251 159.663 42.1078C159.599 41.9646 159.551 41.7895 159.551 41.5826C159.551 41.2644 159.663 41.0098 159.87 40.8347C160.092 40.6596 160.363 40.5642 160.697 40.5642H161.859V40.1186C161.859 39.9276 161.827 39.7844 161.763 39.6571C161.7 39.5298 161.588 39.4502 161.461 39.3865C161.334 39.3229 161.175 39.307 160.984 39.307C160.872 39.307 160.745 39.3229 160.634 39.3547C160.506 39.3865 160.411 39.4343 160.331 39.4979C160.252 39.5616 160.204 39.6412 160.156 39.7367C160.108 39.8321 160.092 39.9435 160.092 40.0708H159.711C159.711 39.8799 159.742 39.7048 159.822 39.5457C159.902 39.4025 159.997 39.2751 160.124 39.1956C160.252 39.1001 160.395 39.0364 160.538 38.9887C160.697 38.941 160.84 38.925 160.968 38.925C161.111 38.925 161.27 38.941 161.429 38.9887C161.588 39.0364 161.716 39.1001 161.843 39.1956C161.97 39.2911 162.066 39.4184 162.129 39.5616C162.193 39.7207 162.241 39.8958 162.241 40.1027V42.7125H162.257ZM161.875 40.9461H160.729C160.474 40.9461 160.283 40.9938 160.156 41.1052C160.013 41.2166 159.949 41.3758 159.949 41.5986C159.949 41.8532 160.029 42.0601 160.172 42.1874C160.315 42.3306 160.554 42.3942 160.856 42.3942C161.047 42.3942 161.238 42.3465 161.413 42.251C161.588 42.1555 161.716 42.0441 161.779 41.9009C161.843 41.7577 161.891 41.6145 161.891 41.4872V40.9461H161.875Z" fill="black"/>
<path d="M165.662 42.7125V42.3465C165.439 42.6489 165.121 42.7921 164.707 42.7921C164.294 42.7921 163.975 42.6807 163.737 42.442C163.498 42.2033 163.371 41.885 163.371 41.4872V39.0364H163.753V41.4872C163.753 41.5986 163.769 41.7099 163.8 41.8213C163.832 41.9327 163.88 42.0441 163.944 42.1237C164.007 42.2192 164.103 42.2828 164.23 42.3465C164.357 42.4102 164.516 42.4261 164.692 42.4261C164.819 42.4261 164.962 42.3942 165.105 42.3465C165.248 42.2988 165.376 42.2033 165.487 42.0601C165.599 41.9168 165.646 41.7418 165.646 41.5349V39.0364H166.028V42.7284H165.662V42.7125Z" fill="black"/>
<path d="M169.704 41.6463C169.704 41.885 169.657 42.0919 169.545 42.251C169.434 42.4102 169.291 42.5375 169.084 42.633C168.877 42.7284 168.638 42.7603 168.352 42.7603C168.161 42.7603 167.986 42.7284 167.827 42.6807C167.651 42.633 167.508 42.5534 167.397 42.442C167.27 42.3465 167.174 42.2192 167.11 42.076C167.047 41.9328 167.015 41.7736 167.015 41.5986H167.397C167.397 41.8373 167.476 42.0282 167.652 42.1715C167.827 42.3147 168.049 42.3783 168.352 42.3783C169.004 42.3783 169.322 42.1237 169.322 41.6304C169.322 41.3758 169.163 41.2007 168.829 41.1052C168.686 41.0575 168.495 41.0098 168.256 40.962C168.018 40.9143 167.89 40.8824 167.858 40.8824C167.699 40.8506 167.556 40.7711 167.429 40.6756C167.301 40.5801 167.206 40.4687 167.158 40.3414C167.11 40.2141 167.079 40.1027 167.079 40.0072C167.079 39.7844 167.142 39.5934 167.254 39.4343C167.365 39.2752 167.524 39.1478 167.731 39.0842C167.938 39.0205 168.145 38.9728 168.352 38.9728C168.75 38.9728 169.068 39.0683 169.307 39.2752C169.545 39.482 169.673 39.7526 169.673 40.1027H169.291C169.291 39.864 169.211 39.6889 169.052 39.5457C168.893 39.4025 168.654 39.3388 168.336 39.3388C168.049 39.3388 167.842 39.4025 167.683 39.5139C167.524 39.6253 167.461 39.7844 167.461 40.0072C167.461 40.1345 167.508 40.23 167.604 40.3255C167.699 40.4209 167.811 40.4846 167.954 40.5164C167.986 40.5323 168.113 40.5483 168.32 40.596C168.527 40.6437 168.67 40.6756 168.765 40.7074C168.861 40.7233 168.925 40.7392 168.941 40.7551C169.163 40.8188 169.354 40.9302 169.497 41.0893C169.625 41.2326 169.704 41.4235 169.704 41.6463Z" fill="black"/>
<path d="M173.285 40.962H170.962V41.4713C170.962 41.6463 170.993 41.8054 171.057 41.9487C171.121 42.0919 171.232 42.2033 171.375 42.2829C171.519 42.3624 171.71 42.4102 171.932 42.4102C172.203 42.4102 172.426 42.3306 172.601 42.1874C172.776 42.0442 172.871 41.8373 172.887 41.5826H173.269C173.253 41.7577 173.221 41.9168 173.174 42.0442C173.11 42.1874 173.046 42.2988 172.951 42.3943C172.855 42.4897 172.728 42.5852 172.553 42.6648C172.378 42.7444 172.171 42.7762 171.932 42.7762C171.519 42.7762 171.184 42.6648 170.946 42.4261C170.691 42.1874 170.58 41.8691 170.58 41.4713V40.2618C170.58 39.864 170.707 39.5616 170.962 39.3229C171.216 39.0842 171.534 38.9728 171.948 38.9728C172.091 38.9728 172.251 38.9887 172.41 39.0364C172.569 39.0842 172.712 39.1478 172.839 39.2433C172.967 39.3388 173.078 39.482 173.158 39.6571C173.237 39.8321 173.285 40.039 173.285 40.2936V40.962V40.962ZM172.903 40.2618C172.903 40.0868 172.871 39.9276 172.808 39.8003C172.744 39.6571 172.633 39.5457 172.489 39.4661C172.346 39.3866 172.155 39.3547 171.932 39.3547C171.63 39.3547 171.391 39.4343 171.216 39.5934C171.041 39.7526 170.962 39.9913 170.962 40.2777V40.596H172.903V40.2618V40.2618Z" fill="black"/>
<path d="M176.866 41.6463C176.866 41.885 176.818 42.0919 176.706 42.251C176.595 42.4102 176.452 42.5375 176.245 42.633C176.038 42.7284 175.799 42.7603 175.513 42.7603C175.322 42.7603 175.147 42.7284 174.988 42.6807C174.813 42.633 174.669 42.5534 174.558 42.442C174.431 42.3465 174.335 42.2192 174.272 42.076C174.208 41.9328 174.176 41.7736 174.176 41.5986H174.558C174.558 41.8373 174.638 42.0282 174.813 42.1715C174.988 42.3147 175.211 42.3783 175.513 42.3783C176.165 42.3783 176.484 42.1237 176.484 41.6304C176.484 41.3758 176.325 41.2007 175.99 41.1052C175.847 41.0575 175.656 41.0098 175.417 40.962C175.179 40.9143 175.051 40.8824 175.02 40.8824C174.86 40.8506 174.717 40.7711 174.59 40.6756C174.463 40.5801 174.367 40.4687 174.319 40.3414C174.272 40.2141 174.24 40.1027 174.24 40.0072C174.24 39.7844 174.303 39.5934 174.415 39.4343C174.526 39.2752 174.685 39.1478 174.892 39.0842C175.099 39.0205 175.306 38.9728 175.513 38.9728C175.911 38.9728 176.229 39.0683 176.468 39.2752C176.706 39.482 176.834 39.7526 176.834 40.1027H176.452C176.452 39.864 176.372 39.6889 176.213 39.5457C176.054 39.4025 175.815 39.3388 175.497 39.3388C175.211 39.3388 175.004 39.4025 174.845 39.5139C174.685 39.6253 174.622 39.7844 174.622 40.0072C174.622 40.1345 174.669 40.23 174.765 40.3255C174.86 40.4209 174.972 40.4846 175.115 40.5164C175.147 40.5323 175.274 40.5483 175.481 40.596C175.688 40.6437 175.831 40.6756 175.927 40.7074C176.022 40.7233 176.086 40.7392 176.102 40.7551C176.325 40.8188 176.515 40.9302 176.659 41.0893C176.802 41.2326 176.866 41.4235 176.866 41.6463Z" fill="black"/>
<path d="M76.6566 57.9579H78.0411C78.057 57.9579 78.0729 57.942 78.0729 57.9102L77.3727 54.3137C77.3568 54.2659 77.3408 54.2659 77.3249 54.3137L76.6088 57.9102C76.6247 57.9261 76.6406 57.9579 76.6566 57.9579ZM78.4866 60.0108L78.2479 58.8013C78.2479 58.7854 78.2161 58.7536 78.2002 58.7536H76.5133C76.4974 58.7536 76.4656 58.7695 76.4656 58.8013L76.2269 60.0108C76.211 60.0744 76.1791 60.1063 76.1155 60.1063H75.3198C75.2402 60.1063 75.2084 60.0585 75.2243 59.9949L76.7839 52.8337C76.7998 52.77 76.8316 52.7382 76.8953 52.7382H77.8183C77.8819 52.7382 77.9297 52.77 77.9297 52.8337L79.521 59.9949C79.5369 60.0585 79.5051 60.1063 79.4255 60.1063H78.598C78.5344 60.1063 78.4866 60.0744 78.4866 60.0108Z" fill="#221F1F"/>
<path d="M102.93 59.9949V52.8337C102.93 52.77 102.978 52.7223 103.042 52.7223H103.837C103.901 52.7223 103.949 52.77 103.949 52.8337V59.1833C103.949 59.1992 103.965 59.231 103.996 59.231H106.352C106.415 59.231 106.463 59.2787 106.463 59.3424V60.0108C106.463 60.0744 106.415 60.1222 106.352 60.1222H103.042C102.962 60.1063 102.93 60.0585 102.93 59.9949Z" fill="#221F1F"/>
<path d="M108.707 57.9579H110.091C110.107 57.9579 110.123 57.942 110.123 57.9102L109.423 54.3137C109.407 54.2659 109.391 54.2659 109.375 54.3137L108.659 57.9102C108.675 57.9261 108.675 57.9579 108.707 57.9579ZM110.521 60.0108L110.282 58.8013C110.282 58.7854 110.251 58.7536 110.235 58.7536H108.548C108.532 58.7536 108.5 58.7695 108.5 58.8013L108.261 60.0108C108.245 60.0744 108.214 60.1063 108.15 60.1063H107.354C107.275 60.1063 107.243 60.0585 107.259 59.9949L108.818 52.8337C108.834 52.77 108.866 52.7382 108.93 52.7382H109.853C109.916 52.7382 109.964 52.77 109.964 52.8337L111.555 59.9949C111.571 60.0585 111.54 60.1063 111.46 60.1063H110.632C110.569 60.1063 110.537 60.0744 110.521 60.0108Z" fill="#221F1F"/>
<path d="M112.526 59.9949V52.8337C112.526 52.77 112.574 52.7223 112.638 52.7223H113.449C113.497 52.7223 113.545 52.7382 113.561 52.8018L115.438 57.4487C115.454 57.4964 115.486 57.4805 115.486 57.4327V52.8178C115.486 52.7541 115.534 52.7064 115.598 52.7064H116.393C116.457 52.7064 116.505 52.7541 116.505 52.8178V59.9789C116.505 60.0426 116.457 60.0903 116.393 60.0903H115.566C115.518 60.0903 115.47 60.0744 115.454 60.0108L113.576 55.364C113.561 55.3162 113.529 55.3162 113.529 55.364L113.545 59.9789C113.545 60.0426 113.497 60.0903 113.433 60.0903H112.638C112.574 60.1063 112.526 60.0585 112.526 59.9949Z" fill="#221F1F"/>
<path d="M117.65 58.3398V54.4887C117.65 53.3747 118.414 52.6427 119.544 52.6427C120.674 52.6427 121.454 53.3747 121.454 54.4887V54.9343C121.454 54.9979 121.406 55.0457 121.342 55.0457H120.547C120.483 55.0457 120.435 54.9979 120.435 54.9343V54.4728C120.435 53.8999 120.085 53.518 119.544 53.518C119.003 53.518 118.653 53.8999 118.653 54.4728V58.3398C118.653 58.9127 119.003 59.2947 119.544 59.2947C120.085 59.2947 120.435 58.9127 120.435 58.3398V57.1781C120.435 57.1622 120.419 57.1304 120.388 57.1304H119.592C119.528 57.1304 119.481 57.0826 119.481 57.019V56.3665C119.481 56.3029 119.528 56.2551 119.592 56.2551H121.342C121.406 56.2551 121.454 56.3029 121.454 56.3665V58.308C121.454 59.422 120.69 60.154 119.544 60.154C118.398 60.154 117.65 59.4538 117.65 58.3398Z" fill="#221F1F"/>
<path d="M122.488 58.1011V52.8337C122.488 52.77 122.536 52.7223 122.6 52.7223H123.395C123.459 52.7223 123.507 52.77 123.507 52.8337V58.1966C123.507 58.8491 123.857 59.2947 124.398 59.2947C124.939 59.2947 125.305 58.8491 125.305 58.1966V52.8337C125.305 52.77 125.353 52.7223 125.416 52.7223H126.212C126.276 52.7223 126.323 52.77 126.323 52.8337V58.1011C126.323 59.3583 125.56 60.1858 124.414 60.1858C123.252 60.1858 122.488 59.3583 122.488 58.1011Z" fill="#221F1F"/>
<path d="M128.599 57.9579H129.984C129.999 57.9579 130.015 57.942 130.015 57.9102L129.315 54.3137C129.299 54.2659 129.283 54.2659 129.267 54.3137L128.551 57.9102C128.567 57.9261 128.583 57.9579 128.599 57.9579ZM130.429 60.0108L130.19 58.8013C130.19 58.7854 130.159 58.7536 130.143 58.7536H128.456C128.44 58.7536 128.408 58.7695 128.408 58.8013L128.169 60.0108C128.153 60.0744 128.122 60.1063 128.058 60.1063H127.262C127.183 60.1063 127.151 60.0585 127.167 59.9949L128.726 52.8337C128.742 52.77 128.774 52.7382 128.838 52.7382H129.761C129.824 52.7382 129.872 52.77 129.872 52.8337L131.464 59.9949C131.479 60.0585 131.448 60.1063 131.368 60.1063H130.541C130.477 60.1063 130.429 60.0744 130.429 60.0108Z" fill="#221F1F"/>
<path d="M132.148 58.3398V54.4887C132.148 53.3747 132.912 52.6427 134.042 52.6427C135.171 52.6427 135.951 53.3747 135.951 54.4887V54.9343C135.951 54.9979 135.903 55.0457 135.84 55.0457H135.044C134.98 55.0457 134.933 54.9979 134.933 54.9343V54.4728C134.933 53.8999 134.583 53.518 134.042 53.518C133.501 53.518 133.15 53.8999 133.15 54.4728V58.3398C133.15 58.9127 133.501 59.2947 134.042 59.2947C134.583 59.2947 134.933 58.9127 134.933 58.3398V57.1781C134.933 57.1622 134.917 57.1304 134.885 57.1304H134.089C134.026 57.1304 133.978 57.0826 133.978 57.019V56.3665C133.978 56.3029 134.026 56.2551 134.089 56.2551H135.84C135.903 56.2551 135.951 56.3029 135.951 56.3665V58.308C135.951 59.422 135.187 60.154 134.042 60.154C132.896 60.154 132.148 59.4538 132.148 58.3398Z" fill="#221F1F"/>
<path d="M140.455 53.6134H138.084C138.068 53.6134 138.036 53.6294 138.036 53.6612V55.9369C138.036 55.9528 138.052 55.9846 138.084 55.9846H139.532C139.596 55.9846 139.643 56.0323 139.643 56.096V56.7644C139.643 56.828 139.596 56.8758 139.532 56.8758H138.084C138.068 56.8758 138.036 56.8917 138.036 56.9235V59.2151C138.036 59.231 138.052 59.2628 138.084 59.2628H140.455C140.518 59.2628 140.566 59.3106 140.566 59.3742V60.0426C140.566 60.1063 140.518 60.154 140.455 60.154H137.145C137.081 60.154 137.033 60.1063 137.033 60.0426V52.8814C137.033 52.8178 137.081 52.77 137.145 52.77H140.455C140.518 52.77 140.566 52.8178 140.566 52.8814V53.5498C140.566 53.5657 140.518 53.6134 140.455 53.6134Z" fill="#221F1F"/>
<path d="M143.542 58.2762V54.5364C143.542 53.3747 144.306 52.6427 145.436 52.6427C146.582 52.6427 147.346 53.3747 147.346 54.5364V54.7115C147.346 54.7751 147.298 54.8229 147.234 54.8229L146.438 54.8706C146.375 54.8706 146.327 54.8229 146.327 54.7592V54.4887C146.327 53.9158 145.977 53.5339 145.436 53.5339C144.895 53.5339 144.545 53.9158 144.545 54.4887V58.3557C144.545 58.9286 144.895 59.3106 145.436 59.3106C145.977 59.3106 146.327 58.9286 146.327 58.3557V58.0852C146.327 58.0216 146.375 57.9738 146.438 57.9738L147.234 58.0216C147.298 58.0216 147.346 58.0693 147.346 58.1329V58.2921C147.346 59.4538 146.582 60.2017 145.436 60.2017C144.306 60.1858 143.542 59.4379 143.542 58.2762Z" fill="#221F1F"/>
<path d="M151.133 58.308V54.5364C151.133 53.9317 150.767 53.5339 150.21 53.5339C149.669 53.5339 149.303 53.9476 149.303 54.5364V58.308C149.303 58.9127 149.653 59.3106 150.21 59.3106C150.767 59.3106 151.133 58.8968 151.133 58.308ZM148.3 58.2603V54.5842C148.3 53.4225 149.064 52.6427 150.21 52.6427C151.372 52.6427 152.151 53.4066 152.151 54.5842V58.2603C152.151 59.422 151.372 60.1858 150.21 60.1858C149.064 60.1858 148.3 59.422 148.3 58.2603Z" fill="#221F1F"/>
<path d="M153.297 59.9949V52.8337C153.297 52.77 153.345 52.7223 153.409 52.7223H154.204C154.252 52.7223 154.3 52.7382 154.316 52.8018L155.382 55.364C155.398 55.3958 155.43 55.3958 155.446 55.364L156.544 52.8018C156.56 52.7382 156.607 52.7223 156.655 52.7223H157.451C157.514 52.7223 157.562 52.77 157.562 52.8337V59.9949C157.562 60.0585 157.514 60.1063 157.451 60.1063H156.655C156.591 60.1063 156.544 60.0585 156.544 59.9949V55.2367C156.544 55.1889 156.512 55.1889 156.496 55.2207L155.525 57.3054C155.509 57.3532 155.477 57.385 155.446 57.385C155.398 57.385 155.366 57.3691 155.334 57.3054L154.363 55.2048C154.348 55.173 154.316 55.173 154.316 55.2207V59.9949C154.316 60.0585 154.268 60.1063 154.204 60.1063H153.409C153.345 60.1063 153.297 60.0585 153.297 59.9949Z" fill="#221F1F"/>
<path d="M161.572 54.8547C161.572 54.0749 161.19 53.5975 160.618 53.5975H159.838C159.822 53.5975 159.79 53.6134 159.79 53.6453V56.0482C159.79 56.0642 159.806 56.096 159.838 56.096H160.618C161.19 56.096 161.572 55.6345 161.572 54.8547ZM162.591 54.8388C162.591 56.0801 161.891 56.9076 160.84 56.9076H159.854C159.838 56.9076 159.806 56.9235 159.806 56.9553V60.0108C159.806 60.0744 159.758 60.1222 159.695 60.1222H158.899C158.835 60.1222 158.787 60.0744 158.787 60.0108V52.8496C158.787 52.7859 158.835 52.7382 158.899 52.7382H160.777C161.859 52.7223 162.591 53.5816 162.591 54.8388Z" fill="#221F1F"/>
<path d="M164.373 57.9579H165.758C165.774 57.9579 165.79 57.942 165.79 57.9102L165.089 54.3137C165.073 54.2659 165.057 54.2659 165.042 54.3137L164.325 57.9102C164.341 57.9261 164.357 57.9579 164.373 57.9579ZM166.187 60.0108L165.949 58.8013C165.949 58.7854 165.917 58.7536 165.901 58.7536H164.214C164.198 58.7536 164.166 58.7695 164.166 58.8013L163.928 60.0108C163.912 60.0744 163.88 60.1063 163.816 60.1063H163.021C162.941 60.1063 162.909 60.0585 162.925 59.9949L164.501 52.8337C164.516 52.77 164.548 52.7382 164.612 52.7382H165.535C165.599 52.7382 165.646 52.77 165.646 52.8337L167.238 59.9949C167.254 60.0585 167.222 60.1063 167.142 60.1063H166.315C166.251 60.1063 166.203 60.0744 166.187 60.0108Z" fill="#221F1F"/>
<path d="M168.208 59.9949V52.8337C168.208 52.77 168.256 52.7223 168.32 52.7223H169.131C169.179 52.7223 169.227 52.7382 169.243 52.8018L171.121 57.4487C171.137 57.4964 171.168 57.4805 171.168 57.4327V52.8178C171.168 52.7541 171.216 52.7064 171.28 52.7064H172.075C172.139 52.7064 172.187 52.7541 172.187 52.8178V59.9789C172.187 60.0426 172.139 60.0903 172.075 60.0903H171.248C171.2 60.0903 171.152 60.0744 171.137 60.0108L169.259 55.364C169.243 55.3162 169.211 55.3162 169.211 55.364L169.227 59.9789C169.227 60.0426 169.179 60.0903 169.116 60.0903H168.32C168.24 60.1063 168.208 60.0585 168.208 59.9949Z" fill="#221F1F"/>
<path d="M174.638 59.9789V56.9713C174.638 56.9553 174.622 56.9235 174.622 56.9235L173.158 52.8496C173.142 52.77 173.174 52.7382 173.237 52.7382H174.081C174.128 52.7382 174.192 52.77 174.208 52.8178L175.099 55.7141C175.115 55.7459 175.147 55.7459 175.163 55.7141L176.054 52.8178C176.07 52.77 176.133 52.7382 176.181 52.7382H177.025C177.104 52.7382 177.136 52.7859 177.104 52.8496L175.64 56.9235C175.64 56.9394 175.624 56.9713 175.624 56.9713V59.9789C175.624 60.0426 175.577 60.0903 175.513 60.0903H174.717C174.669 60.0903 174.638 60.0426 174.638 59.9789Z" fill="#221F1F"/>
<path d="M86.5708 57.9738C86.5708 56.1756 85.5842 56.2074 85.25 56.2392L84.6771 56.271V59.1037C84.6771 59.406 85.1227 59.5811 85.4091 59.6288C86.0139 59.6129 86.5708 59.1992 86.5708 57.9738ZM85.1386 55.8732C85.7592 55.8732 86.2685 55.3321 86.2685 54.4887C86.2685 53.4384 85.7433 53.0565 85.1386 53.0565H84.6771V55.8732H85.1386ZM81.9877 59.9312C82.5128 59.597 82.5765 59.4856 82.5765 58.7536V53.9158C82.5765 53.1838 82.4969 53.0724 81.9877 52.7382V52.6586H86.0298C87.8598 52.6586 88.4009 53.6612 88.4009 54.3296C88.4009 55.3162 87.3506 55.73 86.4754 55.8255V55.8414C87.5257 55.9687 88.8147 56.4938 88.8147 57.8942C88.8147 59.2947 87.4302 59.9949 85.6797 59.9949H82.0036V59.9312H81.9877Z" fill="#EB2027"/>
<path d="M89.308 59.9312C89.8014 59.597 89.8809 59.4856 89.8809 58.7536V53.9158C89.8809 53.1838 89.8014 53.0724 89.308 52.7382V52.6586H92.6499V52.7382C92.1566 53.0724 92.077 53.1679 92.077 53.9158V58.7536C92.077 59.4856 92.1566 59.597 92.6499 59.9312V60.0108H89.308V59.9312Z" fill="#EB2027"/>
<path d="M92.9363 56.4302C92.9363 53.6612 94.7346 52.5313 97.0103 52.5313C98.0287 52.5313 99.1427 52.7382 99.8429 53.0724L99.827 55.2685H99.6838C98.9358 54.0113 97.79 52.9132 97.0739 52.9132C96.2305 52.9132 95.2279 53.6771 95.2279 56.3665C95.2279 59.0719 96.1987 59.7721 97.058 59.7721C97.3445 59.7721 97.7582 59.6448 97.7582 58.8968V57.6555C97.7582 56.8917 97.4399 56.3665 96.692 56.3347V56.2074H99.8429V60.0585H99.7474C99.5246 60.0426 99.2859 60.0108 98.8085 60.0108C98.0447 60.0108 97.5036 60.1858 96.3737 60.1858C95.1643 60.1699 92.9363 59.5334 92.9363 56.4302Z" fill="#EB2027"/>
</g>
<defs>
<clipPath id="clip0_1993_5073">
<rect width="178" height="62" fill="white"/>
</clipPath>
</defs>
</svg>
