<svg width="152" height="62" viewBox="0 0 152 62" fill="none" xmlns="http://www.w3.org/2000/svg">
<g clip-path="url(#clip0_1938_6398)">
<path d="M34.0079 19.3009C34.0079 18.8189 33.817 18.3564 33.4769 18.0148C33.1368 17.6731 32.6752 17.4801 32.1932 17.4779C31.9565 17.4785 31.7224 17.5273 31.5051 17.6213C28.2706 18.0849 16.6714 19.5608 13.0959 17.4904C9.38958 15.3534 4.67088 3.86018 3.66062 1.30958C3.63322 1.21598 3.59631 1.12543 3.55045 1.03935C3.4964 0.887601 3.46107 0.804452 3.46107 0.804452C3.31601 0.581984 3.12389 0.394065 2.89827 0.253959C2.67265 0.113854 2.41903 0.0249778 2.15531 -0.00639646C1.89159 -0.0377707 1.6242 -0.010878 1.372 0.0723833C1.11981 0.155645 0.888967 0.293245 0.695766 0.475473C0.502564 0.6577 0.351715 0.880112 0.253865 1.12701C0.156015 1.37391 0.11355 1.63928 0.129467 1.90438C0.145383 2.16948 0.219294 2.42786 0.345981 2.66128C0.472669 2.8947 0.649045 3.09746 0.862662 3.25527C2.86239 5.79962 9.97786 15.1393 9.97786 19.2656C9.97786 24.0799 0.353374 35.9619 0.353374 35.9619L0.249438 36.0991C0.118681 36.3067 0.031035 36.5386 -0.00828398 36.7808C-0.047603 37.023 -0.0377908 37.2706 0.0205684 37.5089C0.0789276 37.7473 0.184641 37.9714 0.331416 38.1681C0.478191 38.3647 0.663028 38.5298 0.874925 38.6536C1.08682 38.7773 1.32145 38.8571 1.56483 38.8883C1.80822 38.9195 2.05539 38.9014 2.29164 38.8351C2.52789 38.7688 2.74839 38.6557 2.94001 38.5024C3.13162 38.3491 3.29045 38.1588 3.40702 37.9429V37.9429C3.43411 37.8922 3.45705 37.8394 3.47562 37.7849V37.7849C3.47562 37.7849 8.97592 23.4896 13.0959 21.0886C16.742 18.9829 28.7279 20.5586 31.6652 20.9847C31.8338 21.0392 32.0098 21.0673 32.1869 21.0678H32.2826C32.7401 21.0396 33.1693 20.837 33.4818 20.5017C33.7943 20.1664 33.9662 19.7239 33.9622 19.2656" fill="#EA242A"/>
<path d="M25.2877 29.5906C25.9331 29.9426 26.4635 30.473 26.8155 31.1184C27.1813 31.8049 27.3659 32.5733 27.3519 33.351C27.3519 34.5982 26.9708 35.6023 26.2086 36.3631C25.4464 37.1239 24.4479 37.5015 23.2131 37.496H21.4982C21.4213 37.496 21.3838 37.5292 21.3838 37.5978V42.9755C21.3841 43.008 21.3771 43.0401 21.3634 43.0696C21.3498 43.099 21.3298 43.1251 21.3049 43.1459C21.2511 43.1935 21.1812 43.2187 21.1095 43.2166H18.4279C18.3562 43.2187 18.2863 43.1935 18.2325 43.1459C18.2076 43.1251 18.1876 43.099 18.1739 43.0696C18.1603 43.0401 18.1533 43.008 18.1535 42.9755V29.2892C18.1533 29.2564 18.1602 29.224 18.1739 29.1941C18.1875 29.1643 18.2075 29.1379 18.2325 29.1166C18.2863 29.0691 18.3562 29.0439 18.4279 29.046H23.0468C23.8281 29.0325 24.5997 29.2201 25.2877 29.5906V29.5906ZM23.6767 34.7874C23.9914 34.4051 24.1502 33.9181 24.1215 33.4238C24.1558 32.9141 23.997 32.4102 23.6767 32.0123C23.5301 31.8457 23.3483 31.7137 23.1445 31.626C22.9406 31.5383 22.7198 31.497 22.498 31.5051H21.4919C21.415 31.5051 21.3776 31.5404 21.3776 31.6069V35.172C21.3776 35.2385 21.415 35.2717 21.4919 35.2717H22.498C22.7188 35.2807 22.9387 35.241 23.1424 35.1555C23.3461 35.07 23.5285 34.9408 23.6767 34.777V34.7874Z" fill="black"/>
<path d="M34.459 43.015L32.6983 37.4357C32.6887 37.4129 32.6729 37.3932 32.6527 37.3789C32.6325 37.3646 32.6087 37.3562 32.584 37.3546H31.8044C31.7275 37.3546 31.6901 37.3879 31.6901 37.4565V42.9755C31.691 43.0083 31.6841 43.0408 31.67 43.0705C31.6559 43.1001 31.635 43.1259 31.609 43.1459C31.556 43.1933 31.4868 43.2186 31.4157 43.2166H28.7425C28.6707 43.2187 28.6009 43.1935 28.5471 43.1459C28.5215 43.1257 28.5009 43.0998 28.4872 43.0702C28.4735 43.0405 28.4669 43.0081 28.4681 42.9755V29.31C28.4669 29.2773 28.4735 29.2449 28.4872 29.2153C28.5009 29.1857 28.5215 29.1597 28.5471 29.1395C28.6009 29.092 28.6707 29.0667 28.7425 29.0688H33.3614C34.1415 29.0551 34.9123 29.2388 35.6023 29.6031C36.2442 29.9482 36.7726 30.4716 37.1239 31.1101C37.4904 31.7933 37.6751 32.5592 37.6602 33.3344C37.6756 34.0677 37.4986 34.7923 37.1468 35.436C36.813 36.0332 36.3172 36.5239 35.7166 36.8516C35.6898 36.8619 35.6661 36.8791 35.648 36.9015C35.6408 36.9119 35.637 36.9242 35.637 36.9368C35.637 36.9494 35.6408 36.9617 35.648 36.9721L37.7517 42.936L37.7745 43.0171C37.7745 43.1522 37.6914 43.2249 37.523 43.2249H34.7791C34.7096 43.2328 34.6396 43.2162 34.5811 43.1778C34.5226 43.1395 34.4794 43.0819 34.459 43.015V43.015ZM31.6922 31.6132V35.0701C31.6922 35.1387 31.7296 35.172 31.8065 35.172H32.8459C33.0631 35.1787 33.2792 35.1377 33.4789 35.0519C33.6786 34.966 33.857 34.8374 34.0016 34.6752C34.3127 34.3063 34.4717 33.8329 34.4465 33.351C34.4734 32.8632 34.3144 32.3834 34.0016 32.0082C33.857 31.8459 33.6786 31.7173 33.4789 31.6314C33.2792 31.5456 33.0631 31.5046 32.8459 31.5113H31.8065C31.7296 31.5113 31.6922 31.5467 31.6922 31.6132Z" fill="black"/>
<path d="M39.924 42.2875C39.0841 41.5599 38.6649 40.5899 38.6663 39.3773V32.9062C38.6663 31.6936 39.0855 30.7235 39.924 29.996C40.7624 29.2684 41.8828 28.9047 43.2852 28.9047C44.6891 28.9047 45.8137 29.2684 46.659 29.996C47.5044 30.7235 47.927 31.6936 47.927 32.9062V39.3773C47.927 40.5885 47.5044 41.5585 46.659 42.2875C45.8137 43.0164 44.6891 43.3802 43.2852 43.3788C41.8828 43.3788 40.7624 43.015 39.924 42.2875ZM44.3142 40.5351C44.4455 40.3968 44.5475 40.2336 44.6143 40.055C44.6811 39.8764 44.7112 39.6862 44.7029 39.4958V32.7856C44.7112 32.5952 44.6811 32.405 44.6143 32.2264C44.5475 32.0478 44.4455 31.8845 44.3142 31.7463C44.1775 31.6126 44.0146 31.5086 43.8357 31.441C43.6568 31.3734 43.4658 31.3435 43.2749 31.3534C43.0874 31.3442 42.9 31.3744 42.725 31.4421C42.5499 31.5098 42.3909 31.6134 42.2584 31.7463C42.0004 32.0294 41.8644 32.4029 41.88 32.7856V39.4958C41.8644 39.8785 42.0004 40.252 42.2584 40.5351C42.3909 40.668 42.5499 40.7716 42.725 40.8393C42.9 40.907 43.0874 40.9372 43.2749 40.928C43.4658 40.9378 43.6568 40.908 43.8357 40.8404C44.0146 40.7728 44.1775 40.6688 44.3142 40.5351V40.5351Z" fill="black"/>
<path d="M57.7158 29.2684V30.5427C57.7158 30.6778 57.6388 30.7505 57.4871 30.7505H54.4917C54.4293 30.7505 54.4002 30.7776 54.4002 30.8316V43.0213C54.4002 43.1564 54.3233 43.2291 54.1715 43.2291H52.4337C52.2799 43.2291 52.2051 43.1626 52.2051 43.0213V30.8254C52.2051 30.7713 52.1739 30.7443 52.1136 30.7443H49.2761C49.1244 30.7443 49.0496 30.6778 49.0496 30.5364V29.2684C49.0496 29.1333 49.1244 29.0605 49.2761 29.0605H57.4871C57.6388 29.0668 57.7158 29.1333 57.7158 29.2684Z" fill="black"/>
<path d="M65.5609 43.0566L63.4572 37.0283C63.4502 37.0099 63.4376 36.9942 63.4212 36.9834C63.4048 36.9725 63.3854 36.9672 63.3657 36.968H61.763C61.7028 36.968 61.6716 36.995 61.6716 37.0491V43.0129C61.6716 43.1481 61.5967 43.2208 61.4429 43.2208H59.7051C59.5534 43.2208 59.4764 43.1543 59.4764 43.0129V29.2684C59.4764 29.1333 59.5534 29.0606 59.7051 29.0606H63.8002C64.5186 29.0458 65.2282 29.22 65.8581 29.5657C66.4478 29.8964 66.9282 30.392 67.2405 30.9917C67.5763 31.6368 67.7457 32.3557 67.7331 33.0829C67.7538 33.8643 67.5489 34.6351 67.1428 35.303C66.7594 35.9177 66.191 36.3952 65.5193 36.6666C65.4736 36.7082 65.4569 36.7477 65.4736 36.7892L67.8059 42.9942L67.8287 43.0753C67.8287 43.1709 67.7602 43.2167 67.6209 43.2167H65.8373C65.7801 43.2235 65.7223 43.2116 65.6724 43.1827C65.6225 43.1539 65.5834 43.1096 65.5609 43.0566V43.0566ZM61.6716 30.8254V35.3528C61.6716 35.4069 61.7028 35.4339 61.763 35.4339H63.4572C63.74 35.4447 64.0216 35.3933 64.2824 35.2834C64.5431 35.1735 64.7766 35.0077 64.9663 34.7978C65.3634 34.3277 65.5677 33.7246 65.538 33.1099C65.5723 32.482 65.3681 31.8642 64.9663 31.3804C64.7766 31.1705 64.5431 31.0048 64.2824 30.8949C64.0216 30.785 63.74 30.7336 63.4572 30.7443H61.763C61.7028 30.7443 61.6716 30.7651 61.6716 30.8254Z" fill="black"/>
<path d="M75.7362 43.0296L75.2331 40.7035C75.2332 40.6914 75.2302 40.6796 75.2243 40.669C75.2185 40.6585 75.2101 40.6496 75.1999 40.6432C75.1749 40.6302 75.147 40.6238 75.1188 40.6245H71.3916C71.3635 40.6238 71.3356 40.6302 71.3106 40.6432C71.3001 40.6493 71.2914 40.6581 71.2855 40.6687C71.2797 40.6793 71.2768 40.6914 71.2773 40.7035L70.7971 43.0296C70.7805 43.1502 70.6974 43.2104 70.5456 43.2104H68.8057C68.7743 43.2133 68.7427 43.2094 68.7129 43.199C68.6831 43.1886 68.656 43.172 68.6332 43.1502C68.614 43.1284 68.6008 43.102 68.5949 43.0735C68.5891 43.0451 68.5908 43.0156 68.5999 42.988L72.0069 29.2414C72.0185 29.1852 72.0508 29.1354 72.0974 29.1019C72.144 29.0684 72.2015 29.0536 72.2585 29.0606H74.2935C74.4453 29.0606 74.5305 29.1208 74.5451 29.2414L77.975 42.988V43.0296C77.975 43.1502 77.9057 43.2104 77.7671 43.2104H75.9835C75.9273 43.2158 75.8711 43.2003 75.8255 43.167C75.7799 43.1337 75.7481 43.0848 75.7362 43.0296V43.0296ZM71.7346 39.08H74.7758C74.8215 39.08 74.8444 39.0551 74.8444 38.9989L73.2895 31.8232C73.2729 31.7962 73.2583 31.7837 73.2438 31.7837C73.2292 31.7837 73.2126 31.7962 73.1981 31.8232L71.666 38.9989C71.666 39.0675 71.6889 39.0925 71.7346 39.0925V39.08Z" fill="black"/>
<path d="M86.0279 29.0668H87.7429C87.8946 29.0668 87.9715 29.1333 87.9715 29.2747V43.0213C87.9715 43.1564 87.8946 43.2291 87.7429 43.2291H85.7764C85.7228 43.2331 85.6694 43.2197 85.6241 43.1908C85.5788 43.162 85.544 43.1193 85.5249 43.0691L81.6356 33.8292C81.6301 33.8164 81.6199 33.8063 81.6071 33.8009C81.5943 33.7955 81.58 33.7952 81.567 33.8C81.5358 33.8 81.5213 33.8229 81.5213 33.8499L81.5441 43.0275C81.5441 43.1626 81.4672 43.2354 81.3155 43.2354H79.5777C79.4259 43.2354 79.349 43.1689 79.349 43.0275V29.2684C79.349 29.1333 79.4259 29.0606 79.5777 29.0606H81.5213C81.5751 29.0567 81.6287 29.0705 81.674 29.0997C81.7194 29.129 81.754 29.1721 81.7728 29.2227L85.6829 38.4605C85.6995 38.5 85.7224 38.5187 85.7515 38.5104C85.7806 38.5021 85.7993 38.4813 85.7993 38.4398V29.2684C85.7993 29.1333 85.8741 29.0668 86.0279 29.0668Z" fill="black"/>
<path d="M91.0231 42.3789C90.6581 42.0499 90.3698 41.6449 90.1783 41.1923C89.9869 40.7398 89.8971 40.2507 89.9152 39.7597V39.2359C89.9152 39.1007 89.99 39.028 90.1438 39.028H91.8359C91.9877 39.028 92.0646 39.0966 92.0646 39.2359V39.6516C92.0371 40.1964 92.2262 40.7299 92.5905 41.1358C92.7629 41.3192 92.9724 41.4637 93.205 41.5598C93.4376 41.6559 93.688 41.7012 93.9396 41.6929C94.1911 41.7008 94.4415 41.6573 94.6756 41.5651C94.9098 41.4729 95.1226 41.3339 95.3011 41.1566C95.5974 40.8304 95.7815 40.4181 95.8268 39.9798C95.872 39.5415 95.776 39.1002 95.5527 38.7203C95.3495 38.4124 95.0941 38.1423 94.7981 37.9221C94.4835 37.6879 93.9763 37.3415 93.2765 36.8828C92.6445 36.4767 92.0339 36.0382 91.4472 35.569C90.9999 35.1998 90.6207 34.7552 90.3268 34.2552C90.0126 33.709 89.8544 33.0871 89.8694 32.4571C89.8694 31.3637 90.2353 30.4976 90.967 29.8587C91.6987 29.2199 92.6515 28.8998 93.8253 28.8984C95.0462 28.8984 96.0259 29.2448 96.7646 29.9377C97.1312 30.2832 97.4197 30.703 97.6108 31.1691C97.8019 31.6352 97.8911 32.1367 97.8725 32.6401V33.1452C97.8725 33.2803 97.7956 33.3531 97.6439 33.3531H95.9518C95.8 33.3531 95.7231 33.2866 95.7231 33.1452V32.6006C95.7458 32.0653 95.5569 31.5426 95.1972 31.1455C94.8415 30.7994 94.368 30.6006 93.8718 30.589C93.3756 30.5775 92.8934 30.754 92.5219 31.0831C92.3476 31.2674 92.2129 31.4856 92.1264 31.7241C92.0399 31.9626 92.0033 32.2164 92.0189 32.4696C92.0047 32.972 92.1849 33.4604 92.5219 33.8333C92.8573 34.2033 93.5051 34.6987 94.4655 35.3196C95.3801 35.9265 96.0731 36.4185 96.5442 36.7954C96.9789 37.1387 97.3437 37.5621 97.6189 38.0427C97.8805 38.537 98.0101 39.0905 97.9952 39.6495C97.9952 40.7817 97.6217 41.6881 96.8747 42.3685C96.1278 43.0489 95.1522 43.3892 93.9479 43.3892C92.7395 43.3822 91.7646 43.0455 91.0231 42.3789Z" fill="black"/>
<path d="M99.8619 43.015V29.2684C99.8619 29.1333 99.9388 29.0605 100.091 29.0605H101.83C101.982 29.0605 102.059 29.1271 102.059 29.2684V41.4581C102.059 41.5121 102.088 41.5391 102.151 41.5391H107.273C107.424 41.5391 107.501 41.6077 107.501 41.747V43.0213C107.501 43.1564 107.424 43.2291 107.273 43.2291H100.091C99.9388 43.2167 99.8619 43.1501 99.8619 43.015Z" fill="black"/>
<path d="M115.619 43.0296L115.116 40.7035C115.116 40.6913 115.113 40.6793 115.107 40.6687C115.101 40.6581 115.093 40.6492 115.082 40.6432C115.057 40.6302 115.029 40.6237 115.001 40.6245H111.274C111.246 40.624 111.218 40.6304 111.193 40.6432C111.182 40.6492 111.174 40.6581 111.168 40.6687C111.162 40.6793 111.159 40.6913 111.16 40.7035L110.68 43.0296C110.663 43.1501 110.58 43.2104 110.428 43.2104H108.69C108.659 43.2133 108.627 43.2094 108.597 43.199C108.568 43.1886 108.54 43.1719 108.518 43.1501C108.499 43.1282 108.486 43.1017 108.48 43.0734C108.474 43.045 108.476 43.0156 108.484 42.988L111.891 29.2414C111.903 29.1854 111.936 29.1359 111.982 29.1025C112.029 29.0691 112.086 29.0541 112.143 29.0605H114.178C114.33 29.0605 114.415 29.1208 114.43 29.2414L117.864 42.9942V43.0358C117.864 43.1564 117.794 43.2166 117.656 43.2166H115.872C115.814 43.2234 115.756 43.2079 115.708 43.1731C115.661 43.1384 115.629 43.0871 115.619 43.0296ZM111.617 39.08H114.658C114.704 39.08 114.727 39.055 114.727 38.9989L113.172 31.8232C113.157 31.7961 113.141 31.7837 113.126 31.7837C113.112 31.7837 113.095 31.7961 113.08 31.8232L111.548 38.9989C111.548 39.0675 111.571 39.0925 111.627 39.0925L111.617 39.08Z" fill="black"/>
<path d="M125.796 29.2684V30.5427C125.796 30.6778 125.719 30.7505 125.567 30.7505H122.572C122.51 30.7505 122.48 30.7776 122.48 30.8316V43.0213C122.48 43.1564 122.404 43.2291 122.252 43.2291H120.512C120.36 43.2291 120.283 43.1626 120.283 43.0213V30.8254C120.283 30.7713 120.254 30.7443 120.192 30.7443H117.356C117.205 30.7443 117.128 30.6778 117.128 30.5364V29.2684C117.128 29.1333 117.205 29.0605 117.356 29.0605H125.567C125.719 29.0668 125.796 29.1333 125.796 29.2684Z" fill="black"/>
<path d="M127.557 43.015V29.2684C127.557 29.1333 127.634 29.0605 127.785 29.0605H129.523C129.675 29.0605 129.752 29.1271 129.752 29.2684V43.015C129.752 43.1501 129.675 43.2229 129.523 43.2229H127.785C127.634 43.2166 127.557 43.1501 127.557 43.015Z" fill="black"/>
<path d="M138.921 29.0668H140.636C140.79 29.0668 140.865 29.1333 140.865 29.2747V43.0213C140.865 43.1564 140.79 43.2291 140.636 43.2291H138.67C138.616 43.2331 138.563 43.2197 138.517 43.1908C138.472 43.162 138.437 43.1193 138.418 43.0691L134.531 33.8292C134.525 33.8164 134.515 33.8063 134.502 33.8009C134.49 33.7955 134.475 33.7952 134.462 33.8C134.431 33.8 134.416 33.8229 134.416 33.8499L134.439 43.0275C134.439 43.1626 134.362 43.2354 134.211 43.2354H132.473C132.321 43.2354 132.244 43.1689 132.244 43.0275V29.2684C132.244 29.1333 132.321 29.0606 132.473 29.0606H134.416C134.47 29.0567 134.524 29.0705 134.569 29.0997C134.615 29.129 134.649 29.1721 134.668 29.2227L138.578 38.4605C138.595 38.5 138.618 38.5187 138.647 38.5104C138.676 38.5021 138.692 38.4813 138.692 38.4398V29.2684C138.692 29.1333 138.769 29.0668 138.921 29.0668Z" fill="black"/>
<path d="M144.17 42.4059C143.8 42.0913 143.505 41.6969 143.31 41.2522C143.114 40.8075 143.021 40.3243 143.039 39.8387V32.4426C143.021 31.957 143.114 31.4737 143.31 31.0291C143.505 30.5844 143.8 30.19 144.17 29.8754C144.924 29.2296 145.919 28.906 147.155 28.9046C148.391 28.9032 149.39 29.2268 150.15 29.8754C150.525 30.1912 150.823 30.5886 151.021 31.0371C151.22 31.4856 151.313 31.9734 151.294 32.4634V33.3115C151.294 33.4466 151.217 33.5194 151.065 33.5194H149.327C149.175 33.5194 149.099 33.4529 149.099 33.3115V32.428C149.109 32.1801 149.066 31.9327 148.974 31.7026C148.881 31.4724 148.74 31.2648 148.56 31.0935C148.164 30.7669 147.667 30.5883 147.154 30.5883C146.641 30.5883 146.143 30.7669 145.748 31.0935C145.569 31.2652 145.428 31.473 145.336 31.7031C145.243 31.9332 145.201 32.1803 145.211 32.428V39.8678C145.201 40.1155 145.243 40.3627 145.336 40.5928C145.428 40.8229 145.569 41.0306 145.748 41.2023C146.143 41.5289 146.641 41.7076 147.154 41.7076C147.667 41.7076 148.164 41.5289 148.56 41.2023C148.74 41.0311 148.881 40.8234 148.974 40.5933C149.066 40.3631 149.109 40.1158 149.099 39.8678V37.6436C149.099 37.5895 149.067 37.5625 149.007 37.5625H147.269C147.115 37.5625 147.041 37.496 147.041 37.3546V36.1074C147.041 35.9723 147.115 35.8995 147.269 35.8995H151.065C151.217 35.8995 151.294 35.966 151.294 36.1074V39.8491C151.311 40.3358 151.217 40.8201 151.019 41.265C150.821 41.7099 150.524 42.1036 150.15 42.4163C149.387 43.0649 148.388 43.3885 147.155 43.3871C145.922 43.3857 144.927 43.0586 144.17 42.4059Z" fill="black"/>
<path d="M39.8304 60.0564H41.0423C41.061 60.0564 41.0693 60.0377 41.0693 60.0189L40.4644 56.8822C40.4644 56.8447 40.4374 56.8447 40.427 56.8822L39.8034 60.0189C39.8034 60.0377 39.8138 60.0564 39.8304 60.0564ZM41.4185 61.8441L41.2107 60.7902C41.2107 60.7714 41.1837 60.7527 41.1649 60.7527H39.7036C39.687 60.7527 39.6579 60.7714 39.6579 60.7902L39.45 61.8441C39.4474 61.8685 39.4352 61.891 39.4161 61.9066C39.3971 61.9221 39.3726 61.9295 39.3481 61.9272H38.6518C38.6388 61.9285 38.6258 61.9265 38.6138 61.9215C38.6017 61.9165 38.5912 61.9086 38.5829 61.8985C38.5747 61.8885 38.5691 61.8765 38.5666 61.8637C38.5641 61.851 38.5648 61.8378 38.5686 61.8254L39.9364 55.5892C39.939 55.5651 39.9509 55.543 39.9695 55.5275C39.9881 55.512 40.012 55.5043 40.0362 55.506H40.8427C40.8672 55.5037 40.8917 55.5111 40.9107 55.5267C40.9298 55.5423 40.942 55.5647 40.9446 55.5892L42.329 61.8254C42.3329 61.8378 42.3336 61.851 42.3311 61.8637C42.3286 61.8765 42.323 61.8885 42.3147 61.8985C42.3065 61.9086 42.2959 61.9165 42.2839 61.9215C42.2719 61.9265 42.2588 61.9285 42.2459 61.9272H41.5308C41.5188 61.9284 41.5067 61.9271 41.4951 61.9235C41.4836 61.92 41.4729 61.9142 41.4636 61.9064C41.4543 61.8987 41.4467 61.8892 41.4411 61.8785C41.4355 61.8678 41.4321 61.8561 41.431 61.8441H41.4185Z" fill="#211E1F"/>
<path d="M62.7275 61.8357V55.5996C62.7269 55.5872 62.7289 55.5749 62.7334 55.5634C62.7379 55.5518 62.7448 55.5414 62.7537 55.5328C62.7625 55.5241 62.7731 55.5174 62.7847 55.5132C62.7963 55.5089 62.8087 55.5072 62.8211 55.5081H63.5174C63.5296 55.5075 63.5418 55.5095 63.5531 55.5139C63.5645 55.5182 63.5748 55.525 63.5834 55.5336C63.592 55.5422 63.5988 55.5525 63.6032 55.5639C63.6075 55.5752 63.6095 55.5874 63.6089 55.5996V61.131C63.6094 61.1406 63.6136 61.1496 63.6206 61.1562C63.6275 61.1627 63.6367 61.1664 63.6463 61.1664H65.7001C65.7125 61.1658 65.7248 61.1678 65.7363 61.1723C65.7478 61.1768 65.7583 61.1837 65.7669 61.1926C65.7756 61.2014 65.7822 61.212 65.7865 61.2236C65.7907 61.2352 65.7925 61.2476 65.7916 61.2599V61.8378C65.7922 61.85 65.7902 61.8621 65.7858 61.8735C65.7814 61.8849 65.7747 61.8952 65.7661 61.9038C65.7575 61.9124 65.7472 61.9191 65.7358 61.9235C65.7244 61.9279 65.7123 61.9299 65.7001 61.9293H62.8211C62.8087 61.9302 62.7963 61.9284 62.7847 61.9242C62.7731 61.9199 62.7625 61.9133 62.7537 61.9046C62.7448 61.896 62.7379 61.8856 62.7334 61.874C62.7289 61.8625 62.7269 61.8502 62.7275 61.8378V61.8357Z" fill="#211E1F"/>
<path d="M67.7664 60.0564H68.9762C68.9949 60.0564 69.0032 60.0377 69.0032 60.019L68.39 56.8822C68.39 56.8447 68.3629 56.8447 68.3526 56.8822L67.7289 60.019C67.7289 60.0377 67.7289 60.0564 67.758 60.0564H67.7664ZM69.3524 61.8441L69.1445 60.7902C69.1445 60.7715 69.1175 60.7527 69.0988 60.7527H67.6208C67.6042 60.7527 67.5751 60.7715 67.5751 60.7902L67.3672 61.8441C67.3662 61.8563 67.3627 61.8682 67.357 61.879C67.3513 61.8899 67.3434 61.8995 67.3339 61.9072C67.3244 61.915 67.3135 61.9208 67.3017 61.9242C67.2899 61.9276 67.2776 61.9287 67.2654 61.9272H66.569C66.5561 61.9285 66.543 61.9265 66.531 61.9215C66.519 61.9165 66.5084 61.9086 66.5002 61.8986C66.4919 61.8885 66.4863 61.8765 66.4838 61.8638C66.4813 61.851 66.482 61.8378 66.4859 61.8254L67.8537 55.5892C67.8563 55.5651 67.8682 55.543 67.8868 55.5275C67.9054 55.512 67.9293 55.5043 67.9534 55.506H68.7621C68.7862 55.5043 68.8101 55.512 68.8287 55.5275C68.8473 55.543 68.8592 55.5651 68.8618 55.5892L70.2463 61.8254C70.2506 61.8376 70.2517 61.8508 70.2495 61.8636C70.2473 61.8764 70.2419 61.8885 70.2339 61.8987C70.2258 61.9089 70.2152 61.9168 70.2032 61.9218C70.1912 61.9268 70.1781 61.9287 70.1652 61.9272H69.4501C69.4381 61.9284 69.426 61.9271 69.4144 61.9236C69.4029 61.92 69.3922 61.9142 69.3829 61.9064C69.3736 61.8987 69.366 61.8892 69.3604 61.8785C69.3548 61.8678 69.3514 61.8561 69.3503 61.8441H69.3524Z" fill="#211E1F"/>
<path d="M71.1027 61.8357V55.5996C71.1018 55.5873 71.1035 55.575 71.1078 55.5635C71.112 55.552 71.1188 55.5415 71.1274 55.5328C71.1361 55.5241 71.1466 55.5174 71.1581 55.5132C71.1696 55.5089 71.1819 55.5072 71.1942 55.5081H71.901C71.9238 55.5066 71.9464 55.5133 71.9647 55.527C71.983 55.5408 71.9958 55.5606 72.0007 55.5829L73.6325 59.6261C73.6325 59.6635 73.6783 59.6552 73.6783 59.6261V55.5975C73.6776 55.5851 73.6797 55.5728 73.6842 55.5613C73.6887 55.5498 73.6956 55.5393 73.7044 55.5307C73.7133 55.522 73.7239 55.5154 73.7355 55.5111C73.7471 55.5069 73.7595 55.5051 73.7718 55.506H74.4578C74.4701 55.5051 74.4825 55.5069 74.4941 55.5111C74.5057 55.5154 74.5163 55.522 74.5252 55.5307C74.534 55.5393 74.5409 55.5498 74.5454 55.5613C74.5499 55.5728 74.552 55.5851 74.5513 55.5975V61.8337C74.552 61.846 74.5499 61.8584 74.5454 61.8699C74.5409 61.8814 74.534 61.8918 74.5252 61.9005C74.5163 61.9091 74.5057 61.9158 74.4941 61.92C74.4825 61.9243 74.4701 61.926 74.4578 61.9251H73.7427C73.7199 61.9267 73.6972 61.9199 73.6789 61.9062C73.6606 61.8925 73.6478 61.8726 73.6429 61.8503L72.0091 57.8072C72.0091 57.7698 71.9633 57.7698 71.9633 57.8072L71.9737 61.8337C71.9743 61.8458 71.9723 61.858 71.968 61.8694C71.9636 61.8807 71.9569 61.891 71.9482 61.8997C71.9396 61.9083 71.9293 61.915 71.9179 61.9194C71.9066 61.9238 71.8944 61.9257 71.8822 61.9251H71.1942C71.1819 61.9261 71.1696 61.9243 71.1581 61.9201C71.1466 61.9158 71.1361 61.9091 71.1274 61.9004C71.1188 61.8917 71.112 61.8813 71.1078 61.8697C71.1035 61.8582 71.1018 61.8459 71.1027 61.8337V61.8357Z" fill="#211E1F"/>
<path d="M75.5595 60.3952V57.0381C75.5595 56.0652 76.2205 55.4333 77.21 55.4333C78.1995 55.4333 78.873 56.0569 78.873 57.0485V57.433C78.8736 57.4452 78.8716 57.4573 78.8672 57.4687C78.8629 57.4801 78.8561 57.4904 78.8475 57.499C78.8389 57.5076 78.8286 57.5143 78.8172 57.5187C78.8059 57.5231 78.7937 57.5251 78.7815 57.5245H78.0831C78.0709 57.5251 78.0588 57.5231 78.0474 57.5187C78.036 57.5143 78.0257 57.5076 78.0171 57.499C78.0085 57.4904 78.0018 57.4801 77.9974 57.4687C77.993 57.4573 77.991 57.4452 77.9916 57.433V57.0297C77.9916 56.5246 77.6798 56.1983 77.2121 56.1983C76.7444 56.1983 76.4326 56.5288 76.4326 57.0297V60.4035C76.4326 60.9086 76.7444 61.235 77.2121 61.235C77.6798 61.235 77.9916 60.9045 77.9916 60.4035V59.3953C77.9911 59.3856 77.987 59.3763 77.9801 59.3694C77.9732 59.3625 77.964 59.3584 77.9542 59.3579H77.2578C77.2456 59.3588 77.2333 59.3571 77.2218 59.3529C77.2102 59.3486 77.1998 59.3419 77.1911 59.3332C77.1824 59.3245 77.1757 59.3141 77.1714 59.3025C77.1672 59.291 77.1654 59.2787 77.1664 59.2664V58.699C77.1654 58.6867 77.1672 58.6744 77.1714 58.6629C77.1757 58.6514 77.1824 58.6409 77.1911 58.6322C77.1998 58.6235 77.2102 58.6168 77.2218 58.6126C77.2333 58.6083 77.2456 58.6066 77.2578 58.6075H78.7836C78.7959 58.6066 78.8082 58.6083 78.8197 58.6126C78.8312 58.6168 78.8417 58.6235 78.8504 58.6322C78.859 58.6409 78.8658 58.6514 78.87 58.6629C78.8743 58.6744 78.876 58.6867 78.8751 58.699V60.3952C78.8751 61.368 78.2057 62 77.2121 62C76.2185 62 75.5616 61.3764 75.5616 60.3952H75.5595Z" fill="#211E1F"/>
<path d="M79.7876 60.1832V55.5975C79.787 55.5853 79.789 55.5732 79.7934 55.5618C79.7978 55.5505 79.8045 55.5401 79.8131 55.5315C79.8217 55.5229 79.832 55.5162 79.8434 55.5118C79.8548 55.5074 79.8669 55.5055 79.8791 55.506H80.5755C80.5877 55.5051 80.6 55.5068 80.6116 55.5111C80.6231 55.5154 80.6335 55.5221 80.6422 55.5308C80.6509 55.5394 80.6576 55.5499 80.6619 55.5614C80.6662 55.573 80.6679 55.5853 80.6669 55.5975V60.283C80.6669 60.8504 80.9788 61.2454 81.4465 61.2454C81.9142 61.2454 82.2364 60.8504 82.2364 60.283V55.5975C82.2358 55.5853 82.2377 55.5732 82.2421 55.5618C82.2465 55.5505 82.2532 55.5401 82.2618 55.5315C82.2705 55.5229 82.2808 55.5162 82.2922 55.5118C82.3035 55.5074 82.3157 55.5055 82.3278 55.506H83.0242C83.0366 55.5051 83.0489 55.5069 83.0606 55.5111C83.0722 55.5154 83.0828 55.522 83.0916 55.5307C83.1004 55.5393 83.1073 55.5498 83.1119 55.5613C83.1164 55.5728 83.1184 55.5852 83.1178 55.5975V60.1832C83.1178 61.2745 82.4463 62 81.4548 62C80.4632 62 79.7918 61.2745 79.7918 60.1832H79.7876Z" fill="#211E1F"/>
<path d="M85.1154 60.0564H86.3273C86.346 60.0564 86.3543 60.0377 86.3543 60.019L85.7494 56.8822C85.739 56.8448 85.7224 56.8448 85.712 56.8822L85.0884 60.019C85.0884 60.0377 85.0988 60.0564 85.1154 60.0564V60.0564ZM86.7035 61.8441L86.4957 60.7902C86.4957 60.7715 86.4666 60.7528 86.4499 60.7528H84.9782C84.9595 60.7528 84.9325 60.7715 84.9325 60.7902L84.7246 61.8441C84.722 61.8686 84.7098 61.891 84.6907 61.9066C84.6717 61.9221 84.6472 61.9296 84.6227 61.9272H83.9264C83.9134 61.9285 83.9004 61.9265 83.8883 61.9215C83.8763 61.9165 83.8658 61.9086 83.8575 61.8986C83.8493 61.8885 83.8437 61.8765 83.8412 61.8638C83.8387 61.851 83.8394 61.8378 83.8432 61.8254L85.2089 55.5892C85.2121 55.565 85.2244 55.5428 85.2433 55.5273C85.2623 55.5119 85.2864 55.5043 85.3108 55.5061H86.1173C86.1417 55.5043 86.1659 55.5119 86.1848 55.5273C86.2038 55.5428 86.2161 55.565 86.2192 55.5892L87.6036 61.8254C87.6075 61.8378 87.6082 61.851 87.6057 61.8638C87.6032 61.8765 87.5975 61.8885 87.5893 61.8986C87.5811 61.9086 87.5705 61.9165 87.5585 61.9215C87.5465 61.9265 87.5334 61.9285 87.5205 61.9272H86.8054C86.7934 61.9284 86.7813 61.9271 86.7697 61.9236C86.7582 61.92 86.7475 61.9142 86.7382 61.9064C86.7289 61.8987 86.7213 61.8892 86.7157 61.8785C86.7101 61.8678 86.7067 61.8561 86.7056 61.8441H86.7035Z" fill="#211E1F"/>
<path d="M88.1981 60.3952V57.0381C88.1981 56.0652 88.8592 55.4333 89.8486 55.4333C90.8381 55.4333 91.5116 56.0569 91.5116 57.0485V57.433C91.5122 57.4452 91.5102 57.4573 91.5059 57.4687C91.5015 57.4801 91.4948 57.4904 91.4861 57.499C91.4775 57.5076 91.4672 57.5143 91.4558 57.5187C91.4445 57.5231 91.4323 57.5251 91.4201 57.5245H90.7217C90.7095 57.5251 90.6974 57.5231 90.686 57.5187C90.6746 57.5143 90.6643 57.5076 90.6557 57.499C90.6471 57.4904 90.6404 57.4801 90.636 57.4687C90.6316 57.4573 90.6296 57.4452 90.6302 57.433V57.0297C90.6302 56.5246 90.3184 56.1983 89.8507 56.1983C89.383 56.1983 89.0712 56.5288 89.0712 57.0297V60.4035C89.0712 60.9086 89.383 61.235 89.8507 61.235C90.3184 61.235 90.6302 60.9045 90.6302 60.4035V59.3953C90.6297 59.3856 90.6256 59.3763 90.6187 59.3694C90.6118 59.3625 90.6026 59.3584 90.5928 59.3579H89.8964C89.8842 59.3588 89.8719 59.3571 89.8604 59.3529C89.8488 59.3486 89.8384 59.3419 89.8297 59.3332C89.821 59.3245 89.8143 59.3141 89.81 59.3025C89.8058 59.291 89.804 59.2787 89.805 59.2664V58.699C89.804 58.6867 89.8058 58.6744 89.81 58.6629C89.8143 58.6514 89.821 58.6409 89.8297 58.6322C89.8384 58.6235 89.8488 58.6168 89.8604 58.6126C89.8719 58.6083 89.8842 58.6066 89.8964 58.6075H91.4201C91.4324 58.6066 91.4447 58.6083 91.4562 58.6126C91.4677 58.6168 91.4782 58.6235 91.4869 58.6322C91.4956 58.6409 91.5023 58.6514 91.5065 58.6629C91.5108 58.6744 91.5125 58.6867 91.5116 58.699V60.3952C91.5116 61.368 90.8423 62 89.8486 62C88.855 62 88.1981 61.3764 88.1981 60.3952V60.3952Z" fill="#211E1F"/>
<path d="M95.4529 56.269H93.3887C93.3795 56.2695 93.3708 56.2734 93.3643 56.2799C93.3578 56.2864 93.3539 56.2951 93.3534 56.3043V58.2957C93.3539 58.3049 93.3578 58.3136 93.3643 58.3202C93.3708 58.3267 93.3795 58.3306 93.3887 58.3311H94.6547C94.6669 58.3301 94.6792 58.3319 94.6908 58.3361C94.7023 58.3404 94.7127 58.3471 94.7214 58.3558C94.7301 58.3645 94.7368 58.3749 94.7411 58.3865C94.7454 58.398 94.7471 58.4103 94.7462 58.4225V59.0004C94.7471 59.0127 94.7454 59.025 94.7411 59.0365C94.7368 59.048 94.7301 59.0585 94.7214 59.0672C94.7127 59.0758 94.7023 59.0826 94.6908 59.0868C94.6792 59.0911 94.6669 59.0928 94.6547 59.0919H93.3887C93.3792 59.0924 93.3702 59.0966 93.3636 59.1036C93.357 59.1105 93.3534 59.1197 93.3534 59.1293V61.129C93.3539 61.1382 93.3578 61.1469 93.3643 61.1535C93.3708 61.16 93.3795 61.1639 93.3887 61.1644H95.4529C95.4653 61.1637 95.4776 61.1658 95.4891 61.1703C95.5007 61.1748 95.5111 61.1817 95.5197 61.1905C95.5284 61.1994 95.535 61.2099 95.5393 61.2216C95.5435 61.2332 95.5453 61.2456 95.5444 61.2579V61.8358C95.545 61.848 95.543 61.8601 95.5386 61.8715C95.5342 61.8829 95.5275 61.8932 95.5189 61.9018C95.5103 61.9104 95.5 61.9171 95.4886 61.9215C95.4772 61.9259 95.4651 61.9279 95.4529 61.9273H92.5635C92.5513 61.9279 92.5392 61.9259 92.5278 61.9215C92.5164 61.9171 92.5061 61.9104 92.4975 61.9018C92.4889 61.8932 92.4822 61.8829 92.4778 61.8715C92.4734 61.8601 92.4714 61.848 92.472 61.8358V55.5996C92.4714 55.5875 92.4734 55.5753 92.4778 55.5639C92.4822 55.5526 92.4889 55.5422 92.4975 55.5336C92.5061 55.525 92.5164 55.5183 92.5278 55.5139C92.5392 55.5095 92.5513 55.5076 92.5635 55.5082H95.4529C95.4651 55.5076 95.4772 55.5095 95.4886 55.5139C95.5 55.5183 95.5103 55.525 95.5189 55.5336C95.5275 55.5422 95.5342 55.5526 95.5386 55.5639C95.543 55.5753 95.545 55.5875 95.5444 55.5996V56.1775C95.5453 56.1898 95.5435 56.2022 95.5393 56.2139C95.535 56.2255 95.5284 56.236 95.5197 56.2449C95.5111 56.2537 95.5007 56.2606 95.4891 56.2652C95.4776 56.2697 95.4653 56.2717 95.4529 56.2711V56.269Z" fill="#211E1F"/>
<path d="M98.1407 60.3391V57.0838C98.1407 56.0756 98.7996 55.4333 99.7912 55.4333C100.783 55.4333 101.454 56.0756 101.454 57.0838V57.2314C101.455 57.2437 101.453 57.2561 101.448 57.2676C101.444 57.2791 101.437 57.2895 101.428 57.2982C101.419 57.3068 101.409 57.3135 101.397 57.3178C101.385 57.322 101.373 57.3237 101.361 57.3228L100.664 57.3603C100.652 57.3609 100.64 57.3589 100.628 57.3544C100.617 57.3499 100.606 57.3429 100.597 57.3341C100.589 57.3253 100.582 57.3147 100.578 57.3031C100.574 57.2914 100.572 57.2791 100.573 57.2667V57.0297C100.573 56.5246 100.261 56.1983 99.7933 56.1983C99.3256 56.1983 99.0221 56.5288 99.0221 57.0297V60.4035C99.0221 60.9003 99.3256 61.235 99.7933 61.235C99.9007 61.2371 100.007 61.2167 100.106 61.1749C100.205 61.1332 100.295 61.0711 100.368 60.9927C100.442 60.9143 100.498 60.8214 100.533 60.7199C100.568 60.6184 100.582 60.5106 100.573 60.4035V60.1665C100.572 60.1543 100.574 60.142 100.578 60.1305C100.582 60.1189 100.589 60.1085 100.598 60.0998C100.606 60.0911 100.617 60.0844 100.628 60.0801C100.64 60.0759 100.652 60.0741 100.664 60.0751L101.361 60.1104C101.373 60.1095 101.385 60.1112 101.397 60.1155C101.409 60.1197 101.419 60.1264 101.428 60.1351C101.437 60.1437 101.444 60.1541 101.448 60.1657C101.453 60.1772 101.455 60.1895 101.454 60.2019V60.3391C101.454 61.3493 100.793 62.002 99.7912 62.002C98.7892 62.002 98.1407 61.3514 98.1407 60.3391V60.3391Z" fill="#211E1F"/>
<path d="M104.768 60.3578V57.0755C104.768 56.5516 104.448 56.1941 103.961 56.1941C103.475 56.1941 103.173 56.5516 103.173 57.0755V60.3578C103.173 60.8816 103.485 61.2392 103.961 61.2392C104.437 61.2392 104.768 60.8816 104.768 60.3578ZM102.292 60.3224V57.1212C102.292 56.1026 102.961 55.4333 103.955 55.4333C104.948 55.4333 105.643 56.1026 105.643 57.1212V60.3224C105.643 61.3389 104.963 62 103.955 62C102.947 62 102.292 61.3389 102.292 60.3224Z" fill="#211E1F"/>
<path d="M106.638 61.8358V55.5996C106.638 55.5873 106.639 55.575 106.644 55.5635C106.648 55.552 106.655 55.5415 106.663 55.5328C106.672 55.5241 106.682 55.5174 106.694 55.5132C106.705 55.5089 106.718 55.5072 106.73 55.5081H107.426C107.449 55.5065 107.472 55.5131 107.491 55.5268C107.51 55.5406 107.523 55.5604 107.528 55.583L108.464 57.8113C108.466 57.8167 108.469 57.8214 108.474 57.8246C108.479 57.8279 108.485 57.8296 108.491 57.8296C108.496 57.8296 108.502 57.8279 108.507 57.8246C108.512 57.8214 108.515 57.8167 108.518 57.8113L109.472 55.583C109.477 55.5604 109.49 55.5406 109.509 55.5268C109.528 55.5131 109.551 55.5065 109.574 55.5081H110.27C110.282 55.5072 110.295 55.5089 110.306 55.5132C110.318 55.5174 110.328 55.5241 110.337 55.5328C110.345 55.5415 110.352 55.552 110.356 55.5635C110.361 55.575 110.362 55.5873 110.361 55.5996V61.8358C110.362 61.848 110.361 61.8603 110.356 61.8718C110.352 61.8834 110.345 61.8938 110.337 61.9025C110.328 61.9112 110.318 61.9179 110.306 61.9222C110.295 61.9264 110.282 61.9282 110.27 61.9272H109.574C109.561 61.9282 109.549 61.9264 109.538 61.9222C109.526 61.9179 109.516 61.9112 109.507 61.9025C109.498 61.8938 109.492 61.8834 109.487 61.8718C109.483 61.8603 109.481 61.848 109.482 61.8358V57.6783C109.482 57.6409 109.453 57.6409 109.436 57.6679L108.582 59.4847C108.563 59.5305 108.536 59.5492 108.509 59.5492C108.489 59.5494 108.47 59.5433 108.453 59.5317C108.437 59.5201 108.424 59.5037 108.418 59.4847L107.564 57.6596C107.547 57.6326 107.518 57.6326 107.518 57.6596V61.817C107.519 61.8293 107.517 61.8416 107.513 61.8531C107.508 61.8646 107.502 61.8751 107.493 61.8838C107.484 61.8925 107.474 61.8992 107.462 61.9035C107.451 61.9077 107.439 61.9094 107.426 61.9085H106.73C106.718 61.9094 106.705 61.9077 106.694 61.9035C106.682 61.8992 106.672 61.8925 106.663 61.8838C106.655 61.8751 106.648 61.8646 106.644 61.8531C106.639 61.8416 106.638 61.8293 106.638 61.817V61.8358Z" fill="#211E1F"/>
<path d="M113.86 57.3603C113.86 56.6805 113.521 56.2585 113.029 56.2585H112.349C112.339 56.2591 112.33 56.2632 112.324 56.2702C112.317 56.2772 112.313 56.2864 112.313 56.296V58.3955C112.313 58.405 112.317 58.4143 112.324 58.4212C112.33 58.4282 112.339 58.4323 112.349 58.4329H113.029C113.523 58.4329 113.86 58.0296 113.86 57.3603ZM114.741 57.3416C114.741 58.4225 114.118 59.1396 113.209 59.1396H112.347C112.337 59.1401 112.329 59.144 112.322 59.1505C112.316 59.1571 112.312 59.1658 112.311 59.175V61.8357C112.312 61.8481 112.31 61.8604 112.305 61.872C112.301 61.8835 112.294 61.8939 112.285 61.9026C112.276 61.9112 112.266 61.9179 112.254 61.9221C112.243 61.9264 112.23 61.9281 112.218 61.9272H111.521C111.509 61.9278 111.497 61.9258 111.486 61.9215C111.474 61.9171 111.464 61.9104 111.455 61.9017C111.447 61.8931 111.44 61.8828 111.436 61.8714C111.431 61.8601 111.429 61.8479 111.43 61.8357V55.5892C111.429 55.577 111.431 55.5649 111.436 55.5535C111.44 55.5421 111.447 55.5318 111.455 55.5232C111.464 55.5146 111.474 55.5079 111.486 55.5035C111.497 55.4991 111.509 55.4971 111.521 55.4977H113.164C114.107 55.4977 114.741 56.2398 114.741 57.3416Z" fill="#211E1F"/>
<path d="M116.3 60.0564H117.51C117.529 60.0564 117.539 60.0377 117.539 60.0189L116.932 56.8822C116.932 56.8447 116.905 56.8447 116.897 56.8822L116.273 60.0189C116.273 60.0377 116.273 60.0564 116.3 60.0564V60.0564ZM117.886 61.8441L117.679 60.7902C117.679 60.7714 117.652 60.7527 117.633 60.7527H116.157C116.138 60.7527 116.111 60.7714 116.111 60.7902L115.903 61.8441C115.902 61.8561 115.899 61.8678 115.893 61.8785C115.888 61.8892 115.88 61.8987 115.871 61.9064C115.862 61.9142 115.851 61.92 115.839 61.9235C115.828 61.9271 115.816 61.9284 115.804 61.9272H115.105C115.092 61.9286 115.079 61.9268 115.067 61.9218C115.055 61.9168 115.045 61.9088 115.037 61.8987C115.028 61.8885 115.023 61.8764 115.021 61.8636C115.019 61.8508 115.02 61.8376 115.024 61.8254L116.39 55.5892C116.392 55.5647 116.405 55.5423 116.424 55.5267C116.443 55.5111 116.467 55.5037 116.492 55.506H117.298C117.322 55.5043 117.346 55.512 117.365 55.5275C117.383 55.543 117.395 55.5651 117.398 55.5892L118.785 61.8254C118.788 61.8378 118.789 61.851 118.787 61.8637C118.784 61.8765 118.778 61.8885 118.77 61.8985C118.762 61.9086 118.751 61.9165 118.739 61.9215C118.727 61.9265 118.714 61.9285 118.701 61.9272H117.988C117.964 61.9295 117.939 61.9221 117.92 61.9066C117.901 61.891 117.889 61.8685 117.886 61.8441V61.8441Z" fill="#211E1F"/>
<path d="M119.639 61.8357V55.5996C119.637 55.5865 119.639 55.5733 119.643 55.5608C119.647 55.5484 119.654 55.537 119.663 55.5276C119.672 55.5183 119.683 55.5111 119.696 55.5066C119.708 55.5021 119.721 55.5005 119.734 55.5019H120.441C120.464 55.5003 120.487 55.507 120.505 55.5208C120.523 55.5345 120.536 55.5543 120.541 55.5767L122.175 59.6198C122.175 59.6572 122.221 59.6489 122.221 59.6198V55.5975C122.22 55.5852 122.221 55.5729 122.226 55.5614C122.23 55.5499 122.237 55.5394 122.245 55.5307C122.254 55.5221 122.265 55.5153 122.276 55.5111C122.288 55.5068 122.3 55.5051 122.312 55.506H123C123.012 55.5054 123.024 55.5074 123.036 55.5118C123.047 55.5162 123.058 55.5229 123.066 55.5315C123.075 55.5401 123.081 55.5504 123.086 55.5618C123.09 55.5732 123.092 55.5853 123.092 55.5975V61.8337C123.092 61.8458 123.09 61.858 123.086 61.8694C123.081 61.8807 123.075 61.891 123.066 61.8997C123.058 61.9083 123.047 61.915 123.036 61.9194C123.024 61.9238 123.012 61.9257 123 61.9251H122.285C122.262 61.9267 122.239 61.9201 122.22 61.9064C122.202 61.8927 122.189 61.8728 122.183 61.8503L120.551 57.8072C120.551 57.7698 120.506 57.7698 120.506 57.8072V61.8337C120.507 61.8459 120.505 61.8582 120.501 61.8697C120.496 61.8813 120.49 61.8917 120.481 61.9004C120.472 61.9091 120.462 61.9158 120.45 61.9201C120.439 61.9243 120.426 61.9261 120.414 61.9251H119.734C119.722 61.9257 119.71 61.9238 119.699 61.9194C119.687 61.915 119.677 61.9083 119.668 61.8997C119.66 61.891 119.653 61.8807 119.649 61.8694C119.644 61.858 119.642 61.8458 119.643 61.8337L119.639 61.8357Z" fill="#211E1F"/>
<path d="M125.243 61.8254V59.202C125.243 59.202 125.243 59.1667 125.243 59.1563L123.969 55.6079C123.95 55.5435 123.969 55.506 124.042 55.506H124.775C124.799 55.5063 124.822 55.5136 124.842 55.5269C124.861 55.5402 124.877 55.559 124.886 55.5809L125.665 58.1107C125.667 58.1168 125.67 58.1223 125.675 58.1261C125.681 58.13 125.687 58.1321 125.693 58.1321C125.699 58.1321 125.706 58.13 125.711 58.1261C125.716 58.1223 125.719 58.1168 125.721 58.1107L126.501 55.5809C126.508 55.5606 126.52 55.5425 126.537 55.5286C126.553 55.5147 126.573 55.5055 126.594 55.5019H127.328C127.39 55.5019 127.419 55.5393 127.401 55.6037L126.127 59.1521C126.127 59.1625 126.127 59.1895 126.127 59.1979V61.8212C126.127 61.8335 126.126 61.8458 126.121 61.8573C126.117 61.8688 126.11 61.8793 126.102 61.888C126.093 61.8966 126.083 61.9034 126.071 61.9076C126.06 61.9119 126.047 61.9136 126.035 61.9127H125.339C125.326 61.9136 125.314 61.9119 125.303 61.9076C125.291 61.9034 125.281 61.8966 125.272 61.888C125.263 61.8793 125.257 61.8688 125.252 61.8573C125.248 61.8458 125.246 61.8335 125.247 61.8212L125.243 61.8254Z" fill="#211E1F"/>
<path d="M48.4633 60.0751C48.4633 58.5078 47.6007 58.5348 47.3076 58.5618L46.8128 58.5888V61.0584C46.8128 61.3182 47.1995 61.4741 47.451 61.5157C47.979 61.5157 48.4633 61.1394 48.4633 60.0751ZM47.2161 58.2396C47.7607 58.2396 48.2076 57.7636 48.2076 57.0298C48.2076 56.1089 47.7441 55.7826 47.2161 55.7826H46.8128V58.2458L47.2161 58.2396ZM44.468 61.7838C44.9212 61.499 44.9877 61.3993 44.9877 60.7632V56.5413C44.9877 55.8969 44.9212 55.8075 44.468 55.5206V55.4479H47.9873C49.5858 55.4479 50.0473 56.3251 50.0473 56.903C50.0473 57.7615 49.1348 58.1211 48.3635 58.2105V58.2271C49.2761 58.3352 50.4069 58.8009 50.4069 60.019C50.4069 61.2371 49.2013 61.8545 47.6776 61.8545H44.468V61.7817V61.7838Z" fill="#E82429"/>
<path d="M50.8518 61.7838C51.2842 61.499 51.3486 61.3993 51.3486 60.7632V56.5413C51.3486 55.8969 51.2842 55.8075 50.8518 55.5206V55.4479H53.762V55.5206C53.3359 55.8075 53.2652 55.8969 53.2652 56.5413V60.7569C53.2652 61.393 53.3359 61.4928 53.762 61.7776V61.8503H50.8518V61.7776V61.7838Z" fill="#E82429"/>
<path d="M54.0239 58.7218C54.0239 56.3043 55.5851 55.3294 57.5702 55.3294C58.417 55.3175 59.2575 55.4758 60.0418 55.795V57.7116H59.9109C59.2644 56.614 58.2666 55.6516 57.6243 55.6516C56.8884 55.6516 56.0154 56.3147 56.0154 58.6678C56.0154 61.0209 56.8635 61.632 57.6056 61.632C57.8592 61.632 58.2188 61.5156 58.2188 60.8712V59.7882C58.2188 59.1168 57.9402 58.6595 57.2896 58.6324V58.516H60.0377V61.8753H59.9566C59.6867 61.8459 59.4153 61.832 59.1438 61.8337C58.4724 61.8337 58.0109 61.9813 57.0152 61.9813C55.9592 61.9813 54.0198 61.4263 54.0198 58.7218H54.0239Z" fill="#E82429"/>
</g>
<defs>
<clipPath id="clip0_1938_6398">
<rect width="152" height="62" fill="white"/>
</clipPath>
</defs>
</svg>
