<svg width="48" height="48" viewBox="0 0 48 48" fill="none" xmlns="http://www.w3.org/2000/svg">
    <g id="Featured icon">
        <rect width="48" height="48" rx="24" fill="#FEE7E5"/>
        <g id="error">
            <mask id="mask0_8033_32721" style="mask-type:alpha" maskUnits="userSpaceOnUse" x="12" y="12" width="24" height="24">
                <rect id="Bounding box" x="12" y="12" width="24" height="24" fill="#D9D9D9"/>
            </mask>
            <g mask="url(#mask0_8033_32721)">
                <path id="error_2" d="M24 29C24.2833 29 24.521 28.904 24.713 28.712C24.9043 28.5207 25 28.2833 25 28C25 27.7167 24.9043 27.479 24.713 27.287C24.521 27.0957 24.2833 27 24 27C23.7167 27 23.4793 27.0957 23.288 27.287C23.096 27.479 23 27.7167 23 28C23 28.2833 23.096 28.5207 23.288 28.712C23.4793 28.904 23.7167 29 24 29ZM23 25H25V19H23V25ZM24 34C22.6167 34 21.3167 33.7373 20.1 33.212C18.8833 32.6873 17.825 31.975 16.925 31.075C16.025 30.175 15.3127 29.1167 14.788 27.9C14.2627 26.6833 14 25.3833 14 24C14 22.6167 14.2627 21.3167 14.788 20.1C15.3127 18.8833 16.025 17.825 16.925 16.925C17.825 16.025 18.8833 15.3123 20.1 14.787C21.3167 14.2623 22.6167 14 24 14C25.3833 14 26.6833 14.2623 27.9 14.787C29.1167 15.3123 30.175 16.025 31.075 16.925C31.975 17.825 32.6873 18.8833 33.212 20.1C33.7373 21.3167 34 22.6167 34 24C34 25.3833 33.7373 26.6833 33.212 27.9C32.6873 29.1167 31.975 30.175 31.075 31.075C30.175 31.975 29.1167 32.6873 27.9 33.212C26.6833 33.7373 25.3833 34 24 34ZM24 32C26.2333 32 28.125 31.225 29.675 29.675C31.225 28.125 32 26.2333 32 24C32 21.7667 31.225 19.875 29.675 18.325C28.125 16.775 26.2333 16 24 16C21.7667 16 19.875 16.775 18.325 18.325C16.775 19.875 16 21.7667 16 24C16 26.2333 16.775 28.125 18.325 29.675C19.875 31.225 21.7667 32 24 32Z" fill="#D92D20"/>
            </g>
        </g>
    </g>
</svg>
